<!-- Generator: Adobe Illustrator 24.1.2, SVG Export Plug-In  -->
<svg version="1.1" xmlns="http://www.w3.org/2000/svg" xmlns:xlink="http://www.w3.org/1999/xlink" x="0px" y="0px" width="1600px"
	 height="900px" viewBox="0 0 1600 900" style="overflow:visible;enable-background:new 0 0 1600 900;" xml:space="preserve">
<style type="text/css">
	.st0{fill:#FFEB88;}
	.st1{fill:#FFDE57;}
</style>
<defs>
</defs>
<g>
	<g id="Rectángulo_74_1_">
		<rect class="st0" width="1600" height="900"/>
	</g>
	<path id="Sustracción_1_1_" class="st1" d="M1598.75,897.58h-12.92c4.34-4.14,8.69-8.47,12.92-12.88V897.58L1598.75,897.58z
		 M684.61,897.58H155.29c81.56-65.77,170.1-122.38,264.03-168.79c26.73-13.11,54.03-25.36,81.15-36.42
		c28.64-11.67,57.86-22.34,86.87-31.69c30.5-9.84,61.59-18.5,92.4-25.75c32.28-7.6,65.18-13.85,97.77-18.6
		c211.78-30.84,391.53-103.8,534.25-216.84c129.66-102.7,226.22-235.9,286.99-395.91v512.75h-11.25l-0.02,0.01
		c-1.9,1.36-19.38,13.84-47,32.02c-26.66,17.54-68.33,44-115.47,70.47c-52.98,29.75-101.93,53.47-145.47,70.47
		c-23.45,9.32-47.49,17.08-71.97,23.22c-21.27,5.47-43.1,8.43-65.06,8.8C1036.78,721.33,827.68,812.14,684.61,897.58L684.61,897.58
		L684.61,897.58z M1.25,679.27L1.25,679.27v-170.9C17.42,494,34.33,480.49,51.9,467.88c21.43-15.42,43.94-29.29,67.36-41.48
		c58.21-30.1,116.06-45.36,171.94-45.36c18.89,0,37.74,1.76,56.3,5.28c20.27,3.88,40.86,5.84,61.5,5.87
		c44.65-0.04,88.8-9.39,129.64-27.44c40.72-18.08,77.86-43.33,109.65-74.55c65.45-63.49,111.33-150.1,129.19-243.87
		c2.91-15.61,6.68-31.05,11.29-46.25h242.2c-19.77,41.75-42.67,81.95-68.5,120.25c-14.02,20.77-29.1,41.21-44.81,60.75
		c-16.56,20.61-34.29,40.81-52.7,60.02c-19.32,20.17-39.92,39.83-61.23,58.41c-22.29,19.44-45.97,38.25-70.4,55.93
		c-25.48,18.43-52.47,36.11-80.21,52.56c-28.88,17.12-59.38,33.39-90.66,48.33c-127.73,61.04-244.08,111.89-345.79,151.14
		c-81.61,31.5-154.1,55.64-215.46,71.79L1.25,679.27z M1.25,203.46V0.08h507.78c-56.76,33.07-109.32,59.62-156.23,78.9
		c-25.7,10.76-52.09,19.78-79,26.98c-23.24,6.41-47.2,9.89-71.3,10.37C107.5,116.33,40.63,163.71,1.25,203.46L1.25,203.46z"/>
</g>
</svg>
