<!-- Generator: Adobe Illustrator 24.1.2, SVG Export Plug-In  -->
<svg version="1.1" xmlns="http://www.w3.org/2000/svg" xmlns:xlink="http://www.w3.org/1999/xlink" x="0px" y="0px" width="91.35px"
	 height="71.94px" viewBox="0 0 91.35 71.94" style="overflow:visible;enable-background:new 0 0 91.35 71.94;"
	 xml:space="preserve">
<style type="text/css">
	.st0{fill:#FFFFFF;}
</style>
<defs>
</defs>
<path id="Trazado_31_1_" class="st0" d="M2,40.82l9.7,9.7l9.71,9.71l9.7,9.7c2.68,2.66,7,2.67,9.69,0.02l0.02-0.02l9.7-9.7
	c2.67-2.67,7.04-7.04,9.71-9.71l9.7-9.7c0.9-0.9,1.99-1.99,3.14-3.14l5.76-5.76l0.81-0.81l9.7-9.7c2.67-2.69,2.67-7.02,0-9.71
	L79.64,2c-2.69-2.67-7.02-2.67-9.71,0l-9.7,9.7l-0.65,0.65l-5.99,5.99c-0.45,0.45-0.88,0.88-1.29,1.29l-1.78,1.78l-9.7,9.7
	l-0.01,0.01c-2.69,2.66-7.02,2.65-9.7-0.01l-9.7-9.7c-2.69-2.67-7.02-2.67-9.71,0l-3.43,3.43L2,31.11C-0.67,33.8-0.67,38.14,2,40.82
	z"/>
</svg>
