<!-- Generator: Adobe Illustrator 24.1.2, SVG Export Plug-In  -->
<svg version="1.1" xmlns="http://www.w3.org/2000/svg" xmlns:xlink="http://www.w3.org/1999/xlink" x="0px" y="0px"
	 width="392.88px" height="296.99px" viewBox="0 0 392.88 296.99"
	 style="overflow:visible;enable-background:new 0 0 392.88 296.99;" xml:space="preserve">
<style type="text/css">
	.st0{fill:#FFFFFF;}
	.st1{fill:#EAEAEA;}
	.st2{fill:#585857;}
	.st3{fill:#222221;}
	.st4{fill:#CA4F5F;}
</style>
<defs>
</defs>
<g>
	<path class="st0" d="M370.13,23.86c0.94-0.53,1.71-1.37,2.14-2.41c0.79-1.89,0.35-4.06-1.1-5.5
		C357.81,2.79,340.72-2.37,321.76,1.01c-24.2,4.32-47.84,22.4-59.61,45.36c-16.28-3.42-33.39-3.39-51.05,0.09
		c0.64-0.84,1.02-1.88,1.03-3.01c0.48-1.55,0.18-3.25-0.83-4.54c-1.06-1.36-2.74-2.08-4.46-1.91c-3.88,0.4-6.66,0.72-8.52,0.98
		c-1.08,0.15-2.93,0.42-4.4,1.33c-13.81,2.12-29.42,7.98-46.53,17.46c-3.09-12.24-10.36-22.16-21.32-28.96
		c-16.08-9.97-39.16-12.49-60.89-7.05c0.9-1.23,2.01-2.3,3.28-3.09c1.99-1.24,2.85-3.69,2.08-5.89c-0.77-2.21-2.97-3.58-5.3-3.32
		c-29.54,3.42-44.37,30.29-51.09,48.4c-0.37-0.16-0.76-0.27-1.17-0.34c-1.89-0.3-3.8,0.51-4.89,2.09
		c-9.67,13.94-10.71,30.85-2.93,47.62c10.41,22.43,34.91,41.33,58.73,46c-6.34,25.88-1.87,48.16,12.75,64.19
		c-0.13,0.06-0.25,0.11-0.38,0.17c-1.27,0.59-2.23,1.69-2.65,3.02c-0.42,1.33-0.26,2.78,0.43,4c20.1,34.95,55.75,67.85,100.62,67.84
		c4.27,0,8.63-0.3,13.06-0.92c-0.28,0.92-0.3,1.92-0.01,2.89c0.64,2.13,2.6,3.57,4.79,3.57c0.17,0,0.34-0.01,0.5-0.03
		c4-0.4,7.93-0.79,11.8-1.17c38.99-3.82,72.65-7.12,98.71-21.33c25.04-13.66,41.43-36.01,51.98-71.46c1.21,0.96,2.83,1.32,4.35,0.92
		c1.84-0.47,3.25-1.95,3.64-3.8c5.09-23.91-1.82-41.88-9.13-60.91c-0.48-1.24-0.96-2.48-1.43-3.73c15.3-12.25,29.25-34,31.51-53.62
		c1.31,0.85,2.95,1.04,4.43,0.5c1.67-0.61,2.89-2.06,3.21-3.81C395.8,57.98,386.39,36.47,370.13,23.86z"/>
	<g>
		<g>
			<path class="st1" d="M265.53,50.84c17.27-36.72,69.22-63.76,102.15-31.33c-5.97-0.1-11.95-0.21-17.92-0.31
				c24.63,6.38,41.94,33.43,37.41,58.47c-2.6-2.16-5.2-4.33-7.8-6.49c3.5,22.46-16.24,53.04-35.73,64.74"/>
			<path class="st2" d="M328.44,99.78c13.59-5.25,19.93-23.93,17.2-37.73c-6.71-22.71-47.1-24.62-54.61-1.12"/>
			<path class="st1" d="M144.01,67.65c-2.44-43.11-51.57-52.01-86.22-39.41c-0.12-5.88,3.05-11.71,8.04-14.82
				c-28.52,3.3-44.48,31.93-50.77,57.45c-0.95-3.14-1.89-6.28-2.84-9.41c-25.87,37.3,23.1,86.05,61.64,86.86"/>
			<path class="st2" d="M130.47,68.73c-28.94-30.97-76.53-13.64-66.98,24.84c2.52,10.15,14.09,26.4,25.89,25.36"/>
		</g>
		<path class="st1" d="M207.36,41.96c-1.6,4.37-3.9,8.48-6.78,12.13c64.12-17.94,121.71,10.76,145.01,75.96
			c8.11,22.7,18.75,42.17,13.02,69.03c-3.44-3.96-0.41-9.07-3.85-13.02c-22.05,96.61-76.94,97.34-162.25,105.93
			c3.53-1.84,6.22-5.23,7.21-9.09c-51.8,14.6-96.45-18.5-121.33-61.78c2.95-1.38,6.34-1.78,9.53-1.12
			c-42.87-32.98-14.97-100.62,19.83-130.41c25.95-20.53,66.55-47.2,99.37-46.18C207.14,43.41,183.57,44.39,207.36,41.96z"/>
		<path class="st3" d="M213.18,194.01c19.01,15.36,55.18-29.25,21.36-31.83C234.55,162.18,169.33,158.59,213.18,194.01z"/>
		<g>
			<path class="st4" d="M223.88,245.66c-0.56-13.64-20.36-5.62-28.94,2.13c5.81,6.64,11.86,13.27,20.36,15.35
				c15.63,3.26,27.54-5.38,38.31-15.95C245.81,236.2,230.48,239.05,223.88,245.66z"/>
			<path class="st3" d="M274.51,225.45c-7.61,7.79-13.95,16.55-21.75,24.39c-3.86,3.94-8.15,7.58-13.03,10.56
				c-4.88,2.94-10.58,4.91-16.46,5.21c-2.94,0.12-5.85-0.16-8.75-0.77c-2.99-0.77-5.69-2.01-8.15-3.62
				c-4.89-3.26-8.69-7.48-12.13-11.71c-3.51-4.19-6.69-8.53-10.59-12.07c-1.93-1.78-4.05-3.36-6.44-4.45
				c-2.38-1.1-5.02-1.74-7.75-1.82c2.69-0.44,5.54-0.28,8.24,0.53c2.72,0.77,5.2,2.23,7.49,3.85c4.55,3.33,8.25,7.49,11.96,11.4
				c3.73,3.88,7.41,7.73,11.74,10.3c2.13,1.29,4.43,2.32,6.72,2.87c2.41,0.47,4.96,0.67,7.44,0.54c4.99-0.17,9.88-1.79,14.36-4.31
				c4.54-2.46,8.67-5.8,12.71-9.3C258.14,239.99,265.52,231.72,274.51,225.45z"/>
			<g>
				<path class="st3" d="M178.16,231.94c-13.53,0-27.16-3.62-37.08-9l1.18-2.18c16.1,8.73,42.24,12.69,61.06,3.36
					c10.3-5.1,16.95-13.66,19.36-24.83c0.12-0.83,0.28-1.67,0.47-2.52l2.44,0.45c-0.13,0.86-0.29,1.72-0.47,2.55
					c-2.4,16.07,7.82,22.38,17.08,24.83c22.93,6.07,62.19-6.64,68.44-26.55l2.37,0.74c-6.77,21.58-47.27,34.6-71.45,28.2
					c-11.27-2.98-17.78-9.64-19.04-19.16c-3.57,8.04-9.7,14.34-18.09,18.5C196.51,230.27,187.35,231.94,178.16,231.94z"/>
			</g>
			<path class="st3" d="M148.62,211.62c-0.78,2.48-1.67,4.92-2.97,7.22c-1.26,2.31-2.89,4.47-4.92,6.29
				c-2.04,1.77-4.53,3.2-7.24,3.68c-2.69,0.53-5.44,0.21-7.88-0.7c2.63-0.11,5.09-0.38,7.37-1.17c2.28-0.78,4.32-2.08,6.11-3.68
				c1.83-1.58,3.41-3.48,4.93-5.47C145.56,215.81,146.93,213.63,148.62,211.62z"/>
			<path class="st3" d="M304.68,187.25c1.07,2.18,2.25,4.17,3.61,6c1.38,1.82,2.9,3.5,4.62,4.96c1.69,1.5,3.56,2.77,5.55,3.89
				c2,1.1,4.14,1.99,6.44,2.76c-2.42,0.27-4.91-0.14-7.24-0.99c-2.34-0.84-4.49-2.16-6.38-3.78c-1.86-1.65-3.47-3.6-4.62-5.8
				C305.5,192.1,304.75,189.68,304.68,187.25z"/>
		</g>
		<g>
			<ellipse class="st0" cx="163.77" cy="147.15" rx="28.73" ry="31.12"/>
			<ellipse class="st3" cx="168.05" cy="155.67" rx="17.1" ry="18.52"/>
			<g>
				<path class="st3" d="M163.77,179.38c-16.46,0-29.85-14.46-29.85-32.24s13.39-32.24,29.85-32.24c16.46,0,29.85,14.46,29.85,32.24
					S180.23,179.38,163.77,179.38z M163.77,117.14c-15.23,0-27.62,13.46-27.62,30.01s12.39,30.01,27.62,30.01
					s27.62-13.46,27.62-30.01S179,117.14,163.77,117.14z"/>
			</g>
		</g>
		<g>
			<ellipse class="st0" cx="276.08" cy="145.52" rx="28.73" ry="31.12"/>
			<ellipse class="st3" cx="280.36" cy="154.04" rx="17.1" ry="18.52"/>
			<g>
				<path class="st3" d="M276.08,177.75c-16.46,0-29.85-14.46-29.85-32.24c0-17.78,13.39-32.24,29.85-32.24
					c16.46,0,29.85,14.46,29.85,32.24C305.93,163.29,292.54,177.75,276.08,177.75z M276.08,115.51c-15.23,0-27.62,13.46-27.62,30.01
					s12.39,30.01,27.62,30.01c15.23,0,27.62-13.46,27.62-30.01S291.31,115.51,276.08,115.51z"/>
			</g>
		</g>
	</g>
</g>
</svg>
