<!-- Generator: Adobe Illustrator 24.1.2, SVG Export Plug-In  -->
<svg version="1.1" xmlns="http://www.w3.org/2000/svg" xmlns:xlink="http://www.w3.org/1999/xlink" x="0px" y="0px" width="397px"
	 height="324.16px" viewBox="0 0 397 324.16" style="overflow:visible;enable-background:new 0 0 397 324.16;" xml:space="preserve"
	>
<style type="text/css">
	.st0{fill:#FFFFFF;}
	.st1{fill:#A2B0BC;}
	.st2{fill:#CEDBF0;}
	.st3{fill:#A9B9C9;}
	.st4{fill:#3E3D4D;}
</style>
<defs>
</defs>
<g>
	<path class="st0" d="M397,144.76c-0.69-18.75-7.87-36.84-20.21-50.96c-14.11-16.7-43.73-19.93-60.69-18.09
		c2.08-1.27,4.35-2.29,6.75-3.01c2.21-0.66,3.68-2.75,3.56-5.06c-0.13-2.3-1.81-4.23-4.08-4.65c-14.6-2.71-29.01,1.46-39.65,10.48
		l0.22-1.13c0.42-2.2-0.66-4.41-2.66-5.41c-2-1.01-4.42-0.56-5.93,1.09c-11.35,12.38-19.02,27.31-22.46,43.6
		c-5.78-4.05-11.17-7.01-16.13-8.87c2-1.03,4.08-1.9,6.21-2.58c1.95-0.62,3.32-2.38,3.46-4.42s-0.98-3.97-2.83-4.85
		c-3.99-1.91-8.28-2.77-12.52-2.63c1.29-1.05,2.66-2,4.1-2.85c1.85-1.09,2.79-3.24,2.35-5.34c-0.44-2.1-2.18-3.68-4.31-3.93
		c-8-0.94-15.89,1.03-22.36,5.34c-0.43-3.29-1.18-6.55-2.24-9.74c-0.01-0.03-0.02-0.07-0.03-0.1c-2.88-8.13-10.47-13.77-19.04-14.24
		c-0.4-0.04-0.81-0.05-1.24-0.02c-2.67,0.19-4.71,2.45-4.63,5.12c0.06,2.26,1.61,4.13,3.7,4.69c2.63,3.52,5.39,17.83,5.14,23.57
		c-1.73,0-4.28-0.14-6.62-0.27c-5.47-0.3-13.1-0.72-21.9-0.37c3.99-10.7,7.1-24.55,4.92-39.13c-2.69-17.92-12.6-32.71-29.46-43.96
		c-1.87-1.25-4.33-1.1-6.03,0.37c-1.32,1.13-1.93,2.83-1.7,4.49c-8.61-7.4-19.08-9.06-33.49-11.36L94.3,0.06
		c-2.54-0.41-4.98,1.18-5.63,3.66c-0.65,2.49,0.69,5.07,3.1,5.96c2.13,0.79,4.02,1.96,5.62,3.4c-11.33-6.4-25.1-7.87-37.98-3.41
		c-20.3,6.72-38,20.24-49.84,38.04c-1.37,2.06-1.03,4.8,0.8,6.46c0.42,0.38,0.89,0.68,1.38,0.89c-4.69,5.11-8.19,11.39-9.95,18.47
		c-0.01,0.04-0.02,0.08-0.03,0.12c-3.67,16.35-1.58,33.6,5.89,48.6c2.05,5.02,4.65,9.83,7.73,14.29
		c7.97,13.05,20.39,22.92,34.77,27.85c-12.55,18.41-18.93,33.12-18.96,43.8c-0.01,2.56,1.92,4.71,4.46,4.98
		c1.08,0.12,2.13-0.12,3.02-0.63c-1.34,6.29-1.33,12.92,0.19,19.48c0.52,2.27,2.55,3.88,4.87,3.88c0.03,0,0.06,0,0.09,0
		c1.43-0.03,2.74-0.66,3.64-1.67c0.51,11.45,4.32,21.89,11.46,31.52c9.73,13.13,25.24,24.53,50.28,36.96
		c0.09,0.04,0.18,0.08,0.27,0.12c32.98,14,69.06,21.3,104.93,21.3c3.26,0,6.52-0.06,9.77-0.18c0.19-0.01,0.39-0.03,0.58-0.05
		c31.42-4.87,53.27-15.9,64.92-32.8c4.49-6.51,6.8-12.97,7.92-18.6c0.42,1.54,0.7,3.13,0.81,4.73c0.15,2.08,1.58,3.86,3.58,4.44
		c2.01,0.58,4.17-0.14,5.41-1.82c6.22-8.36,8.22-18.56,6.2-28.05c0.55,0.71,1.05,1.45,1.52,2.23c1.13,1.88,3.37,2.8,5.49,2.27
		c2.13-0.53,3.66-2.39,3.79-4.58c0.63-11.45-0.06-22.94-2.07-34.24c14.71-0.25,30.68-5.89,42.32-16.11c0.27,0.95,0.82,1.83,1.62,2.5
		c1.86,1.54,4.55,1.53,6.41-0.02c20.03-16.82,24-33.67,24.33-58.87C397,144.93,397,144.84,397,144.76z"/>
	<g id="Grupo_697_2_" transform="translate(3.083)">
		<g id="Grupo_694_2_">
			<path id="Trazado_858_2_" class="st1" d="M132.55,11.18c39.28,26.2,30.84,68.35,12.96,96.54c-8.43,11.79-18.73,22.11-30.49,30.57
				c-13.35,13.25-30.59,21.86-49.2,24.58c-20.27-0.81-38.78-11.71-49.32-29.04c-2.95-4.26-5.42-8.83-7.36-13.62
				C2.09,106.16,0.12,90.1,3.57,74.76c4.57-18.3,21.92-30.44,40.67-28.45c-11.08-5.11-24.1-3.49-33.59,4.18
				C21.93,33.53,38.57,20.83,57.9,14.43c17.07-5.91,36.01-0.11,46.82,14.36c1.38-10.3-4.56-20.18-14.3-23.79
				c25.55,4.11,36.43,4.82,47.41,31.88C138.1,28.02,136.29,19.22,132.55,11.18z"/>
		</g>
		<path id="Trazado_860_2_" class="st2" d="M127.89,82.65c0.91-11.95-3.58-23.69-12.24-31.98c-0.38,5.54,2.88,14.44-2.42,16.13
			c-3.24-9.73-2.97-17.38-19.61-22.75c-2.5-0.83-5.85-1.9-7.26,0.35c5.32,2.51,8.84,7.72,9.19,13.59
			c-18.2-8.55-39.89-3.61-52.6,11.97c7.52-4.18,16.26-5.64,24.73-4.12c-8.28,0.95-16.07,4.39-22.34,9.88
			c-9.27,10.24-7.94,19.65-12.91,32.56c4.92-5.77,11.41-9.99,18.67-12.16c-7.25,6.11-11.38,15.15-11.27,24.63
			c2.38,24.75,34.25,21.79,47.91,15.95C106.53,128.65,122.67,102.46,127.89,82.65z"/>
		<g id="Grupo_695_2_" transform="translate(19.901 4.947)">
			<path id="Trazado_861_2_" class="st1" d="M255,66.44l-4.62,23.92c7.18-19.64,27.49-31.22,48.05-27.4
				c-9.84,2.95-17.78,10.24-21.56,19.79c4.83-10.95,55.6-11.46,73.15,9.37c11.65,13.31,18.36,30.22,19.01,47.89
				c-0.31,24.24-3.93,39.47-22.54,55.1c4.28-7.63,6.33-16.31,5.91-25.05c-5.91,25.05-34.55,39.17-58.07,37.37
				c-23.52-1.8-45.22-23.36-55.75-44.39c-7.22-14.08-9.46-30.19-6.34-45.7C234.13,98.35,242.11,80.49,255,66.44z"/>
		</g>
		<path id="Trazado_863_2_" class="st2" d="M319.48,117.13c-5.95-0.68-11.82,1.77-15.52,6.49c7.34-4.31,16.41,1.33,22.7,7.05
			c3.67,2.68,6.25,6.59,7.25,11.02c-5.22-2.15-11.19-1.33-15.65,2.13c10.25-1.62,19.87,5.37,21.49,15.61
			c0.55,3.46,0.12,7.01-1.24,10.23c-3.1-3.28-8.08-3.93-11.91-1.55c4.91-1.25,8.55,3.89,8.92,9.78c-0.02,5.13-2.72,9.89-7.13,12.52
			c-4.39,2.55-9.21,4.25-14.23,5.01c-3.42,0.82-6.91,1.27-10.42,1.35c-22.37-0.16-42.75-31.9-40.98-52.82
			c1.29-11.88,8.08-22.46,18.33-28.59c6.34-3.03,13.31-4.5,20.32-4.27C308.49,111.27,317.33,111.16,319.48,117.13z"/>
		<g id="Grupo_696_2_" transform="translate(2.509 4.569)">
			<path id="Trazado_864_2_" class="st3" d="M182.03,57.78c6.85,0.12,12.91,4.48,15.2,10.95c2.1,6.34,2.85,13.06,2.2,19.71
				c5.99-8.55,16.19-13.13,26.56-11.91c-7.25,4.28-12.92,10.79-16.17,18.56c6.57-6.58,16.58-8.29,24.97-4.27
				c-6.37,2.04-12.22,5.46-17.12,10.02c17.91-0.81,43.64,24.21,55.54,37.57c28.1,28.9,42.82,68.25,40.6,108.5
				c-4.15-6.88-10.94-11.75-18.78-13.47c10.42,10.5,11.59,27.03,2.77,38.9c-0.57-8.02-4.37-15.46-10.52-20.64
				c1.99,9.34,3.92,51.44-68.88,62.72c-38.59,1.44-77.01-5.64-112.56-20.73c-41.75-20.73-69.05-44.52-55.5-87.94
				c-6.33,5.25-10.64,12.54-12.2,20.61c-3.41-14.77,1.88-30.2,13.64-39.77c-10.19,0-19.01,7.11-21.18,17.07
				c0.08-27.09,49.4-81.96,61.07-90.79c43.83-33.16,93.92-18.68,98.08-22.33C193.19,87.59,187.86,57.36,182.03,57.78z"/>
		</g>
		<path id="Trazado_866_2_" d="M136.75,192.87c-3.47-3.61-7.42-6.72-11.73-9.25c-8.32-4.84-18.01-6.77-27.55-5.47
			c-4.96,0.69-9.8,2.05-14.39,4.04c3.65-3.94,8.32-6.79,13.49-8.23c10.68-3.2,22.25-0.89,30.89,6.15
			C131.68,183.42,134.89,187.84,136.75,192.87z"/>
		<path id="Trazado_867_2_" d="M270.69,228.92c-3.47-3.61-7.42-6.72-11.73-9.25c-8.32-4.85-18.01-6.77-27.55-5.47
			c-4.96,0.69-9.8,2.05-14.39,4.03c3.65-3.94,8.32-6.79,13.49-8.23c10.68-3.19,22.25-0.89,30.89,6.15
			C265.62,219.46,268.84,223.89,270.69,228.92z"/>
		<g id="Trazado_868_2_">
			<path class="st4" d="M196.77,252.84c1.5-13.96,1-28.07-1.48-41.89c-0.69-5.77-3.17-34.74-14.36-35.47
				c-13.32-0.88-29.6,24.26-35.26,33.15c-5.66,8.89-14.04,23.27-10.87,32.56C137.6,249.37,193.82,265.38,196.77,252.84z"/>
		</g>
	</g>
</g>
</svg>
