<!-- Generator: Adobe Illustrator 24.1.2, SVG Export Plug-In  -->
<svg version="1.1" xmlns="http://www.w3.org/2000/svg" xmlns:xlink="http://www.w3.org/1999/xlink" x="0px" y="0px"
	 width="345.59px" height="397.33px" viewBox="0 0 345.59 397.33"
	 style="overflow:visible;enable-background:new 0 0 345.59 397.33;" xml:space="preserve">
<style type="text/css">
	.st0{fill:#FFFFFF;}
	.st1{fill:#A686AD;}
	.st2{fill:#E5B9EF;}
	.st3{fill:#B195B7;}
	.st4{fill:#C8ABCE;}
	.st5{fill:#704F51;}
	.st6{fill:#E6E6E6;}
	.st7{fill:#C1272D;}
	.st8{fill:#4D4D4D;}
</style>
<defs>
</defs>
<g>
	<path class="st0" d="M311.18,204.28c0.17-2.93,0.25-5.86,0.25-8.75c0-48.64-22.9-93.21-61.5-120.16
		c3.17-4.66,8.06-8.51,14.59-11.46c15.93-7.19,20.48-17.73,21.49-25.3c1.46-10.99-3.72-22.84-13.54-30.92
		c-9.39-7.73-22.46-9.88-32.52-5.32c-5.65,2.56-15.22,9.46-15.78,26.95c-0.42,12.97-2.34,23.4-4.04,30.28
		c-15.14-5.74-31.03-8.65-47.31-8.65s-32.17,2.91-47.31,8.65c-1.69-6.88-3.62-17.31-4.04-30.28c-0.56-17.49-10.13-24.4-15.78-26.95
		C95.63-2.18,82.57-0.04,73.17,7.69c-9.81,8.08-15,19.93-13.54,30.92c1.01,7.57,5.55,18.11,21.49,25.3
		c6.53,2.95,11.42,6.79,14.59,11.46c-38.54,26.91-61.43,71.38-61.5,119.93c-23.08,17.62-35.18,45.84-34.15,79.78
		c1.01,33.11,19.48,63.99,51.99,86.93c32.27,22.77,75.16,35.31,120.77,35.31c45.83,0,88.98-12.53,121.49-35.29
		c33.06-23.13,51.27-54.07,51.27-87.11C345.59,246.82,333.4,221.84,311.18,204.28z"/>
	<g>
		<g>
			<g>
				<path class="st1" d="M221.49,72.18c0,0,6.83-16.22,7.68-42.69c0.85-26.47,25.61-29.88,40.13-17.93s19.64,35.86-6.83,47.81
					s-21.34,34.15-21.34,34.15l-25.61-11.95L221.49,72.18z"/>
				<path class="st2" d="M233.44,83.28c0,0,7.68-23.05,18.78-27.32s33.3-21.34,12.81-38.42s-30.74,9.39-29.88,25.61
					c0.85,16.22-3.42,33.3-5.98,37.57C226.61,84.99,233.44,83.28,233.44,83.28z"/>
			</g>
			<g>
				<path class="st1" d="M124.16,72.18c0,0-6.83-16.22-7.68-42.69S90.87-0.39,76.35,11.56s-19.64,35.86,6.83,47.81
					s21.34,34.15,21.34,34.15l25.61-11.95L124.16,72.18z"/>
				<path class="st2" d="M112.21,83.28c0,0-7.68-23.05-18.78-27.32s-33.3-21.34-12.81-38.42s30.74,9.39,29.88,25.61
					s3.42,33.3,5.98,37.57S112.21,83.28,112.21,83.28z"/>
			</g>
		</g>
		<ellipse class="st3" cx="172.82" cy="195.55" rx="133.61" ry="139.59"/>
		<g>
			<g>
				<ellipse class="st0" cx="123.31" cy="140.29" rx="37.14" ry="36.69"/>
			</g>
			<g>
				<circle cx="123.31" cy="150.3" r="21.77"/>
			</g>
			<g>
				<circle class="st0" cx="113.06" cy="140.06" r="8.96"/>
			</g>
			<g>
				<path d="M123.31,177.47c-20.75,0-37.64-16.68-37.64-37.19s16.88-37.19,37.64-37.19s37.64,16.68,37.64,37.19
					S144.06,177.47,123.31,177.47z M123.31,104.1c-20.2,0-36.64,16.23-36.64,36.19s16.44,36.19,36.64,36.19s36.64-16.23,36.64-36.19
					S143.51,104.1,123.31,104.1z"/>
			</g>
		</g>
		<g>
			<g>
				<ellipse class="st0" cx="225.76" cy="140.29" rx="37.14" ry="36.69"/>
			</g>
			<g>
				<path d="M225.76,177.47c-20.75,0-37.64-16.68-37.64-37.19S205,103.1,225.76,103.1c20.75,0,37.64,16.68,37.64,37.19
					S246.51,177.47,225.76,177.47z M225.76,104.1c-20.2,0-36.64,16.23-36.64,36.19s16.44,36.19,36.64,36.19
					c20.2,0,36.64-16.23,36.64-36.19S245.96,104.1,225.76,104.1z"/>
			</g>
			<g>
				<circle cx="225.76" cy="150.3" r="21.77"/>
			</g>
			<g>
				<circle class="st0" cx="215.51" cy="140.06" r="8.96"/>
			</g>
		</g>
		<path class="st4" d="M340.59,274.95c0,64.83-75.11,117.39-167.77,117.39S7.04,339.75,5.06,274.95
			c-1.71-55.92,33.3-98.61,108.43-95.2c5.19,0.24,28.2-16.61,59.76-18.78c24.76-1.71,54.64,23.05,55.49,23.05
			C300.65,184.02,340.59,226.11,340.59,274.95z"/>
		<g>
			<g>
				<path class="st5" d="M173.36,258.23c-38.66,43.61-70.93,40.34-92.83,27.48c4.27,36.38,23.94,79.67,94.53,74.12
					c61.03-4.8,86.44-34.52,96.36-66.33C227.96,312.82,173.36,258.23,173.36,258.23z"/>
				<path d="M163.1,360.74c-60.94,0-78.89-40.13-82.99-74.98l-0.1-0.85l0.74,0.44c20.39,11.99,52.96,16.97,92.29-27.39l0.3-0.34
					l0.32,0.32c0.54,0.54,54.89,54.16,97.59,35.18l0.86-0.38l-0.28,0.9c-12.52,40.15-45.07,62.57-96.74,66.63
					C170.93,360.58,166.93,360.74,163.1,360.74z M81.06,286.5c4.51,36.48,24.56,78.35,93.97,72.9c50.9-4,83.1-25.91,95.71-65.14
					c-22.41,9.42-47.59-0.62-64.87-10.79c-17.31-10.19-30.31-22.51-32.49-24.63C134.28,302.75,101.72,298.31,81.06,286.5z"/>
			</g>
			<g>
				<g>
					<path class="st6" d="M72.01,279.88c-3.34,17.22-4.78,38.48,7.44,41.53c20.49,5.12,29.03,5.12,29.03,5.12
						s15.03,6.32,13.11-33.57C101.18,297.25,84.29,289.49,72.01,279.88z"/>
				</g>
				<g>
					<path class="st6" d="M229.45,293.89c-1.65,38.86,13.15,32.64,13.15,32.64s8.54,0,29.03-5.12c10.29-2.57,10.89-18.05,8.83-33.16
						C264.54,299.9,246.3,299.38,229.45,293.89z"/>
				</g>
			</g>
			<g>
				<path class="st7" d="M175.92,329.09c-31.49-19.19-54.47-3.21-68.3,13.77c14.38,12.12,35.79,19.46,67.44,16.97
					c31.38-2.47,53.34-11.52,68.62-24.07C207.27,299.21,175.92,329.09,175.92,329.09z"/>
				<path d="M163.21,360.74c-23.27,0-42.02-5.88-55.86-17.55l-0.32-0.27l0.26-0.33c13.81-16.97,36.91-33.15,68.58-14.03
					c1.43-1.27,9.02-7.64,20.18-10.26c11.42-2.67,28.99-1.86,47.94,17.16l0.33,0.33l-0.36,0.3c-16.77,13.76-39.94,21.89-68.86,24.16
					C171.02,360.58,167.05,360.74,163.21,360.74z M108.22,342.8c15.92,13.25,38.4,18.83,66.81,16.6
					c28.54-2.24,51.42-10.21,68.02-23.67c-18.53-18.4-35.65-19.2-46.77-16.6c-12.15,2.83-19.99,10.2-20.07,10.27l-0.24,0.23
					l-0.28-0.17C144.62,310.52,121.89,326.17,108.22,342.8z"/>
			</g>
		</g>
		<g>
			<path d="M49.46,254.89c6.86,10.45,15.55,19.75,25.75,26.88c5.09,3.57,10.61,6.54,16.46,8.57c5.84,2.04,12.01,3.12,18.18,3.07
				c0.77,0,1.54,0.02,2.31-0.01l2.3-0.22l2.3-0.22c0.77-0.05,1.52-0.27,2.28-0.39l2.27-0.43c0.76-0.14,1.52-0.26,2.25-0.51
				l4.44-1.29c1.46-0.5,2.88-1.12,4.32-1.67c0.71-0.29,1.45-0.54,2.14-0.88l2.07-1.04c1.37-0.71,2.79-1.35,4.13-2.12l3.97-2.42
				c10.52-6.6,19.59-15.31,27.88-24.57l0.69-0.78l0.75,0.73c4.24,4.13,8.8,8.03,13.48,11.72c4.69,3.69,9.55,7.17,14.58,10.37
				c5.03,3.21,10.23,6.14,15.62,8.68c5.39,2.53,10.95,4.71,16.68,6.26c5.73,1.57,11.65,2.47,17.58,2.44c5.93,0,11.86-1.06,17.4-3.19
				c2.78-1.04,5.46-2.37,7.98-3.94c2.53-1.57,4.95-3.32,7.17-5.32c2.24-1.97,4.35-4.1,6.28-6.39c1.98-2.24,3.74-4.68,5.46-7.13
				c-3.23,5.05-6.94,9.84-11.39,13.91c-2.19,2.07-4.6,3.9-7.13,5.56c-2.52,1.66-5.21,3.08-8.02,4.21
				c-5.61,2.28-11.68,3.44-17.74,3.54c-6.07,0.12-12.13-0.72-17.98-2.22c-5.87-1.49-11.56-3.6-17.03-6.17
				c-5.48-2.54-10.76-5.49-15.86-8.71c-5.1-3.22-10.02-6.7-14.78-10.41c-4.75-3.71-9.35-7.59-13.72-11.81l1.45-0.04
				c-8.38,9.35-17.64,18.11-28.39,24.8l-4.06,2.45c-1.37,0.79-2.82,1.43-4.23,2.15l-2.13,1.05c-0.72,0.34-1.47,0.59-2.2,0.89
				c-1.48,0.56-2.94,1.19-4.44,1.69c-6.03,1.98-12.37,3.03-18.72,2.97c-6.35-0.05-12.67-1.25-18.6-3.42
				c-5.94-2.17-11.51-5.27-16.6-8.96c-5.09-3.72-9.72-8.01-13.94-12.64C56.5,265.26,52.65,260.28,49.46,254.89z"/>
		</g>
		<g>
			
				<ellipse transform="matrix(0.2035 -0.9791 0.9791 0.2035 -25.2224 352.4121)" class="st8" cx="203.99" cy="191.71" rx="10.25" ry="17.08"/>
		</g>
		<g>
			
				<ellipse transform="matrix(0.9737 -0.2277 0.2277 0.9737 -39.8122 38.2567)" class="st8" cx="145.93" cy="191.71" rx="17.08" ry="10.25"/>
		</g>
	</g>
</g>
</svg>
