<!-- Generator: Adobe Illustrator 24.1.2, SVG Export Plug-In  -->
<svg version="1.1" xmlns="http://www.w3.org/2000/svg" xmlns:xlink="http://www.w3.org/1999/xlink" x="0px" y="0px"
	 width="382.49px" height="328.77px" viewBox="0 0 382.49 328.77"
	 style="overflow:visible;enable-background:new 0 0 382.49 328.77;" xml:space="preserve">
<style type="text/css">
	.st0{fill:#FFFFFF;}
	.st1{fill:#FCF2E6;}
	.st2{fill:#CCCCCC;}
	.st3{fill:#FFC7E4;}
	.st4{fill:#B3B3B3;}
	.st5{fill:#D3D1D1;}
	.st6{fill:#FFE6C5;}
	.st7{fill:#C1272D;}
	.st8{fill:#5B2F32;}
	.st9{fill:#4D4D4D;}
</style>
<defs>
</defs>
<g>
	<path class="st0" d="M382.33,90.55c-1.29-6.11-9.05-7.61-19.78-9.69l-0.61-0.12c-6.06-1.17-9.71-3.87-14.32-7.29
		c-6.03-4.46-13.53-10.02-28.14-12.53c-12.97-2.23-24.99,2.12-33.91,7.2c10.62-12,13.7-37.95,11.52-50.54
		c-1.25-7.27-4.18-11.41-8.71-12.31c-6.74-1.35-12.04,5.64-15.45,11.01c-8.49,13.36-20,19.98-28.77,23.23
		c-2.91-1.31-5.89-2.51-8.89-3.58c1.35-0.43,2.2-1.3,2.38-1.49c4.81-5.28-4.12-13.95-5.15-14.92c-3.68-3.45-8.49-5.98-13.76-6.1
		c3.29-1.58,3.45-4.47,3.38-5.53c-0.37-6.23-10.12-8.13-16.18-7.86c-9.7,0.43-19.82,6.23-21.72,20.83
		c-10.68-2.19-31.49-4.3-38.18,10.5c-0.69,1.52-0.57,3.28,0.31,4.7c0.79,1.28,2.11,2.12,3.59,2.31c-0.23,0.25-0.43,0.52-0.61,0.81
		c-2.54,1.13-5.05,2.34-7.49,3.63c-9.95-2.99-23.03-9.65-32.43-24.46C106.01,12.98,100.69,6,93.97,7.34
		c-4.53,0.91-7.46,5.05-8.71,12.31c-1.97,11.43,0.38,33.85,8.77,46.87c-8.66-4.42-19.44-7.61-31.02-5.61
		c-14.61,2.52-22.11,8.07-28.14,12.53c-4.61,3.42-8.26,6.11-14.32,7.29l-0.61,0.12C9.2,82.94,1.45,84.44,0.16,90.55
		c-1.14,5.36,4.27,9.13,6.05,10.37c3.31,2.3,8.3,4.94,15.27,8.06c4.21,1.88,7.94,3.65,11.24,5.22c15.96,7.57,24.84,11.77,45.12,9.5
		c-3.57,12.57-5.37,25.61-5.37,38.88c0,11.7,1.42,23.31,4.22,34.55c-13.53,16.82-15.55,40.36-5.3,63.57
		c12.63,28.58,41.79,45.35,64.03,54.37c21.34,8.66,45.48,13.71,64.45,13.7c3.44,0,6.72-0.17,9.77-0.51
		c20.28-2.27,46.6-6.53,70.26-19.48c29.18-15.98,47.71-41.6,55.09-76.16c6.36-29.8-4.37-44.69-15.76-52.11
		c0.75-5.95,1.12-11.97,1.12-17.94c0-13.05-1.75-25.89-5.2-38.27c13.48-0.09,21.9-4.08,34.66-10.12c3.29-1.56,7.02-3.33,11.22-5.21
		c6.97-3.12,11.96-5.76,15.27-8.06C378.06,99.68,383.47,95.92,382.33,90.55z"/>
	<g>
		<g>
			<path class="st1" d="M154.61,57.52c0,0,9.08-10.42,10.08-8.34s-38.32,5.21-59.5-28.14s-20.17,37.52-1.01,48.99
				s29.25,7.3,35.3,7.3s13.11-15.63,13.11-15.63L154.61,57.52z"/>
		</g>
		<g>
			<path class="st1" d="M227.74,55.43c0,0-9.08-10.42-10.08-8.34c-1.01,2.08,38.32,5.21,59.5-28.14s20.17,37.52,1.01,48.99
				c-19.16,11.47-29.25,7.3-35.3,7.3c-6.05,0-13.11-15.63-13.11-15.63L227.74,55.43z"/>
		</g>
		<g>
			<g>
				<path class="st2" d="M60.83,77.32c17.95-2.97,37.94,9.39,47.97,16.75l2.45-5.28l-2.02-5.21c0,0-21.18-21.89-45.38-17.72
					S37.63,82.53,21.5,85.66C9.23,88.03-0.94,89.85,9.06,96.82c3.68-0.28,7.21-0.84,10.42-1.78C40.66,88.79,35.61,81.49,60.83,77.32
					z"/>
			</g>
			<g>
				<path class="st3" d="M60.83,77.32c-25.21,4.17-20.17,11.47-41.35,17.72c-3.21,0.95-6.74,1.51-10.42,1.78
					c2.93,2.04,7.59,4.53,14.45,7.6c30.25,13.55,33.28,19.8,75.63,10.42l9.65-20.78C98.77,86.71,78.78,74.35,60.83,77.32z"/>
			</g>
		</g>
		<g>
			<g>
				<path class="st4" d="M321.66,77.32c-17.95-2.97-37.94,9.39-47.97,16.75l-2.45-5.28l2.02-5.21c0,0,21.18-21.89,45.38-17.72
					c24.2,4.17,26.22,16.68,42.36,19.8c12.26,2.38,22.44,4.2,12.44,11.16c-3.68-0.28-7.21-0.84-10.42-1.78
					C341.83,88.79,346.87,81.49,321.66,77.32z"/>
			</g>
			<g>
				<path class="st3" d="M321.66,77.32c25.21,4.17,20.17,11.47,41.35,17.72c3.21,0.95,6.74,1.51,10.42,1.78
					c-2.93,2.04-7.59,4.53-14.45,7.6c-30.25,13.55-33.28,19.8-75.63,10.42l-9.65-20.78C283.72,86.71,303.71,74.35,321.66,77.32z"/>
			</g>
		</g>
		<g>
			<ellipse class="st5" cx="196.39" cy="162.58" rx="118.44" ry="127.89"/>
		</g>
		<g>
			<path d="M196.39,290.97c-65.58,0-118.94-57.59-118.94-128.39S130.81,34.19,196.39,34.19c65.58,0,118.94,57.59,118.94,128.39
				S261.98,290.97,196.39,290.97z M196.39,35.19c-65.03,0-117.94,57.15-117.94,127.39s52.91,127.39,117.94,127.39
				s117.94-57.15,117.94-127.39S261.43,35.19,196.39,35.19z"/>
		</g>
		<g>
			<g>
				<ellipse class="st0" cx="142.41" cy="153.64" rx="32.92" ry="33.61"/>
			</g>
			<g>
				<path d="M142.41,187.75c-18.43,0-33.42-15.3-33.42-34.11s14.99-34.11,33.42-34.11s33.42,15.3,33.42,34.11
					S160.84,187.75,142.41,187.75z M142.41,120.53c-17.88,0-32.42,14.85-32.42,33.11c0,18.26,14.54,33.11,32.42,33.11
					s32.42-14.85,32.42-33.11C174.84,135.38,160.29,120.53,142.41,120.53z"/>
			</g>
			<g>
				<ellipse cx="142.41" cy="162.82" rx="19.3" ry="19.95"/>
			</g>
			<g>
				<ellipse class="st0" cx="133.88" cy="154" rx="7.4" ry="7.65"/>
			</g>
		</g>
		<g>
			<g>
				<ellipse class="st0" cx="260.46" cy="149.47" rx="32.92" ry="33.61"/>
			</g>
			<g>
				<path d="M260.46,183.58c-18.43,0-33.42-15.3-33.42-34.11s14.99-34.11,33.42-34.11s33.42,15.3,33.42,34.11
					S278.89,183.58,260.46,183.58z M260.46,116.36c-17.88,0-32.42,14.85-32.42,33.11c0,18.26,14.54,33.11,32.42,33.11
					s32.42-14.85,32.42-33.11C292.88,131.21,278.34,116.36,260.46,116.36z"/>
			</g>
			<g>
				<ellipse cx="260.46" cy="158.65" rx="19.3" ry="19.95"/>
			</g>
			<g>
				<ellipse class="st0" cx="269.04" cy="149.78" rx="7.44" ry="7.69"/>
			</g>
		</g>
		<g>
			<path d="M238.24,205.77c-1.64,0-3.36-0.18-5.08-0.55c-8.44-1.81-14.43-7.63-13.36-12.96c0.37-1.84,1.54-3.46,3.39-4.67
				c3.38-2.22,8.57-2.86,13.87-1.72c8.44,1.81,14.43,7.63,13.36,12.96l0,0c-0.37,1.84-1.54,3.46-3.39,4.67
				C244.74,204.99,241.64,205.77,238.24,205.77z M231.97,186.31c-3.2,0-6.1,0.72-8.23,2.12c-1.62,1.06-2.64,2.46-2.96,4.03
				c-0.96,4.8,4.68,10.09,12.59,11.79c5.04,1.08,9.95,0.49,13.11-1.58c1.62-1.06,2.64-2.46,2.96-4.03l0,0
				c0.96-4.8-4.68-10.09-12.59-11.79C235.19,186.48,233.54,186.31,231.97,186.31z"/>
		</g>
		<g>
			<path d="M180.2,205.86c-3.19,0-6.09-0.7-8.28-2.06c-1.88-1.16-3.09-2.75-3.5-4.58c-1.2-5.3,4.65-11.27,13.04-13.3
				c5.27-1.27,10.48-0.76,13.91,1.37c1.88,1.16,3.09,2.75,3.5,4.58l0,0c1.2,5.3-4.65,11.27-13.04,13.3
				C183.92,205.63,182.02,205.86,180.2,205.86z M187.1,186.22c-1.74,0-3.56,0.22-5.41,0.66c-7.86,1.9-13.38,7.33-12.3,12.1
				c0.35,1.57,1.41,2.93,3.05,3.95c3.21,2,8.13,2.46,13.15,1.25c7.86-1.9,13.38-7.33,12.3-12.1l0,0c-0.35-1.57-1.41-2.93-3.05-3.95
				C192.81,186.87,190.1,186.22,187.1,186.22z"/>
		</g>
		<g>
			<path class="st6" d="M148.56,186.76c0,0,42.36-50.03,111.94-8.34c0,0,84.71-17.72,69.58,53.16
				c-16.23,76.07-83.7,87.55-121.01,91.72c-35.11,3.92-111.94-16.68-133.12-64.62S92.09,166.96,148.56,186.76z"/>
		</g>
		<g>
			<g>
				<path class="st7" d="M207.05,280.57c-13.46-10.12-28.76-6.8-37.37,3.19c9.5,7.57,20.15,13.07,31.32,13.49
					c20.8,0.78,36.21-9.58,47.35-22.83C233.02,260.44,207.05,280.57,207.05,280.57z"/>
			</g>
			<g>
				<path class="st8" d="M140.33,250.79c6.98,10.22,17.21,23.29,29.35,32.96c8.62-9.98,23.92-13.3,37.37-3.19
					c0,0,25.97-20.13,41.3-6.16c8.48-10.09,14.47-21.85,18.49-31.65C215.56,276.29,168.49,264.22,140.33,250.79z"/>
			</g>
		</g>
		<g>
			<path d="M186.88,84.62c0,0-23.19-12.51-22.19,4.17s13.11,3.13,20.17,15.63s15.13,9.38,24.2-7.3
				C218.14,80.45,195.96,83.57,186.88,84.62z"/>
		</g>
		<g>
			<g>
				<path d="M303.58,108.13c-1.93,0.08-3.89,1.4-5.77,4.63c-9.08,15.63,12.1,12.51,8.07,34.4c-3.14,17.04-2.61,30.28,8.24,29.42
					c0.46-4.6,0.71-9.26,0.71-13.99C314.83,143.11,310.79,124.65,303.58,108.13z"/>
			</g>
			<g>
				<path d="M233.27,62.73c14.12,9.38,12.1,14.59,12.1,23.97c0,7.32,28.23,4.49,39.21-9.48c-14.18-17.07-32.54-29.99-53.35-36.9
					C227.57,48.3,225.97,57.88,233.27,62.73z"/>
			</g>
			<g>
				<path d="M110.24,101.29c25.21-8.34,7.06-21.89,19.16-28.14c10.43-5.39,31.81-14.35,27.61-31.21
					c-25.37,9.66-46.78,28.38-60.9,52.57C95.67,101.13,97.78,105.41,110.24,101.29z"/>
			</g>
		</g>
		<g>
			<path class="st9" d="M188.92,27.16c0,0-31.26-9.38-38.32,6.25c0,0,25.41,0.83,28.34,6.15c0,0-21.28-1.98-25.31,2.19
				c0,0,4.03,7.3,23.19,8.34c0,0-10.08,10.42-15.13,12.51s14.12,7.3,23.19-6.25c0,0,3.03,13.55-6.05,19.8
				c-9.08,6.25,19.16-1.04,22.19-13.55s-5.04,15.63,22.19,8.34c0,0-15.13-6.25-7.06-17.72c8.07-11.47,14.12,1.04,15.13,5.21
				c0.97,4.02,8.5-20.03-11.7-27.38c-0.77-0.28-1.57-0.53-2.42-0.76c0,0,8.07-6.25,15.13,0s-8.07-23.97-25.21-6.25
				c0,0-7.06-13.55,7.06-14.59S187.92-7.23,188.92,27.16z"/>
		</g>
		<g>
			<path d="M197.9,264.96c-7.28,0-14.63-0.67-22.05-2.01c-30.7-5.55-53.04-21.11-60.38-26.22c-1.12-0.78-2.09-1.46-2.3-1.53
				l0.1-0.99c0.32,0,0.65,0.21,2.78,1.7c33.24,23.16,99.43,52.93,169.34-7.83l0.66,0.75C258.39,252.86,228.83,264.96,197.9,264.96z"
				/>
		</g>
		<g>
			<g>
				<path d="M235.01,270.48c4.65,0,8.66,1.36,11.94,4.04c-12.42,14.44-27.14,21.77-43.75,21.77c-0.71,0-1.44-0.01-2.16-0.04
					c-9.56-0.36-19.61-4.6-29.9-12.61c4.88-5.22,11.59-8.2,18.57-8.2c5.79,0,11.58,2.05,16.75,5.94l0.61,0.46l0.6-0.47
					C207.8,281.25,221.87,270.48,235.01,270.48 M235.01,269.48c-13.65,0-27.96,11.09-27.96,11.09c-5.67-4.26-11.66-6.14-17.35-6.14
					c-7.81,0-15.04,3.55-20.03,9.33c9.5,7.57,20.15,13.07,31.32,13.49c0.74,0.03,1.47,0.04,2.2,0.04
					c19.69,0,34.41-10.09,45.15-22.87C244.4,270.81,239.75,269.48,235.01,269.48L235.01,269.48z"/>
			</g>
			<g>
				<path d="M265.77,244.05c-4.9,11.62-10.77,21.58-17.47,29.64c-3.62-3.13-8.09-4.72-13.29-4.72c-12.56,0-25.8,9.37-27.96,10.97
					c-5.35-3.94-11.34-6.01-17.35-6.01c-7.6,0-14.9,3.32-20.09,9.14c-11.56-9.31-21.34-21.72-27.83-31.04
					c18.49,8.55,37.28,12.89,55.88,12.89C221.2,264.92,244.1,257.9,265.77,244.05 M266.85,242.76
					c-24.56,16.06-48.16,21.66-69.17,21.66c-22.87,0-42.67-6.63-57.34-13.63c6.98,10.22,17.21,23.29,29.35,32.96
					c4.99-5.78,12.21-9.33,20.03-9.33c5.69,0,11.68,1.88,17.35,6.14c0,0,14.31-11.09,27.96-11.09c4.74,0,9.39,1.34,13.34,4.94
					C256.83,264.32,262.83,252.57,266.85,242.76L266.85,242.76z"/>
			</g>
		</g>
	</g>
</g>
</svg>
