<!-- Generator: Adobe Illustrator 24.1.2, SVG Export Plug-In  -->
<svg version="1.1" xmlns="http://www.w3.org/2000/svg" xmlns:xlink="http://www.w3.org/1999/xlink" x="0px" y="0px"
	 width="395.41px" height="362.47px" viewBox="0 0 395.41 362.47"
	 style="overflow:visible;enable-background:new 0 0 395.41 362.47;" xml:space="preserve">
<style type="text/css">
	.st0{fill:#FFFFFF;}
	.st1{fill:#78AA37;}
	.st2{fill:#679925;}
	.st3{fill:#602A29;}
	.st4{fill:#FF0000;}
	.st5{fill:#FCD190;}
</style>
<defs>
</defs>
<g>
	<g>
		<path class="st0" d="M386.6,141.43c-4.35-4.77-8.84-9.7-10.87-21.44c-1.43-8.26-1.79-16.22-2.15-23.91
			c-0.82-17.65-1.59-34.33-15.56-47.57c-11.63-11.02-19.05-9.37-26.22-7.77c-1.07,0.24-2.16,0.48-3.29,0.68
			c-1.71-3.94-5.51-6.4-9.88-6.26c-3.11,0.1-5.9,1.53-7.74,3.85c-0.05-0.02-0.11-0.05-0.16-0.07
			c-11.52-4.88-18.75-11.87-25.75-18.63c-7.38-7.13-15-14.51-27.04-18.7c-13.4-4.66-24.28,1.64-34.8,7.73
			c-9.31,5.39-18.95,10.97-31.4,10.14c-11.49-0.77-17.82-5.01-24.52-9.51c-8.85-5.94-17.99-12.08-36.85-8.54
			c-17.76,3.33-27.09,12.42-35.32,20.45c-6.9,6.73-12.86,12.54-23.09,14.9c-5.81,1.34-9.77,2.02-12.95,2.57
			c-11.3,1.95-12.25,2.77-28.14,16.49l-0.17,0.15c-13.59,11.74-11.3,28.92-9.28,44.08c1.45,10.88,2.83,21.17-1.9,27.24l-0.15,0.2
			c-9.17,11.79-21.72,27.93-19.01,46.02c1.64,10.93,8.77,20.9,21.2,29.64c7.77,5.46,14.18,12.65,19.1,21.4
			c-6.18,9.28-14.24,25.58-11.64,44.83c2.79,20.68,14.52,37.29,34.85,49.38c17.47,10.38,41.32,17.67,72.92,22.26
			c5.7,0.83,9.86,3.62,15.11,7.16c9.45,6.36,21.21,14.27,47.14,14.27c23.04,0,35.97-7.37,47.37-13.86
			c6.35-3.62,12.36-7.04,19.53-8.73c55.17-12.99,95.99-43.46,103.99-77.64c3.29-14.04,1.81-26.89-4.38-38.25
			c2.01-3.32,4.36-6.92,6.81-10.7c9.33-14.36,19.91-30.63,22.44-45.83C397.22,153.08,391.82,147.16,386.6,141.43z"/>
	</g>
	<g>
		<g>
			<path class="st1" d="M56.88,272.55c0,0,2.86-48.66-32.44-73.47s-14.31-51.52-0.95-68.7s-10.5-52.48,10.5-70.61
				s14.31-12.4,39.12-18.13s27.67-29.58,58.2-35.3s31.49,16.22,60.11,18.13S234.36-1.3,256.3,6.34s27.67,26.72,52.48,37.21
				c24.81,10.5,27.67-8.59,45.8,8.59c18.13,17.17,11.45,41.03,16.22,68.7c4.77,27.67,22.9,22.9,19.08,45.8
				c-3.82,22.9-28.62,50.57-34.35,65.84c-5.72,15.27-123.09,82.06-123.09,82.06L56.88,272.55z"/>
		</g>
		<g>
			<path class="st2" d="M70.24,207.66c0,0-5.72-105.91,116.41-125.95s147.89,98.28,143.12,118.32c0,0,45.8,16.22,35.3,61.07
				c-7.52,32.15-46.92,61.36-100.27,73.91c-21.07,4.96-31.08,22.46-65.76,22.46c-39.12,0-43.38-18.74-61.53-21.38
				c-56.99-8.29-98.07-26.89-103.54-67.36C29.21,233.43,63.56,202.89,70.24,207.66z"/>
		</g>
		<g>
			<g>
				<path d="M101.73,257.28c-0.88,3.02-1.48,6.11-1.89,9.22c-0.42,3.11-0.62,6.25-0.56,9.38c0.05,3.13,0.41,6.25,1.14,9.28
					c0.75,3.01,1.78,5.98,3.37,8.64c1.59,2.65,3.54,5.08,5.91,7.05c0.57,0.52,1.24,0.92,1.85,1.38c0.62,0.46,1.24,0.91,1.94,1.26
					l2.02,1.12c0.69,0.35,1.42,0.6,2.13,0.91c5.73,2.34,12,3.17,18.21,3.25c6.22,0.05,12.47-0.49,18.63-1.56
					c3.1-0.43,6.15-1.14,9.21-1.77l9.24-1.97c12.35-2.54,24.93-4.32,37.62-4.38c6.34,0.11,12.68,0.61,18.94,1.65
					c6.26,1.01,12.39,2.58,18.51,3.89c6.12,1.32,12.3,2.25,18.53,2.32c6.19,0.21,12.34-1.07,18.25-2.98
					c5.9-1.98,11.58-4.68,16.91-7.93c2.66-1.63,5.26-3.37,7.73-5.29c2.48-1.89,4.87-3.93,7.1-6.11c4.5-4.32,8.47-9.28,11.18-14.91
					c1.34-2.82,2.26-5.85,2.54-8.96c0.29-3.11-0.15-6.31-1.43-9.19c1.37,2.84,1.93,6.06,1.73,9.21c-0.2,3.16-1.08,6.27-2.36,9.16
					c-2.61,5.79-6.52,10.91-10.97,15.39c-2.22,2.26-4.61,4.35-7.09,6.31c-2.47,1.98-5.08,3.78-7.76,5.48
					c-5.36,3.38-11.08,6.2-17.08,8.31c-3.01,1.04-6.09,1.87-9.22,2.48c-3.13,0.6-6.37,0.85-9.55,0.77
					c-6.36-0.03-12.7-0.96-18.88-2.26c-6.19-1.29-12.27-2.82-18.44-3.78c-6.17-1-12.4-1.45-18.64-1.54
					c-12.49-0.01-24.96,1.69-37.25,4.16l-9.22,1.92c-3.1,0.62-6.18,1.33-9.32,1.75c-6.23,1.07-12.59,1.53-18.94,1.38
					c-6.33-0.18-12.75-1.11-18.66-3.62c-0.73-0.33-1.48-0.6-2.19-0.98l-2.09-1.19c-0.72-0.37-1.36-0.85-2-1.34
					c-0.63-0.49-1.32-0.92-1.9-1.47c-2.44-2.1-4.44-4.65-6.03-7.43c-1.59-2.79-2.57-5.86-3.26-8.95c-0.68-3.1-0.96-6.28-0.94-9.44
					C98.79,269.57,99.81,263.27,101.73,257.28z"/>
			</g>
			<g>
				<path class="st3" d="M165.72,305.73c-6.01,1.39-11.48,2.33-16.48,2.92c8.07,14.01,22.87,26.28,49.87,27.61
					c27.34,1.34,48.57-13.1,63.41-28.8C236.69,305.76,223.48,292.4,165.72,305.73z"/>
				<path d="M202.7,336.83c-1.2,0-2.4-0.03-3.61-0.09c-23.37-1.15-40.28-10.52-50.26-27.85l-0.36-0.63l0.72-0.08
					c5.15-0.61,10.68-1.59,16.43-2.92l0,0c41.51-9.58,60.27-5.36,76.81-1.65c6.61,1.49,12.85,2.89,20.13,3.37l1.01,0.07l-0.7,0.74
					C244.65,327.07,224.43,336.83,202.7,336.83z M150.02,309.04c9.85,16.63,26.37,25.63,49.12,26.75
					c22.52,1.11,43.5-8.28,62.34-27.92c-6.92-0.54-12.92-1.89-19.26-3.32c-16.45-3.7-35.09-7.89-76.39,1.64
					C160.31,307.47,155,308.43,150.02,309.04z"/>
			</g>
			<g>
				<path class="st4" d="M203.14,316.49c-16.89-6.46-28.6,1.82-35.95,11.25c7.97,4.73,18.18,7.94,31.25,8.58
					c16.36,0.8,30.53-4.05,42.45-11.43C228.91,306.34,203.14,316.49,203.14,316.49z"/>
				<path d="M201.95,336.88c-1.17,0-2.35-0.03-3.53-0.09c-12.21-0.6-22.8-3.51-31.47-8.65l-0.47-0.28l0.33-0.43
					c6.93-8.88,18.85-18.06,36.33-11.46c2.32-0.85,26.61-9.2,38.14,8.65l0.26,0.41l-0.41,0.26
					C228.71,332.99,215.54,336.88,201.95,336.88z M167.91,327.6c8.44,4.89,18.72,7.66,30.56,8.24c14.51,0.72,28.54-3.02,41.76-11.1
					c-11.74-17.44-36.65-7.9-36.9-7.8l-0.17,0.07l-0.17-0.07C186.22,310.53,174.71,319.08,167.91,327.6z"/>
			</g>
		</g>
		<g>
			<path class="st5" d="M193.61,184.14l-26.88,64.62c-4.16,10.01,3.99,16.91,13.96,21.15c10.73,4.55,13.59,9.33,27.9,9.33
				c7.63,0,17.17-4.77,26.72-8.59c10.2-4.08,18.15-11.3,13.89-21.42l-27.4-65.13C216.54,171.58,198.82,171.62,193.61,184.14z"/>
		</g>
		<g>
			<path class="st5" d="M265.31,98.28c10.82-6.75,37.79-22.94,48.62-54.54c1.6-4.67,8.15-4.79,10.03-0.23
				c8.24,19.99,13.08,57.87-19.95,86.08c-3.71,3.16-16.34-0.98-25.76-8.75C268.26,112.6,261.65,100.56,265.31,98.28z"/>
		</g>
		<g>
			<path class="st5" d="M130.29,103.28c-12.04-4.18-41.94-13.99-59.5-42.42c-2.59-4.2-9.01-2.87-9.83,2
				c-3.61,21.32,0.07,59.33,38.52,79.52c4.31,2.27,15.71-4.57,23.18-14.24C130.58,117.9,134.35,104.69,130.29,103.28z"/>
		</g>
		<g>
			<g>
				<ellipse class="st0" cx="137.44" cy="178.22" rx="25.21" ry="34.22"/>
			</g>
			<g>
				<path d="M137.44,212.94c-14.18,0-25.71-15.58-25.71-34.72c0-19.14,11.54-34.72,25.71-34.72s25.71,15.57,25.71,34.72
					C163.15,197.36,151.62,212.94,137.44,212.94z M137.44,144.5c-13.63,0-24.71,15.13-24.71,33.72s11.09,33.72,24.71,33.72
					s24.71-15.13,24.71-33.72S151.06,144.5,137.44,144.5z"/>
			</g>
			<g>
				<ellipse cx="136.54" cy="193.08" rx="14.41" ry="18.46"/>
			</g>
			<g>
				<circle class="st0" cx="141.49" cy="180.47" r="5.85"/>
			</g>
		</g>
		<g>
			<g>
				<ellipse class="st0" cx="269.5" cy="171.75" rx="25.21" ry="34.22"/>
			</g>
			<g>
				<path d="M269.5,206.51c-14.2,0-25.75-15.59-25.75-34.75S255.3,137,269.5,137s25.75,15.59,25.75,34.75S283.7,206.51,269.5,206.51
					z M269.5,138.07c-13.61,0-24.68,15.11-24.68,33.68s11.07,33.68,24.68,33.68s24.68-15.11,24.68-33.68S283.11,138.07,269.5,138.07
					z"/>
			</g>
			<g>
				<ellipse cx="268.6" cy="186.61" rx="14.41" ry="18.46"/>
			</g>
			<g>
				<circle class="st0" cx="273.55" cy="174" r="5.85"/>
			</g>
		</g>
		<g>
			<g>
				<path class="st2" d="M323.09,208.62c0,0-49.62-22.9-74.42,3.82"/>
			</g>
			<g>
				<path d="M323.09,208.62c-3.1-1.13-6.23-2.18-9.4-3.07c-3.16-0.93-6.34-1.74-9.54-2.45c-6.4-1.39-12.89-2.4-19.4-2.57
					c-3.25-0.12-6.51-0.04-9.74,0.34c-3.22,0.35-6.43,0.94-9.53,1.88c-3.09,0.96-6.11,2.21-8.95,3.81
					c-2.84,1.62-5.42,3.65-7.87,5.87c2.12-2.54,4.62-4.76,7.35-6.7c2.79-1.84,5.82-3.34,8.98-4.46c6.35-2.21,13.14-2.95,19.81-2.73
					c6.69,0.22,13.3,1.34,19.71,3.06C310.94,203.31,317.2,205.62,323.09,208.62z"/>
			</g>
		</g>
		<g>
			<g>
				<path class="st2" d="M165.66,219.11c0,0-30.53-28.62-72.52-6.68"/>
			</g>
			<g>
				<path d="M165.66,219.11c-2.56-1.97-5.27-3.72-8.09-5.24c-2.8-1.56-5.71-2.9-8.68-4.07c-5.94-2.32-12.17-3.86-18.5-4.39
					c-3.16-0.32-6.34-0.34-9.51-0.15c-3.18,0.12-6.33,0.63-9.46,1.21c-6.25,1.29-12.36,3.33-18.27,5.96
					c5.54-3.32,11.59-5.91,17.93-7.48c6.34-1.57,12.97-2.12,19.5-1.53c3.26,0.32,6.51,0.86,9.68,1.68c3.16,0.86,6.27,1.92,9.24,3.26
					C155.44,211.03,161.02,214.59,165.66,219.11z"/>
			</g>
		</g>
	</g>
</g>
</svg>
