<!-- Generator: Adobe Illustrator 24.1.2, SVG Export Plug-In  -->
<svg version="1.1" xmlns="http://www.w3.org/2000/svg" xmlns:xlink="http://www.w3.org/1999/xlink" x="0px" y="0px"
	 width="366.54px" height="384.95px" viewBox="0 0 366.54 384.95"
	 style="overflow:visible;enable-background:new 0 0 366.54 384.95;" xml:space="preserve">
<style type="text/css">
	.st0{fill:#FFFFFF;}
	.st1{fill:#F9D023;}
	.st2{fill:#F15A24;}
	.st3{fill:#AF4022;}
	.st4{opacity:0.43;}
</style>
<defs>
</defs>
<g>
	<path class="st0" d="M334.05,159c4.5-10.77,13.79-45.4-25-92.43c-18.98-23.01-45.86-37.35-77.74-41.48
		c-13.91-1.8-25.86-1.31-33.6-0.56c5.79-9.45,14.47-12.92,17.74-14.23c1.28-0.51,5.16-2.06,4.29-6.26
		c-0.88-4.23-4.87-4.11-7.78-4.03c-1.91,0.06-4.8,0.14-9.05,0.14c-20.95,0-26.93,9.85-29.35,15.98
		c-18.71-9.98-42.18-3.99-43.24-3.71c-2.07,0.54-3.56,2.35-3.72,4.48c-0.15,2.14,1.07,4.13,3.05,4.96
		c9.36,3.94,12.83,6.93,14.09,8.44c-46.1,7.32-78.51,25.76-96.36,54.82c-23.13,37.67-14.6,81.26-10.78,95.73
		c-7.38,2.81-21.05,9.87-29.48,25.63c-10.33,19.3-9.41,44.99,2.72,76.34c13.74,35.49,41.28,61.74,79.64,75.89
		c17.1,6.31,32.66,8.91,42.68,9.99c-3.2,2.25-6.39,3.92-7.99,4.64c-2.02,0.9-3.21,3.02-2.93,5.21s1.98,3.94,4.16,4.29
		c9.02,1.45,17.95,2.08,26.67,2.08c29.94,0,57.33-7.43,76.78-14.61c13.07-4.82,23.91-9.96,31.73-14.04l-0.33,0.72
		c-0.89,1.95-0.43,4.25,1.13,5.72c1.56,1.47,3.89,1.77,5.78,0.76c59.06-31.63,92.14-68.81,98.31-110.51
		C372.44,206.03,342.98,169,334.05,159z"/>
	<g>
		<g>
			<g>
				<path class="st1" d="M174.65,22.66c4.95,3.43-1.35-17.49,28.26-17.49s-4.04-4.04-13.46,25.57c0,0,71.32-14.8,115.73,39.03
					s22.88,90.17,22.88,90.17s107.66,107.66-63.25,199.17l6.73-14.8c0,0-69.98,45.76-145.34,33.64c0,0,12.11-5.38,17.49-13.46
					c0,0-96.89,0-129.19-83.44s28.26-96.89,28.26-96.89S-0.3,56.3,147.73,34.77c0,0,9.42-6.73-16.15-17.49
					C131.58,17.27,157.15,10.55,174.65,22.66z"/>
			</g>
			<g>
				<path class="st2" d="M180.03,328.14c16.54-1.84,25.57-1.35,49.79-22.88s41.72-18.84,43.06-36.34
					c2.69-34.91-43.09-8.38-59.21-30.95c-13.46-18.84-21-49.54-64.6,0c-8.03,9.13-15.39,11.44-21.04,13.91
					c-11.26,4.93-29.04-5.31-35.48,6.27c-13.46,24.22,22.88,29.61,44.41,49.79C148.79,319.04,155.81,330.83,180.03,328.14z"/>
			</g>
			<g>
				<path class="st3" d="M112.74,272.97c3.46,0.15,6.81,1.32,9.97,2.71c3.16,1.44,6.19,3.17,9.03,5.17
					c5.71,3.98,10.74,8.83,15.41,13.96l3.4,3.95l1.67,1.94l0.83,0.96l0.89,0.91c2.35,2.43,4.97,4.6,7.85,6.34
					c5.75,3.52,12.54,5.13,19.25,4.8c6.73-0.26,13.37-2.24,19.39-5.34c6.03-3.11,11.55-7.28,16.09-12.32
					c1.14-1.25,2.33-2.59,3.54-3.83c1.27-1.2,2.49-2.44,3.86-3.53c2.64-2.28,5.49-4.29,8.44-6.11c2.96-1.81,6.05-3.41,9.22-4.79
					c3.17-1.39,6.43-2.59,9.77-3.45c-6.53,2.21-12.77,5.25-18.47,9.07c-2.86,1.89-5.62,3.93-8.14,6.24
					c-1.31,1.1-2.47,2.35-3.68,3.55c-1.16,1.27-2.24,2.53-3.38,3.87c-2.26,2.68-4.82,5.11-7.6,7.24c-2.77,2.15-5.72,4.05-8.82,5.68
					c-6.19,3.26-13.07,5.4-20.15,5.72c-7.07,0.29-14.27-1.49-20.28-5.24c-3.01-1.86-5.73-4.15-8.15-6.69l-0.91-0.95l-0.85-1
					c-0.56-0.67-1.15-1.34-1.68-2l-3.25-3.99c-4.48-5.18-9.33-10.09-14.83-14.18c-2.72-2.09-5.63-3.92-8.68-5.48
					c-0.77-0.38-1.53-0.77-2.33-1.08l-1.19-0.5l-1.21-0.43C116.13,273.59,114.46,273.11,112.74,272.97z"/>
			</g>
			<g class="st4">
				<ellipse cx="171.28" cy="261.53" rx="6.06" ry="8.75"/>
			</g>
			<g class="st4">
				<ellipse cx="198.2" cy="261.53" rx="6.06" ry="8.75"/>
			</g>
			<g>
				<path d="M274.41,95.87c0,0-0.69-1.07-1.98-2.73c-6.35-8.16-53.78-34.13-57.33-10.13C212.93,97.66,245.03,73.84,274.41,95.87z"/>
			</g>
			<g>
				<path d="M96.81,94.74c0,0,0.72-1.06,2.04-2.69c6.51-8.03,54.46-33.04,57.52-8.98C158.25,97.76,126.64,73.3,96.81,94.74z"/>
			</g>
			<g>
				<g>
					<ellipse class="st0" cx="129.28" cy="162.98" rx="32.46" ry="44.05"/>
				</g>
				<g>
					<ellipse cx="128.13" cy="182.1" rx="18.55" ry="23.76"/>
				</g>
				<g>
					<circle class="st0" cx="134.5" cy="165.87" r="7.53"/>
				</g>
				<g>
					<path d="M129.28,207.53c-18.17,0-32.96-19.98-32.96-44.55s14.78-44.55,32.96-44.55s32.96,19.98,32.96,44.55
						S147.46,207.53,129.28,207.53z M129.28,119.43c-17.62,0-31.96,19.54-31.96,43.55s14.34,43.55,31.96,43.55
						s31.96-19.54,31.96-43.55S146.91,119.43,129.28,119.43z"/>
				</g>
			</g>
			<g>
				<g>
					<ellipse class="st0" cx="233.69" cy="162.98" rx="32.46" ry="44.05"/>
				</g>
				<g>
					<path d="M233.69,207.53c-18.17,0-32.96-19.98-32.96-44.55s14.78-44.55,32.96-44.55c18.17,0,32.96,19.98,32.96,44.55
						S251.86,207.53,233.69,207.53z M233.69,119.43c-17.62,0-31.96,19.54-31.96,43.55s14.34,43.55,31.96,43.55
						s31.96-19.54,31.96-43.55S251.31,119.43,233.69,119.43z"/>
				</g>
				<g>
					<ellipse cx="232.53" cy="182.1" rx="18.55" ry="23.76"/>
				</g>
				<g>
					<circle class="st0" cx="238.9" cy="165.87" r="7.53"/>
				</g>
			</g>
		</g>
	</g>
</g>
</svg>
