<!-- Generator: Adobe Illustrator 24.1.2, SVG Export Plug-In  -->
<svg version="1.1" xmlns="http://www.w3.org/2000/svg" xmlns:xlink="http://www.w3.org/1999/xlink" x="0px" y="0px" width="270px"
	 height="270px" viewBox="0 0 270 270" style="overflow:visible;enable-background:new 0 0 270 270;" xml:space="preserve">
<style type="text/css">
	.st0{fill:#AE36C5;}
	.st1{fill:none;stroke:#CF63F5;stroke-width:12.8571;stroke-linecap:round;stroke-dasharray:149.1429,51.4286;}
	.st2{fill:none;}
	.st3{fill:none;stroke:#CF63F5;stroke-width:12.8571;}
</style>
<defs>
</defs>
<g>
	<path id="Rectángulo_179_2_" class="st0" d="M41.14,0h187.71C251.58,0,270,18.42,270,41.14v187.71
		c0,22.72-18.42,41.14-41.14,41.14H41.14C18.42,270,0,251.58,0,228.86V41.14C0,18.42,18.42,0,41.14,0z"/>
	<path id="Trazado_876_1_" class="st1" d="M140.14,46.29c51.84,0,93.86,42.02,93.86,93.86S191.98,234,140.14,234
		s-93.86-42.02-93.86-93.86S88.31,46.29,140.14,46.29z"/>
	<g id="Elipse_134_2_" transform="translate(40 40)">
		<circle class="st2" cx="101.43" cy="101.43" r="38.57"/>
		<circle class="st3" cx="101.43" cy="101.43" r="32.14"/>
	</g>
</g>
</svg>
