<!-- Generator: Adobe Illustrator 24.1.2, SVG Export Plug-In  -->
<svg version="1.1" xmlns="http://www.w3.org/2000/svg" xmlns:xlink="http://www.w3.org/1999/xlink" x="0px" y="0px" width="1600px"
	 height="897.07px" viewBox="0 0 1600 897.07" style="overflow:visible;enable-background:new 0 0 1600 897.07;"
	 xml:space="preserve">
<style type="text/css">
	.st0{fill:#FFEB88;}
	.st1{fill:#FFDE57;}
</style>
<defs>
</defs>
<g>
	<g>
		<path class="st0" d="M0,897.07h1600V0H0V897.07z M1.25,1.25h1597.5v894.57H1.25V1.25z"/>
		<rect x="1.25" y="1.25" class="st0" width="1597.5" height="894.57"/>
	</g>
	<g>
		<path class="st1" d="M1588.32,4.74l-0.98,0.32h1.13C1588.42,4.96,1588.37,4.85,1588.32,4.74z"/>
		<path class="st1" d="M3.74,167.99c-0.42,0.06-0.83,0.12-1.25,0.18v6.5c0.42-0.03,0.83-0.07,1.25-0.09V167.99z"/>
		<path class="st1" d="M1596.03,393.64c0.41-0.09,0.83-0.16,1.25-0.25v-2.88c-0.42,0.06-0.83,0.11-1.25,0.17V393.64z"/>
		<path class="st1" d="M3.74,248.14c-0.42-0.11-0.83-0.26-1.25-0.38v6.06c0.41,0.14,0.83,0.27,1.25,0.4V248.14z"/>
		<path class="st1" d="M2.8,301.6l-0.26,1.72c0.4,0.13,0.8,0.24,1.2,0.37v-2.09C3.42,301.61,3.11,301.6,2.8,301.6z"/>
		<path class="st1" d="M3.74,382.26c-0.42,0.08-0.83,0.16-1.25,0.23v5.85c0.42-0.05,0.83-0.09,1.25-0.14V382.26z"/>
		<path class="st1" d="M1596.03,680.24v6.07c0.41-0.04,0.83-0.08,1.25-0.13v-5.98C1596.86,680.22,1596.44,680.23,1596.03,680.24z"/>
		<polygon class="st1" points="3.74,593.42 2.49,594.14 2.49,608.17 3.74,607.49 		"/>
		<path class="st1" d="M3.74,698.5c-0.41,0.07-0.83,0.15-1.25,0.22v6.39c0.42-0.01,0.83-0.03,1.25-0.04V698.5z"/>
		<path class="st1" d="M1596.03,250.69c0.42-0.05,0.83-0.11,1.25-0.16v-17.25c-0.42,0.08-0.83,0.17-1.25,0.25V250.69z"/>
		<path class="st1" d="M1586.79,6.31h2.24c-0.19-0.41-0.36-0.83-0.56-1.25h-1.13l-0.67,0.22C1586.72,5.63,1586.74,5.97,1586.79,6.31
			z"/>
		<path class="st1" d="M1596.15,42.81c-0.03-1.89-0.06-3.78-0.12-5.66v8.71C1596.07,44.84,1596.1,43.82,1596.15,42.81z"/>
		<path class="st1" d="M1424.04,6.31c0.24-0.41,0.48-0.83,0.72-1.25h-5.62c-0.4,0.42-0.82,0.83-1.22,1.25H1424.04z"/>
		<path class="st1" d="M821.81,6.31c0.22-0.41,0.43-0.83,0.65-1.25h-17.06c-0.3,0.42-0.61,0.83-0.91,1.25H821.81z"/>
		<path class="st1" d="M1233.95,6.31c0.47-0.41,0.93-0.83,1.39-1.25h-27.76l-1.68,1.25H1233.95z"/>
		<path class="st1" d="M1596.03,37.14V6.31h-7c4.07,9.01,6.44,18.71,6.92,28.6C1595.99,35.65,1596,36.4,1596.03,37.14z"/>
		<path class="st1" d="M1499.86,337.47c0.07,0,0.14,0,0.21-0.02c-0.08-0.09-0.15-0.2-0.25-0.27c-0.11-0.07,0-0.07,0.12-0.27
			c0.1-0.25,0-0.25-0.05-0.12l-1.74,0.27c0.04,0.01,0.07,0.04,0.11,0.05C1498.77,337.31,1499.31,337.43,1499.86,337.47z"/>
		<path class="st1" d="M1500.35,337.75c-0.04-0.08-0.13-0.12-0.18-0.19c0,0.02,0.01,0.04,0,0.07
			C1500.2,338.03,1500.48,338,1500.35,337.75z"/>
		<path class="st1" d="M50.84,174.31c17.59,0.95,35.08,2.9,52.44,5.56c17.37,2.66,34.54,6.2,51.66,9.99
			c17.1,3.83,34.08,8.24,51.08,12.71L257.25,216c34.66,9.41,69.91,16.47,105.52,21.12c18.11,2.16,36.32,3.28,54.55,3.35
			c18.16,0.06,36.09-0.63,53.89-0.91c17.68-0.49,35.38,0.05,53,1.61c8.71,0.82,17.35,2.17,25.89,4.04l6.38,1.38
			c2.12,0.5,4.19,1.11,6.29,1.66l6.29,1.69l6.16,2.02c66.12,21.82,118.29,65.95,186.8,87.98c4.17,1.5,8.47,2.7,12.71,4.06
			c4.27,1.27,8.47,2.77,12.82,3.86l13,3.41c2.17,0.55,4.33,1.18,6.52,1.67l6.6,1.44l13.21,2.87c4.42,0.88,8.88,1.61,13.33,2.41
			c8.88,1.67,17.87,2.79,26.84,4.01c36.01,4.36,72.28,6.18,108.54,5.46c36.2-0.42,72.3-2.67,108.1-5.83
			c17.87-1.5,35.56-3.3,53.15-4.64c17.59-1.34,35.09-2.1,52.43-1.92c17.23,0.06,34.43,1.42,51.45,4.08
			c17.02,2.7,33.93,6.56,50.88,10.73c16.96,4.25,33.91,8.93,51.1,13.42c17.22,4.41,34.73,8.57,52.59,11.73
			c17.87,3.19,35.89,5.43,54,6.73c18.1,1.34,36.26,1.74,54.4,1.19c18.05-0.51,36.07-1.97,53.97-4.39
			c12.87-1.68,25.67-3.89,38.36-6.6v-2.97c-13.01,1.75-26.07,3.11-39.17,3.98c-17.73,1.18-35.5,1.44-53.19,1.06
			c-17.7-0.44-35.32-1.69-52.79-3.74c-17.46-2.05-34.75-5-51.76-8.61c-17.01-3.61-33.72-8.29-50.52-13.14
			c-16.81-4.85-33.64-9.98-50.81-14.76c-4.95-1.4-9.91-2.72-14.9-3.98c5.79,5.16,13.35,8.72,21.78,7.7l0.53,1.67
			c-5.24,2.4-11.15,2.94-16.74,1.54c-5.7-1.37-11.01-4.03-15.51-7.78c-2.63-2.16-4.92-4.57-7-7.1c-6.99-1.53-13.99-2.96-21.04-4.2
			c-18.26-3.11-36.73-4.83-55.24-5.14c-9.23-0.23-18.42,0.01-27.57,0.37c-9.15,0.35-18.23,0.93-27.27,1.63
			c-18.08,1.36-35.94,3.21-53.63,5.1c-35.32,3.7-70.67,6.48-106.07,7.48c-35.31,1.18-70.65,0.2-105.84-2.93
			c-34.89-2.99-69.41-9.27-103.11-18.77c-16.49-4.96-32.69-10.84-48.52-17.62c-7.83-3.45-15.58-7.05-23.26-10.79
			c-7.62-3.85-15.2-7.75-22.76-11.71c-30.22-15.79-60.25-32.6-93.83-44.19c-16.97-5.98-34.5-10.21-52.33-12.64
			c-17.95-2.34-36.01-3.73-54.11-4.16c-18-0.64-35.89-0.86-53.52-1.81c-17.5-0.89-34.95-2.67-52.28-5.33
			c-34.62-5.16-68.69-13.21-102.89-21.57l-51.44-12.81c-17.25-4.16-34.66-8.11-52.25-11.63c-17.59-3.53-35.42-6.39-53.41-8.46
			c-18.04-2.14-36.19-3.24-54.36-3.28c-15.85-0.04-31.79,0.88-47.46,2.96v6.59C19.42,173.5,35.19,173.48,50.84,174.31z"/>
		<path class="st1" d="M60.32,263.56c17.83,1.02,35.14,0.82,52.08,2.21c8.36,0.63,16.68,1.69,24.94,3.18
			c7.92,1.36,15.7,3.44,23.24,6.19c6.98,2.54,13.56,6.08,19.52,10.51c1.32,1.13,2.82,2.14,4.03,3.35l3.63,3.62
			c2.27,2.5,4.48,5.56,7.35,8.78c3.22,3.78,7.09,6.96,11.44,9.37c4.9,2.62,10.24,4.31,15.76,5c9.93,0.99,19.95,0.34,29.67-1.93
			c4.51-0.92,8.89-2.01,13.02-3l12.57-3.07l25.04-6.31c16.72-4.13,33.3-8.63,49.94-12.98c8.33-2.16,16.59-4.49,24.89-6.73
			c7.74-2.39,15.66-4.19,23.67-5.37c6.86-1,13.85,0.39,19.79,3.95c6.19,3.54,11.71,9.11,18.45,14.14
			c13.36,10.32,27.9,19.01,43.31,25.89c15.75,7.13,32.09,12.85,48.84,17.11c33.68,8.9,68.96,12.79,103.95,14.25
			c8.73,0.43,17.42,0.84,26.06,1.43c8.63,0.64,17.19,1.49,25.62,2.74c16.64,2.55,32.99,6.73,48.83,12.46
			c15.81,5.57,31.29,12.07,47.19,18.27c16.23,6.58,32.92,11.97,49.93,16.12c4.44,0.89,8.81,1.98,13.36,2.61l6.79,1.05l6.85,0.71
			c9.06,0.82,18.15,1.17,27.25,1.07c18.04-0.05,35.56-1.56,52.72-2.26c8.59-0.42,17.04-0.55,25.42-0.45
			c8.22,0.15,16.42,0.74,24.58,1.78c15.97,2.48,31.56,6.92,46.45,13.21c15.24,6.12,30.76,13.08,47.36,18.98
			c16.47,5.87,33.26,10.94,50.22,15.26c16.97,4.28,34.01,8.03,51.05,11.53c17.04,3.5,33.88,6.99,51.16,10.13
			c17.24,3.13,34.79,5.91,52.69,7.48c8.95,0.78,17.94,1.16,27.04,1.23c9.1,0.07,17.96-0.36,26.61-0.69
			c8.65-0.33,17.09-0.51,25.34-0.17c2.06,0.1,4.11,0.21,6.14,0.4c2.03,0.2,4.05,0.5,6.09,0.75c4.07,0.4,8.11,1.26,12.16,2.07
			c16.33,3.8,32.38,8.71,48.04,14.7c16.14,6.18,32.63,11.39,49.39,15.59l6.5,1.33l3.24,0.66l3.31,0.46l6.61,0.9
			c2.2,0.25,4.46,0.29,6.69,0.45c4.45,0.28,8.92,0.26,13.37-0.07c2.22-0.09,4.43-0.32,6.61-0.7l6.54-0.93l-0.39-1.71
			c-17.01,1.39-34.13-0.55-50.39-5.73c-16.08-4.88-31.25-11.75-46.81-18.29c-15.8-7.17-32.13-13.11-48.84-17.75
			c-4.37-1.08-8.73-2.21-13.3-2.89c-2.26-0.38-4.51-0.85-6.8-1.15c-2.3-0.3-4.59-0.55-6.88-0.77c-9.17-0.83-18.2-0.88-27.02-0.88
			s-17.41,0.12-25.78-0.25c-8.39-0.32-16.78-1.05-25.17-2.01c-16.79-1.91-33.49-4.98-50.22-8.49l-50.42-10.98
			c-16.77-3.72-33.38-7.63-49.72-11.96c-16.34-4.33-32.44-9.01-48-14.57c-15.48-5.47-30.64-12.27-46.98-18.38
			c-8.16-3.06-16.58-5.96-25.35-8.4c-8.95-2.47-18.06-4.3-27.27-5.44c-9.17-1.02-18.39-1.53-27.62-1.54
			c-9.09,0.04-18.11,0.35-26.94,0.93c-17.69,1.07-34.93,2.73-51.83,3.2c-8.36,0.3-16.73,0.18-25.08-0.37l-6.17-0.48l-6.12-0.77
			c-4.1-0.4-8.15-1.28-12.24-1.93c-16.38-3.45-32.52-7.95-48.33-13.46c-16.04-5.38-32.09-11.25-48.76-16.26
			c-16.85-5.32-34.17-9-51.73-10.99c-8.84-0.95-17.67-1.47-26.47-1.8c-8.79-0.4-17.54-0.61-26.26-0.86
			c-17.32-0.31-34.62-1.53-51.81-3.65c-16.99-2.14-33.81-5.5-50.32-10.04c-16.08-4.45-31.69-10.45-46.61-17.91
			c-14.19-7.11-27.42-16.01-39.36-26.47c-5.85-4.87-10.89-10.92-18.65-16.12c-4.18-2.84-8.81-4.93-13.71-6.18
			c-5.09-1.22-10.33-1.67-15.56-1.36c-9.17,0.81-18.25,2.39-27.15,4.73c-8.41,1.93-16.86,3.76-25.24,5.77
			c-16.78,3.98-33.61,7.81-50.31,12.01l-49.75,12.3c-7.23,1.83-14.71,2.49-22.15,1.95c-2.98-0.32-5.88-1.18-8.54-2.54
			c-2.66-1.46-5.03-3.39-7-5.71c-2.33-2.53-4.74-5.57-7.77-8.76l-4.85-4.55c-1.62-1.51-3.55-2.77-5.32-4.16
			c-7.54-5.28-15.79-9.44-24.52-12.36c-8.7-2.96-17.67-5.07-26.78-6.29c-8.94-1.26-17.95-2.05-26.97-2.38
			c-8.94-0.33-17.83-0.38-26.65-0.22c-8.89,0.21-17.37,0.48-26.01,0.42c-17.03,0.22-34.04-1.31-50.75-4.59
			c-2.11-0.46-4.2-0.98-6.27-1.55v6.08c1.33,0.44,2.66,0.9,4.01,1.3C24.91,260.18,42.55,262.88,60.32,263.56z"/>
		<path class="st1" d="M64.36,319.91c10.33,2.49,20.69,4.86,31.06,7.09c10.37,2.31,20.8,4.35,31.33,5.97
			c21.05,3.26,42.48,4.94,63.41,8.82c20.94,3.93,41.66,9,62.05,15.2c10.23,2.98,20.38,6.24,30.58,9.17l30.53,8.82
			c20.3,5.91,40.28,12.58,60.23,19.12l29.97,10.22c5.3,1.83,10.68,3.39,16.14,4.68c5.76,1.3,11.65,1.91,17.55,1.82
			c5.81-0.21,11.56-1.15,17.13-2.8c5.33-1.39,10.37-3.07,15.35-4.47c4.8-1.47,9.77-2.34,14.79-2.58c5-0.22,9.93,1.19,14.06,4.02
			l1.2-1.27c-0.96-0.98-1.88-2.08-2.95-3.02c-1.1-0.93-2.29-1.76-3.54-2.47c-1.26-0.73-2.59-1.34-3.97-1.81
			c-0.69-0.24-1.38-0.5-2.08-0.72l-2.12-0.47c-5.6-0.98-11.32-1.14-16.96-0.47c-5.5,0.49-10.82,1.29-15.95,1.9
			c-4.83,0.65-9.72,0.79-14.58,0.41c-4.74-0.51-9.41-1.56-13.92-3.12c-4.67-1.48-9.36-3.39-14.14-5.44
			c-4.75-2.1-9.76-4.22-14.77-6.23c-4.98-2.12-10.08-3.88-15.13-5.8c-10.18-3.55-20.45-6.92-30.86-9.66
			c-5.19-1.45-10.41-2.74-15.61-4.1c-5.23-1.25-10.45-2.54-15.68-3.7c-10.46-2.42-20.95-4.59-31.49-6.5s-21.16-3.32-31.74-4.87
			c-21.18-2.96-42.21-6.37-62.92-11.38c-20.73-4.91-40.97-12.07-61.59-17.56c-10.32-2.74-20.73-5.02-31.24-6.94
			c-10.49-1.98-21.04-3.73-31.61-5.22c-10.58-1.5-21.2-2.78-31.9-3.6c-10.37-0.88-20.78-1.44-31.25-1.37v2.09
			c9.87,3.11,19.77,5.83,29.67,8.43C43.7,314.89,54.03,317.42,64.36,319.91z"/>
		<path class="st1" d="M156.46,382.23c16.18,1.27,32.28,3.5,48.2,6.69c7.77,1.88,15.71,3.36,23.25,5.77
			c3.8,1.14,7.66,2.12,11.4,3.39c3.76,1.22,7.48,2.56,11.21,3.92c14.87,5.54,29.69,11.82,45.06,17.75
			c15.67,6.19,31.78,11.22,48.19,15.05c2.07,0.48,4.11,1.06,6.2,1.48l6.24,1.24c4.19,0.79,8.33,1.71,12.57,2.3l12.62,1.97
			l12.68,1.53c16.96,1.76,33.91,2.87,50.83,3.32c33.86,0.85,67.5-0.08,101.04-0.91c16.77-0.28,33.53-0.79,50.26-0.78
			c16.73,0.01,33.46,0.21,50.12,1.04c16.67,0.72,33.26,2.14,49.71,4.15c16.33,1.95,32.54,4.79,48.57,8.5
			c3.94,0.98,7.96,1.79,11.84,2.91l11.67,3.26c7.63,2.47,15.32,4.81,22.64,7.77c7.48,2.68,14.54,6.04,21.65,9.24
			c6.91,3.51,13.87,6.86,20.43,10.82c13.22,7.8,26.03,16.46,39.37,25.02c6.68,4.28,13.53,8.5,20.68,12.51l5.42,2.96l5.61,2.72
			l11.23,5.44c30.38,14.05,63.86,22.47,97.25,28.45l12.56,2.19l12.6,1.77c8.41,1.22,16.82,2.13,25.23,3.06
			c16.82,1.84,33.58,3.36,50.32,4.7c33.48,2.49,66.63,5,99.3,9.03l12.23,1.58c4.09,0.49,8.08,1.26,12.12,1.88l12.11,1.96
			c4,0.76,8.01,1.49,12.02,2.32c16.05,3.17,32.14,6.86,48.39,10.49c16.25,3.62,32.78,6.96,49.63,9.4c8.44,1.18,16.9,2.3,25.49,2.84
			c8.59,0.55,17.2,0.86,25.81,0.61c17.13-0.27,34.16-2.66,50.71-7.11c8.03-2.23,15.87-5.1,23.45-8.58
			c7.22-3.46,14.08-7.63,20.48-12.43l-1.38-1.33c-6.78,4.06-13.89,7.52-21.28,10.34c-7.56,2.8-15.32,5.01-23.22,6.6
			c-16.05,3.03-32.39,4.24-48.7,3.59c-32.73-1.07-64.49-8.84-96.24-17.11c-15.91-4.13-31.88-8.54-48.26-12.35
			c-4.09-0.97-8.23-1.84-12.36-2.74l-12.49-2.38c-4.17-0.75-8.32-1.66-12.51-2.29l-12.55-1.96c-33.49-5.14-67.19-7.8-100.43-10.87
			c-16.62-1.49-33.23-2.82-49.65-4.63c-8.21-0.89-16.43-1.76-24.54-2.93l-12.21-1.59l-12.08-1.91c-16.15-2.47-31.93-5.91-47.44-9.89
			l-2.92-0.72l-2.85-0.87l-5.7-1.74l-11.4-3.46l-11.01-4.13l-5.51-2.06L927.4,528l-2.63-1.21c-28.83-11.7-53.31-30.22-82.19-45.7
			c-7.16-3.93-14.85-7.27-22.39-10.72c-7.78-3.09-15.51-6.25-23.58-8.72c-7.93-2.76-16.14-4.83-24.27-7.03l-12.36-2.83
			c-4.12-0.97-8.32-1.61-12.46-2.43c-33.3-6.14-67.18-8.31-100.82-9.31c-33.69-0.89-67.32-0.25-100.84,0
			c-16.77,0.09-33.51-0.05-50.22-0.41c-16.7-0.52-33.36-1.27-49.91-2.62c-32.65-2.4-65.01-7.78-96.68-16.09
			c-15.38-4.16-30.49-9.23-45.26-15.2c-14.88-5.86-29.78-12.34-45.6-17.86c-3.95-1.39-7.93-2.75-11.99-4.01
			c-4.03-1.31-8.2-2.32-12.3-3.49c-8.16-2.46-16.64-3.97-24.98-5.85c-16.92-2.98-34.01-4.9-51.16-5.76
			c-17.07-0.82-34.17-0.71-51.22,0.33l-6.37,0.33l-6.34,0.5c-4.22,0.35-8.46,0.63-12.66,1.04c-8.4,0.96-16.81,1.77-25.14,2.95
			c-17.59,2.28-35,5.15-52.28,8.36v5.95c17.91-1.96,35.8-3.77,53.7-5.1C90.37,380.32,123.48,380.03,156.46,382.23z"/>
		<path class="st1" d="M1397.7,628.74l-12.37-2.32l-12.44-2.01c-8.29-1.3-16.59-2.69-24.92-3.92c-16.72-1.9-33.42-4.22-50.2-5.53
			c-8.4-0.7-16.78-1.65-25.17-2.15l-25.17-1.58c-8.41-0.59-16.78-0.85-25.17-1.3c-8.38-0.38-16.78-0.84-25.14-1.13
			c-16.75-0.62-33.49-1.06-50.18-1.54l-50.04-1.42c-16.61-0.65-33.28-1.01-49.82-2.01c-8.28-0.47-16.59-0.74-24.84-1.34l-24.75-1.81
			l-6.19-0.45l-6.15-0.63l-12.3-1.27c-8.19-0.88-16.45-1.55-24.55-2.8l-24.42-3.35c-8.08-1.33-16.11-2.86-24.19-4.24l-12.1-2.15
			l-11.9-2.72l-11.93-2.66l-5.98-1.33c-2-0.42-3.98-0.89-5.91-1.48c-15.52-4.51-31.32-8.52-46.47-14.01
			c-30.48-10.67-60.11-23.47-90.31-35.43c-30.54-12.24-61.92-22.27-93.91-30c-64.5-15.71-131.23-24.78-197.45-32.23
			c-33.13-3.73-66.33-7.06-99.58-10l-49.87-4.45l-49.91-4.11c-16.63-1.41-33.3-2.62-49.95-3.86c-16.66-1.26-33.32-2.45-50-3.56
			c-33.35-2.26-66.73-4.31-100.19-5.78l-0.25,1.73c32.97,4.86,66.03,9.19,99.11,13.26c16.54,2.08,33.1,4.06,49.66,5.98
			c16.55,1.92,33.11,3.9,49.69,5.66l49.73,5.41l49.76,5.1c33.19,3.38,66.43,6.4,99.72,9.06c33.3,2.6,66.53,4.84,99.6,8.11
			c16.53,1.68,32.98,3.71,49.37,6.08c16.37,2.47,32.59,5.49,48.63,9.06c31.71,7.11,62.71,17.11,92.6,29.87
			c29.69,12.38,58.37,26.54,88.65,38.8c15.06,6.32,30.94,11.21,46.6,16.58c1.95,0.7,3.94,1.29,5.96,1.81l6.03,1.65l12.07,3.3
			l12.1,3.24l12.28,2.67c8.2,1.73,16.39,3.61,24.65,5.15l24.92,4.07c8.29,1.5,16.67,2.35,25.03,3.42l12.54,1.54l6.27,0.76l6.29,0.59
			c33.52,3.49,67.12,5.35,100.65,6.98c33.51,1.47,66.98,2.24,100.29,3.34c33.32,0.92,66.56,2.13,99.58,4.39
			c16.58,0.83,32.95,2.68,49.42,4.09l24.52,2.95l12.27,1.51l12.21,1.82c59.97,9.36,118.9,24.23,177.97,38.86
			c2.96-0.08,5.93-0.17,8.89-0.26C1521.5,660.53,1461.14,641.22,1397.7,628.74z"/>
		<path class="st1" d="M1587.85,683.09l-0.72,1.64c-5-1.23-9.99-2.47-14.99-3.7c-41.36,1.15-82.7,1.27-124,0.51
			c-68.68-1.51-137.25-5.26-205.73-10.36l-51.37-3.84l-51.37-4.19c-17.13-1.37-34.26-2.82-51.39-4.35l-51.4-4.5l-102.82-9.13
			c-34.24-3.03-68.45-6.02-102.49-10.05c-17-2.06-34.01-4.18-50.88-6.87c-16.92-2.51-33.69-5.61-50.39-8.95
			c-33.16-6.78-65.9-15.5-98.05-26.1c-15.99-5.25-31.82-10.85-47.65-16.49l-47.51-17.1c-15.88-5.7-32.09-10.84-48.24-16.11
			c-16.32-4.88-32.66-9.78-49.26-14.01c-66.95-17.13-135.29-28.28-204.21-33.33c-34.57-2.74-69.31-3.99-103.98-3.58
			c-34.67,0.31-69.29,2.06-103.61,5.59l0.15,1.74c69.02-0.22,137.7,2.18,205.65,9.68c8.51,0.78,16.97,1.89,25.44,2.91
			c8.47,1.02,16.93,2.1,25.36,3.32c8.43,1.22,16.9,2.22,25.29,3.61l25.19,4.05c33.48,5.83,66.73,12.48,99.76,19.93
			c8.21,2,16.56,3.62,24.74,5.71l24.63,6.06c16.3,4.36,32.68,8.59,48.86,13.39c16.22,4.71,32.33,9.77,48.49,14.77
			c16.1,5.13,32.26,10.18,48.46,15.15c32.33,10.13,65.33,18.96,98.69,26.55c33.45,7.46,67.16,13.96,101.13,19.51
			c34,5.57,68.1,10.41,102.29,14.53c34.19,4.18,68.37,7.87,102.59,11.61c68.43,7.46,137.04,14.46,206.03,19.06
			c69,4.29,138.3,6.86,207.59,5.56c49.42-0.74,98.77-3.76,147.9-8.97v-6.07c-5,0.19-10,0.37-15,0.53
			C1583.3,681.54,1585.58,682.32,1587.85,683.09z"/>
		<path class="st1" d="M1587.85,683.09c-2.27-0.78-4.55-1.55-6.82-2.32c-2.96,0.09-5.93,0.18-8.89,0.26
			c4.99,1.24,9.99,2.47,14.99,3.7L1587.85,683.09z"/>
		<path class="st1" d="M11.03,603.92l5.44-2.6l5.56-2.33c14.81-6.11,30.23-10.66,45.99-13.58c15.72-2.83,31.67-4.14,47.64-3.9
			c31.93,0.07,64.29,8.78,96.36,17.34c32.09,8.65,64.08,17.6,96.35,25.91c8.07,2.04,16.15,4.13,24.27,6l12.18,2.86l12.24,2.56
			c16.33,3.41,32.8,6.1,49.3,8.65c33.01,5.07,66.26,8.47,99.62,10.18c16.68,0.71,33.43,1.04,49.95,1c8.27,0.03,16.5,0.09,24.69,0.31
			c8.2,0.16,16.37,0.38,24.5,0.96c8.13,0.58,16.24,1.24,24.29,2.32c8.01,1.07,16.22,2.61,24.63,3.61c8.5,1.24,17.11,1.46,25.67,0.67
			c4.32-0.52,8.56-1.52,12.65-2.99c4.01-1.57,7.78-3.71,11.19-6.34l-0.97-1.45c-3.57,1.85-7.38,3.22-11.31,4.06
			c-3.9,0.74-7.87,1.06-11.85,0.96c-8.03-0.4-16-1.64-23.78-3.7c-7.92-1.92-15.83-4.32-24.14-6.19c-8.26-1.91-16.59-3.48-24.95-4.62
			c-8.37-1.17-16.74-2.11-25.1-2.83c-8.36-0.67-16.7-1.19-25.01-1.67l-24.81-1.29l-24.67-1.42c-32.86-2.06-65.71-4.36-98.49-7.93
			c-16.37-1.87-32.72-3.94-49.09-6.1c-16.37-2.16-32.76-4.35-49.09-6.96c-32.73-4.99-65.06-12.33-96.74-21.97
			c-15.84-4.74-31.34-10.68-47.35-15.77c-8-2.54-16.12-4.91-24.43-6.8c-4.14-1-8.37-1.73-12.61-2.33c-4.23-0.74-8.5-1.26-12.79-1.56
			c-17.18-1.39-34.46-0.31-51.33,3.2c-16.83,3.41-33.16,8.95-48.59,16.48l-5.77,2.8c-1.88,1.02-3.73,2.09-5.58,3.16l-1.37,0.79
			v14.07l1.82-0.99L11.03,603.92z"/>
		<path class="st1" d="M51.93,695.61c8.19-1.99,16.39-3.75,24.5-5.81c8.2-1.74,16.52-2.93,24.74-4.47l3.08-0.57l3.12-0.38l6.24-0.75
			l12.47-1.58c4.14-0.65,8.35-0.79,12.53-1.14s8.37-0.65,12.55-1.06c4.17-0.47,8.38-0.58,12.59-0.83l12.61-0.75
			c33.89-2.16,67.88-2.09,101.76,0.21c33.96,2.63,67.69,7.79,101.46,13.24c8.44,1.34,16.88,2.69,25.36,3.94s16.93,2.57,25.47,3.5
			c17.01,2.15,34.16,3.55,51.33,4.64c34.36,2.07,68.82,1.96,103.16-0.33c17.15-1.13,34.24-2.8,51.25-4.85
			c17.02-2.05,33.99-4.36,50.89-7.1c33.8-5.42,67.38-11.8,100.75-19.46l-0.25-1.73c-34.2,1.77-68.19,4.89-102.14,7.55l-25.44,1.99
			c-8.47,0.74-16.94,1.3-25.42,1.93c-16.94,1.09-33.86,2.28-50.77,3.08c-16.91,0.98-33.81,1.56-50.71,2.17
			c-8.45,0.18-16.9,0.47-25.35,0.42c-8.45,0.11-16.9,0-25.34-0.13c-16.9-0.43-33.81-1.17-50.77-2.12
			c-16.95-0.95-33.97-1.79-50.98-2.99c-34.05-2.19-68.02-5.6-101.98-9.37c-33.94-3.73-68.01-8.69-102.58-9.16l-12.96,0.08
			c-4.32,0.03-8.64,0.07-12.96,0.46c-4.33,0.28-8.64,0.67-12.96,1.01c-4.31,0.38-8.63,0.64-12.92,1.37l-12.87,1.91l-6.43,1
			l-3.21,0.5l-3.18,0.69l-12.71,2.88l-6.34,1.45c-2.11,0.49-4.24,0.92-6.3,1.6c-8.33,2.47-16.62,5.08-24.83,7.77
			c-8.12,2.87-16,5.99-23.92,8.65c-6.76,2.39-13.71,4.17-20.76,5.41v6.56c7.82-0.23,15.6-1.21,23.22-3.02
			C35.49,700.21,43.78,697.86,51.93,695.61z"/>
		<path class="st1" d="M699.86,736.48c-11.68-0.44-23.35-1.33-35.04-1.8c-5.85-0.25-11.68-0.62-17.53-1l-17.54-1
			c-11.7-0.61-23.38-1.56-35.07-2.32c-46.78-3.27-93.47-8.29-140.17-13.34c-11.69-1.13-23.36-2.65-35.07-3.7l-17.56-1.85l-17.6-1.58
			l-8.81-0.8l-8.83-0.6l-17.67-1.18l-17.72-0.6l-8.87-0.28c-2.96-0.02-5.92,0-8.88,0.05l-17.77,0.23c-5.93,0.23-11.84,0.62-17.76,1
			c-2.96,0.2-5.92,0.34-8.88,0.59l-8.86,0.91c-5.9,0.61-11.8,1.29-17.69,2.06c-23.57,3.24-46.88,8.18-69.75,14.78
			c-11.52,3.01-22.64,7.08-33.74,10.8c-11.1,3.73-22.11,7.51-33.22,10.73c-22.17,6.39-45.13,10.66-68.41,7.84l-0.34,1.71
			c11.56,3.03,23.5,4.35,35.45,3.92c11.94-0.44,23.81-1.92,35.49-4.42c23.37-4.69,45.76-12.27,68.26-17.5l16.89-3.96
			c5.65-1.2,11.39-2.08,17.06-3.19l8.52-1.63c2.84-0.54,5.72-0.85,8.58-1.29l17.19-2.45c23.03-2.42,46.1-4.75,69.35-5.6
			c2.91-0.14,5.82-0.31,8.72-0.5l8.72-0.27l17.47-0.57l17.51-0.18l8.76-0.09l8.77,0.11c23.39,0.04,46.79,1.43,70.16,3.15
			c46.73,3.86,93.15,10.66,139.7,17.19c23.28,3.2,46.6,6.35,70.02,8.77c23.41,2.47,46.89,4.28,70.41,5.75
			c47.1,3.12,94.34,3.7,141.5,1.74c47.24-2.19,94.26-7.76,140.7-16.68c46.39-8.84,91.83-22.06,135.73-39.47l-0.55-1.65
			c-45.2,12.02-91.1,21.23-137.43,27.58c-46.18,6.24-92.66,10.13-139.23,11.64c-46.56,1.81-93.24,1.84-139.94,0.37
			C723.21,737.6,711.54,736.91,699.86,736.48z"/>
		<path class="st1" d="M994.57,808.27c-31.46-0.23-62.93-0.98-94.42-1.97c-31.48-0.99-63.01-2.03-94.51-3.64
			c-63.11-3.03-125.94-8.13-188.49-15.3c-62.56-6.92-124.61-17.8-188.43-21.37c-31.95-1.76-63.97-1.57-95.89,0.58
			c-7.97,0.53-15.94,1.09-23.87,1.9l-11.92,1.12l-11.87,1.38l-11.85,1.47l-11.79,1.76c-3.92,0.6-7.86,1.14-11.77,1.8l-11.71,2.04
			c-7.82,1.3-15.58,2.83-23.31,4.46c-7.76,1.52-15.41,3.39-23.08,5.15c-15.33,3.56-30.46,7.68-45.4,12.16
			c-29.57,8.76-58.52,19.49-86.66,32.1l0.93,1.57c29.43-9.39,59.18-17.77,89.33-24.86c15.09-3.52,30.25-6.74,45.49-9.65
			c7.63-1.4,15.23-2.91,22.92-4.06c7.68-1.21,15.31-2.59,23.03-3.62l11.54-1.67c3.85-0.54,7.73-0.95,11.59-1.43l11.59-1.4
			l11.63-1.15l11.61-1.19l11.65-0.93c7.76-0.7,15.55-1.13,23.33-1.55c7.77-0.54,15.58-0.66,23.37-1.01
			c7.79-0.42,15.59-0.44,23.39-0.61c15.61-0.11,31.21-0.28,46.85,0.14c62.55,1.31,125.59,6.51,188.38,12.47
			c62.8,6,125.45,12.91,188.32,19.2c15.7,1.67,31.46,2.97,47.21,4.41c15.75,1.53,31.55,2.56,47.35,3.7
			c15.78,1.27,31.63,1.86,47.45,2.71c15.83,0.92,31.7,1.22,47.56,1.77c63.45,1.86,127.15,1.32,190.6-2.92l11.89-0.79l11.87-1.06
			l23.73-2.15l11.86-1.08l11.82-1.37l23.61-2.89c31.4-4.08,62.78-9.1,93.53-14.8c15.42-2.69,30.75-5.58,46.14-7.93
			c15.39-2.35,30.81-4.42,46.31-5.84c15.52-1.47,31.11-2.04,46.7-1.71c15.62,0.39,31.19,1.95,46.58,4.65l0.6-1.67
			c-15.26-4.23-30.87-7.11-46.64-8.59c-15.95-1.6-31.99-2.13-48.02-1.58c-32.06,0.89-63.73,4.9-94.91,9.18
			c-15.62,2.1-31.11,4.46-46.65,6.17l-23.27,2.85l-11.63,1.43l-11.69,1.11c-31.14,3.11-62.34,5.82-93.65,7.52
			C1120.33,807.15,1057.49,808.68,994.57,808.27z"/>
		<path class="st1" d="M1491.48,856.66c-8-0.97-16.02-1.8-24.04-2.72c-8.02-0.92-16.08-1.43-24.13-2.17
			c-8.06-0.69-16.11-1.32-24.19-1.71l-24.22-1.37l-24.25-0.81c-8.09-0.31-16.16-0.4-24.25-0.53c-8.08-0.08-16.18-0.34-24.25-0.28
			c-16.16,0.04-32.32,0.08-48.46,0.37c-32.29,0.4-64.5,1.68-96.65,2.72c-64.3,2.55-128.29,5.72-192.32,6.32
			c-32.02,0.29-64.05-0.06-96.09-0.71c-32.04-0.71-64.11-1.61-96.14-3.34c-63.99-3.15-127.76-9.81-191.02-19.93
			c-63.05-9.95-125.81-23.42-191.18-26.75c-32.66-1.68-65.4-0.65-97.88,3.07c-16.17,1.82-32.25,4.02-48.18,6.73
			c-7.96,1.38-15.91,2.78-23.78,4.44c-7.9,1.57-15.77,3.18-23.57,4.98l-11.73,2.62l-11.63,2.87c-7.76,1.89-15.46,3.94-23.14,6.01
			c-15.39,4.05-30.6,8.52-45.72,13.14c-30.25,9.2-60.05,19.2-89.57,29.75l0.74,1.65c30.95-7.34,61.67-15.17,92.45-22.59
			c7.71-1.82,15.39-3.72,23.12-5.44c7.71-1.77,15.39-3.64,23.13-5.29c7.72-1.71,15.44-3.42,23.2-4.95l11.61-2.41l11.64-2.24
			c7.75-1.56,15.54-2.93,23.34-4.25c7.77-1.43,15.62-2.51,23.42-3.74c15.62-2.44,31.32-4.38,47.06-5.95
			c7.86-0.84,15.77-1.23,23.63-1.98c7.88-0.57,15.78-0.91,23.67-1.39l23.7-0.62c7.9-0.06,15.82-0.11,23.74,0.09
			c63.43,1.03,127.29,8.78,190.67,17.8c63.46,9.06,127.12,17.33,191.18,23.88c32.04,3.19,64.17,6.01,96.41,7.81
			c32.23,1.86,64.55,2.83,96.88,3.21c64.69,0.83,129.31-1.37,193.52-4.24l48.14-2.32l48.07-2.09c32.02-1.38,64.04-2.29,96.05-2.72
			c32.02-0.54,64,0.11,96.01,1.21c7.99,0.39,15.97,0.88,23.99,1.18s15.97,1.09,23.97,1.6c7.99,0.56,16,1.12,23.94,2.05l23.95,2.34
			l0.41-1.71c-15.7-2.93-31.41-6.15-47.36-8.25C1507.43,858.93,1499.49,857.55,1491.48,856.66z"/>
		<path class="st1" d="M540.99,871.21c-4.91,0.02-9.74,0.19-14.56,0.35c-9.63,0.33-19.12,0.77-28.59,1.33
			c-9.48,0.56-18.86,1.81-28.14,2.31c-4.65,0.25-9.26,0.23-13.9,0.35c-4.63,0.02-9.31,0.11-14-0.25c-4.72-0.3-9.38-1.2-13.87-2.67
			c-4.55-1.52-9.05-3.49-13.71-5.44c-9.47-4.18-19.51-6.95-29.79-8.22c-4.96-0.51-9.95-0.53-14.91-0.07
			c-5.05,0.38-10.07,1.14-15.01,2.26c-10.17,2.02-19.68,6.56-27.64,13.21l0.69,1.61c10.13-0.72,19.3-1.18,28.68-1.34l14.06-0.25
			c4.77,0,9.53-0.3,14.26-0.88c4.74-0.57,9.36-1.55,14.01-1.97c4.62-0.56,9.3-0.23,13.79,0.97c4.6,1.42,9.06,3.28,13.32,5.54
			c4.44,2.21,9.05,4.52,13.79,6.51c4.75,2.06,9.67,3.7,14.7,4.89c5,1.14,10.08,1.88,15.2,2.23c10.03,0.93,20.12,0.84,30.14-0.25
			c9.92-1.21,19.71-3.32,29.25-6.3c4.79-1.47,9.49-3.21,14.08-5.21c4.66-1.94,9.17-4.24,13.48-6.86l-0.43-1.69
			C550.83,871.11,545.88,871.13,540.99,871.21z"/>
		<polygon class="st1" points="1498.14,337.06 1498.14,337.06 1498.14,337.06 		"/>
		<path class="st1" d="M1500.16,337.43c0-0.04-0.07,0.02-0.09,0.02c0,0,0,0,0,0c0.03,0.03,0.07,0.07,0.1,0.1
			C1500.16,337.5,1500.16,337.45,1500.16,337.43z"/>
		<path class="st1" d="M1564.36,241.12l-6.11,1.84l-6.05,2.06c-4.04,1.34-8.03,2.85-12.02,4.27c-15.93,5.95-31.67,11.91-47.72,17.09
			c-16.04,5.33-32.6,9.12-48.68,15.42c-2.48,0.98-4.83,2.28-6.98,3.86c-2.85,2.08-5.02,4.96-6.25,8.27
			c-1.28,3.5-1.42,7.33-0.39,10.91c0.86,2.95,2.29,5.7,4.21,8.1c1.6,2.08,3.43,3.97,5.45,5.65c0.95,0.79,1.92,1.56,2.95,2.29
			c1.03,0.73,2.03,1.39,2.92,1.95c3.71,2.31,7.49,4.52,11.39,6.48c7.74,3.99,15.86,7.18,24.25,9.54c4.15,1.2,8.37,2.16,12.63,2.9
			c1.2,0.26,2.42,0.41,3.64,0.44c1.59,0.08,3.17-0.36,4.49-1.27c0.37-0.29,0.69-0.63,0.96-1.02c0.13-0.2,0.25-0.41,0.35-0.62
			c0.13-0.29,0.23-0.6,0.28-0.92c0.14-1.14-0.39-2.26-1.37-2.88c-0.68-0.46-1.48-0.71-2.3-0.7c-0.6-0.01-1.17,0.24-1.57,0.68
			c-0.36,0.45-0.46,1.05-0.28,1.6c0,0,0,0,0,0l1.74-0.27c0.05-0.12,0.15-0.12,0.05,0.12c-0.12,0.2-0.23,0.2-0.12,0.27
			c0.1,0.07,0.16,0.18,0.25,0.27c0,0,0,0,0,0c0.02,0,0.1-0.06,0.09-0.02c0,0.03,0,0.08,0,0.12c0.06,0.07,0.14,0.12,0.18,0.19
			c0.14,0.25-0.14,0.29-0.18-0.13c0.01-0.03,0-0.04,0-0.07c-0.03-0.04-0.06-0.07-0.1-0.1c-0.07,0.02-0.14,0.03-0.21,0.02
			c-0.55-0.04-1.09-0.16-1.61-0.36c-0.04-0.01-0.07-0.03-0.11-0.05l0,0c0,0,0,0,0,0c-0.71-0.26-1.37-0.65-2.32-1.11
			c-3.75-1.8-7.39-3.78-11.02-5.69c-7.19-3.99-14.17-8.15-20.88-12.66c-3.34-2.28-6.65-4.56-9.86-6.99
			c-0.85-0.62-1.54-1.14-2.22-1.69c-0.68-0.55-1.31-1.12-1.92-1.7c-1.15-1.08-2.19-2.26-3.12-3.53c-0.68-0.91-1.19-1.93-1.52-3.02
			c-0.14-0.47-0.16-0.97-0.04-1.45c0.05-0.41,0.3-0.86,1.13-1.7c1.16-1,2.42-1.88,3.77-2.63c14.3-7.96,28.77-16.98,44.24-23.21
			c15.56-6.14,31.74-10.55,48.26-13.15c8.24-1.39,16.51-2.51,24.73-3.72c8.22-1.21,16.4-2.48,24.59-3.58
			c1.34-0.19,2.7-0.35,4.05-0.52v-17.16c-2.28,0.46-4.58,0.92-6.89,1.44C1580.8,236.76,1572.52,238.68,1564.36,241.12z"/>
		<path class="st1" d="M1587.03,34.63c-1.39,9.59-3.64,19.04-6.73,28.22c-1.46,4.64-3.18,9.2-4.92,13.8
			c-1.74,4.6-3.54,9.18-5.45,13.76c-3.86,9.16-7.58,18.52-11.5,27.41c-3.72,8.8-7.99,17.36-12.76,25.64
			c-4.52,7.93-10.29,15.08-17.09,21.18c-6.85,5.9-14.83,10.34-23.46,13.06c-9.31,2.97-18.81,5.31-28.44,7.01
			c-4.95,0.94-9.95,1.98-14.96,3.02c-5.01,1.15-9.99,2.31-14.92,3.64c-9.84,2.71-19.54,5.83-29.12,9.36
			c-19.08,7.04-38.39,15.19-55.32,27.6c-2.3,1.6-4.47,3.37-6.5,5.3c-2.58,2.41-4.62,5.35-5.98,8.6c-1.39,3.4-1.97,7.07-1.7,10.74
			c0.23,3.22,0.9,6.39,2.01,9.42c2,5.19,4.56,10.14,7.62,14.77c2.83,4.4,5.81,8.71,9.02,12.83c6.39,8.22,13.62,15.75,21.57,22.47
			c7.82,6.72,16.43,12.46,25.63,17.12l1.03-1.43c-3.52-3.66-6.98-7.29-10.34-10.96c-3.36-3.68-6.54-7.48-9.7-11.25
			c-6.13-7.61-11.84-15.55-17.09-23.79c-2.54-4.13-5.04-8.28-7.34-12.52c-2.27-3.9-4.18-8-5.71-12.24c-1.18-2.98-1.36-6.27-0.5-9.36
			c0.55-1.41,1.37-2.7,2.42-3.79c1.52-1.64,3.13-3.2,4.81-4.67c14.17-13.1,29.86-25.74,48.16-33.61c9.1-3.97,18.62-6.92,28.37-8.81
			c9.78-1.82,19.7-2.81,29.65-2.94c10.4-0.1,20.78-1.1,31.01-2.99c10.95-2.23,21.24-6.92,30.11-13.72l3.31-2.59l3.09-2.79
			c2.13-1.83,3.91-3.91,5.85-5.9c3.59-4.1,6.9-8.44,9.9-12.99c5.77-8.86,10.64-18.28,14.52-28.11c3.9-9.64,7.16-19.17,10.23-28.89
			c1.54-4.86,2.99-9.8,4.37-14.77c1.28-5.02,2.46-10.07,3.42-15.2c1.01-5.15,1.71-10.34,2.11-15.57c0.16-1.59,0.24-3.21,0.3-4.82
			v-8.71c-0.03-0.74-0.04-1.49-0.08-2.23c-0.48-9.89-2.84-19.58-6.92-28.6h-2.24C1588.17,15.7,1588.27,25.23,1587.03,34.63z"/>
		<path class="st1" d="M1374.04,53.62l-10.52,11.68c-7.04,7.75-13.99,15.57-20.93,23.39c-6.89,7.83-13.81,15.77-20.51,23.67
			c-6.57,7.78-13.54,15.22-20.88,22.28c-7.19,6.84-15.09,12.88-23.57,18.02c-8.5,5.06-17.99,9.51-27.55,14.3
			c-9.86,4.64-19.08,10.54-27.43,17.54c-8.52,7.2-14.82,16.67-18.16,27.31c-1.56,5.56-1.88,11.39-0.94,17.08
			c1.03,5.61,2.86,11.04,5.45,16.12c2.43,5.03,5.28,9.68,7.99,14.2c2.72,4.47,5.33,8.85,7.89,13.33c5.15,8.9,10.2,17.79,15.11,26.79
			c4.89,9.08,9.3,18.12,13.76,27.71c3.27,6.82,6.97,14.1,12.17,20.47c5.67,1.24,11.32,2.55,16.94,3.97
			c-1.27-1.13-2.46-2.33-3.54-3.58c-5.99-7.18-9.53-16.4-13.06-26.12c-1.72-4.88-3.62-9.98-5.73-14.93
			c-2.11-4.95-4.33-9.86-6.77-14.67c-4.76-9.67-10.36-18.92-16.72-27.62c-3.2-4.32-6.61-8.55-10.05-12.6
			c-3.44-4-6.81-7.84-9.72-11.87c-2.93-3.87-5.22-8.2-6.76-12.81c-1.42-4.59-1.62-9.47-0.58-14.15c2.53-9.71,8.37-18.24,16.51-24.12
			c1.99-1.54,4.06-2.97,6.2-4.28c2.18-1.24,4.42-2.4,6.74-3.46c4.68-2.11,9.48-3.95,14.37-5.53l15.04-4.85
			c5.21-1.65,10.32-3.6,15.29-5.84c10.09-4.74,19.5-10.82,27.98-18.06c8.3-6.99,16.16-14.49,23.53-22.45
			c7.35-7.72,14.24-15.65,21.07-23.71c6.78-8.1,13.43-16.31,19.82-24.73l9.56-12.64c3.14-4.25,6.19-8.57,9.27-12.86
			c10.24-14.32,19.79-29.12,28.7-44.3h-6.12c-11.34,11.76-22.3,23.75-33.28,35.69L1374.04,53.62z"/>
		<path class="st1" d="M1272.94,354.63c4.51,3.75,9.81,6.41,15.51,7.78c5.59,1.4,11.5,0.86,16.74-1.54l-0.53-1.67
			c-8.43,1.02-15.99-2.55-21.78-7.7c-5.62-1.42-11.28-2.73-16.94-3.97C1268.02,350.06,1270.31,352.47,1272.94,354.63z"/>
		<path class="st1" d="M790.79,22.54c-8.33,8.19-17.53,15.45-27.43,21.65c-20.5,12.57-42.2,23.04-64.79,31.27
			c-11.42,4.37-23.06,8.37-34.67,12.71c-11.63,4.27-23.12,8.9-34.71,13.24c-23.01,9.05-46.65,16.41-70.73,22.03
			c-24.09,5.53-48.82,7.65-73.14,9.97l-36.54,3.36c-12.32,1.12-24.83,2.44-37.34,4.81c-12.71,2.23-25.03,6.25-36.61,11.94
			c-11.64,5.74-21.48,14.57-28.44,25.52l1.36,1.09c8.86-8.13,19.34-14.29,30.75-18.08c11.39-3.54,23.11-5.9,34.98-7.04
			c11.99-1.28,24.18-1.92,36.53-2.77c12.51-0.72,24.97-2.19,37.31-4.42c24.7-4.66,48.54-12.34,72.49-18.91
			c23.95-6.56,47.99-12.62,72.18-18.37c24.21-5.8,48.13-11.79,72.01-19.51c11.95-3.82,23.84-8.09,35.55-13.11
			c11.86-4.99,23.24-11.06,33.99-18.14c10.97-7.2,20.92-15.85,29.58-25.7c4.31-4.98,8.27-10.25,11.85-15.78
			c2.45-3.89,4.69-7.9,6.82-11.97h-17.33c-0.76,1.04-1.49,2.1-2.28,3.12C798.71,14.06,794.89,18.44,790.79,22.54z"/>
		<path class="st1" d="M1149.05,54.45c-3.8,3.76-7.33,7.84-10.8,11.96l-2.61,3.07c-0.85,1.04-1.63,2.16-2.44,3.24
			c-1.62,2.16-3.19,4.37-4.75,6.57c-3.09,4.4-5.9,9-8.42,13.75c-2.57,4.68-4.92,9.43-7.23,14.17
			c-9.06,18.93-17.34,38.05-30.04,54.25c-6.36,7.97-13.71,15.08-21.87,21.18c-8.03,6.05-16.53,11.45-25.42,16.14
			c-2.21,1.15-4.41,2.31-6.58,3.52c-2.2,1.15-4.49,2.15-6.7,3.26c-4.4,2.32-9.04,4.09-13.55,6.18c-2.3,0.97-4.67,1.72-6.98,2.65
			c-2.3,0.94-4.65,1.77-7.04,2.48l-7.12,2.28c-2.4,0.68-4.83,1.23-7.24,1.89c-19.77,4.92-40.12,7.11-60.49,6.5l-0.32,1.72
			c2.51,0.82,5.04,1.59,7.6,2.33l3.85,1.08c1.3,0.26,2.6,0.55,3.91,0.78l7.89,1.42c2.65,0.32,5.32,0.5,7.99,0.75
			c1.34,0.11,2.68,0.26,4.02,0.32l4.03,0.07c2.69,0.01,5.38,0.04,8.08-0.02c5.39-0.27,10.77-0.81,16.1-1.63
			c21.56-3.09,42.14-11.02,60.2-23.2c2.26-1.5,4.43-3.13,6.5-4.88c2.09-1.73,4.3-3.27,6.26-5.15c3.92-3.74,7.95-7.29,11.48-11.38
			c7.19-7.86,13.85-16.2,19.91-24.96c12.04-17.34,22.08-35.77,33.79-52.81c11.29-16.76,24.56-32.1,39.51-45.7
			c14.89-13.61,31.47-25.61,47.73-38.52c8.14-6.47,16.27-13.08,24.16-20.1c0.5-0.44,0.99-0.89,1.49-1.33h-28.05l-8.98,6.67
			C1179.9,25.53,1163.9,39.39,1149.05,54.45z"/>
	</g>
</g>
</svg>
