<!-- Generator: Adobe Illustrator 24.1.2, SVG Export Plug-In  -->
<svg version="1.1" xmlns="http://www.w3.org/2000/svg" xmlns:xlink="http://www.w3.org/1999/xlink" x="0px" y="0px"
	 width="2310.26px" height="1300px" viewBox="0 0 2310.26 1300" style="overflow:visible;enable-background:new 0 0 2310.26 1300;"
	 xml:space="preserve">
<style type="text/css">
	.st0{fill:#FFEB88;}
	.st1{fill:#FFDE57;}
</style>
<defs>
</defs>
<g>
	<g id="Rectángulo_74_2_">
		<rect class="st0" width="2310.26" height="1299.52"/>
	</g>
	<g>
		<path class="st1" d="M718.53,1136.84c346.54-210.81,482.27-398.52,542.91-693.08c35.63-173.07,141.05-341.11,251.23-443.28
			h-326.12C1060.74,45.76,901.3,152.41,822.49,403.33C684.26,843.41,201.55,586.28,1.62,1072.19V1300h653.82
			C634.99,1245.46,640.16,1184.51,718.53,1136.84z"/>
		<path class="st1" d="M1234.8,1004.43c210.65-125.14,243.23-299.29,277.71-483.67c13.89-74.24,28.25-151.01,54.63-227.7
			c46.98-136.53,141.06-218.23,211.71-262.72c18.73-11.79,36.83-21.66,53.54-29.86h-31.33c-9.54,5.27-19.39,11.03-29.45,17.35
			c-72.78,45.74-169.71,129.8-218.13,270.53c-26.73,77.69-41.19,154.99-55.17,229.74c-33.87,181.08-65.86,352.11-270.9,473.91
			c-198.88,118.15-253.1,200.49-277.19,307.99h14.96C989.23,1197.64,1043.48,1118.09,1234.8,1004.43z"/>
		<path class="st1" d="M1291.24,1021.43c208.55-123.89,240.9-296.87,275.16-480.02c13.92-74.43,28.32-151.4,54.84-228.46
			C1668.78,174.77,1764,92.17,1835.52,47.2c33.94-21.34,65.89-36.46,91.16-46.72h-9.38c-24,10.17-52.98,24.36-83.58,43.59
			c-72.04,45.28-167.98,128.47-215.89,267.7c-26.6,77.31-41.02,154.42-54.97,228.98c-34.1,182.31-66.31,354.52-273.45,477.58
			c-182.44,108.38-242.07,186.3-268.86,281.67h3.81C1051.15,1205.87,1110.72,1128.67,1291.24,1021.43z"/>
		<path class="st1" d="M1990.15,504.61c2.82,18.39,7.43,36.18,13.61,53.22h304.51v-53.22H1990.15z"/>
		<path class="st1" d="M2269.58,744.09c13.13,0,26.04-0.91,38.69-2.65v-23.96h-158.45C2186.19,734.52,2226.76,744.09,2269.58,744.09
			z"/>
		<path class="st1" d="M2072.79,664.27h235.48v-53.22h-278.51C2041.93,630.51,2056.4,648.36,2072.79,664.27z"/>
		<path class="st1" d="M1987.11,451.39h321.16v-53.22h-314.23C1990.11,415.37,1987.74,433.16,1987.11,451.39z"/>
		<path class="st1" d="M2095.71,238.52h212.56V185.3h-99.6C2166.77,194.51,2128.37,213,2095.71,238.52z"/>
		<path class="st1" d="M2011.95,344.96h296.32v-53.22H2043.4C2031.06,308.17,2020.52,326.02,2011.95,344.96z"/>
		<g>
			<circle class="st1" cx="1996.22" cy="1268.15" r="14.1"/>
			<circle class="st1" cx="2054.27" cy="1268.15" r="14.1"/>
			<circle class="st1" cx="2112.32" cy="1268.15" r="14.1"/>
			<circle class="st1" cx="2170.38" cy="1268.15" r="14.1"/>
			<circle class="st1" cx="2228.43" cy="1268.15" r="14.1"/>
			<circle class="st1" cx="2286.48" cy="1268.15" r="14.1"/>
			<circle class="st1" cx="2054.27" cy="1224.19" r="14.1"/>
			<circle class="st1" cx="2112.32" cy="1224.19" r="14.1"/>
			<circle class="st1" cx="2170.38" cy="1224.19" r="14.1"/>
			<circle class="st1" cx="2228.43" cy="1224.19" r="14.1"/>
			<circle class="st1" cx="2286.48" cy="1224.19" r="14.1"/>
			<circle class="st1" cx="2112.32" cy="1178.58" r="14.1"/>
			<circle class="st1" cx="2170.38" cy="1178.58" r="14.1"/>
			<circle class="st1" cx="2228.43" cy="1178.58" r="14.1"/>
			<circle class="st1" cx="2286.48" cy="1178.58" r="14.1"/>
			<circle class="st1" cx="2170.38" cy="1134.63" r="14.1"/>
			<circle class="st1" cx="2228.43" cy="1134.63" r="14.1"/>
			<circle class="st1" cx="2286.48" cy="1134.63" r="14.1"/>
		</g>
	</g>
</g>
</svg>
