<!-- Generator: Adobe Illustrator 24.1.2, SVG Export Plug-In  -->
<svg version="1.1" xmlns="http://www.w3.org/2000/svg" xmlns:xlink="http://www.w3.org/1999/xlink" x="0px" y="0px" width="76.2px"
	 height="50.2px" viewBox="0 0 76.2 50.2" style="overflow:visible;enable-background:new 0 0 76.2 50.2;" xml:space="preserve">
<style type="text/css">
	.st0{fill:#DB9405;}
	.st1{fill:#FBAC00;}
	.st2{fill:url(#Trazado_18_2_);}
	.st3{fill:url(#Trazado_18_3_);}
</style>
<defs>
</defs>
<g>
	<g id="Boton_verde_3_" transform="translate(-0.395 -0.455)">
		<g transform="matrix(-1, 0, 0, -1, 82.51, 50)">
			<path id="Rectángulo_31-2_3_" class="st0" d="M29.42-0.65h27c12.98,0,23.5,10.52,23.5,23.5l0,0c0,12.98-10.52,23.5-23.5,23.5
				h-27c-12.98,0-23.5-10.52-23.5-23.5l0,0C5.92,9.87,16.44-0.65,29.42-0.65z"/>
		</g>
	</g>
	<g id="Boton_verde_2_" transform="translate(-0.395 -0.455)">
		<g transform="matrix(-1, 0, 0, -1, 82.51, 50)">
			<path id="Rectángulo_31-2_2_" class="st1" d="M31.62,2.55h27c12.98,0,23.5,10.52,23.5,23.5l0,0c0,12.98-10.52,23.5-23.5,23.5
				h-27c-12.98,0-23.5-10.52-23.5-23.5l0,0C8.12,13.07,18.64,2.55,31.62,2.55z"/>
		</g>
	</g>
	<g id="Grupo_7_1_" transform="translate(26.701 6.722)">
		
			<linearGradient id="Trazado_18_2_" gradientUnits="userSpaceOnUse" x1="15.8061" y1="226.0756" x2="15.8061" y2="225.0516" gradientTransform="matrix(-15.5622 0 0 33.451 256.2772 -7528.8521)">
			<stop  offset="0" style="stop-color:#FFFFFF"/>
			<stop  offset="0.432" style="stop-color:#F7F7F7"/>
			<stop  offset="1" style="stop-color:#E6E6E6"/>
		</linearGradient>
		<path id="Trazado_18_1_" class="st2" d="M3.07,18.59l9.06,13.47c0.6,0.9,1.62,1.44,2.7,1.44c1.8,0,3.25-1.46,3.25-3.25
			c0-0.65-0.19-1.28-0.55-1.81l-6.62-9.84c-0.74-1.1-0.74-2.53,0-3.63l6.62-9.84c1-1.49,0.61-3.51-0.89-4.51
			c-0.54-0.36-1.17-0.55-1.81-0.55c-1.08,0-2.1,0.54-2.7,1.44L3.07,14.96C2.33,16.06,2.33,17.5,3.07,18.59z"/>
	</g>
</g>
</svg>
