<!-- Generator: Adobe Illustrator 24.1.2, SVG Export Plug-In  -->
<svg version="1.1" xmlns="http://www.w3.org/2000/svg" xmlns:xlink="http://www.w3.org/1999/xlink" x="0px" y="0px"
	 width="108.44px" height="101.05px" viewBox="0 0 108.44 101.05"
	 style="overflow:visible;enable-background:new 0 0 108.44 101.05;" xml:space="preserve">
<style type="text/css">
	.st0{fill:#006CB2;}
	.st1{fill:#7EB8F9;}
	.st2{fill:#29ABE2;}
	.st3{fill:#0000FF;}
	.st4{fill:#F8D31B;}
	.st5{fill:#AE36C5;}
	.st6{fill:#FF0000;}
</style>
<defs>
</defs>
<g>
	<path id="Trazado_62_2_" class="st0" d="M8.62,5h86.2c4.76,0,8.62,3.51,8.62,7.84v80.37c0,4.33-3.86,7.84-8.62,7.84H8.62
		c-4.76,0-8.62-3.51-8.62-7.84V12.84C0,8.51,3.86,5,8.62,5z"/>
	<path id="Trazado_62-2-2_2_" class="st1" d="M13.62,0h86.2c4.76,0,8.62,3.51,8.62,7.84v80.37c0,4.33-3.86,7.84-8.62,7.84h-86.2
		C8.86,96.05,5,92.54,5,88.21V7.84C5,3.51,8.86,0,13.62,0z"/>
	<g id="Grupo_1012_1_">
		<path id="Rectángulo_280_1_" class="st2" d="M81.26,17.39l6.05,6.05c2.62,2.62,2.62,6.87,0,9.49c0,0,0,0,0,0l-4.91,4.91l0,0
			L66.86,22.31l0,0l4.91-4.91C74.39,14.77,78.64,14.77,81.26,17.39C81.26,17.39,81.26,17.39,81.26,17.39z"/>
		<path id="Trazado_1335_1_" class="st3" d="M40.45,79.48L25.23,64.26l-1.07,16.36L40.45,79.48z"/>
		
			<rect id="Rectángulo_281_1_" x="21.44" y="42.23" transform="matrix(0.7071 -0.7071 0.7071 0.7071 -17.8503 47.299)" class="st4" width="53.46" height="5.94"/>
		
			<rect id="Rectángulo_282_1_" x="27.11" y="47.9" transform="matrix(0.7071 -0.7071 0.7071 0.7071 -20.1992 52.9682)" class="st5" width="53.46" height="5.94"/>
		
			<rect id="Rectángulo_283_1_" x="32.78" y="53.57" transform="matrix(0.7071 -0.7071 0.7071 0.7071 -22.5478 58.6382)" class="st6" width="53.46" height="5.94"/>
	</g>
</g>
</svg>
