<!-- Generator: Adobe Illustrator 24.1.2, SVG Export Plug-In  -->
<svg version="1.1" xmlns="http://www.w3.org/2000/svg" xmlns:xlink="http://www.w3.org/1999/xlink" x="0px" y="0px" width="26.81px"
	 height="22.46px" viewBox="0 0 26.81 22.46" style="overflow:visible;enable-background:new 0 0 26.81 22.46;"
	 xml:space="preserve">
<style type="text/css">
	.st0{fill-rule:evenodd;clip-rule:evenodd;fill:#FFFFFF;}
</style>
<defs>
</defs>
<path id="Trazado_21_1_" class="st0" d="M8.98,3.48l-3.6,2.64v10.75l3.6,2.64c0.44,0.39,1.12,0.35,1.51-0.09
	c0.19-0.21,0.28-0.49,0.27-0.77V4.32c-0.03-0.61-0.55-1.09-1.16-1.06C9.38,3.27,9.16,3.35,8.98,3.48z M4.32,6.54H1.16
	C0.56,6.54,0.05,7,0,7.6v7.79c0.01,0.64,0.52,1.15,1.16,1.16h3.16L4.32,6.54z M14.36,5.28L14.36,5.28c-0.49-0.5-1.29-0.5-1.79-0.01
	c-0.5,0.49-0.5,1.29-0.01,1.79l0,0c2.42,2.46,2.42,6.41,0,8.86c-0.49,0.45-0.52,1.22-0.07,1.71c0.02,0.02,0.05,0.05,0.07,0.07
	c0.23,0.28,0.58,0.44,0.94,0.42c0.32-0.05,0.62-0.2,0.86-0.42c3.43-3.36,3.49-8.87,0.13-12.3C14.45,5.37,14.4,5.32,14.36,5.28
	L14.36,5.28z M15.84,2.32L15.84,2.32c-0.52,0.51-0.54,1.34-0.03,1.87c0.01,0.01,0.02,0.02,0.03,0.03c1.97,1.9,3.07,4.53,3.04,7.27
	c0.03,2.77-1.07,5.44-3.04,7.38c-0.5,0.44-0.54,1.2-0.11,1.69c0.03,0.04,0.07,0.07,0.11,0.11c0.25,0.25,0.6,0.37,0.94,0.32
	c0.32,0,0.64,0,0.84-0.32c5.03-4.99,5.07-13.11,0.09-18.15c-0.03-0.03-0.06-0.06-0.09-0.09c-0.18-0.29-0.5-0.45-0.84-0.44l0,0
	C16.45,2.01,16.12,2.13,15.84,2.32L15.84,2.32z M20.27,0.42L20.27,0.42C19.65,1,19.62,1.96,20.2,2.58c0.02,0.02,0.04,0.05,0.07,0.07
	c4.64,4.79,4.64,12.4,0,17.19c-0.61,0.56-0.64,1.51-0.08,2.12c0.03,0.03,0.05,0.05,0.08,0.08c0.26,0.3,0.66,0.46,1.06,0.42
	c0.39,0,0.78-0.15,1.06-0.42c2.84-2.86,4.43-6.72,4.42-10.75c0.02-4.03-1.57-7.9-4.42-10.75C22.12,0.22,21.74,0.02,21.33,0h-0.12
	C20.86,0.04,20.53,0.18,20.27,0.42L20.27,0.42z"/>
</svg>
