<!-- Generator: Adobe Illustrator 24.1.2, SVG Export Plug-In  -->
<svg version="1.1" xmlns="http://www.w3.org/2000/svg" xmlns:xlink="http://www.w3.org/1999/xlink" x="0px" y="0px"
	 width="108.44px" height="101.05px" viewBox="0 0 108.44 101.05"
	 style="overflow:visible;enable-background:new 0 0 108.44 101.05;" xml:space="preserve">
<style type="text/css">
	.st0{fill:#006CB2;}
	.st1{fill:#7EB8F9;}
	.st2{fill:#0000FF;}
	.st3{fill:#FFFFFF;}
</style>
<defs>
</defs>
<g>
	<path id="Trazado_62-6_1_" class="st0" d="M8.62,5h86.2c4.76,0,8.62,3.51,8.62,7.84v80.37c0,4.33-3.86,7.84-8.62,7.84H8.62
		c-4.76,0-8.62-3.51-8.62-7.84V12.84C0,8.51,3.86,5,8.62,5z"/>
	<path id="Trazado_62-6-2_1_" class="st1" d="M13.62,0h86.2c4.76,0,8.62,3.51,8.62,7.84v80.37c0,4.33-3.86,7.84-8.62,7.84h-86.2
		C8.86,96.05,5,92.54,5,88.21V7.84C5,3.51,8.86,0,13.62,0z"/>
	<g id="Grupo_888_1_">
		<path id="Trazado_68_1_" class="st2" d="M25.89,62.48c9.28,3.52,14.61,1.76,14.61,0s-1.58-2.35-1.58-4.5s1.18-5.48,4.74-5.48
			s4.74,3.33,4.74,5.48s-1.58,2.74-1.58,4.5s9.37,2.47,18.65-1.05c0.75-0.33,1.33-0.95,1.61-1.73c-0.8-8.63-1.94-12.18-3.71-12.18
			s-2.37,1.57-4.54,1.57s-5.53-1.17-5.53-4.69s3.36-4.69,5.53-4.69s2.76,1.56,4.54,1.56s3.98-6.4,1.97-16.09
			c-0.29-0.77-1.15-1.15-1.91-0.86l-0.02,0.01c-9.28,3.52-14.61,1.76-14.61,0s1.58-2.35,1.58-4.5s-1.18-5.48-4.74-5.48
			s-4.74,3.33-4.74,5.48s1.58,2.74,1.58,4.5s-5.33,3.52-14.61,0c-1.68-0.74-2.78-0.39-2.23,1.16c3.55,9.19,1.78,14.47,0,14.47
			s-2.37-1.57-4.54-1.57s-5.53,1.17-5.53,4.69s3.36,4.7,5.53,4.7s2.76-1.57,4.54-1.57s3.55,5.28,0,14.47
			c-0.44,0.43-0.45,1.15-0.02,1.59C25.71,62.36,25.8,62.43,25.89,62.48z"/>
		<path id="Trazado_64_1_" class="st3" d="M56.68,79.68c9.28,3.52,14.61,1.76,14.61,0s-1.58-2.35-1.58-4.5s1.18-5.48,4.74-5.48
			s4.74,3.33,4.74,5.48s-1.58,2.74-1.58,4.5s9.37,2.47,18.65-1.05c0.75-0.33,1.33-0.95,1.61-1.73c-0.8-8.63-1.94-12.18-3.71-12.18
			s-2.37,1.57-4.54,1.57s-5.53-1.17-5.53-4.69s3.36-4.69,5.53-4.69s2.76,1.56,4.54,1.56s3.98-6.4,1.97-16.09
			c-0.29-0.77-1.15-1.15-1.91-0.86l-0.02,0.01c-9.28,3.52-14.61,1.76-14.61,0s1.58-2.35,1.58-4.5s-1.18-5.48-4.74-5.48
			s-4.74,3.33-4.74,5.48s1.58,2.74,1.58,4.5s-5.33,3.52-14.61,0c-1.68-0.74-2.78-0.39-2.23,1.16c3.55,9.19,1.78,14.47,0,14.47
			s-2.37-1.57-4.54-1.57s-5.53,1.17-5.53,4.69s3.36,4.7,5.53,4.7s2.76-1.57,4.54-1.57s3.55,5.28,0,14.47
			c-0.44,0.43-0.45,1.15-0.02,1.59C56.49,79.56,56.58,79.63,56.68,79.68z"/>
	</g>
</g>
</svg>
