<!-- Generator: Adobe Illustrator 24.1.2, SVG Export Plug-In  -->
<svg version="1.1" xmlns="http://www.w3.org/2000/svg" xmlns:xlink="http://www.w3.org/1999/xlink" x="0px" y="0px"
	 width="108.44px" height="101.05px" viewBox="0 0 108.44 101.05"
	 style="overflow:visible;enable-background:new 0 0 108.44 101.05;" xml:space="preserve">
<style type="text/css">
	.st0{fill:#006CB2;}
	.st1{fill:#7EB8F9;}
	.st2{fill:#0000FF;}
	.st3{fill:#C1272D;}
	.st4{fill:#FFFF00;}
</style>
<defs>
</defs>
<g>
	<path id="Trazado_62-5_1_" class="st0" d="M8.62,5h86.2c4.76,0,8.62,3.51,8.62,7.84v80.37c0,4.33-3.86,7.84-8.62,7.84H8.62
		c-4.76,0-8.62-3.51-8.62-7.84V12.84C0,8.51,3.86,5,8.62,5z"/>
	<path id="Trazado_62-5-2_1_" class="st1" d="M13.62,0h86.2c4.76,0,8.62,3.51,8.62,7.84v80.37c0,4.33-3.86,7.84-8.62,7.84h-86.2
		C8.86,96.05,5,92.54,5,88.21V7.84C5,3.51,8.86,0,13.62,0z"/>
	<g id="Grupo_906_1_">
		<path id="Trazado_1248_1_" class="st2" d="M26.82,57.47c-2.65,0-3.16-0.46-2.92-2.01c0.04-0.33,0.04-0.66,0-0.99
			c-0.13-1.44,0.52-1.84,1.78-1.26c1.04,0.48,1.42,0.11,1.43-0.94c0.01-0.49,0.04-0.99,0.09-1.48c0.09-0.97-0.25-1.32-1.25-1.02
			c-0.55,0.17-1.45,0.45-1.62-0.21c-0.33-1.12-0.26-2.32,0.19-3.39c0.32-0.69,1.09-0.33,1.62-0.09c1.01,0.46,1.3,0.02,1.31-0.9
			c0.01-0.66,0.08-1.32,0.08-1.98c-0.01-0.57-0.21-0.94-0.92-0.79c-0.68,0.14-1.65,0.91-1.95-0.2c-0.28-0.99-0.77-2.34,0.28-3.16
			c0.56-0.44,1.55,1.23,2.65-0.66c0.23-0.67,0.34-1.38,0.3-2.09c0.18-1.88,0.12-1.98-1.76-1.71c-0.87,0.12-1.26-0.16-1.18-1.06
			c0.06-0.49,0.08-0.99,0.04-1.48c-0.13-1.33,0.42-1.77,1.62-1.24c1.19,0.52,1.63,0.11,1.61-1.09c-0.01-0.49,0.07-0.99,0.11-1.48
			c0.07-0.91-0.19-1.45-1.22-1.02c-1.83,0.77-1.99,0.02-1.87-1.57c0.03-0.33,0.05-0.66,0.04-0.99c-0.04-1.09,0.54-1.47,1.44-1.02
			c1.75,0.87,1.84-0.15,1.83-1.43c-0.01-0.49,0.05-0.99,0.05-1.48c-0.01-0.56-0.27-0.77-0.85-0.64c-0.65,0.14-1.42,0.92-1.95,0.12
			c-0.43-0.91-0.44-1.95-0.05-2.87c0.43-1.52,1.59-1.74,2.74-0.61l0.2,0.15c1.82-0.06,2.04-0.25,1.52-2.01
			c-0.29-0.98-0.05-1.33,0.95-1.26c0.44,0.03,0.88,0.02,1.32-0.02c1.17-0.09,1.72,0.32,1.16,1.51c-0.64,1.37-0.07,1.75,1.26,1.77
			c2.42,0.03,2.49,0.03,2.22-2.3c-0.08-0.69,0.17-0.9,0.79-0.9c0.55,0,1.1,0.02,1.65-0.02c1.17-0.09,1.45,0.27,1,1.42
			c-0.62,1.58-0.42,1.79,1.29,1.83c0.55,0.02,1.1,0,1.65-0.04c0.73-0.06,1.09-0.39,0.91-1.21c-0.13-0.57-0.1-1.48,0.7-1.73
			c1.14-0.45,2.43-0.19,3.31,0.66c0.46,0.55-0.08,1.73,0.33,2.32c0.46,0.65,0.99,0.12,1.78,0.12c1.92,0,2.11-0.16,1.66-2.03
			c-0.19-0.8-0.06-1.15,0.79-1.13c0.55,0.01,1.1,0,1.65,0.01c0.84,0.02,1.15,0.33,0.93,1.26c-0.44,1.79-0.27,1.95,1.57,1.95
			c0.33,0,0.66-0.06,0.99-0.03c1.32,0.13,1.59-0.59,1.17-1.61c-0.52-1.26-0.03-1.59,1.14-1.5c0.44,0.03,0.88,0.05,1.32,0.03
			c0.95-0.03,1.13,0.37,0.82,1.23c-0.22,0.61-0.84,1.5,0.17,1.83c1.13,0.49,2.42,0.44,3.51-0.14c0.62-0.4,0.09-1.13-0.1-1.67
			c-0.32-0.89-0.08-1.25,0.86-1.19c0.6-0.03,1.21,0,1.81,0.08c1.46,0.36,1.74,1.26,0.7,2.29c-0.93,0.93-0.76,2.03-0.55,3.09
			c0.18,0.92,0.95,0.61,1.46,0.37c1.41-0.65,1.77-0.05,1.65,1.26c-0.03,0.33-0.02,0.66,0.01,0.99c0.09,1.14-0.28,1.49-1.44,1.05
			c-1.54-0.59-1.78-0.38-1.84,1.3c-0.02,0.49-0.04,0.99-0.04,1.48c0.01,1.39,0.46,1.75,1.67,1.09c1.58-0.86,1.61,0.02,1.59,1.19
			c-0.04,2.18-0.02,2.2-2.05,1.84c-0.7-0.13-1.07,0.07-1.15,0.76c-0.05,0.49-0.07,0.99-0.08,1.48c-0.04,2.26-0.24,2.61,1.8,1.8
			c1.65-0.66,1.21,1.44,1.32,2.32c0.22,1.68-0.71,0.8-1.98,1.65c-0.82,0.48-1.31,1.38-1.26,2.33c0,2.27,0,2.36,2.21,1.81
			c0.77-0.19,1.02,0,1.01,0.73c-0.01,0.5,0,0.99-0.02,1.48c-0.06,1.86-0.08,1.91-1.86,1.26c-0.99-0.36-1.48-0.21-1.44,0.93
			c0.01,0.44-0.06,0.88-0.08,1.32c-0.05,1.87,0.18,2.12,1.94,1.58c1.23-0.38,1.47,0.11,1.41,1.14c-0.03,0.49-0.08,0.99-0.07,1.48
			c0.01,1.19-0.51,1.51-1.54,0.96c-1.41-0.76-1.91-0.23-1.82,1.22c0.03,0.55-0.03,1.1-0.02,1.65c0.02,0.93,0.42,1.27,1.38,1.01
			c0.58-0.16,1.48-0.86,1.75-0.1c0.56,1.1,0.54,2.4-0.06,3.47c-0.56,0.8-1.3,1.43-2.17,0.18c-0.83-1.18-2.1-0.76-3.2-0.68
			c-0.83,0.06-0.55,0.75-0.42,1.29c0.45,1.85,0.45,1.86-1.51,1.85c-0.33,0-0.66-0.02-0.99,0c-1.03,0.07-1.21-0.36-0.92-1.3
			c0.58-1.87,0.43-2.01-1.56-2.03c-0.33,0-0.66,0.04-0.99,0.02c-1.14-0.07-1.47,0.39-1.13,1.49c0.15,0.5,0.74,1.33-0.04,1.58
			c-1.1,0.41-2.31,0.36-3.38-0.12c-0.47-0.24,0.03-1.02,0.2-1.51c0.39-1.09,0.01-1.56-1.11-1.57c-0.61,0-1.21-0.02-1.82-0.02
			c-1.09-0.02-1.32,0.46-0.98,1.46c0.18,0.53,0.96,1.29,0.01,1.69c-0.87,0.37-2.86,0.43-3.69-0.46c-0.56-0.6,0.14-1.31-0.33-1.98
			c-0.41-0.59-1.22-0.55-1.93-0.65c-2.05-0.27-2.36,0-1.78,1.97c0.29,0.98-0.09,1.2-0.91,1.19c-0.5,0-1-0.07-1.49-0.03
			c-1.43,0.11-1.81-0.44-1.18-1.73c0.51-1.06,0.09-1.55-1.03-1.57c-0.44,0-0.88-0.02-1.32-0.06c-1.31-0.16-1.82,0.35-1.23,1.59
			c0.63,1.33-0.03,1.65-1.17,1.69c-0.44,0.01-0.88-0.03-1.32,0.01c-1.14,0.09-1.48-0.34-1.12-1.45c0.18-0.55,0.81-1.39-0.08-1.73
			c-0.94-0.36-1.98-0.42-2.96-0.16c-0.14,0.04-0.28,0.09-0.42,0.14c-0.4,0.16-0.07,0.7-0.08,1.06c-0.02,0.63,0.98,1.52-0.08,1.83
			c-0.97,0.28-3.16,0.45-3.14-0.18C26.22,60.95,27.76,59.42,26.82,57.47z"/>
		<path id="Trazado_1249_1_" class="st3" d="M35.32,67.97c-2.65,0-3.16-0.46-2.92-2.01c0.04-0.33,0.04-0.66,0-0.99
			c-0.13-1.44,0.52-1.84,1.78-1.26c1.04,0.48,1.42,0.11,1.43-0.94c0.01-0.49,0.04-0.99,0.09-1.48c0.09-0.97-0.25-1.32-1.25-1.02
			c-0.55,0.17-1.45,0.45-1.62-0.21c-0.33-1.12-0.26-2.32,0.19-3.39c0.32-0.69,1.09-0.33,1.62-0.09c1.01,0.46,1.3,0.02,1.31-0.9
			c0.01-0.66,0.08-1.32,0.08-1.98c-0.01-0.57-0.21-0.94-0.92-0.79c-0.68,0.14-1.65,0.91-1.95-0.2c-0.28-0.99-0.77-2.34,0.28-3.16
			c0.56-0.44,1.55,1.23,2.65-0.66c0.23-0.67,0.34-1.38,0.3-2.09c0.18-1.88,0.12-1.98-1.76-1.71c-0.87,0.12-1.26-0.16-1.18-1.06
			c0.06-0.49,0.08-0.99,0.04-1.48c-0.13-1.33,0.42-1.77,1.62-1.24c1.19,0.52,1.63,0.11,1.61-1.09c-0.01-0.49,0.07-0.99,0.11-1.48
			c0.07-0.91-0.19-1.45-1.22-1.02c-1.83,0.77-1.99,0.02-1.87-1.57c0.03-0.33,0.05-0.66,0.04-0.99c-0.04-1.09,0.54-1.47,1.44-1.02
			c1.75,0.87,1.84-0.15,1.83-1.43c-0.01-0.49,0.05-0.99,0.05-1.48c-0.01-0.56-0.27-0.77-0.85-0.64c-0.65,0.14-1.42,0.92-1.95,0.12
			c-0.43-0.91-0.44-1.95-0.05-2.87c0.43-1.52,1.59-1.74,2.74-0.61l0.2,0.15c1.82-0.06,2.04-0.25,1.52-2.01
			c-0.29-0.98-0.05-1.33,0.95-1.26c0.44,0.03,0.88,0.02,1.32-0.02c1.17-0.09,1.72,0.32,1.16,1.51c-0.64,1.37-0.07,1.75,1.26,1.77
			c2.42,0.03,2.48,0.03,2.22-2.3c-0.08-0.69,0.17-0.9,0.79-0.9c0.55,0,1.1,0.02,1.65-0.02c1.17-0.09,1.45,0.27,1,1.42
			c-0.62,1.58-0.42,1.79,1.29,1.83c0.55,0.02,1.1,0,1.65-0.04c0.73-0.06,1.09-0.39,0.91-1.21c-0.13-0.57-0.1-1.48,0.7-1.73
			c1.14-0.45,2.43-0.19,3.31,0.66c0.46,0.55-0.08,1.73,0.33,2.32c0.46,0.65,0.99,0.12,1.78,0.12c1.92,0,2.11-0.16,1.66-2.03
			c-0.19-0.8-0.06-1.15,0.79-1.13c0.55,0.01,1.1,0,1.65,0.01c0.84,0.02,1.15,0.33,0.93,1.26c-0.44,1.79-0.27,1.95,1.57,1.95
			c0.33,0,0.66-0.06,0.99-0.03c1.32,0.13,1.59-0.59,1.17-1.61c-0.52-1.26-0.03-1.59,1.14-1.5c0.44,0.03,0.88,0.05,1.32,0.03
			c0.95-0.03,1.13,0.37,0.82,1.23c-0.22,0.61-0.84,1.5,0.17,1.83c1.13,0.49,2.42,0.44,3.51-0.14c0.62-0.4,0.09-1.13-0.1-1.67
			c-0.32-0.89-0.08-1.25,0.86-1.19c0.6-0.03,1.21,0,1.81,0.08c1.46,0.36,1.74,1.26,0.7,2.29c-0.93,0.93-0.76,2.03-0.55,3.09
			c0.18,0.92,0.95,0.61,1.46,0.37c1.41-0.65,1.77-0.05,1.65,1.26c-0.03,0.33-0.02,0.66,0.01,0.99c0.09,1.14-0.28,1.49-1.44,1.05
			c-1.54-0.59-1.78-0.38-1.84,1.3c-0.02,0.49-0.04,0.99-0.04,1.48c0.01,1.39,0.46,1.75,1.67,1.09c1.58-0.86,1.61,0.02,1.59,1.19
			c-0.04,2.18-0.02,2.2-2.05,1.84c-0.7-0.13-1.07,0.07-1.15,0.76c-0.05,0.49-0.07,0.99-0.08,1.48c-0.04,2.26-0.24,2.61,1.8,1.8
			c1.65-0.66,1.21,1.44,1.32,2.32c0.22,1.68-0.71,0.8-1.98,1.65c-0.82,0.48-1.31,1.38-1.26,2.33c0,2.27,0,2.36,2.21,1.81
			c0.77-0.19,1.02,0,1.01,0.73c-0.01,0.5,0,0.99-0.02,1.48c-0.06,1.86-0.08,1.91-1.86,1.26c-0.99-0.36-1.48-0.21-1.44,0.93
			c0.01,0.44-0.06,0.88-0.08,1.32c-0.05,1.87,0.18,2.12,1.94,1.58c1.23-0.38,1.47,0.11,1.41,1.14c-0.03,0.49-0.08,0.99-0.07,1.48
			c0.01,1.19-0.51,1.51-1.54,0.96c-1.41-0.76-1.91-0.23-1.82,1.22c0.03,0.55-0.03,1.1-0.02,1.65c0.02,0.93,0.42,1.27,1.38,1.01
			c0.58-0.16,1.48-0.86,1.75-0.1c0.56,1.1,0.54,2.4-0.06,3.47c-0.56,0.8-1.3,1.43-2.17,0.18c-0.83-1.18-2.1-0.76-3.2-0.68
			c-0.83,0.06-0.55,0.75-0.42,1.29c0.45,1.85,0.45,1.86-1.51,1.85c-0.33,0-0.66-0.02-0.99,0c-1.03,0.07-1.21-0.36-0.92-1.3
			c0.58-1.87,0.43-2.01-1.56-2.03c-0.33,0-0.66,0.04-0.99,0.02c-1.14-0.07-1.47,0.39-1.13,1.49c0.15,0.5,0.74,1.33-0.04,1.58
			c-1.1,0.41-2.31,0.36-3.38-0.12c-0.47-0.24,0.03-1.02,0.2-1.51c0.39-1.09,0.01-1.56-1.11-1.57c-0.61,0-1.21-0.02-1.82-0.02
			c-1.09-0.02-1.32,0.46-0.98,1.46c0.18,0.53,0.96,1.29,0.01,1.69c-0.87,0.37-2.86,0.43-3.69-0.46c-0.56-0.6,0.14-1.31-0.33-1.98
			c-0.41-0.59-1.22-0.55-1.93-0.65c-2.05-0.27-2.36,0-1.78,1.97c0.29,0.98-0.08,1.2-0.91,1.19c-0.5,0-0.99-0.07-1.49-0.03
			c-1.43,0.11-1.81-0.44-1.18-1.73c0.52-1.06,0.09-1.55-1.03-1.57c-0.44,0-0.88-0.02-1.32-0.06c-1.31-0.16-1.82,0.35-1.23,1.59
			c0.63,1.33-0.03,1.65-1.17,1.69c-0.44,0.01-0.88-0.03-1.32,0.01c-1.14,0.09-1.48-0.34-1.12-1.45c0.18-0.55,0.81-1.39-0.08-1.73
			c-0.94-0.36-1.98-0.42-2.96-0.16c-0.14,0.04-0.28,0.09-0.42,0.14c-0.4,0.16-0.07,0.7-0.08,1.06c-0.02,0.63,0.98,1.52-0.08,1.83
			c-0.97,0.28-3.16,0.45-3.14-0.18C34.72,71.45,36.26,69.92,35.32,67.97z"/>
		<path id="Trazado_1250_1_" class="st4" d="M44.32,76.97c-2.65,0-3.16-0.46-2.92-2.01c0.04-0.33,0.04-0.66,0-0.99
			c-0.13-1.44,0.52-1.84,1.78-1.26c1.04,0.48,1.42,0.11,1.43-0.94c0.01-0.49,0.04-0.99,0.09-1.48c0.09-0.97-0.25-1.32-1.25-1.02
			c-0.55,0.17-1.45,0.45-1.62-0.21c-0.33-1.12-0.26-2.32,0.19-3.39c0.32-0.69,1.09-0.33,1.62-0.09c1.01,0.46,1.3,0.02,1.31-0.9
			c0.01-0.66,0.08-1.32,0.08-1.98c-0.01-0.57-0.21-0.94-0.92-0.79c-0.68,0.14-1.65,0.91-1.95-0.2c-0.28-0.99-0.77-2.34,0.28-3.16
			c0.56-0.44,1.55,1.23,2.65-0.66c0.23-0.67,0.34-1.38,0.3-2.09c0.18-1.88,0.12-1.98-1.76-1.71c-0.87,0.12-1.26-0.16-1.18-1.06
			c0.06-0.49,0.08-0.99,0.04-1.48c-0.13-1.33,0.42-1.77,1.62-1.24c1.19,0.52,1.63,0.11,1.61-1.09c-0.01-0.49,0.07-0.99,0.11-1.48
			c0.07-0.91-0.19-1.45-1.22-1.02c-1.83,0.77-1.99,0.02-1.87-1.57c0.03-0.33,0.05-0.66,0.04-0.99c-0.04-1.09,0.54-1.47,1.44-1.02
			c1.75,0.87,1.84-0.15,1.83-1.43c-0.01-0.49,0.05-0.99,0.05-1.48c-0.01-0.56-0.27-0.77-0.85-0.64c-0.65,0.14-1.42,0.92-1.95,0.12
			c-0.43-0.91-0.44-1.95-0.05-2.87c0.43-1.52,1.59-1.74,2.74-0.61l0.2,0.15c1.82-0.06,2.04-0.25,1.52-2.01
			c-0.29-0.98-0.05-1.33,0.95-1.26c0.44,0.03,0.88,0.02,1.32-0.02c1.17-0.09,1.72,0.32,1.16,1.51c-0.64,1.37-0.07,1.75,1.26,1.77
			c2.42,0.03,2.48,0.03,2.22-2.3c-0.08-0.69,0.17-0.9,0.79-0.9c0.55,0,1.1,0.02,1.65-0.02c1.17-0.09,1.45,0.27,1,1.42
			c-0.62,1.58-0.42,1.79,1.29,1.83c0.55,0.02,1.1,0,1.65-0.04c0.73-0.06,1.09-0.39,0.91-1.21c-0.13-0.57-0.1-1.48,0.7-1.73
			c1.14-0.45,2.43-0.19,3.31,0.66c0.46,0.55-0.08,1.73,0.33,2.32c0.46,0.65,0.99,0.12,1.78,0.12c1.92,0,2.11-0.16,1.66-2.03
			c-0.19-0.8-0.06-1.15,0.79-1.13c0.55,0.01,1.1,0,1.65,0.01c0.84,0.02,1.15,0.33,0.93,1.26c-0.44,1.79-0.27,1.95,1.57,1.95
			c0.33,0,0.66-0.06,0.99-0.03c1.32,0.13,1.59-0.59,1.17-1.61c-0.52-1.26-0.03-1.59,1.14-1.5c0.44,0.03,0.88,0.05,1.32,0.03
			c0.95-0.03,1.13,0.37,0.82,1.23c-0.22,0.61-0.84,1.5,0.17,1.83c1.13,0.49,2.42,0.44,3.51-0.14c0.62-0.4,0.09-1.13-0.1-1.67
			c-0.32-0.89-0.08-1.25,0.86-1.19c0.6-0.03,1.21,0,1.81,0.08c1.46,0.36,1.74,1.26,0.7,2.29c-0.93,0.93-0.76,2.03-0.55,3.09
			c0.18,0.92,0.95,0.61,1.46,0.37c1.41-0.65,1.77-0.05,1.65,1.26c-0.03,0.33-0.02,0.66,0.01,0.99c0.09,1.14-0.28,1.49-1.44,1.05
			c-1.54-0.59-1.78-0.38-1.84,1.3c-0.02,0.49-0.04,0.99-0.04,1.48c0.01,1.39,0.46,1.75,1.67,1.09c1.58-0.86,1.61,0.02,1.59,1.19
			c-0.04,2.18-0.02,2.2-2.05,1.84c-0.7-0.13-1.07,0.07-1.15,0.76c-0.05,0.49-0.07,0.99-0.08,1.48c-0.04,2.26-0.24,2.61,1.8,1.8
			c1.65-0.66,1.21,1.44,1.32,2.32c0.22,1.68-0.71,0.8-1.98,1.65c-0.82,0.48-1.31,1.38-1.26,2.33c0,2.27,0,2.36,2.21,1.81
			c0.77-0.19,1.02,0,1.01,0.73c-0.01,0.5,0,0.99-0.02,1.48c-0.06,1.86-0.08,1.91-1.86,1.26c-0.99-0.36-1.48-0.21-1.44,0.93
			c0.01,0.44-0.06,0.88-0.08,1.32c-0.05,1.87,0.18,2.12,1.94,1.58c1.23-0.38,1.47,0.11,1.41,1.14c-0.03,0.49-0.08,0.99-0.07,1.48
			c0.01,1.19-0.51,1.51-1.54,0.96c-1.41-0.76-1.91-0.23-1.82,1.22c0.03,0.55-0.03,1.1-0.02,1.65c0.02,0.93,0.42,1.27,1.38,1.01
			c0.58-0.16,1.48-0.86,1.75-0.1c0.56,1.1,0.54,2.4-0.06,3.47c-0.56,0.8-1.3,1.43-2.17,0.18c-0.83-1.18-2.1-0.76-3.2-0.68
			c-0.83,0.06-0.55,0.75-0.42,1.29c0.45,1.85,0.45,1.86-1.51,1.85c-0.33,0-0.66-0.02-0.99,0c-1.03,0.07-1.21-0.36-0.92-1.3
			c0.58-1.87,0.43-2.01-1.56-2.03c-0.33,0-0.66,0.04-0.99,0.02c-1.14-0.07-1.47,0.39-1.13,1.49c0.15,0.5,0.74,1.33-0.04,1.58
			c-1.1,0.41-2.31,0.36-3.38-0.12c-0.47-0.24,0.03-1.02,0.2-1.51c0.39-1.09,0.01-1.56-1.11-1.57c-0.61,0-1.21-0.02-1.82-0.02
			c-1.09-0.02-1.32,0.46-0.98,1.46c0.18,0.53,0.96,1.29,0.01,1.69c-0.87,0.37-2.86,0.43-3.69-0.46c-0.56-0.6,0.14-1.31-0.33-1.98
			c-0.41-0.59-1.22-0.55-1.93-0.65c-2.05-0.27-2.36,0-1.78,1.97c0.29,0.98-0.08,1.2-0.91,1.19c-0.5,0-0.99-0.07-1.49-0.03
			c-1.43,0.11-1.81-0.44-1.18-1.73c0.52-1.06,0.09-1.55-1.03-1.57c-0.44,0-0.88-0.02-1.32-0.06c-1.31-0.16-1.82,0.35-1.23,1.59
			c0.63,1.33-0.03,1.65-1.17,1.69c-0.44,0.01-0.88-0.03-1.32,0.01c-1.14,0.09-1.48-0.34-1.12-1.45c0.18-0.55,0.81-1.39-0.08-1.73
			c-0.94-0.36-1.98-0.42-2.95-0.16c-0.14,0.04-0.28,0.09-0.42,0.14c-0.4,0.16-0.07,0.7-0.08,1.06c-0.02,0.63,0.98,1.52-0.08,1.83
			c-0.97,0.28-3.16,0.45-3.14-0.18C43.72,80.45,45.26,78.92,44.32,76.97z"/>
	</g>
	<g id="Grupo_907_1_">
		<path id="Trazado_1251_1_" class="st2" d="M71.44,51.42l-1.65,1.84c-0.52,0.47-0.84,1.12-0.91,1.82c0,0.31,0.07,0.61,0.21,0.89
			c0.22,0.43,0.48,0.83,0.78,1.21l5.78,7.73c0.33,0.46,0.68,0.9,1.07,1.31c0.27,0.23,0.56,0.43,0.88,0.58
			c0.46,0.2,0.87,0.51,1.18,0.91c0.25,0.39,0.37,0.84,0.35,1.3c0,1.26-0.78,1.9-2.33,1.9h-5.86c-0.34,0.02-0.68-0.09-0.95-0.3
			c-0.42-0.46-0.8-0.96-1.11-1.5c-0.98-1.52-2.04-2.99-3.18-4.39c-0.38-0.49-0.78-0.96-1.21-1.4c-0.16-0.19-0.39-0.31-0.64-0.33
			c-0.6,0-0.9,0.65-0.9,1.95c-0.08,0.78,0.12,1.57,0.59,2.2c0.07,0.06,0.24,0.19,0.49,0.39c0.52,0.35,0.83,0.93,0.83,1.55
			c-0.01,0.81-0.57,1.5-1.36,1.69c-1.49,0.41-3.03,0.59-4.58,0.51c-1.4,0.05-2.81-0.08-4.17-0.39c-0.75-0.24-1.25-0.93-1.25-1.71
			c0.02-0.66,0.37-1.27,0.93-1.63c0.25-0.18,0.46-0.42,0.6-0.7c0.16-0.42,0.27-0.86,0.33-1.3c0.25-2.06,0.35-4.14,0.31-6.21
			c0.05-2.37-0.06-4.74-0.32-7.09c-0.04-0.43-0.16-0.84-0.34-1.23c-0.19-0.3-0.45-0.55-0.76-0.73c-0.89-0.6-1.13-1.81-0.54-2.7
			c0.06-0.09,0.13-0.18,0.21-0.27c0.5-0.41,1.09-0.68,1.73-0.79c1.3-0.26,2.63-0.38,3.96-0.36c1.22-0.06,2.45,0.12,3.6,0.54
			c0.69,0.32,1.11,1.03,1.05,1.79c0.01,0.29-0.04,0.57-0.16,0.83c-0.24,0.34-0.52,0.65-0.84,0.92c-0.24,0.36-0.4,0.77-0.46,1.2
			c-0.14,0.61-0.21,1.23-0.21,1.86c0,1,0.2,1.5,0.59,1.5c0.27-0.02,0.52-0.15,0.69-0.36c0.48-0.57,0.92-1.17,1.34-1.79
			c0.56-0.65,0.96-1.43,1.16-2.27c-0.03-0.34-0.13-0.66-0.29-0.96c-0.12-0.26-0.19-0.54-0.2-0.82c-0.04-0.82,0.46-1.58,1.24-1.87
			c1.36-0.44,2.79-0.63,4.22-0.55c1.19-0.05,2.37,0.08,3.52,0.36c0.87,0.2,1.46,1,1.41,1.89c0,0.37-0.1,0.74-0.29,1.06
			c-0.16,0.29-0.42,0.52-0.73,0.63c-0.49,0.11-1,0.16-1.5,0.14c-0.42-0.01-0.84,0.06-1.23,0.22C72.1,50.76,71.74,51.06,71.44,51.42z
			"/>
	</g>
</g>
</svg>
