<!-- Generator: Adobe Illustrator 24.1.2, SVG Export Plug-In  -->
<svg version="1.1" xmlns="http://www.w3.org/2000/svg" xmlns:xlink="http://www.w3.org/1999/xlink" x="0px" y="0px" width="36.32px"
	 height="30.5px" viewBox="0 0 36.32 30.5" style="overflow:visible;enable-background:new 0 0 36.32 30.5;" xml:space="preserve">
<style type="text/css">
	.st0{fill-rule:evenodd;clip-rule:evenodd;fill:#006CB2;}
</style>
<defs>
</defs>
<path id="Trazado_21_2_" class="st0" d="M12.17,4.73L7.29,8.31v14.6l4.88,3.59c0.6,0.53,1.52,0.48,2.05-0.12
	c0.25-0.29,0.38-0.66,0.36-1.04V5.88c-0.03-0.83-0.73-1.48-1.57-1.44C12.71,4.44,12.41,4.55,12.17,4.73L12.17,4.73z M5.86,8.89H1.57
	c-0.82,0-1.5,0.62-1.57,1.44V20.9c0.01,0.87,0.71,1.57,1.57,1.58h4.28V8.89z M19.46,7.17L19.46,7.17c-0.6-0.67-1.62-0.74-2.3-0.14
	c-0.05,0.04-0.1,0.09-0.14,0.14c-0.67,0.62-0.71,1.66-0.09,2.33c0.03,0.03,0.06,0.06,0.09,0.09c3.28,3.34,3.28,8.7,0,12.04
	c-0.67,0.62-0.71,1.66-0.09,2.33c0.03,0.03,0.06,0.06,0.09,0.09c0.31,0.38,0.78,0.59,1.28,0.57c0.44-0.07,0.84-0.26,1.16-0.57
	c4.66-4.58,4.72-12.08,0.14-16.74C19.55,7.27,19.5,7.22,19.46,7.17L19.46,7.17z M21.46,3.15L21.46,3.15
	c-0.71,0.69-0.73,1.83-0.04,2.55c0.01,0.01,0.02,0.02,0.04,0.04c2.67,2.58,4.16,6.15,4.12,9.87c0.05,3.76-1.44,7.38-4.12,10.03
	c-0.67,0.6-0.73,1.63-0.13,2.31c0.04,0.05,0.09,0.09,0.13,0.13c0.33,0.34,0.81,0.5,1.28,0.43c0.43,0,0.86,0,1.14-0.43
	c6.84-6.8,6.87-17.85,0.07-24.68c-0.02-0.02-0.05-0.05-0.07-0.07c-0.25-0.39-0.68-0.61-1.14-0.59l0,0
	C22.28,2.73,21.83,2.89,21.46,3.15L21.46,3.15z M27.45,0.57L27.45,0.57c-0.83,0.79-0.87,2.1-0.08,2.93
	c0.03,0.03,0.06,0.06,0.08,0.08c6.29,6.51,6.29,16.83,0,23.34c-0.83,0.77-0.87,2.07-0.1,2.89c0.03,0.03,0.06,0.07,0.1,0.1
	c0.36,0.41,0.89,0.63,1.43,0.57c0.53,0.01,1.05-0.2,1.43-0.57c3.84-3.88,6-9.13,5.99-14.59c0.03-5.47-2.13-10.73-5.99-14.6
	C29.97,0.3,29.45,0.03,28.89,0h-0.16C28.25,0.05,27.81,0.25,27.45,0.57L27.45,0.57z"/>
</svg>
