<!-- Generator: Adobe Illustrator 24.1.2, SVG Export Plug-In  -->
<svg version="1.1" xmlns="http://www.w3.org/2000/svg" xmlns:xlink="http://www.w3.org/1999/xlink" x="0px" y="0px" width="75.4px"
	 height="73.45px" viewBox="0 0 75.4 73.45" style="overflow:visible;enable-background:new 0 0 75.4 73.45;" xml:space="preserve">
<style type="text/css">
	.st0{fill:#FFFFFF;}
</style>
<defs>
</defs>
<path id="Trazado_70_2_" class="st0" d="M15.11,70.48c13.58,5.15,21.39,2.58,21.39,0s-2.31-3.44-2.31-6.59
	c0-3.15,1.73-8.02,6.94-8.02s6.94,4.87,6.94,8.02c0,3.15-2.32,4.02-2.32,6.59s13.73,3.62,27.31-1.54c1.1-0.48,1.95-1.4,2.35-2.53
	c-1.18-12.63-2.84-17.84-5.44-17.84c-2.6,0-3.47,2.29-6.65,2.29c-3.18,0-8.09-1.72-8.09-6.87s4.91-6.87,8.09-6.87
	c3.18,0,4.05,2.29,6.65,2.29c2.6,0,5.83-9.36,2.89-23.56c-0.43-1.12-1.68-1.68-2.8-1.26c-0.01,0-0.02,0.01-0.03,0.01
	c-13.58,5.15-21.39,2.58-21.39,0s2.31-3.44,2.31-6.59S49.21,0,44.01,0s-6.94,4.87-6.94,8.02s2.31,4.01,2.31,6.59s-7.8,5.15-21.39,0
	c-2.46-1.09-4.07-0.57-3.26,1.7c5.2,13.46,2.6,21.19,0,21.19s-3.47-2.29-6.65-2.29S0,36.93,0,42.08s4.91,6.87,8.09,6.87
	s4.05-2.29,6.65-2.29s5.2,7.73,0,21.19c-0.65,0.64-0.66,1.68-0.02,2.33C14.84,70.3,14.97,70.4,15.11,70.48z"/>
</svg>
