<!-- Generator: Adobe Illustrator 24.1.2, SVG Export Plug-In  -->
<svg version="1.1" xmlns="http://www.w3.org/2000/svg" xmlns:xlink="http://www.w3.org/1999/xlink" x="0px" y="0px" width="282px"
	 height="282px" viewBox="0 0 282 282" style="overflow:visible;enable-background:new 0 0 282 282;" xml:space="preserve">
<style type="text/css">
	.st0{fill:#FFFFFF;}
	.st1{fill:#2F3987;}
	.st2{fill:#65A442;}
	.st3{fill:#4F8B41;}
	.st4{fill:#BFC9DF;}
	.st5{fill:#8D94A3;}
	.st6{fill:#A9B9C9;}
	.st7{fill:#CEDBF0;}
	.st8{fill:#3E3D4D;stroke:#000000;stroke-width:0.6581;stroke-miterlimit:10;}
	.st9{opacity:0.28;fill:#FFFFFF;}
	.st10{opacity:0.28;fill:none;}
	.st11{fill:none;}
</style>
<defs>
</defs>
<g>
	<circle class="st0" cx="141" cy="141" r="141"/>
	<g>
		<g>
			<g>
				<g>
					<g>
						<path class="st1" d="M229.94,138.02c0.58,0.95,0.96,2.1,0.96,3.24c0.01,3.05-4.18,13.94-8.94,22.73
							c-5.34,9.94-15.64,22.18-24.05,28.49c-2.87,1.92-4.78,3.06-10.9,5.56c0.96,1.72,1.73,2.86,1.92,3.43c2.5,4,5,8,7.3,12.01
							c3.08,4.96,6.73,11.05,9.8,16.96c0.58,0.76,1.73,2.86,2.31,4c2.69,4.96,3.66,7.24,3.66,8.77c0,2.1-2.29,4.2-8.21,7.84
							c-4.59,2.68-9.75,4.79-12.05,4.8c-0.96,0-1.91-0.38-3.06-1.14l-12.08-8.94c-3.07-2.28-3.65-3.04-7.87-10.48
							c-0.58-0.95-1.54-2.48-2.69-4.57c-0.58-1.53-1.35-2.67-2.12-4l-1.15-1.71l-3.98,16.8c-0.95,4.01-1.52,4.58-4.78,4.59
							c-8.23,0.02-17.24-2.63-23.37-7.01l-9.97-6.85c-2.88-1.9-3.65-3.24-3.65-5.91c0-1.15,0.56-5.15,1.13-6.87l22-89.17
							c2.85-10.89,4.76-13.18,12.03-13.2c5.55-0.01,12.83,1.31,17.24,3.01c3.26,1.14,3.83,1.71,6.91,6.28l8.07,12
							c2.48-4.4,2.48-4.59,6.28-14.33c1.71-4.78,4.49-7.75,8.21-6.89c6.83,1.58,8.07,1.58,8.07,4.05c0,1.24,1.8-0.18,3.72,0
							c3.26,0.3,9.73,2.81,10.82,4.48L229.94,138.02z M192.41,216.35c-5.19-9.53-5.77-10.67-18.07-30.11
							c10.52-4.03,17.78-9.58,26.56-20.87c6.68-8.41,10.87-15.48,14.49-24.65c2.66-6.49,5.01-10.88,3.8-11.46
							c-4.79-2.32-7.51-4.22-9.77-4.03c-5.27,0.46-5.58,6.79-6.2,6.18c-1.24-1.24,7.44-8.65-4.73-10.88
							c-2.45-0.45-3.64,0.96-4.78,4.4c-9.13,24.45-15.24,32.1-31.11,39.96l8.92-32.65c0.19-1.15,0.76-3.82,0.76-4.58
							c0.19-1.91-4.03-3.75-7.48-4.89c-0.97-0.32-1.21,4.01-2.48,3.71c0,0,1.24-2.27,1.24-3.71c0-1.24-5.6-1.77-6.47-1.89
							c-0.57-0.08-1.13-0.15-1.67-0.2c-1.34-0.14-2.58-0.22-3.63-0.22c-4.98,0.01-6.32,1.35-7.83,7.65l-22.75,92.42
							c-0.95,3.63-1.14,4.77-1.13,5.92c0,1.72,1.15,2.67,3.65,3.62c6.71,2.46,14.18,3.97,19.15,3.96c2.87-0.01,3.06-0.2,4.2-4.78
							l6.82-29.98c3.47,7.82,5.58,11.82,14.62,28.59c8.27,15.25,8.84,15.82,11.52,15.81c2.3,0,8.99-3.07,14.72-6.71
							c4.2-2.68,5.35-3.83,5.35-5.36c0-1.34,0-1.34-4.81-10.1L192.41,216.35z"/>
					</g>
					<g>
						<g>
							<path class="st2" d="M236.68,113.66c0.9-2.82,1.89-4.41,1.89-4.41s-24.05,2.4-16.42,16.37
								C233.02,130.51,234.68,119.93,236.68,113.66z"/>
							<path class="st3" d="M237.42,110.07c0,0-1.34,0.95-3.24,2.52c-1.9,1.56-4.36,3.74-6.59,6.13c-1.12,1.19-2.17,2.44-3.07,3.66
								c-0.23,0.31-0.45,0.61-0.65,0.91c-0.21,0.3-0.41,0.6-0.59,0.89c-0.19,0.29-0.36,0.58-0.52,0.87
								c-0.17,0.28-0.31,0.56-0.44,0.83c-0.14,0.27-0.26,0.52-0.37,0.78c-0.11,0.25-0.22,0.48-0.3,0.71
								c-0.08,0.23-0.16,0.44-0.23,0.63c-0.06,0.2-0.11,0.38-0.16,0.55c-0.11,0.33-0.13,0.59-0.18,0.77
								c-0.04,0.18-0.06,0.27-0.06,0.27l-1.04-0.19c0,0,0.03-0.1,0.07-0.3c0.06-0.19,0.1-0.49,0.23-0.84
								c0.06-0.18,0.13-0.37,0.2-0.59c0.09-0.21,0.18-0.43,0.27-0.67c0.09-0.24,0.22-0.48,0.35-0.74c0.12-0.26,0.26-0.53,0.42-0.8
								c0.15-0.28,0.31-0.56,0.5-0.84c0.18-0.29,0.36-0.58,0.57-0.87c0.2-0.3,0.41-0.6,0.64-0.89c0.22-0.3,0.46-0.6,0.7-0.91
								c0.98-1.21,2.09-2.43,3.27-3.59c2.35-2.32,4.9-4.4,6.87-5.89C236.04,110.97,237.42,110.07,237.42,110.07z"/>
						</g>
						<g>
							<path class="st2" d="M238.16,137.94c2.55-0.03,4.11,0.35,4.11,0.35s-8.42-18.87-17.77-8.93
								C223.42,139.5,232.51,138,238.16,137.94z"/>
							<path class="st3" d="M241.29,137.58c0,0-1.15-0.84-2.97-1.98c-1.81-1.14-4.29-2.57-6.87-3.76c-1.29-0.59-2.61-1.12-3.87-1.53
								c-0.31-0.1-0.62-0.2-0.93-0.29c-0.3-0.09-0.61-0.17-0.9-0.24c-0.29-0.08-0.58-0.14-0.86-0.19c-0.28-0.06-0.55-0.1-0.81-0.14
								c-0.26-0.04-0.51-0.07-0.74-0.09c-0.24-0.02-0.46-0.05-0.67-0.05c-0.21-0.01-0.41-0.01-0.59-0.02
								c-0.18,0.01-0.35,0.01-0.5,0.02c-0.3,0-0.53,0.05-0.69,0.06c-0.16,0.02-0.24,0.03-0.24,0.03l-0.13-0.91
								c0,0,0.09-0.01,0.27-0.02c0.18-0.01,0.43-0.05,0.76-0.04c0.16,0,0.34,0,0.54,0c0.19,0.01,0.4,0.03,0.63,0.04
								c0.23,0.01,0.46,0.05,0.71,0.08c0.25,0.03,0.51,0.07,0.78,0.13c0.27,0.05,0.55,0.11,0.83,0.18c0.29,0.07,0.58,0.14,0.88,0.23
								c0.3,0.08,0.61,0.18,0.92,0.28c0.31,0.1,0.62,0.21,0.94,0.33c1.27,0.47,2.58,1.06,3.86,1.71c2.56,1.3,4.98,2.84,6.75,4.05
								C240.17,136.69,241.29,137.58,241.29,137.58z"/>
						</g>
						<g>
							<path class="st2" d="M211.03,114.43c-1.91-0.95-2.94-1.82-2.94-1.82s-0.92,17.29,9.87,13.41
								C222.64,118.86,215.28,116.53,211.03,114.43z"/>
							<path class="st3" d="M208.56,113.51c0,0,0.55,1.08,1.48,2.65c0.93,1.56,2.25,3.6,3.76,5.5c0.75,0.95,1.55,1.86,2.34,2.66
								c0.2,0.2,0.4,0.39,0.6,0.58c0.2,0.19,0.39,0.36,0.59,0.53c0.19,0.17,0.39,0.33,0.58,0.48c0.19,0.15,0.37,0.29,0.56,0.42
								c0.18,0.13,0.36,0.25,0.53,0.36c0.17,0.11,0.33,0.22,0.49,0.3c0.16,0.09,0.3,0.17,0.44,0.24c0.14,0.06,0.27,0.12,0.38,0.18
								c0.23,0.12,0.42,0.16,0.55,0.22c0.13,0.05,0.19,0.07,0.19,0.07l-0.26,0.74c0,0-0.07-0.03-0.21-0.09
								c-0.14-0.06-0.35-0.13-0.59-0.26c-0.12-0.06-0.26-0.13-0.41-0.21c-0.14-0.09-0.3-0.18-0.46-0.28
								c-0.17-0.1-0.33-0.21-0.51-0.34c-0.18-0.12-0.36-0.25-0.54-0.4c-0.19-0.14-0.38-0.29-0.56-0.46
								c-0.19-0.16-0.39-0.33-0.58-0.52c-0.2-0.18-0.39-0.37-0.58-0.57c-0.2-0.2-0.39-0.4-0.59-0.61c-0.78-0.85-1.55-1.8-2.27-2.79
								c-1.44-1.98-2.68-4.07-3.55-5.67C209.06,114.62,208.56,113.51,208.56,113.51z"/>
						</g>
					</g>
					<g>
						<g>
							<path class="st2" d="M181.27,112.1c0.65-2.05,1.37-3.2,1.37-3.2s-17.44,1.74-11.91,11.87
								C178.63,124.32,179.83,116.65,181.27,112.1z"/>
							<path class="st3" d="M181.81,109.5c0,0-0.97,0.69-2.35,1.83c-1.38,1.13-3.16,2.71-4.78,4.44c-0.81,0.86-1.57,1.77-2.23,2.66
								c-0.17,0.22-0.32,0.44-0.47,0.66c-0.15,0.22-0.29,0.43-0.43,0.65c-0.14,0.21-0.26,0.42-0.38,0.63
								c-0.12,0.2-0.23,0.4-0.32,0.6c-0.1,0.19-0.19,0.38-0.27,0.56c-0.08,0.18-0.16,0.35-0.22,0.52c-0.06,0.16-0.12,0.32-0.17,0.46
								c-0.04,0.14-0.08,0.28-0.12,0.4c-0.08,0.24-0.1,0.43-0.13,0.56c-0.03,0.13-0.04,0.2-0.04,0.2l-0.76-0.14
								c0,0,0.02-0.08,0.05-0.22c0.04-0.14,0.07-0.36,0.17-0.61c0.04-0.13,0.09-0.27,0.14-0.43c0.06-0.15,0.13-0.31,0.2-0.49
								c0.07-0.18,0.16-0.35,0.25-0.54c0.09-0.19,0.19-0.38,0.31-0.58c0.11-0.2,0.23-0.41,0.36-0.61c0.13-0.21,0.26-0.42,0.41-0.63
								c0.14-0.22,0.3-0.43,0.46-0.65c0.16-0.22,0.33-0.44,0.51-0.66c0.71-0.88,1.52-1.76,2.37-2.6c1.7-1.68,3.56-3.19,4.98-4.27
								C180.82,110.15,181.81,109.5,181.81,109.5z"/>
						</g>
						<g>
							<path class="st2" d="M180.33,127.43c1.53-0.02,2.47,0.21,2.47,0.21s-5.06-11.35-10.69-5.37
								C171.46,128.37,176.93,127.47,180.33,127.43z"/>
							<path class="st3" d="M182.21,127.21c0,0-0.69-0.51-1.79-1.19c-1.09-0.69-2.58-1.55-4.13-2.26c-0.78-0.36-1.57-0.67-2.33-0.92
								c-0.19-0.06-0.38-0.12-0.56-0.17c-0.18-0.06-0.36-0.1-0.54-0.14c-0.18-0.05-0.35-0.08-0.52-0.11
								c-0.17-0.04-0.33-0.06-0.48-0.08c-0.16-0.03-0.3-0.05-0.45-0.06c-0.14-0.01-0.28-0.03-0.4-0.03c-0.13,0-0.24-0.01-0.35-0.01
								c-0.11,0-0.21,0.01-0.3,0.01c-0.18,0-0.32,0.03-0.41,0.04c-0.09,0.01-0.15,0.02-0.15,0.02l-0.08-0.55c0,0,0.06,0,0.16-0.01
								c0.11,0,0.26-0.03,0.46-0.02c0.1,0,0.21,0,0.32,0c0.12,0.01,0.24,0.02,0.38,0.03c0.14,0.01,0.28,0.03,0.43,0.05
								c0.15,0.02,0.31,0.04,0.47,0.08c0.16,0.03,0.33,0.06,0.5,0.11c0.17,0.04,0.35,0.09,0.53,0.14c0.18,0.05,0.36,0.11,0.55,0.17
								c0.19,0.06,0.38,0.13,0.57,0.2c0.76,0.28,1.55,0.64,2.32,1.03c1.54,0.78,3,1.71,4.06,2.44
								C181.53,126.68,182.21,127.21,182.21,127.21z"/>
						</g>
						<g>
							<path class="st2" d="M163.19,112.65c-1.34-0.66-2.06-1.28-2.06-1.28s-0.65,12.15,6.93,9.42
								C171.35,115.77,166.18,114.13,163.19,112.65z"/>
							<path class="st3" d="M161.45,112.01c0,0,0.39,0.76,1.04,1.86c0.65,1.1,1.58,2.53,2.64,3.86c0.53,0.67,1.09,1.31,1.65,1.87
								c0.14,0.14,0.28,0.28,0.42,0.4c0.14,0.13,0.28,0.25,0.41,0.37c0.14,0.12,0.27,0.23,0.41,0.33c0.13,0.11,0.26,0.2,0.39,0.29
								c0.13,0.09,0.25,0.18,0.37,0.25c0.12,0.08,0.23,0.15,0.34,0.21c0.11,0.06,0.21,0.12,0.31,0.17c0.1,0.05,0.19,0.09,0.27,0.12
								c0.16,0.08,0.3,0.12,0.38,0.15c0.09,0.03,0.14,0.05,0.14,0.05l-0.18,0.52c0,0-0.05-0.02-0.15-0.06
								c-0.09-0.04-0.24-0.09-0.41-0.19c-0.09-0.04-0.18-0.09-0.29-0.15c-0.1-0.06-0.21-0.12-0.32-0.19
								c-0.12-0.07-0.23-0.15-0.36-0.24c-0.13-0.08-0.25-0.18-0.38-0.28c-0.13-0.1-0.26-0.21-0.4-0.32
								c-0.13-0.11-0.27-0.23-0.41-0.36c-0.14-0.13-0.28-0.26-0.41-0.4c-0.14-0.14-0.28-0.28-0.41-0.43
								c-0.55-0.6-1.09-1.27-1.59-1.96c-1.01-1.39-1.88-2.86-2.49-3.99C161.81,112.79,161.45,112.01,161.45,112.01z"/>
						</g>
					</g>
					<g>
						<g>
							<path class="st2" d="M200.9,222.28c1.31,0.18,2.08,0.49,2.08,0.49s-2.88-10.32-8.44-5.92
								C193.22,221.97,198,221.88,200.9,222.28z"/>
							<path class="st3" d="M202.54,222.33c0,0-0.52-0.51-1.35-1.22c-0.83-0.71-1.97-1.62-3.19-2.41c-0.61-0.4-1.24-0.76-1.84-1.06
								c-0.15-0.08-0.3-0.15-0.45-0.21c-0.15-0.07-0.29-0.13-0.44-0.19c-0.14-0.06-0.28-0.11-0.42-0.16
								c-0.14-0.05-0.27-0.09-0.4-0.13c-0.13-0.04-0.25-0.08-0.37-0.1c-0.12-0.03-0.23-0.06-0.34-0.08c-0.11-0.02-0.2-0.04-0.3-0.05
								c-0.09-0.01-0.18-0.02-0.25-0.03c-0.15-0.02-0.27-0.01-0.35-0.02c-0.08,0-0.12,0-0.12,0l0-0.47c0,0,0.05,0,0.14,0.01
								c0.09,0.01,0.22,0.01,0.39,0.04c0.08,0.01,0.17,0.03,0.27,0.04c0.1,0.02,0.2,0.04,0.32,0.07c0.11,0.02,0.23,0.06,0.35,0.09
								c0.12,0.03,0.25,0.07,0.38,0.12c0.13,0.05,0.27,0.09,0.41,0.15c0.14,0.06,0.28,0.11,0.43,0.18c0.15,0.06,0.29,0.13,0.44,0.21
								c0.15,0.07,0.3,0.15,0.45,0.24c0.61,0.33,1.23,0.73,1.83,1.15c1.2,0.85,2.31,1.81,3.11,2.55
								C202.04,221.8,202.54,222.33,202.54,222.33z"/>
						</g>
						<g>
							<path class="st2" d="M198.61,211.14c0.27-0.91,0.58-1.42,0.58-1.42s-7.67,0.91-5.14,5.33
								C197.55,216.54,198.02,213.15,198.61,211.14z"/>
							<path class="st3" d="M198.83,209.99c0,0-0.43,0.32-1.05,0.85c-0.62,0.53-1.41,1.26-2.13,2.06c-0.36,0.4-0.7,0.82-0.99,1.22
								c-0.07,0.1-0.14,0.2-0.21,0.3c-0.07,0.1-0.13,0.2-0.19,0.3c-0.06,0.1-0.11,0.19-0.16,0.29c-0.05,0.09-0.1,0.19-0.14,0.27
								c-0.04,0.09-0.08,0.17-0.12,0.26c-0.03,0.08-0.07,0.16-0.09,0.24c-0.03,0.07-0.05,0.15-0.07,0.21
								c-0.02,0.07-0.03,0.13-0.05,0.18c-0.03,0.11-0.04,0.2-0.05,0.25c-0.01,0.06-0.02,0.09-0.02,0.09l-0.34-0.06
								c0,0,0.01-0.03,0.02-0.1c0.02-0.06,0.03-0.16,0.07-0.28c0.02-0.06,0.04-0.12,0.06-0.19c0.03-0.07,0.06-0.14,0.09-0.22
								c0.03-0.08,0.07-0.16,0.11-0.25c0.04-0.09,0.08-0.18,0.13-0.27c0.05-0.09,0.1-0.19,0.16-0.28c0.06-0.1,0.12-0.19,0.18-0.29
								c0.06-0.1,0.13-0.2,0.21-0.3c0.07-0.1,0.15-0.2,0.23-0.3c0.31-0.4,0.67-0.81,1.05-1.2c0.76-0.78,1.59-1.48,2.22-1.98
								C198.38,210.3,198.83,209.99,198.83,209.99z"/>
						</g>
					</g>
					<g>
						<g>
							<path class="st2" d="M221.97,150.62c1.31,0.18,2.08,0.49,2.08,0.49s-2.88-10.32-8.44-5.92
								C214.29,150.31,219.07,150.22,221.97,150.62z"/>
							<path class="st3" d="M223.6,150.67c0,0-0.52-0.51-1.35-1.22c-0.83-0.71-1.97-1.62-3.19-2.41c-0.61-0.4-1.24-0.76-1.84-1.06
								c-0.15-0.08-0.3-0.15-0.45-0.21c-0.15-0.07-0.29-0.13-0.44-0.19c-0.14-0.06-0.28-0.11-0.42-0.16
								c-0.14-0.05-0.27-0.09-0.4-0.13c-0.13-0.04-0.25-0.08-0.37-0.1c-0.12-0.03-0.23-0.06-0.34-0.08c-0.11-0.02-0.2-0.04-0.3-0.05
								c-0.09-0.01-0.18-0.02-0.25-0.03c-0.15-0.02-0.27-0.01-0.35-0.02c-0.08,0-0.12,0-0.12,0l0-0.47c0,0,0.05,0,0.14,0.01
								c0.09,0.01,0.22,0.01,0.39,0.04c0.08,0.01,0.17,0.03,0.27,0.04c0.1,0.02,0.2,0.04,0.32,0.07c0.11,0.02,0.23,0.06,0.35,0.09
								c0.12,0.03,0.25,0.07,0.38,0.12c0.13,0.05,0.27,0.09,0.41,0.15c0.14,0.06,0.28,0.11,0.43,0.18c0.15,0.06,0.29,0.13,0.44,0.21
								c0.15,0.07,0.3,0.15,0.45,0.24c0.61,0.33,1.23,0.73,1.83,1.15c1.2,0.85,2.31,1.81,3.11,2.55
								C223.1,150.14,223.6,150.67,223.6,150.67z"/>
						</g>
						<g>
							<path class="st2" d="M219.68,139.48c0.27-0.91,0.58-1.42,0.58-1.42s-7.67,0.91-5.14,5.33
								C218.62,144.89,219.08,141.49,219.68,139.48z"/>
							<path class="st3" d="M219.9,138.33c0,0-0.43,0.32-1.05,0.85c-0.62,0.53-1.41,1.26-2.13,2.06c-0.36,0.4-0.7,0.82-0.99,1.22
								c-0.07,0.1-0.14,0.2-0.21,0.3c-0.07,0.1-0.13,0.2-0.19,0.3c-0.06,0.1-0.11,0.19-0.16,0.29c-0.05,0.09-0.1,0.19-0.14,0.27
								c-0.04,0.09-0.08,0.17-0.12,0.26c-0.03,0.08-0.07,0.16-0.09,0.24c-0.03,0.07-0.05,0.15-0.07,0.21
								c-0.02,0.07-0.03,0.13-0.05,0.18c-0.03,0.11-0.04,0.2-0.05,0.25c-0.01,0.06-0.02,0.09-0.02,0.09l-0.34-0.06
								c0,0,0.01-0.03,0.02-0.1c0.02-0.06,0.03-0.16,0.07-0.28c0.02-0.06,0.04-0.12,0.06-0.19c0.03-0.07,0.06-0.14,0.09-0.22
								c0.03-0.08,0.07-0.16,0.11-0.25c0.04-0.09,0.08-0.18,0.13-0.27c0.05-0.09,0.1-0.19,0.16-0.28c0.06-0.1,0.12-0.19,0.18-0.29
								c0.06-0.1,0.13-0.2,0.21-0.3c0.07-0.1,0.15-0.2,0.23-0.3c0.31-0.4,0.67-0.81,1.05-1.2c0.76-0.78,1.59-1.48,2.22-1.98
								C219.45,138.64,219.9,138.33,219.9,138.33z"/>
						</g>
					</g>
					<g>
						<g>
							<path class="st2" d="M190.12,113.08c-0.45-1.24-0.91-1.93-0.91-1.93s10.72,0.69,7.55,7.01
								C192.01,120.51,191.11,115.83,190.12,113.08z"/>
							<path class="st3" d="M189.73,111.5c0,0,0.61,0.4,1.48,1.07c0.87,0.66,2,1.59,3.03,2.62c0.52,0.51,1,1.05,1.42,1.58
								c0.11,0.13,0.21,0.26,0.3,0.39c0.1,0.13,0.19,0.26,0.27,0.39c0.09,0.13,0.17,0.25,0.24,0.38c0.08,0.12,0.15,0.24,0.21,0.36
								c0.07,0.12,0.13,0.23,0.18,0.34c0.05,0.11,0.11,0.21,0.14,0.31c0.04,0.1,0.08,0.19,0.11,0.28c0.03,0.09,0.06,0.17,0.08,0.24
								c0.05,0.14,0.07,0.26,0.09,0.34c0.02,0.08,0.03,0.12,0.03,0.12l0.46-0.1c0,0-0.01-0.05-0.04-0.13
								c-0.03-0.08-0.05-0.22-0.12-0.37c-0.03-0.08-0.06-0.16-0.1-0.26c-0.04-0.09-0.09-0.19-0.13-0.29
								c-0.05-0.11-0.11-0.21-0.17-0.32c-0.06-0.11-0.13-0.23-0.2-0.35c-0.07-0.12-0.15-0.24-0.24-0.37
								c-0.08-0.13-0.17-0.25-0.27-0.38c-0.09-0.13-0.19-0.26-0.3-0.39c-0.1-0.13-0.21-0.26-0.33-0.39
								c-0.45-0.52-0.97-1.05-1.51-1.54c-1.08-0.99-2.25-1.88-3.15-2.51C190.36,111.88,189.73,111.5,189.73,111.5z"/>
						</g>
						<g>
							<path class="st2" d="M201.53,113.02c0.84-0.45,1.28-0.86,1.28-0.86s0.68,7.67-4.17,6.11
								C196.44,115.17,199.67,114.02,201.53,113.02z"/>
							<path class="st3" d="M202.61,112.57c0,0-0.23,0.49-0.62,1.2c-0.39,0.71-0.94,1.64-1.58,2.5c-0.32,0.43-0.66,0.85-1,1.22
								c-0.08,0.09-0.17,0.18-0.26,0.27c-0.08,0.09-0.17,0.17-0.25,0.24c-0.08,0.08-0.17,0.15-0.25,0.22
								c-0.08,0.07-0.16,0.13-0.24,0.19c-0.08,0.06-0.15,0.12-0.23,0.17c-0.07,0.05-0.14,0.1-0.21,0.14
								c-0.07,0.04-0.13,0.08-0.19,0.11c-0.06,0.03-0.12,0.06-0.17,0.08c-0.1,0.06-0.18,0.08-0.24,0.11
								c-0.06,0.02-0.09,0.04-0.09,0.04l0.13,0.32c0,0,0.03-0.01,0.09-0.04c0.06-0.03,0.15-0.06,0.26-0.13
								c0.05-0.03,0.11-0.06,0.18-0.1c0.06-0.04,0.13-0.08,0.2-0.13c0.07-0.04,0.14-0.1,0.22-0.16c0.08-0.06,0.16-0.12,0.23-0.19
								c0.08-0.07,0.16-0.14,0.24-0.21c0.08-0.07,0.17-0.15,0.25-0.24c0.08-0.08,0.17-0.17,0.25-0.26c0.08-0.09,0.17-0.18,0.25-0.28
								c0.33-0.39,0.66-0.82,0.96-1.27c0.61-0.9,1.13-1.85,1.49-2.58C202.4,113.07,202.61,112.57,202.61,112.57z"/>
						</g>
					</g>
				</g>
			</g>
			<g>
				<g>
					<path class="st4" d="M117.43,210.44c6.37-5.11,9.7-12.63,12.16-20.08c1.91-5.79,3.43-11.77,3.34-17.89
						c-0.09-6.12-1.91-12.44-6.1-17.44c-1.05-1.25-2.26-2.43-3.76-3.21c-3.61-1.89-8.25-1.09-11.48,1.03
						c-3.23,2.12-5.35,5.32-7.26,8.5c-4.24,7.03-7.95,14.39-10.18,22.21c-1.06,3.71-1.77,7.69-0.47,11.43
						c0.9,2.6,2.69,4.89,4.46,7.13c2.36,3,5.38,8.84,8.88,10.67C110.38,214.55,115.08,212.5,117.43,210.44z"/>
					<path d="M109.93,213.81c-1.06,0-2.11-0.21-3.08-0.71c-2.59-1.35-4.85-4.73-6.85-7.71c-0.76-1.14-1.48-2.21-2.14-3.05
						c-1.76-2.24-3.59-4.55-4.51-7.23c-1.38-3.99-0.54-8.12,0.47-11.64c1.98-6.93,5.22-14.02,10.22-22.29
						c1.91-3.16,4.05-6.44,7.37-8.61c3.06-2,7.9-3.1,11.83-1.05c1.34,0.7,2.57,1.75,3.86,3.3c3.88,4.63,6.08,10.9,6.18,17.66
						c0.1,6.65-1.74,13.11-3.35,18c-2.31,7-5.57,14.87-12.26,20.24C116.01,212.14,112.92,213.81,109.93,213.81z M118.54,151.1
						c-2.49,0-4.96,0.85-6.76,2.04c-3.2,2.1-5.29,5.29-7.16,8.39c-4.96,8.22-8.18,15.25-10.14,22.13
						c-0.97,3.41-1.79,7.42-0.48,11.22c0.89,2.57,2.67,4.84,4.4,7.03c0.68,0.86,1.41,1.94,2.18,3.09c1.95,2.91,4.16,6.21,6.6,7.48
						c3.21,1.68,7.79-0.34,10.03-2.3l0.01-0.01c6.55-5.25,9.77-13.02,12.04-19.92c1.6-4.84,3.42-11.23,3.32-17.78
						c-0.1-6.6-2.24-12.71-6.02-17.22c-1.24-1.47-2.4-2.47-3.65-3.13C121.53,151.41,120.03,151.1,118.54,151.1z"/>
				</g>
				<g>
					<path class="st5" d="M54.16,177.02c-1.15-1.96-3.01-3.61-5.25-4.02c-2.59-0.47-5.27,0.81-7.02,2.76
						c-1.23,1.36-2.08,3.42-1.14,4.99c0.95,1.57,3.12,1.77,4.97,1.78c-1.09,0.03-2.16,0.46-3.01,1.15c-1.48,1.2-2.29,3.23-1.87,5.08
						c0.42,1.85,2.12,3.39,4.02,3.46c-2.55,0.13-4.29,3.13-3.68,5.6c1.67,6.72,12.86,6.43,15.59,0.74
						C59.37,193.16,57.02,181.87,54.16,177.02z"/>
					<path d="M48.82,203.48c-0.4,0-0.8-0.02-1.2-0.06c-3.65-0.37-6.28-2.41-7.03-5.44c-0.37-1.48,0-3.2,0.96-4.5
						c0.37-0.5,0.8-0.9,1.27-1.21c-1.26-0.69-2.25-1.92-2.58-3.37c-0.46-2.03,0.38-4.32,2.09-5.7c0.16-0.13,0.32-0.25,0.49-0.36
						c-1.07-0.28-2-0.8-2.59-1.77c-1.17-1.93-0.08-4.29,1.2-5.72c2.07-2.3,4.98-3.43,7.59-2.96c2.23,0.41,4.3,1.98,5.67,4.31h0
						c2.94,5,5.34,16.49,2.64,22.13C55.98,201.67,52.58,203.48,48.82,203.48z M47.82,173.53c-1.92,0-3.94,0.96-5.47,2.66
						c-1.08,1.2-1.83,2.99-1.07,4.25c0.78,1.28,2.68,1.47,4.44,1.48l0.01,1.24c-0.92,0.02-1.86,0.38-2.64,1.01
						c-1.35,1.09-2.01,2.88-1.66,4.46c0.36,1.61,1.87,2.92,3.44,2.98l0.01,1.24c-0.9,0.05-1.74,0.53-2.36,1.37
						c-0.75,1.01-1.03,2.33-0.75,3.46c0.62,2.5,2.85,4.19,5.96,4.5c3.13,0.32,7.05-0.91,8.48-3.88c2.5-5.21,0.15-16.31-2.59-20.97h0
						c-1.19-2.02-2.95-3.38-4.83-3.72C48.48,173.55,48.15,173.53,47.82,173.53z"/>
				</g>
				<g>
					<path class="st6" d="M109.28,169.32c8.15-2.04,14.99-5.11,23.38-5.66c4.28-0.28,11.33-0.05,15.45-1.26
						c4.12-1.21,9.14-3.23,10.21-7.38c0.39-1.53-0.97-9.11-8.79-11.84c-8.69-3.02-43.74-11.51-52.35-12.5
						c-12.98-1.49-23.61,5.79-31.75,17c-9.58,13.2-13.55,30.47-10.83,46.53c0.5,2.94,1.25,5.87,2.69,8.48
						c2.12,3.85,10.13,20.3,31.93,21.11c3.08,0.11,17.33-0.28,20.62-2.76c-0.69,2.2-0.96,4.31-0.26,6.51s2.68,4.36,4.97,4.08
						c1.31-0.16,2.43-0.96,3.47-1.77c8.03-6.29,14.09-12.6,16.97-21.22c1.51-4.53-1.57-6.59-5.14-6.54
						c-3.58,0.05-6.21,4.39-7.34,4.35c-1.62-0.06-1.95-2.28-1.87-3.89c0.37-7.66-1.07-15.61-5.08-22.16
						c-7.54-12.29-19.19-4.94-21.16-2.35"/>
					<path d="M114.13,232.26c-2.42,0-4.43-2.26-5.16-4.53c-0.54-1.7-0.58-3.43-0.12-5.48c-5.13,2.07-17.91,2.23-19.67,2.16
						c-14.12-0.52-24.94-7.56-32.17-20.91l-0.28-0.52c-1.27-2.3-2.14-5.06-2.75-8.67c-2.74-16.22,1.35-33.78,10.94-47
						c9.19-12.66,20.36-18.63,32.32-17.25c8.89,1.02,43.83,9.52,52.48,12.53c7.97,2.77,9.72,10.5,9.19,12.57
						c-1.17,4.54-6.63,6.64-10.63,7.82c-3.05,0.9-7.54,1.02-11.5,1.13c-1.49,0.04-2.9,0.08-4.08,0.16
						c-5.6,0.37-10.47,1.87-15.63,3.45c-2.45,0.75-4.98,1.53-7.63,2.19c-0.33,0.08-0.67-0.12-0.75-0.45
						c-0.08-0.33,0.12-0.67,0.45-0.75c2.62-0.66,5.14-1.43,7.57-2.18c5.23-1.61,10.17-3.12,15.92-3.5c1.21-0.08,2.63-0.12,4.13-0.16
						c3.89-0.11,8.29-0.23,11.19-1.08c3.72-1.1,8.77-3.01,9.78-6.94c0.33-1.27-0.88-8.48-8.4-11.1
						c-8.3-2.89-43.56-11.48-52.22-12.47c-11.49-1.32-22.27,4.48-31.18,16.75c-9.4,12.95-13.41,30.17-10.72,46.06
						c0.59,3.48,1.42,6.11,2.62,8.28l0.29,0.53c2.61,4.82,10.55,19.5,31.12,20.26c3.71,0.14,17.28-0.42,20.23-2.63
						c0.21-0.16,0.51-0.17,0.73-0.01c0.22,0.16,0.31,0.43,0.23,0.69c-0.76,2.42-0.84,4.32-0.27,6.13c0.62,1.95,2.34,3.89,4.31,3.65
						c1.17-0.15,2.2-0.89,3.16-1.65c6.54-5.12,13.65-11.61,16.76-20.93c0.56-1.68,0.48-3.04-0.25-4.04
						c-0.8-1.09-2.36-1.67-4.29-1.68c-2.03,0.03-3.8,1.68-5.1,2.89c-0.96,0.89-1.61,1.49-2.27,1.46c-0.59-0.02-1.11-0.26-1.51-0.7
						c-0.98-1.07-1-3.04-0.96-3.84c0.28-5.78-0.37-14.26-4.99-21.81c-2.56-4.18-5.83-6.4-9.71-6.59c-4.92-0.23-9.39,2.93-10.43,4.29
						c-0.21,0.27-0.59,0.33-0.87,0.12c-0.27-0.21-0.33-0.6-0.12-0.87c1.32-1.74,6.21-5.06,11.48-4.78c4.31,0.21,7.91,2.63,10.7,7.18
						c4.79,7.82,5.46,16.56,5.17,22.51c-0.06,1.32,0.18,2.45,0.64,2.95c0.18,0.19,0.38,0.29,0.64,0.3c0.21-0.04,0.89-0.67,1.38-1.13
						c1.45-1.34,3.43-3.18,5.93-3.22c2.37-0.02,4.27,0.76,5.31,2.19c0.67,0.92,1.3,2.57,0.43,5.17
						c-3.22,9.63-10.49,16.28-17.17,21.52c-1.05,0.82-2.29,1.71-3.77,1.9C114.45,232.25,114.28,232.26,114.13,232.26z"/>
				</g>
				<g>
					<g>
						<path class="st6" d="M100.9,28.93c14.04,9.37,11.03,24.43,4.63,34.51c-2.77,4.36-6.87,7.69-10.9,10.93
							c-5.2,4.18-10.91,8.56-17.59,8.79c-7.12,0.24-13.63-4.5-17.63-10.38c-1.04-1.53-1.95-3.15-2.63-4.87
							c-2-5.08-3.58-9.51-1.99-16.24c1.09-4.63,5.64-10.67,14.54-10.17c-3.76-2.11-8.4-1.01-12.01,1.5
							C61.2,36.5,68.09,32.35,74.22,30.1s12.68,0.04,16.74,5.13c0.1-4.32-1.7-7.26-5.11-8.48c9.13,1.47,13.02,1.72,16.95,11.4
							C103.05,34.16,102.07,32.58,100.9,28.93z"/>
						<path d="M76.53,83.78c-7.64,0-14.09-5.46-17.63-10.66c-1.17-1.71-2.05-3.35-2.69-4.99c-2.18-5.52-3.59-9.94-2.02-16.61
							c0.86-3.66,4.23-9.4,11.54-10.49c-2.55-0.23-5.38,0.61-8.05,2.47l-2.35,1.63l1.46-2.46C61.34,35.05,69.53,31.16,74,29.52
							c5.67-2.08,11.88-0.51,16.26,3.99c-0.35-3.09-1.93-5.21-4.63-6.18l0.31-1.19l1.03,0.16c7.65,1.22,11.59,1.84,15.13,8.81
							c-0.19-1.37-0.59-2.52-1.1-3.96c-0.22-0.62-0.45-1.28-0.69-2.03l-0.54-1.69l1.47,0.98c14.11,9.41,11.74,24.44,4.81,35.35
							c-2.85,4.49-7.01,7.84-11.03,11.08c-4.56,3.66-10.79,8.69-17.95,8.92C76.89,83.78,76.71,83.78,76.53,83.78z M68.28,42.08
							c-8.33,0-12.01,6.03-12.89,9.72c-1.49,6.34-0.19,10.4,1.97,15.88c0.61,1.56,1.45,3.11,2.57,4.75
							c3.43,5.05,9.74,10.33,17.1,10.11c6.24-0.21,11.49-4.04,17.22-8.65c3.94-3.17,8.02-6.46,10.76-10.78
							c6.35-10,8.72-23.59-2.91-32.55c0.02,0.06,0.04,0.13,0.07,0.19c0.84,2.41,1.45,4.15,1.24,7.45l-0.18,2.69l-1.01-2.5
							c-3.32-8.18-6.48-9.36-13.31-10.51c1.81,1.68,2.74,4.21,2.67,7.38l-0.04,1.71l-1.06-1.33c-4.05-5.09-10.35-7.02-16.04-4.94
							c-3.86,1.41-10.57,4.56-15.06,10.4c3.6-1.72,7.31-1.79,10.27-0.13l2.33,1.31l-2.67-0.15C68.95,42.09,68.62,42.08,68.28,42.08z
							"/>
					</g>
					<path class="st7" d="M99.24,54.48c0.91-3.47-1.76-8.98-4.37-11.43c-0.13,1.98,1.03,5.16-0.86,5.76
						c-1.16-3.48-1.06-6.22-7.01-8.13c-0.91-0.29-2.09-0.68-2.6,0.13c1.87,0.85,3.19,2.81,3.28,4.86
						c-6.23-3.11-14.55-1.22-18.8,4.28c2.66-1.49,5.84-2.02,8.84-1.47c-1.91-0.24-6.7,2.11-7.99,3.53
						c-3.31,3.66-2.84,7.03-4.62,11.62c1.74-2.05,4.09-3.58,6.67-4.35c-2.4,2.32-4.33,5.48-4.01,8.8c0.85,8.85,12.24,7.79,17.13,5.7
						C91.6,70.92,97.37,61.56,99.24,54.48z"/>
					<g>
						<path class="st6" d="M151.78,50.45c-0.55,2.85-1.1,5.7-1.65,8.55c2.26-6.84,10.11-11.32,17.17-9.79
							c-3.47,1.01-6.41,3.71-7.71,7.07c1.73-3.91,19.88-4.09,26.15,3.35c3.07,3.65,6.89,10.06,6.79,17.12
							c-0.11,8.67-1.41,14.11-8.04,19.71c1.43-3.78,2.37-4.81,2.11-8.95c-2.11,8.95-12.35,14-20.76,13.36
							c-8.41-0.65-16.16-8.35-19.93-15.87c-2.92-5.84-3.09-10.37-2.27-16.33C144.63,61.73,146.77,55.87,151.78,50.45z"/>
						<path d="M167.31,101.53c-0.51,0-1-0.02-1.5-0.06c-8.85-0.68-16.64-8.63-20.43-16.21c-3.04-6.08-3.16-10.72-2.33-16.7
							c1.09-7.81,3.64-13.53,8.28-18.54l1.47-1.59l-1.25,6.49c3.52-4.84,9.98-7.61,15.89-6.33l2.38,0.52l-2.34,0.68
							c-2.39,0.7-4.52,2.25-5.98,4.27c1.13-0.45,2.39-0.69,3.31-0.82c6.07-0.87,16.72,0.42,21.41,5.98
							c1.66,1.97,7.05,9.04,6.94,17.52c-0.12,8.85-1.42,14.4-8.26,20.18l-1.82,1.54l0.84-2.23c0.3-0.79,0.58-1.46,0.83-2.06
							c0.41-1,0.74-1.79,0.96-2.65C182.16,97.95,174.28,101.53,167.31,101.53z M150.73,52.62c-3.52,4.41-5.53,9.48-6.46,16.13
							c-0.8,5.73-0.69,10.18,2.21,15.97c3.52,7.03,11.1,14.89,19.42,15.53c8.06,0.61,18.04-4.13,20.11-12.88l0.96-4.07l0.26,4.17
							c0.2,3.17-0.29,4.61-1.12,6.66c4.73-4.85,5.71-9.88,5.81-17.39c0.11-8.06-5.06-14.83-6.65-16.71
							c-4.39-5.21-14.51-6.38-20.29-5.56c-2.57,0.37-4.42,1.16-4.82,2.06l-1.14-0.47c1.07-2.77,3.22-5.13,5.86-6.52
							c-6.1-0.19-12.24,3.85-14.16,9.66l-1.2-0.31L150.73,52.62z"/>
					</g>
					<path class="st7" d="M167.72,66.8c-2.08-0.26-4.27,0.65-5.54,2.32c2.62-1.54,5.87,0.47,8.12,2.52
						c1.19,1.08,2.42,2.34,2.59,3.94c-1.82-0.77-4.05-0.47-5.59,0.76c2.35-0.36,4.87,0.64,6.33,2.51c1.47,1.87,1.82,4.54,0.9,6.73
						c-1.33-1.05-2.89-1.56-4.26-0.55c1.75-0.43,3.06,1.39,3.19,3.49c0.11,1.8-1.04,3.49-2.55,4.48c-1.51,0.99-3.31,1.41-5.08,1.77
						c-1.23,0.25-2.47,0.49-3.72,0.48c-8-0.06-15.28-11.4-14.64-18.88c0.34-3.95,3.07-8.42,6.56-10.22c2.1-1.09,4.91-1.6,7.27-1.53
						C163.79,64.71,166.95,64.67,167.72,66.8z"/>
					<g>
						<path class="st6" d="M119.48,47.22c2.38-0.17,4.53,1.71,5.44,3.91c0.91,2.2,0.85,4.67,0.79,7.05c2.05-3.02,5.87-4.73,9.5-4.26
							c-2.58,1.51-4.64,3.88-5.78,6.64c2.23-2.33,6.04-2.98,8.92-1.53c-2.66,1.06-4.02,1.63-6.12,3.57
							c6.4-0.29,15.6,8.65,19.85,13.43c10.38,11.66,15.76,25.23,14.51,38.78c-1.45-2.43-3.94-4.22-6.72-4.82
							c3.71,3.51,4.16,9.91,0.99,13.9c-0.18-2.83-1.58-5.56-3.76-7.38c0.71,3.34,1.4,18.39-24.6,22.42
							c-8.46,1.31-29.93-2.29-40.23-7.41c-14.92-7.41-24.68-15.91-19.84-31.43c-2.25,1.85-3.82,4.51-4.36,7.37
							c-1.27-5.14,0.72-10.93,4.87-14.22c-3.53-0.09-6.92,2.64-7.57,6.1c0.03-9.68,17.66-29.3,21.83-32.45
							c15.66-11.85,33.55-6.68,35.06-7.98C123.47,57.87,121.57,47.07,119.48,47.22z"/>
						<path d="M128.31,139.82c-9.96,0-27.16-3.19-36.31-7.74c-12.96-6.43-24.33-14.52-20.77-29.9c-1.28,1.55-2.18,3.44-2.55,5.4
							l-0.53,2.79l-0.68-2.76c-1.16-4.7,0.33-10,3.65-13.53c-2.52,0.67-4.66,2.81-5.14,5.38l-1.23-0.12
							c0.03-9.97,17.67-29.61,22.08-32.95c11.96-9.05,25.23-8.32,31.61-7.97c1.54,0.08,3.13,0.17,3.45,0
							c0.5-0.7-0.12-6.31-1.48-9.33c-0.53-1.17-0.88-1.26-0.88-1.26l-0.09-1.23c0,0,0,0,0,0c2.86-0.2,5.14,2.08,6.05,4.29
							c0.73,1.77,0.87,3.69,0.87,5.52c2.29-2.31,5.67-3.54,8.92-3.11l1.79,0.23l-1.56,0.91c-1.71,1-3.18,2.4-4.29,4.04
							c2.29-1.12,5.09-1.18,7.4-0.01l1.22,0.62l-1.27,0.51c-2.13,0.85-3.36,1.37-4.78,2.47c7.12,1.06,16.03,10.5,18.74,13.55
							c10.68,12,15.89,25.94,14.67,39.25l-0.17,1.9l-0.97-1.64c-1-1.68-2.54-3.03-4.32-3.86c2.55,3.85,2.5,9.36-0.4,13.01l-1,1.26
							l-0.1-1.6c-0.13-2.07-0.97-4.11-2.31-5.72c0.12,2.26-0.2,6.14-2.94,10.1c-3.97,5.76-11.51,9.54-22.4,11.23
							C131.41,139.73,129.96,139.82,128.31,139.82z M73.64,98.3l-0.62,1.98c-4.99,15.98,6.43,24.2,19.52,30.7
							c10.5,5.21,31.7,8.61,39.86,7.35c10.54-1.63,17.8-5.23,21.57-10.71c3.61-5.23,2.64-10.4,2.52-10.97l-0.37-1.75l1.37,1.14
							c1.87,1.56,3.2,3.78,3.74,6.16c2-3.74,1.32-8.81-1.79-11.76l-1.6-1.51l2.15,0.46c2.35,0.5,4.53,1.83,6.09,3.67
							c0.62-12.45-4.48-25.39-14.48-36.62c-5.83-6.55-13.98-13.46-19.36-13.22l-1.69,0.08l1.24-1.15c1.72-1.59,2.97-2.3,4.82-3.08
							c-2.37-0.56-5.07,0.16-6.76,1.92l-2.28,2.38l1.26-3.04c0.94-2.29,2.48-4.3,4.42-5.83c-2.79,0.22-5.48,1.72-7.06,4.04
							l-1.19,1.75l0.06-2.12c0.06-2.19,0.13-4.67-0.74-6.79c-0.55-1.32-1.66-2.62-3.02-3.21c0.11,0.22,0.22,0.45,0.33,0.71
							c1.14,2.76,2.33,9.37,1.01,10.51c-0.56,0.48-1.73,0.42-4.3,0.28c-6.23-0.34-19.2-1.05-30.79,7.72
							c-3.64,2.75-17.36,17.9-20.8,27.96c1.58-1.7,3.85-2.78,6.18-2.72l1.71,0.04l-1.34,1.06c-3.22,2.55-5.09,6.75-5.01,10.85
							c0.83-1.92,2.12-3.65,3.72-4.97L73.64,98.3z"/>
					</g>
					<path d="M102.41,93.87c-1.31-1.34-2.69-2.44-4.2-3.31c-1.51-0.85-3.11-1.48-4.76-1.8c-1.66-0.33-3.37-0.36-5.09-0.15
						c-1.72,0.23-3.42,0.71-5.14,1.44c1.25-1.4,2.97-2.4,4.82-2.94c1.85-0.56,3.87-0.66,5.8-0.27c1.93,0.39,3.75,1.25,5.25,2.47
						C100.58,90.52,101.79,92.1,102.41,93.87z"/>
					<path d="M150.28,106.74c-1.31-1.34-2.69-2.44-4.2-3.31c-1.51-0.85-3.11-1.48-4.76-1.8c-1.66-0.33-3.37-0.36-5.09-0.15
						c-1.72,0.23-3.42,0.71-5.14,1.44c1.25-1.4,2.97-2.4,4.82-2.94c1.85-0.56,3.87-0.66,5.8-0.27c1.93,0.39,3.75,1.25,5.25,2.47
						C148.45,103.39,149.66,104.96,150.28,106.74z"/>
					<path class="st8" d="M123.85,115.31c0.6-2.56,0.38-7.34-0.53-14.97c-0.24-2.06-1.13-12.42-5.13-12.68
						c-4.77-0.31-10.58,8.67-12.6,11.85c-2.01,3.16-5.02,8.32-3.88,11.63C102.71,114.07,122.8,119.79,123.85,115.31z"/>
				</g>
				<path class="st9" d="M163.48,49.48c-2.86,0.36-5.62,1.53-7.86,3.34c-2.15,1.73-3.8,3.99-5.4,6.23c1.68-1.41,3.36-2.81,5.05-4.22
					c1.22-1.02,2.44-2.04,3.82-2.83c1.68-0.96,3.57-1.56,5.5-1.73c-1.89-0.83-4.08-0.95-6.04-0.33"/>
				<path class="st10" d="M133.5,54.25c-0.31,0.27-0.62,0.54-0.93,0.81c-1.25,1.07-2.65,2.4-4.12,3.04
					C128.73,55.78,131.41,54.58,133.5,54.25z"/>
				<path class="st9" d="M149.79,146.37c-1.83-1.01-3.78-1.85-5.84-2.24c-1.67-0.31-3.48-0.3-4.97,0.53c3.92,1.9,8.05,4.6,12.2,5.9
					c1.01,0.32,2.97,1.09,2.86-0.92C153.99,148.44,150.69,146.86,149.79,146.37z"/>
				<path class="st11" d="M119.01,89.44c-0.42-0.09-0.83-0.18-1.25-0.27c-0.57,0.37-1.18,0.81-1.32,1.47
					c-0.02,0.11-0.03,0.22,0.02,0.32c0.07,0.14,0.24,0.21,0.39,0.25c0.91,0.23,2.05-0.11,2.37-1c0.07-0.19,0.09-0.41,0.02-0.59
					s-0.27-0.34-0.47-0.31"/>
				<path d="M111.14,94.47c-1.86,2.15-3.49,4.5-5.1,6.84c-0.19,0.27-0.38,0.61-0.23,0.9c0.15,0.29,0.56,0.34,0.88,0.26
					c0.92-0.25,1.46-1.18,1.93-2.01c1.26-2.27,2.69-4.44,4.29-6.49c0.37-0.47,2.08-2.23,0.75-1.92
					C112.79,92.24,111.69,93.83,111.14,94.47z"/>
				<path d="M117.57,89.62c-0.45-0.36-1.19-0.3-1.57,0.14c-0.2,0.23-0.3,0.59-0.13,0.85c0.23,0.33,0.77,0.27,1.08,0.01
					c0.32-0.26,0.51-0.68,0.5-1.09"/>
			</g>
		</g>
	</g>
</g>
</svg>
