<!-- Generator: Adobe Illustrator 24.1.2, SVG Export Plug-In  -->
<svg version="1.1" xmlns="http://www.w3.org/2000/svg" xmlns:xlink="http://www.w3.org/1999/xlink" x="0px" y="0px"
	 width="112.12px" height="72px" viewBox="0 0 112.12 72" style="overflow:visible;enable-background:new 0 0 112.12 72;"
	 xml:space="preserve">
<style type="text/css">
	.st0{fill:#FFFFFF;}
</style>
<defs>
</defs>
<g id="Grupo_1213_1_" transform="translate(-1279.538 33.596)">
	<path id="Trazado_10_1_" class="st0" d="M1386.26-22.8h-101.32c-2.98,0-5.4-2.42-5.4-5.4c0,0,0,0,0,0c0-2.98,2.42-5.4,5.4-5.4l0,0
		h101.32c2.98,0,5.4,2.42,5.4,5.4C1391.66-25.21,1389.24-22.8,1386.26-22.8z"/>
	<path id="Trazado_11_1_" class="st0" d="M1386.26,7.81h-101.32c-2.98,0-5.4-2.42-5.4-5.4c0,0,0,0,0,0c0-2.98,2.42-5.4,5.4-5.4
		h101.32c2.98,0,5.4,2.42,5.4,5.4C1391.66,5.39,1389.24,7.8,1386.26,7.81z"/>
	<path id="Trazado_12_1_" class="st0" d="M1386.26,38.4h-101.32c-2.98,0-5.4-2.42-5.4-5.4c0-2.98,2.42-5.4,5.4-5.4c0,0,0,0,0,0
		h101.32c2.98,0,5.4,2.42,5.4,5.4C1391.66,35.99,1389.24,38.4,1386.26,38.4z"/>
</g>
</svg>
