<!-- Generator: Adobe Illustrator 24.1.2, SVG Export Plug-In  -->
<svg version="1.1" xmlns="http://www.w3.org/2000/svg" xmlns:xlink="http://www.w3.org/1999/xlink" x="0px" y="0px" width="62.15px"
	 height="73.45px" viewBox="0 0 62.15 73.45" style="overflow:visible;enable-background:new 0 0 62.15 73.45;"
	 xml:space="preserve">
<style type="text/css">
	.st0{fill:#FFFFFF;}
</style>
<defs>
</defs>
<g id="Grupo_138_1_">
	<path id="Trazado_8_1_" class="st0" d="M45.9,14.83C45.9,6.64,39.26,0,31.07,0c-8.19,0-14.82,6.64-14.83,14.83
		c0,8.19,6.64,14.82,14.83,14.83C39.26,29.65,45.9,23.01,45.9,14.83z"/>
	<path id="Trazado_9_1_" class="st0" d="M58.19,73.45H3.95C1.8,73.49,0.04,71.78,0,69.63c0-16.57,13.94-30.05,31.07-30.05
		s31.08,13.48,31.08,30.05C62.11,71.78,60.34,73.49,58.19,73.45C58.19,73.45,58.19,73.45,58.19,73.45z"/>
</g>
</svg>
