<!-- Generator: Adobe Illustrator 24.1.2, SVG Export Plug-In  -->
<svg version="1.1" xmlns="http://www.w3.org/2000/svg" xmlns:xlink="http://www.w3.org/1999/xlink" x="0px" y="0px" width="81px"
	 height="51px" viewBox="0 0 81 51" style="overflow:visible;enable-background:new 0 0 81 51;" xml:space="preserve">
<style type="text/css">
	.st0{fill:#CE2361;}
	.st1{fill:#FFFFFF;}
</style>
<defs>
</defs>
<g id="Grupo_219_1_" transform="translate(-261 -260)">
	<g transform="matrix(1, 0, 0, 1, 261, 260)">
		<path id="Rectángulo_115-2_1_" class="st0" d="M8,0h65c4.42,0,8,3.58,8,8v35c0,4.42-3.58,8-8,8H8c-4.42,0-8-3.58-8-8V8
			C0,3.58,3.58,0,8,0z"/>
	</g>
	<g id="Grupo_218_1_" transform="translate(290.57 271.877)">
		<path id="Trazado_30_1_" class="st1" d="M23.84,14.19l6-6c2.06-2.07,2.06-5.42,0-7.49l-5.16-5.16c-2.07-2.06-5.42-2.06-7.49,0
			l-6,6l-6-6c-2.07-2.06-5.42-2.06-7.49,0L-7.46,0.7c-2.06,2.07-2.06,5.42,0,7.49l6,6l-6,6c-2.06,2.07-2.06,5.42,0,7.49l5.16,5.15
			c2.07,2.06,5.42,2.06,7.49,0l6-6l6,6c2.07,2.06,5.42,2.06,7.49,0l5.16-5.15c2.06-2.07,2.06-5.42,0-7.49L23.84,14.19z"/>
	</g>
</g>
</svg>
