<!-- Generator: Adobe Illustrator 24.1.2, SVG Export Plug-In  -->
<svg version="1.1" xmlns="http://www.w3.org/2000/svg" xmlns:xlink="http://www.w3.org/1999/xlink" x="0px" y="0px"
	 width="393.37px" height="228.04px" viewBox="0 0 393.37 228.04"
	 style="overflow:visible;enable-background:new 0 0 393.37 228.04;" xml:space="preserve">
<style type="text/css">
	.st0{fill:#FFFFFF;}
	.st1{fill:#222221;}
	.st2{fill:url(#SVGID_1_);}
	.st3{opacity:0.49;}
	.st4{fill:#DA8F22;}
	.st5{fill:#F7931E;}
	.st6{fill:#D5EAF7;}
	.st7{fill:url(#SVGID_2_);}
	.st8{opacity:0.21;fill:#F9F0C7;}
	.st9{fill:#090909;}
	.st10{fill:url(#SVGID_3_);}
	.st11{fill:url(#SVGID_4_);}
</style>
<defs>
</defs>
<g>
	<g>
		<path class="st0" d="M390.05,15.25c-5.47-9.19-17.18-14.59-25.91-15.18c-10.86-0.72-42.57,4.71-57.12,11.79
			c-14.57,7.09-27.47,16.93-39.9,26.62c-2.17-1.54-4.44-2.93-6.8-4.16c-0.41-0.21-0.82-0.42-1.23-0.63
			c3.54-3.94,7.55-8.25,12.42-9.98c0.63-0.22,1.31-0.42,2.03-0.63c1.29-0.37,2.75-0.79,4.19-1.46c3.37-1.59,5.62-4.26,6.18-7.34
			c0.42-2.33-0.16-4.72-1.65-6.75c-1.84-2.51-4.99-4.32-8.22-4.73c-4.16-0.53-8.64,0.64-12.61,3.3c-3.78,2.53-6.53,6.01-8.27,8.4
			c-2.86,3.94-5.38,8.31-7.65,13.28c-6.5-2.29-12.12-3.38-16.76-3.27c-0.64,0.02-1.27,0.06-1.88,0.12c-6.75,0.7-12.4,1.69-17.14,3
			c-0.06-0.14-0.13-0.27-0.19-0.41c-2.98-6.27-6.68-13.37-13.03-18.33c-2.86-2.23-5.61-3.44-8.42-3.69c-4.1-0.36-8.06,1.6-9.87,4.89
			c-2.06,3.76-1.25,8.52,2.3,13.39c1.52,2.1,3.2,4.05,4.97,5.88c-3.27-0.68-6.56-1.1-9.82-1.26c-1.28-0.05-2.51,0.49-3.31,1.48
			c-0.52,0.64-0.82,1.42-0.88,2.22c-8.43,1.47-17.14,3.97-27.83,7.99c-15.33-10.29-29.02-16.25-40.7-17.71
			c-1.57-0.2-3.14-0.41-4.74-0.62c-9.26-1.24-19.76-2.64-32.92-1.62C46.56,21.28,24.4,28.74,17.13,31.2
			C12.21,32.86,0.7,37.85,0.06,48.38c-1.1,18.18,12.17,31.19,17.83,36.74c0.68,0.67,1.25,1.23,1.66,1.67l0.16,0.17
			c5.58,6.03,15.98,17.27,35.07,18.37c3.55,0.2,9.08-0.47,17.94-2.23c-0.97,3.38-1.89,7.03-2.77,11.02
			c-1.58,7.17-2.8,14.25-3.64,21.03c-0.16,1.32-0.31,2.65-0.45,3.98c0,0-0.02,0.18-0.02,0.19c-0.13,1.3-0.25,2.6-0.36,3.95
			c-0.11,1.35-0.2,2.69-0.28,4.04c0,0.01,0,0.01,0,0.02c-1.13,19.69,1.21,37.68,6.96,53.47c1.98,5.43,4.91,12.24,10.26,17.54
			c0.85,3.99,2.53,8.68,6.73,9.57c0.44,0.09,0.87,0.14,1.29,0.14c2.94,0,5.2-2.17,6.56-3.87c2.23-0.44,4.16-1.43,5.64-2.29
			c4.94-2.84,9.34-6.77,12.71-11.37c2.43-3.31,4.26-6.82,5.73-10.09c1.68,0.29,3.34,0.53,4.96,0.71c1.92,0.21,7.95,1.69,9.03,2.15
			c2.27,0.98,5.94,1.77,8.8,0.78c4.7-1.63,5.83-5.38,4.86-8.37c-0.62-1.92-1.94-3.17-3.15-4.14c-0.18-0.14-0.36-0.29-0.55-0.42
			c0.5-0.39,0.97-0.86,1.37-1.42c1.29-1.8,1.33-4.43,1.31-9.3c-0.01-1-0.01-1.98,0.01-2.85c0.03-1.3,0.04-2.73-0.1-4.21
			c5.53,3.54,11.44,6.29,17.19,8.97c2.44,1.13,5.47,2.54,8.91,2.64c2.4,0.07,4.81-0.85,6.3-2.41c1.21-1.27,1.81-2.91,1.68-4.61
			c-0.06-0.82-0.28-1.54-0.58-2.17c0.21-0.04,0.43-0.09,0.65-0.16c1.46-0.45,4.78-2.07,4.08-7.44c-0.76-5.85-2.08-11.66-3.92-17.27
			c-0.33-1.01-0.71-2.08-1.34-3.12c0.84-0.07,1.66-0.14,2.47-0.2c0.15,0.28,0.31,0.54,0.46,0.8c2.92,4.87,7.11,8.71,11.21,12.14
			c5.23,4.38,9.47,7.42,13.76,9.88c1.98,1.14,4.17,2.21,6.74,2.42c3.61,0.28,6.94-1.4,8.49-4.28c0.8-1.49,1.07-3.19,0.84-4.89
			c0.05,0.01,0.1,0.02,0.15,0.04c3.63,0.84,6.81-0.68,9.45-4.5c3.28-4.75,2-10.67,0.75-14.71c-0.52-1.67-1.05-3.21-1.62-4.64
			c6.45-0.62,12.3-4.45,17.73-8.65c9.9-7.66,20.06-16.29,27.28-27.43c2.94-4.54,5.27-9.48,6.83-14.46
			c18.84-0.9,38.08,1.67,56.72,4.15l0.69,0.09c5.69,0.76,13.48,1.8,20.16-1.71c7.56-3.96,15.27-19.78,16.9-25.66
			c0.92-3.31,4.36-10.74,10.23-22.09c0.4-0.78,0.67-1.29,0.75-1.46C394.96,33.6,393.7,21.38,390.05,15.25z M155.45,155.14
			c2.14-1.15,4.34-2.18,6.59-3.08c0.62,0.36,1.22,0.69,1.79,0.99c1.23,0.66,2.39,1.28,3.19,2.02c1.71,1.59,2.49,4.37,3.31,7.32
			c0.34,1.2,0.69,2.45,1.11,3.68c0.24,0.69,0.48,1.37,0.74,2.05c-2.02-1.18-4.08-2.23-6.12-3.27c-2.89-1.47-5.62-2.86-8.11-4.54
			c-0.58-0.4-2.36-1.6-2.69-2.71C155.11,157,155.24,156.11,155.45,155.14z M128.5,182.82c1.24-2.54,2.69-5.01,4.33-7.4
			c0.15,1.01,0.21,2.12,0.27,3.26c0.04,0.78,0.09,1.57,0.16,2.34c0.03,0.34,0.06,0.69,0.08,1.02c0.11,1.48,0.24,3.24,0.83,4.94
			c-2.05-0.39-4.12-0.67-6.1-0.94c-0.33-0.04-0.67-0.09-0.99-0.14C127.53,184.87,128.01,183.83,128.5,182.82z M219.96,154.59
			c-0.04,0.5-0.1,1.18-0.1,1.95c-1.39-0.94-2.82-1.57-3.99-2.09l-0.54-0.24c-3.49-1.54-6.79-3-9.28-5.24
			c-1.03-0.93-1.96-2.03-2.78-3.3c1.73-0.34,3.41-0.75,5.01-1.22c0.34,0.15,0.7,0.25,1.07,0.3c2.35,0.31,4.84-0.19,7.43-1.51
			c2.15,2.83,3.35,6.43,3.27,9.97C220.04,153.65,219.99,154.12,219.96,154.59z"/>
		<path class="st1" d="M221.08,129.19c5.31,3.84,8.12,10.22,10.06,16.48c1.15,3.71,1.99,8.05-0.22,11.25
			c-1.36,1.97-2.93,3.42-5.26,2.88c-2.6-0.6-1.67-3.84-1.61-6.5c0.13-5.32-2.01-10.66-5.77-14.43c-1.65-1.66-3.78-3.4-3.62-5.74
			c0.15-2.24,2.96-3.82,4.95-2.8L221.08,129.19z"/>
		<path class="st1" d="M85.49,211.25c0,0,1.5,25.48,11.99,4.5L85.49,211.25z"/>
		<path class="st1" d="M127.78,162.18c3.18-0.84,6.69-0.37,9.54,1.27c2.85,1.64,5.01,4.44,5.88,7.62c0.57,2.08,0.59,4.26,0.55,6.41
			c-0.08,3.54,0.23,8.8-0.57,9.91c-0.96,1.34-2.57,1.27-3.12,0.93c-2.66-1.66-2.54-4.51-2.82-7.64c-0.28-3.12-0.11-6.39-1.39-9.25
			c-0.13-0.29-0.29-0.59-0.56-0.76c-0.37-0.22-0.83-0.15-1.25-0.09c-2.19,0.3-4.61-0.17-6.12-1.77s-1.67-4.51,0.04-5.9
			L127.78,162.18z"/>
		<linearGradient id="SVGID_1_" gradientUnits="userSpaceOnUse" x1="68.9401" y1="127.2379" x2="241.1564" y2="127.2379">
			<stop  offset="0.2563" style="stop-color:#F6E839"/>
			<stop  offset="0.8949" style="stop-color:#F6E839"/>
			<stop  offset="1" style="stop-color:#F6E839"/>
		</linearGradient>
		<path class="st2" d="M230.55,93.95c0.39,7.58-0.27,15.21-1.96,22.6c-1.12,4.91-2.75,9.82-5.81,13.82
			c-5.25,6.88-14,10.17-22.55,11.49c-8.55,1.32-17.29,1.01-25.83,2.36c-21.07,3.34-40.16,17.42-49.56,36.57
			c-4.41,8.98-6.84,19.02-12.76,27.08c-3.06,4.17-7,7.69-11.48,10.27c-1.64,0.94-3.39,1.77-5.27,1.96c-3.4,0.33-6.67-1.51-9.2-3.8
			c-4.92-4.45-7.9-10.65-10.17-16.88c-9.76-26.82-8.21-56.57-2.07-84.45c3.1-14.07,7.53-28.29,16.64-39.46
			c10.87-13.34,27.16-20.88,43.08-27.43c12.9-5.31,26.06-10.31,39.84-12.55c13.77-2.24,28.32-1.6,41.08,4.04S238,56.31,241.16,69.9
			L230.55,93.95z"/>
		<g class="st3">
			<g>
				<path class="st4" d="M241.23,70.17c-2.71-11.63-23.11,13.54-23.11,13.54c0.39,7.58-0.27,15.21-1.96,22.6
					c-1.12,4.91-2.75,9.82-5.81,13.82c-5.25,6.88-14,10.17-22.55,11.49s-17.29,1.01-25.83,2.36c-21.07,3.34-40.16,17.42-49.56,36.57
					c-4.41,8.98-4.8,20.39-10.73,28.45c-3.06,4.17-12.31,20.06-10.46,20.75c1.33,0.5,2.74,0.74,4.16,0.6
					c1.88-0.18,3.64-1.01,5.27-1.96c4.48-2.58,8.42-6.1,11.48-10.27c5.92-8.06,8.36-18.1,12.76-27.08
					c9.4-19.15,28.48-33.24,49.56-36.57c8.54-1.35,17.28-1.04,25.83-2.36s17.3-4.62,22.55-11.49c3.06-4,4.69-8.91,5.81-13.82
					c1.69-7.4,2.36-15.03,1.96-22.6L241.23,70.17z"/>
			</g>
		</g>
		<path class="st5" d="M199.28,38.25c-7.41-3.63-15.57-5.74-23.81-6.15c1.03,3.82,3.12,7.34,5.98,10.07
			c-8.51-3.88-18.47-4.47-27.38-1.62c2.01,1.1,4.01,2.2,6.02,3.29c-8.85-0.63-18.59-1.02-25.64,4.37c2.37,1.07,4.74,2.14,7.11,3.21
			c-5.66,2.93-10.48,7.47-13.74,12.94c4.17-0.19,8.38,0.37,12.36,1.64c-3.56,1.46-6.49,4.38-7.97,7.94
			c3.44-0.81,7.08-0.74,10.48,0.21c-3.77,1.7-6.96,4.65-8.96,8.27c3.69-2.5,8.36-3.52,12.76-2.78c-4.85,2.22-8.73,6.49-10.49,11.53
			c3.27-1.93,7.39-2.33,10.97-1.06c-3.09,2.91-5.04,7-5.35,11.23c3.98-1.38,8.33-1.66,12.45-0.82c-2.68,2.81-4.35,6.57-4.65,10.45
			c1.67-1.1,3.37-2.22,5.3-2.74c1.93-0.52,4.16-0.33,5.68,0.97c-2.66,3.6-4.3,7.94-4.68,12.4c3.43-1.17,7.01-1.89,10.63-2.15
			c-1.97,4.16-3.59,8.48-4.85,12.9c3.7-2.82,7.98-4.87,12.5-5.96c-1.34,3.94-2.68,7.89-4.02,11.83c4.06-1.99,8.29-3.64,12.64-4.91
			c-0.34,3.23-0.68,6.46-1.03,9.69c4.88-1.69,9.72-3.49,14.52-5.41c1.2,1.28-0.25,3.74,0.98,4.99c0.9,0.92,2.44,0.39,3.59-0.19
			c2.95-1.49,5.9-2.98,8.85-4.46c0.56,0.82,0.7,1.91,0.36,2.85c2.18,0.29,4.35-0.6,6.23-1.75c6.63-4.08,10.73-11.52,12.1-19.19
			c1.36-7.67,0.25-15.58-1.72-23.12L199.28,38.25z"/>
		<g>
			<path class="st1" d="M111.74,170.58c-9.64-3.02-24.3-13.65-31.94-21.29c-2.42-2.42-6.32-8.04-9.5-13.65
				c-1.3,10.55-1.74,21.2-0.98,31.7c2.37,3.66,6,6.58,9.56,9.23c2.83,2.1,5.7,4.16,8.78,5.86c10.5,5.79,23.35,7.06,34.83,3.63
				c0.74-1.78,1.51-3.53,2.35-5.25c1.57-3.2,3.42-6.25,5.49-9.15C124.27,173.13,117.72,172.45,111.74,170.58z"/>
			<path class="st1" d="M104.64,93.69c-2.57-6.1-6.01-17.42-7.36-25.2c-2.43,2.15-4.7,4.48-6.77,7.02
				c-4.22,5.18-7.43,11.02-9.98,17.2c1.28,6.6,3.89,14.17,5.87,18.25c4.94,10.2,28.09,40.04,56.54,47.41
				c4.72-3.8,9.94-6.98,15.48-9.42c-7.6-2.61-14.22-7.48-20.49-12.6C128.42,128.6,108.68,103.3,104.64,93.69z"/>
		</g>
		<path class="st6" d="M267.54,43.22c13.09-10.21,26.3-20.5,41.23-27.76c13.89-6.76,44.82-12.09,55.1-11.4
			c7.52,0.51,17.96,5.2,22.75,13.24c3.15,5.3,4.01,16.1,0.41,23.6c-0.54,1.12-9.48,17.94-11.22,24.22
			c-1.74,6.27-9.13,20.17-14.9,23.19c-5.35,2.8-11.79,2.08-17.78,1.28c-20.33-2.71-40.83-5.5-61.29-4.09L267.54,43.22z"/>
		<path class="st6" d="M164.46,61.01c-18.56-16.37-42.43-32.51-62.02-34.96c-10.79-1.35-21.93-3.37-36.86-2.22
			C49.04,25.1,29.92,31.11,18.4,34.99c-6.53,2.2-13.93,6.75-14.35,13.63C2.93,67.21,18.83,80.12,22.49,84.07
			c5.42,5.85,14.87,16.24,32.52,17.26c10.65,0.62,43.9-8.89,57.72-10.84c9.6-1.36,30.44-0.62,35.04,0.69
			c3.34,0.95,17.26,2.3,19.88,0.02C170.28,88.93,164.46,61.01,164.46,61.01z"/>
		<radialGradient id="SVGID_2_" cx="228.1611" cy="82.2152" r="54.5371" gradientUnits="userSpaceOnUse">
			<stop  offset="0.2563" style="stop-color:#F6E839"/>
			<stop  offset="0.8949" style="stop-color:#F6E839"/>
			<stop  offset="1" style="stop-color:#F6E839"/>
		</radialGradient>
		<path class="st7" d="M227.29,28.6c-17.57,1.83-23.31,5.21-27.54,7.33c-7.64,3.83-14.9,8.42-20.23,15.1
			c-1.95,2.44-3.76,5.02-4.96,7.9c-2.56,6.15-2.09,13.24,0.09,19.53c2.18,6.29,5.95,11.9,9.96,17.21
			c9.6,12.71,20.82,24.19,33.3,34.08c3.38,2.68,7.03,5.31,11.29,6c7.09,1.14,13.75-3.32,19.43-7.71
			c9.9-7.66,19.57-15.95,26.37-26.44s10.48-23.58,7.42-35.72c-3.09-12.28-12.73-22.15-23.96-28.01
			C247.24,32,235.37,27.76,227.29,28.6z"/>
		<path class="st8" d="M179.52,57.03c5.33-6.68,12.6-11.27,20.23-15.1c4.24-2.12,9.97-5.5,27.54-7.33
			c8.09-0.84,19.95,3.4,31.17,9.26c11.22,5.86,20.86,15.74,23.96,28.01c0.5,1.99,0.8,4,0.96,6.02c0.31-4.03,0.04-8.07-0.96-12.02
			c-3.09-12.28-12.73-22.15-23.96-28.01c-11.22-5.86-23.09-10.11-31.17-9.26c-17.57,1.83-23.31,5.21-27.54,7.33
			c-7.64,3.83-14.9,8.42-20.23,15.1c-1.95,2.44-3.76,5.02-4.96,7.9c-1.6,3.84-2.01,8.05-1.57,12.2c0.24-2.13,0.75-4.22,1.57-6.2
			C175.76,62.05,177.57,59.47,179.52,57.03z"/>
		<path class="st1" d="M242.56,46.09c4.38-4.87,8.75-9.73,13.13-14.6c4.17-4.64,8.6-9.46,14.48-11.55c1.94-0.69,3.99-1.06,5.85-1.94
			c1.86-0.88,3.58-2.41,3.94-4.44c0.62-3.44-2.97-6.36-6.44-6.8c-3.45-0.44-6.98,0.72-9.87,2.65c-2.89,1.94-5.22,4.62-7.26,7.43
			c-5.92,8.14-9.78,17.62-12.67,27.26L242.56,46.09z"/>
		<path class="st1" d="M209.23,44.93c1.33-5.4-0.92-10.98-3.31-16c-2.98-6.28-6.41-12.61-11.88-16.89
			c-1.85-1.44-3.98-2.65-6.31-2.86s-4.88,0.78-6,2.83c-1.58,2.89,0.09,6.45,2.02,9.11c5.19,7.14,12.35,12.56,19.24,18.09
			c2.68,2.16,5.44,4.48,6.73,7.68L209.23,44.93z"/>
		<g>
			<path class="st9" d="M252.09,108.99c-1.04,2.15-2.73,3.99-4.72,5.39c-1.99,1.43-4.35,2.35-6.79,2.74
				c-1.23,0.18-2.46,0.21-3.65,0.17c-1.19-0.05-2.39-0.12-3.6-0.36c-1.2-0.24-2.41-0.63-3.48-1.27c-1.03-0.68-1.96-1.58-2.39-2.71
				c0.78,0.9,1.73,1.55,2.79,1.93c1.03,0.43,2.14,0.62,3.26,0.68c1.12,0.07,2.28,0.05,3.44,0.04c1.15-0.02,2.28-0.06,3.37-0.25
				c2.2-0.31,4.33-1.08,6.33-2.13C248.64,112.15,250.45,110.71,252.09,108.99z"/>
		</g>
		<g>
			<path class="st9" d="M230.05,108.64c-0.26,0.7-0.61,1.37-1,2c-0.38,0.64-0.83,1.24-1.31,1.82c-0.49,0.57-1,1.11-1.57,1.6
				c-0.29,0.24-0.58,0.48-0.87,0.71l-0.24,0.17l0-0.16c0.14,0.15,0.48,0.15,0.64-0.08c-0.08,0.28-0.47,0.44-0.77,0.24l-0.09-0.06
				l0.09-0.1l0.19-0.22c0.26-0.26,0.51-0.53,0.75-0.81c0.49-0.55,0.98-1.09,1.45-1.65c0.48-0.55,0.93-1.13,1.39-1.7
				C229.14,109.82,229.59,109.24,230.05,108.64z"/>
		</g>
		<g>
			<path class="st9" d="M249.62,107.12c0.66,0.17,1.29,0.38,1.93,0.61c0.64,0.22,1.26,0.47,1.88,0.73c0.62,0.26,1.21,0.56,1.82,0.64
				c0.3,0.04,0.61,0,0.9-0.13c0.29-0.12,0.54-0.34,0.67-0.66c-0.01,0.35-0.25,0.66-0.54,0.88c-0.3,0.2-0.67,0.31-1.04,0.31
				c-0.74,0-1.39-0.32-2-0.56c-0.61-0.27-1.23-0.54-1.83-0.84C250.79,107.78,250.2,107.48,249.62,107.12z"/>
		</g>
		<path class="st1" d="M189.78,118.13c-1.6-1.15-3.77-1.72-5.57-0.92c-1.7,0.75-2.74,2.57-3.06,4.4c-0.32,1.83-0.03,3.71,0.26,5.55
			c1.04,6.62,2.14,13.42,5.59,19.16c2.62,4.37,6.45,7.87,10.35,11.13c4.16,3.48,8.48,6.78,13.18,9.48c1.58,0.9,3.25,1.76,5.06,1.9
			c1.81,0.14,3.8-0.59,4.66-2.19c0.93-1.73,0.28-3.97-1.03-5.43c-1.31-1.46-3.16-2.31-4.96-3.11c-3.83-1.7-7.77-3.37-10.89-6.17
			c-3.57-3.22-5.78-7.72-7.01-12.36c-1.23-4.64-0.59-9.64-1.88-14.27C193.91,123.25,191.38,119.29,189.78,118.13z"/>
		<path class="st1" d="M165.86,139.62c-1.59-1.55-4.59-1.18-5.76,0.71c-1.49,2.41,0.21,5.62,2.48,7.31
			c2.27,1.69,5.09,2.58,7.16,4.51c3.4,3.17,3.95,8.23,5.47,12.62c0.72,2.09,1.4,3.9,2.61,5.74c0.53,0.81,1.69,1.6,2.78,1.27
			c1.4-0.43,1.48-1.65,1.29-3.1c-0.73-5.61-1.99-11.15-3.75-16.53c-0.3-0.91-0.62-1.83-1.17-2.62c-0.56-0.8-1.34-1.42-2.1-2.03
			c-2.09-1.67-4.17-3.33-6.26-5L165.86,139.62z"/>
		<path class="st1" d="M152.74,138.49c0.34,4.57,0.42,9.2-0.67,13.65c-0.53,2.17-1.26,4.44-0.64,6.58c0.62,2.13,2.45,3.67,4.29,4.91
			c6.65,4.5,14.67,6.95,20.6,12.36c0.67,0.61,1.35,1.34,1.42,2.24c0.13,1.78-2.09,2.78-3.88,2.73c-2.58-0.08-5-1.19-7.34-2.27
			c-6.83-3.18-13.71-6.38-19.81-10.81c-2.29-1.66-4.58-3.66-5.34-6.39c-0.64-2.28-0.11-4.71,0.43-7.02
			c1.12-4.85,2.25-9.71,3.37-14.56c0.37-1.58,0.77-3.29,1.99-4.35C150.68,132.48,152.62,136.92,152.74,138.49z"/>
		<path class="st1" d="M116.27,185.78c1.6,5.56,19.08,2.69,26.84,8.9c0.77,0.61,1.54,1.31,1.84,2.24c0.54,1.68-0.7,2.79-2.37,3.37
			c-1.67,0.58-4.28,0.02-5.9-0.67c-1.62-0.7-8.12-2.23-10.18-2.46c-3.84-0.42-7.65-1.13-11.38-2.11c-1.22-0.32-2.48-0.69-3.46-1.49
			c-1.6-1.3-2.17-3.47-2.6-5.49c-1.33-6.22-2.22-12.54-2.67-18.88c-0.12-1.7-0.15-3.58,0.94-4.88c1.09-1.3,3.72-1.62,5.24,0.74
			C114.59,169.25,113.7,176.84,116.27,185.78z"/>
		<g>
			
				<ellipse transform="matrix(0.4002 -0.9164 0.9164 0.4002 80.1739 281.2041)" class="st0" cx="254.92" cy="79.35" rx="15.52" ry="10.29"/>
			<path class="st1" d="M251.54,94.89c-1.08,0-2.14-0.21-3.13-0.64c-5.57-2.43-7.19-11.1-3.6-19.31c1.72-3.93,4.35-7.19,7.43-9.17
				c3.17-2.05,6.43-2.51,9.18-1.31c2.75,1.2,4.63,3.91,5.28,7.63c0.63,3.6,0.04,7.75-1.68,11.68l0,0
				C262.08,90.51,256.52,94.89,251.54,94.89z M258.25,65.28c-1.65,0-3.44,0.58-5.2,1.72c-2.83,1.83-5.28,4.86-6.88,8.52
				C242.9,83,244.18,90.79,249,92.9c4.83,2.11,11.41-2.25,14.67-9.72l0,0c1.6-3.67,2.16-7.52,1.58-10.84
				c-0.56-3.21-2.13-5.53-4.42-6.53C260.02,65.45,259.15,65.28,258.25,65.28z"/>
		</g>
		<g>
			
				<ellipse transform="matrix(0.8569 -0.5154 0.5154 0.8569 -10.7652 122.7046)" class="st0" cx="215.66" cy="80.74" rx="10.29" ry="15.52"/>
			<path class="st1" d="M219.86,95.79c-4.7,0-10.15-3.54-13.65-9.36l0,0c-4.62-7.68-4.14-16.48,1.07-19.61
				c2.57-1.55,5.87-1.51,9.27,0.11c3.31,1.57,6.34,4.46,8.55,8.14c4.62,7.68,4.14,16.48-1.07,19.61
				C222.78,95.43,221.36,95.79,219.86,95.79z M207.48,85.67c4.2,6.98,11.29,10.46,15.8,7.74c4.51-2.71,4.77-10.6,0.57-17.59
				c-2.06-3.43-4.88-6.11-7.92-7.56c-2.94-1.4-5.74-1.46-7.88-0.18C203.53,70.79,203.28,78.68,207.48,85.67L207.48,85.67z"/>
		</g>
		<g>
			
				<ellipse transform="matrix(0.8883 -0.4593 0.4593 0.8883 -15.2905 110.0102)" class="st1" cx="218.49" cy="86.44" rx="5.9" ry="8.43"/>
			<path class="st0" d="M220.34,95.15c-1.02,0-2.1-0.28-3.17-0.84c-1.86-0.97-3.48-2.68-4.59-4.82c-1.1-2.13-1.56-4.45-1.28-6.53
				c0.29-2.17,1.35-3.83,2.97-4.67c3.25-1.68,7.79,0.6,10.11,5.1l0,0c2.32,4.49,1.57,9.52-1.69,11.2
				C221.97,94.96,221.17,95.15,220.34,95.15z M216.65,79.2c-0.6,0-1.17,0.13-1.7,0.4c-1.18,0.61-1.96,1.87-2.18,3.55
				c-0.24,1.78,0.16,3.79,1.13,5.65c0.96,1.87,2.37,3.35,3.96,4.19c1.5,0.79,2.98,0.89,4.16,0.27c2.53-1.31,3-5.44,1.05-9.21l0,0
				C221.53,81.08,218.92,79.2,216.65,79.2z"/>
		</g>
		<g>
			
				<ellipse transform="matrix(0.3092 -0.951 0.951 0.3092 93.3097 298.6326)" class="st1" cx="252.22" cy="85.09" rx="8.43" ry="5.9"/>
			<path class="st0" d="M250.91,94.05c-0.51,0-1.02-0.08-1.52-0.24c-3.48-1.13-5.04-5.97-3.48-10.78c1.57-4.81,5.67-7.8,9.15-6.67
				c3.48,1.13,5.04,5.97,3.48,10.78v0C257.19,91.26,253.99,94.05,250.91,94.05z M253.5,77.6c-2.44,0-5.05,2.4-6.19,5.89
				c-1.31,4.04-0.17,8.03,2.53,8.91c2.7,0.88,5.98-1.69,7.29-5.72v0c1.31-4.04,0.17-8.03-2.53-8.92
				C254.24,77.65,253.87,77.6,253.5,77.6z"/>
		</g>
	</g>
</g>
</svg>
