<!-- Generator: Adobe Illustrator 24.1.2, SVG Export Plug-In  -->
<svg version="1.1" xmlns="http://www.w3.org/2000/svg" xmlns:xlink="http://www.w3.org/1999/xlink" x="0px" y="0px"
	 width="385.22px" height="324.17px" viewBox="0 0 385.22 324.17"
	 style="overflow:visible;enable-background:new 0 0 385.22 324.17;" xml:space="preserve">
<style type="text/css">
	.st0{fill:#FFFFFF;}
	.st1{fill:#E48FF9;}
	.st2{opacity:0.85;fill:#FFFFFF;}
	.st3{fill:#A64CFF;}
</style>
<defs>
</defs>
<g>
	<g>
		<path class="st0" d="M385.2,136.79c-0.01-0.23-0.04-0.46-0.08-0.68l-0.15-0.77c-0.05-0.28-0.13-0.55-0.23-0.81
			c-0.13-0.36-0.29-0.72-0.49-1.13c-0.13-0.27-0.27-0.52-0.44-0.77c-0.27-0.39-0.6-0.79-0.96-1.18c-0.24-0.26-0.51-0.5-0.8-0.7
			l-0.1-0.07c-0.25-0.18-0.67-0.49-1.22-0.76c-0.03-0.02-0.06-0.03-0.09-0.04c-2.15-1.03-4.2-0.99-5.54-0.87
			c-1.15,0.1-2.31,0.32-3.69,0.71c-0.87,0.25-1.72,0.53-2.55,0.83c0.65-1.29,1.25-2.54,1.8-3.76c1.05-2.38,2.22-5.17,2.95-8.36
			c0.38-1.76,0.69-3.69,0.34-5.9c-0.01-0.04-0.02-0.1-0.02-0.14c-0.09-0.46-0.22-1.2-0.59-2.04c-0.38-0.97-0.91-1.67-1.26-2.12
			c-0.06-0.08-0.12-0.15-0.18-0.22c-1.52-1.77-3.99-2.75-6.51-2.53c-1.88,0.2-3.38,0.76-4.58,1.22l-0.52,0.2
			c-0.04,0.02-0.08,0.03-0.12,0.05l-1.05,0.42c1.28-2.01,2.51-4.11,3.69-6.28c3.24-5.38,5.52-10.03,7.18-14.64
			c0.01-0.03,0.02-0.07,0.04-0.1c1.16-3.47,2.28-7.62,1.76-12.14c-0.01-0.09-0.02-0.17-0.04-0.26c-0.18-1.05-0.43-2.29-0.98-3.57
			c-0.12-0.32-0.36-0.93-0.86-1.63c-0.11-0.16-0.32-0.47-0.64-0.82c-0.17-0.19-0.36-0.36-0.56-0.52l-0.24-0.19
			c-0.82-0.69-1.63-0.98-2.06-1.13c-0.32-0.13-0.64-0.22-0.98-0.28c-0.47-0.08-0.94-0.14-1.39-0.15c-0.09,0-0.18-0.01-0.26,0
			c-1.15,0.01-2.15,0.22-3.05,0.5c3.12-6.06,5.67-11.72,7.77-17.21c3.09-8.05,4.97-15.25,5.74-22.07c0.48-4.53,0.39-8.53-0.3-12.23
			c-0.02-0.09-0.04-0.19-0.06-0.28c-0.07-0.28-0.13-0.56-0.2-0.85c-0.15-0.67-0.3-1.34-0.5-2c-0.02-0.08-0.05-0.16-0.08-0.25
			l-0.64-1.85c-0.38-1.19-1.05-2.22-1.89-2.92c-0.92-0.8-2.52-1.75-4.9-1.66c-0.07,0-0.14,0.01-0.21,0.01
			c-2.05,0.15-3.82,1.07-5,2.58c-0.03,0.03-0.05,0.07-0.08,0.1l-0.64,0.87c-0.82,0.9-1.65,2.01-2.52,3.37
			c-8.72,11.66-16.92,21.8-25.04,30.97c-5.25,5.86-10.02,10.81-14.59,15.13c-1.32,1.24-2.78,2.59-4.37,3.96
			c0.66-2.45,1.16-4.86,1.52-7.25c0.75-5.12,0.74-10-0.04-14.48c-0.84-4.99-2.71-9.81-5.39-13.94l-0.39-0.6
			c-0.99-1.52-2.71-2.38-4.53-2.26c-1.81,0.12-3.41,1.21-4.18,2.85l-0.27,0.58c-1.71,1.53-2.84,4.15-4.39,7.73
			c-0.61,1.41-1.3,3.01-2.11,4.75l-0.63,1.13c-1.9,3.34-3.72,6.37-5.56,9.28c-3.79,5.65-8.11,11.41-11.83,15.81
			c-0.28,0.32-0.55,0.64-0.84,0.96c-0.08-0.14-0.17-0.28-0.27-0.41c-1-1.55-2.69-2.53-4.54-2.58c-1.53-0.05-2.59,0.49-2.95,0.67
			c-0.09,0.04-0.17,0.09-0.25,0.13c-0.62,0.35-1.21,0.78-1.72,1.24c-0.77,0.67-1.41,1.36-1.9,1.89c-1.04,1.14-2.01,2.32-2.92,3.44
			c-2.07,2.58-4.11,5.21-6.08,7.76c-1.42,1.84-2.84,3.67-4.3,5.52c-2.73,3.51-6.39,8.05-10.56,12.11c-3.5,3.44-7.51,6.8-12.28,10.28
			c-1.8,1.32-3.7,2.64-5.53,3.92c-2.71,1.89-5.51,3.84-8.21,5.93c-2.51,1.93-4.82,4.03-6.86,6.24c-1.91,2.07-3.68,4.49-5.57,7.63
			c-1.62,2.7-2.93,5.63-3.9,8.71c-0.46,1.32-0.75,2.63-1,3.78l-0.17,0.77c-0.03,0.13-0.05,0.25-0.07,0.38l-0.11,0.72
			c-0.18,1.16-0.38,2.47-0.45,3.85c-0.12,1.25-0.11,2.43-0.1,3.48c0,0.36,0.01,0.72,0,1.07c0,0.14,0,0.27,0.01,0.41l0.24,3.18
			c0.01,0.11,0.02,0.23,0.04,0.34l0.47,3.14c0.02,0.1,0.04,0.21,0.06,0.31l0.44,2c0.24,1.25,0.58,2.39,0.9,3.49l0.29,1.02
			c1.68,5.59,4.15,10.73,6.55,15.71l0.26,0.55c2.71,5.54,5.49,10.5,8.49,15.16c2.7,4.22,5.88,8.68,10.02,14.04
			c4.25,5.47,8.64,10.94,12.89,16.23c2.69,3.35,5.38,6.69,8.1,10.12c5.88,7.2,11.06,15.97,16.33,27.66c0.5,1.06,1,2.24,1.57,3.63
			l1.56,3.79c0.28,0.75,0.56,1.49,0.84,2.23c0.7,1.84,1.36,3.58,1.92,5.34c0.01,0.04,0.03,0.08,0.04,0.12
			c1.62,4.65,3.04,9.66,4.21,14.86c0.91,4.6,1.57,9.15,1.97,13.53c0.05,0.97,0.07,1.82,0.07,2.5c-0.01,0.31,0,0.62,0.01,0.92
			c0.01,0.26,0.01,0.58-0.01,0.77l-0.33,3.48c-0.24,1.79,0.37,3.64,1.63,4.92c1.11,1.15,2.66,1.79,4.27,1.79
			c0.41,0,0.82-0.04,1.23-0.13c0.48-0.1,0.83-0.24,1.07-0.34c0.02-0.01,0.05-0.02,0.07-0.03l0.19-0.08c0.5-0.19,0.93-0.4,1.27-0.57
			c0.01,0,0.1-0.05,0.11-0.05c3.09-1.54,5.86-3.83,8.23-6.81c1.95-2.47,3.53-5.32,4.84-8.73c0.03-0.07,0.05-0.13,0.07-0.2
			c0.94-2.8,1.58-5.27,1.96-7.58c0.26,0.56,0.52,1.12,0.77,1.68c1.05,2.59,1.94,4.94,2.61,6.71l0.36,1.08
			c0.01,0.04,0.03,0.09,0.05,0.13c0.39,1.06,1.06,2.01,1.88,2.71c1.79,1.56,4.27,2.04,6.5,1.25c1.1-0.38,1.92-1.02,2.44-1.53
			l0.39-0.36c0.03-0.03,0.07-0.06,0.1-0.09c1.35-1.33,2.54-2.87,3.75-4.87c0.02-0.04,0.04-0.07,0.06-0.11
			c1.9-3.34,3.09-7.07,3.55-11.1c0.01-0.08,0.02-0.16,0.02-0.24c0.01-0.21,0.04-0.42,0.06-0.63c0.07-0.61,0.15-1.36,0.12-2.21
			l-0.02-2.35c0-0.17-0.01-0.33-0.03-0.5l-0.09-0.91c-0.06-0.58-0.12-1.18-0.2-1.81c1.93,2.91,3.53,5.67,4.84,7.98
			c0.07,0.13,0.15,0.25,0.22,0.36l0.03,0.06c0.01,0.02,0.05,0.09,0.06,0.11c0.1,0.18,0.2,0.37,0.37,0.66
			c0.04,0.07,0.09,0.14,0.13,0.21c1.11,1.65,2.88,2.73,4.8,2.94c2.04,0.25,4.13-0.47,5.58-1.94c0.1-0.1,0.19-0.2,0.28-0.31
			c0.77-0.92,1.26-1.7,1.76-2.51c0.92-1.53,1.7-3.27,2.3-5.18c0.83-2.62,1.27-5.41,1.31-8.31c2.01,2.63,3.51,4.91,4.72,7.1
			c0.02,0.03,0.04,0.07,0.06,0.1c0.22,0.38,0.42,0.78,0.62,1.18c0.15,0.29,0.29,0.59,0.42,0.83l0.26,0.52
			c0.38,0.78,0.84,1.44,1.37,1.97c1.41,1.45,3.38,2.21,5.43,2.09c2.08-0.12,4.04-1.2,5.25-2.89c0.04-0.05,0.07-0.11,0.11-0.16
			c0.29-0.44,0.5-0.82,0.7-1.19l0.15-0.27c0.08-0.14,0.15-0.28,0.22-0.43l0.54-1.2c0.06-0.13,0.11-0.25,0.16-0.39l0.44-1.24
			c0.02-0.07,0.04-0.13,0.07-0.2c1.2-3.9,1.46-8.28,0.74-12.63c-0.46-2.91-1.32-5.84-2.67-9.08c2.25,1.51,4.94,3.4,7.42,5.49
			l1.54,1.36c0.3,0.27,1.08,0.97,2.22,1.41c2.52,0.99,5.44,0.36,7.32-1.58c1.04-1.05,1.51-2.29,1.7-2.96l0.19-0.62
			c0.02-0.07,0.04-0.14,0.06-0.22c0.64-2.47,0.79-5.06,0.45-7.61c-0.46-3.99-1.88-7.99-4.48-12.57c-2.04-3.64-4.59-6.76-7.25-9.89
			c-0.03-0.04-0.06-0.07-0.09-0.11c-2.97-3.31-6.29-6.54-10.17-9.88c1.96-1.03,3.92-2.22,5.87-3.55l0.21-0.13
			c0.21-0.12,0.41-0.25,0.62-0.38c2.67-1.71,4.99-3.4,7.09-5.16c2.63-2.19,4.75-4.35,6.46-6.55c2.27-2.86,3.87-5.92,4.76-9.11
			c0.67-2.47,0.16-5.07-1.33-6.91c-1.37-1.72-3.09-2.46-4.27-2.87c-0.07-0.03-0.15-0.05-0.22-0.07c-2.03-0.6-3.94-0.7-5.59-0.72
			c-0.45,0-0.89,0.01-1.33,0.02c0.48-0.6,0.96-1.2,1.43-1.8c2.15-2.78,3.91-5.32,5.41-7.81c1-1.71,1.74-3.18,2.34-4.67
			c0.71-1.79,1.42-3.96,1.31-6.55c-0.05-1.82-0.68-3.66-1.75-5.12c-1.12-1.58-2.78-2.68-4.94-3.27c-0.08-0.02-0.15-0.04-0.23-0.06
			c-1.22-0.27-2.37-0.34-3.47-0.3c2.82-3.1,5.69-6.49,8.35-10.15c1.01-1.42,2.18-3.13,3.22-5c1.02-1.83,2.04-3.85,2.63-6.21
			c0.14-0.54,0.22-1.03,0.28-1.42l0.06-0.35c0.03-0.18,0.06-0.37,0.07-0.55C385.23,138.17,385.23,137.48,385.2,136.79z"/>
		<path class="st0" d="M189.63,144.43l-0.09-0.72c-0.02-0.13-0.04-0.26-0.06-0.38l-0.15-0.77c-0.22-1.16-0.47-2.47-0.89-3.8
			c-0.88-3.11-2.11-6.07-3.66-8.82c-1.8-3.18-3.5-5.65-5.35-7.78c-1.97-2.26-4.22-4.43-6.66-6.42c-2.65-2.18-5.39-4.21-8.04-6.17
			c-1.8-1.33-3.65-2.7-5.43-4.08c-4.66-3.61-8.57-7.08-11.99-10.63c-4.03-4.15-7.57-8.8-10.22-12.41c-1.39-1.87-2.76-3.75-4.13-5.63
			c-1.9-2.6-3.86-5.29-5.87-7.94c-1-1.31-1.86-2.4-2.82-3.51c-0.47-0.54-1.1-1.25-1.8-1.9c-0.54-0.51-1.12-0.95-1.72-1.32
			c-0.08-0.05-0.17-0.1-0.26-0.14c-0.36-0.19-1.43-0.75-2.93-0.75c-0.01,0-0.01,0-0.02,0c-1.85,0-3.56,0.93-4.6,2.44
			c-0.1,0.13-0.19,0.26-0.28,0.4c-0.27-0.32-0.54-0.65-0.81-0.98c-3.6-4.5-7.75-10.38-11.38-16.14c-1.76-2.96-3.5-6.04-5.3-9.44
			l-0.59-1.14c-0.76-1.77-1.4-3.38-1.97-4.81c-1.45-3.62-2.5-6.27-4.17-7.85l-0.26-0.58c-0.73-1.66-2.3-2.79-4.1-2.96
			c-1.81-0.17-3.56,0.64-4.59,2.14l-0.41,0.59c-2.8,4.06-4.81,8.82-5.78,13.76c-0.91,4.48-1.06,9.35-0.45,14.5
			c0.29,2.4,0.72,4.82,1.31,7.29c-1.54-1.42-2.96-2.8-4.24-4.07c-4.45-4.45-9.09-9.54-14.15-15.53
			C47.9,29.46,39.99,19.09,31.61,7.19c-0.84-1.39-1.63-2.52-2.43-3.44l-0.62-0.89c-0.02-0.03-0.05-0.06-0.07-0.1
			c-1.13-1.55-2.88-2.52-4.93-2.73c-0.07-0.01-0.14-0.01-0.21-0.02c-2.38-0.14-4,0.75-4.89,1.47c-0.92,0.73-1.62,1.73-2.03,2.91
			l-0.69,1.83c-0.03,0.08-0.06,0.16-0.08,0.24c-0.21,0.66-0.38,1.33-0.56,1.99c-0.07,0.28-0.14,0.56-0.22,0.84
			c-0.02,0.09-0.05,0.18-0.07,0.27c-0.79,3.68-1,7.67-0.64,12.25c0.58,6.79,2.25,14.05,5.11,22.18c1.94,5.56,4.34,11.29,7.28,17.43
			c-0.9-0.31-1.89-0.54-3.03-0.58c-0.09,0-0.17-0.01-0.26,0c-0.45,0.01-0.92,0.04-1.39,0.11c-0.34,0.05-0.66,0.13-0.98,0.25
			c-0.4,0.12-1.23,0.38-2.1,1.07l-0.24,0.18c-0.2,0.15-0.39,0.32-0.57,0.5c-0.32,0.33-0.54,0.64-0.65,0.79
			c-0.51,0.67-0.77,1.26-0.91,1.61c-0.59,1.26-0.88,2.49-1.08,3.54c-0.02,0.09-0.03,0.17-0.04,0.26c-0.65,4.5,0.35,8.68,1.41,12.18
			c0.01,0.03,0.02,0.07,0.03,0.1c1.53,4.65,3.67,9.37,6.76,14.83c1.11,2.2,2.28,4.33,3.51,6.38l-1.04-0.45
			c-0.04-0.02-0.08-0.03-0.12-0.05l-0.51-0.21c-1.19-0.49-2.66-1.1-4.63-1.36c-2.43-0.28-4.91,0.63-6.49,2.36
			c-0.06,0.07-0.18,0.21-0.24,0.28c-0.31,0.38-0.86,1.06-1.27,2.01c-0.39,0.82-0.54,1.56-0.65,2.03c-0.01,0.04-0.02,0.09-0.03,0.13
			c-0.41,2.2-0.16,4.14,0.19,5.96c0.63,3.15,1.73,5.98,2.72,8.43c0.51,1.21,1.06,2.46,1.67,3.76c-0.83-0.33-1.68-0.64-2.56-0.92
			c-1.33-0.41-2.48-0.67-3.61-0.8c-1.35-0.16-3.4-0.26-5.58,0.71c-0.03,0.01-0.06,0.03-0.09,0.04c-0.55,0.26-0.99,0.56-1.25,0.73
			l-0.1,0.07c-0.29,0.19-0.56,0.42-0.81,0.67c-0.37,0.38-0.7,0.76-0.99,1.15c-0.18,0.24-0.37,0.56-0.5,0.82
			c-0.17,0.34-0.34,0.7-0.49,1.05c-0.11,0.26-0.19,0.53-0.25,0.81l-0.17,0.77c-0.05,0.23-0.08,0.46-0.1,0.69
			c-0.05,0.7-0.07,1.39-0.04,2.05c0.01,0.18,0.03,0.37,0.05,0.55l0.05,0.35c0.05,0.39,0.11,0.88,0.23,1.37
			c0.53,2.43,1.5,4.48,2.46,6.32c0.98,1.9,2.11,3.64,3.11,5.14c2.54,3.7,5.3,7.16,8.03,10.33c-1.09-0.07-2.25-0.04-3.48,0.2
			c-0.08,0.02-0.16,0.03-0.23,0.05c-2.18,0.54-3.88,1.59-4.98,3.07c-1.16,1.49-1.85,3.31-1.95,5.13c-0.19,2.58,0.46,4.77,1.14,6.63
			c0.54,1.45,1.24,2.94,2.22,4.73c1.4,2.49,3.08,5.08,5.16,7.92c0.45,0.61,0.9,1.22,1.37,1.83c-0.46-0.03-0.92-0.05-1.39-0.06
			c-1.6-0.03-3.51,0.02-5.56,0.57c-0.08,0.02-0.15,0.04-0.23,0.07c-1.19,0.38-2.93,1.07-4.31,2.71c-1.58,1.83-2.17,4.42-1.56,6.94
			c0.79,3.19,2.3,6.29,4.46,9.17c1.68,2.28,3.74,4.5,6.3,6.76c2.06,1.83,4.33,3.58,6.94,5.36c0.2,0.14,0.4,0.27,0.6,0.39l0.21,0.14
			c1.91,1.39,3.84,2.63,5.77,3.72c-3.98,3.24-7.39,6.37-10.45,9.59c-0.03,0.03-0.06,0.07-0.1,0.1c-2.74,3.06-5.38,6.1-7.51,9.66
			c-2.74,4.52-4.28,8.48-4.83,12.37c-0.42,2.63-0.35,5.22,0.22,7.71c0.02,0.07,0.03,0.14,0.05,0.21l0.17,0.63
			c0.17,0.68,0.6,1.93,1.61,3.01c1.83,1.99,4.74,2.7,7.28,1.78c1.15-0.41,1.95-1.09,2.28-1.37l1.55-1.29
			c2.54-2.02,5.29-3.84,7.57-5.28c-1.44,3.2-2.39,6.1-2.92,8.97c-0.85,4.36-0.72,8.74,0.37,12.67c0.02,0.07,0.04,0.14,0.06,0.21
			l0.41,1.25c0.04,0.13,0.09,0.26,0.14,0.38l0.51,1.22c0.06,0.15,0.13,0.3,0.21,0.44l0.14,0.28c0.19,0.38,0.38,0.75,0.65,1.19
			c0.04,0.06,0.07,0.12,0.11,0.17c1.16,1.71,3.09,2.85,5.16,3.03c2.04,0.18,4.04-0.52,5.49-1.93c0.55-0.52,1.03-1.17,1.43-1.94
			l0.25-0.45c0.16-0.29,0.32-0.59,0.48-0.88c0.21-0.39,0.41-0.77,0.64-1.15c0.02-0.03,0.04-0.06,0.06-0.1
			c1.27-2.17,2.85-4.41,4.92-6.97c-0.04,2.9,0.32,5.69,1.08,8.34c0.55,1.93,1.27,3.69,2.17,5.28c0.46,0.79,0.93,1.58,1.67,2.52
			c0.09,0.11,0.18,0.21,0.27,0.31c1.41,1.51,3.48,2.29,5.47,2.1c1.98-0.17,3.78-1.19,4.94-2.82c0.04-0.06,0.09-0.12,0.13-0.19
			c0.18-0.28,0.29-0.47,0.39-0.65l-0.02-0.01c0.03-0.04,0.06-0.08,0.09-0.12l0.01,0l0.04-0.07c0.07-0.1,0.14-0.21,0.22-0.33
			c1.38-2.28,3.06-5,5.07-7.85c-0.1,0.63-0.18,1.23-0.25,1.8l-0.12,0.91c-0.02,0.17-0.04,0.33-0.04,0.5l-0.09,2.35
			c-0.05,0.85,0.01,1.61,0.06,2.22c0.02,0.21,0.04,0.42,0.04,0.63c0,0.08,0.01,0.16,0.01,0.24c0.34,4.04,1.43,7.81,3.23,11.2
			c0.02,0.04,0.04,0.08,0.06,0.11c1.14,2.03,2.29,3.6,3.6,4.97c0.03,0.03,0.06,0.07,0.1,0.1l0.38,0.38
			c0.51,0.52,1.31,1.18,2.39,1.59c2.2,0.85,4.7,0.45,6.5-1.03c0.88-0.71,1.57-1.65,1.99-2.7c0.02-0.04,0.03-0.08,0.04-0.12
			l0.39-1.07c0.72-1.77,1.69-4.11,2.8-6.63c0.27-0.56,0.55-1.12,0.83-1.67c0.32,2.36,0.9,4.88,1.74,7.64
			c0.02,0.07,0.04,0.14,0.07,0.2c1.22,3.44,2.72,6.34,4.61,8.87c2.27,3.03,4.97,5.39,8.08,7.06c0.35,0.19,0.79,0.42,1.31,0.63
			l0.19,0.08c0.01,0.01,0.02,0.01,0.04,0.02c0.24,0.11,0.62,0.26,1.15,0.39c0.44,0.1,0.89,0.16,1.34,0.16c1.53,0,3.04-0.6,4.15-1.68
			c1.29-1.25,1.95-3.08,1.77-4.88l-0.23-3.55c-0.01-0.13,0.01-0.45,0.02-0.71c0.02-0.31,0.03-0.62,0.03-0.83
			c0.02-0.77,0.07-1.59,0.14-2.59c0.52-4.37,1.32-8.9,2.35-13.47c1.32-5.17,2.88-10.13,4.63-14.74c0.02-0.04,0.03-0.08,0.04-0.12
			c0.61-1.75,1.32-3.47,2.07-5.29c0.3-0.73,0.6-1.46,0.9-2.2l1.67-3.77c0.6-1.38,1.13-2.51,1.69-3.62
			c5.57-11.48,10.99-20.1,17.12-27.18c2.76-3.28,5.54-6.55,8.32-9.82c4.4-5.17,8.95-10.51,13.37-15.88
			c4.28-5.23,7.58-9.6,10.4-13.74c3.13-4.58,6.05-9.46,8.93-14.95l0.27-0.53c2.53-4.9,5.15-9.96,7-15.58l0.29-0.92
			c0.35-1.09,0.72-2.22,1-3.47l0.49-1.99c0.03-0.1,0.05-0.21,0.07-0.31l0.56-3.13c0.02-0.11,0.04-0.23,0.05-0.34l0.33-3.17
			c0.01-0.14,0.02-0.27,0.03-0.41c0.01-0.36,0.02-0.72,0.04-1.07c0.04-1.05,0.09-2.23,0-3.48
			C189.94,146.91,189.78,145.6,189.63,144.43z M52.24,288.8L52.24,288.8l2.39,1.25l0.27,0.24L52.24,288.8z"/>
	</g>
	<g>
		<g>
			<path class="st1" d="M203.31,168.44c-3.05-7.03-10.05-33.46,16.06-50.19c18.66-11.96,28.46-23.15,35.08-31.51
				c5.33-6.72,8.91-11.24,11.61-14.74c2.68-3.47,7.11-6.91,2.12,4.85c-1.62,3.81-0.26,3.31,3.06,0.48c2.3-1.96,5.79-4.99,8.89-8.64
				c7.75-9.13,16.07-21.64,18.35-26.49c4.52-9.58,5.47-14.83,8.04-10.41c2.57,4.42,5.81,22.88-2.31,39.43
				c-3.96,8.06,6.12,0.97,19.91-12.43c14.23-13.83,30.94-33.96,37.01-43.76c9.42-15.21,9.09,8.46,5.39,21.56
				c-3.36,11.93-15.03,39.69-25.71,50.93c0,0,20.44-19,24.77-15.43c4.33,3.57-6.6,32.35-21.7,46.17c0,0,9.67-1.62,20.26-6.73
				c10.6-5.11-1.66,24.09-10.56,33.61c0,0,15.49-9.87,22.51-10.64c7.03-0.78,5.04,15.86-32.22,46.02c0,0,27.41-16.27,30.85-10.96
				c3.43,5.31-7.74,20.5-19.29,30.86c0,0,19.79-4.54,22.38-1c2.58,3.54-12.58,21.74-29.32,26.77c0,0,28.04,21.65,26.28,39.53
				c-0.13,1.36-1.7,2.07-2.79,1.24c-6.67-5.03-25.13-17.55-28.64-17.6c0,0,19.58,21.8,11.79,38.16c-0.8,1.68-3.18,1.72-4.03,0.07
				c-3.31-6.42-11.15-19.9-21.52-26.59c0,0,10.21,18.09,2.66,31.09c-0.89,1.52-3.11,1.49-3.98-0.05
				c-3.73-6.58-12.56-21.75-22.02-23.92c0,0,15.5,20.39,2.07,39.49c-1.03,1.46-2.79,0.57-3.42-1.11
				c-2.7-7.19-8.97-23.51-13.73-26.32c0,0,1.86,7.81,0.64,16.67s-5.53,18.78-14.34,21.72c0,0,1.46-47.77-34.25-89.49
				C217.78,199.33,213.07,190.94,203.31,168.44z"/>
			<path class="st2" d="M243.72,194c23.31,25.76,24.73,49.46,24.73,49.46s9.47,12.41,13.89,9.84c4.42-2.57,1.14-18.4,1.14-18.4
				c14.83,5.47,28.92,1.29,28.93,0.41c0.01-0.88-5.07-13.23-5.07-13.23c16.66,0.24,23.46-10.56,22.09-11.96
				c-1.73-1.78-8.66-8.01-8.66-8.01c10.57-3.36,14.16-9.45,14.2-12.08s-13.09-4.57-13.09-4.57s15.97-12.93,11.63-16.5
				c-4.33-3.57-20.15-1.16-20.15-1.16c7.09-5.16,12.5-15.61,11.66-18.25c-0.84-2.64-19.25-2.9-19.25-2.9
				c3.56-3.46,13.45-20.86,11.76-25.26c-1.83-4.77-23.67-0.34-23.67-0.34c8.01-8.66,14.33-20.84,6.41-19.2
				c-8.96,1.86-18.45,2.37-18.45,2.37c5.2-4.55,14.15-18.98,20.68-30.15c-0.11-0.53,0.15-1.47,0.84-2.87
				c8.13-16.55,4.88-35.01,2.31-39.43c-2.57-4.42-3.52,0.83-8.04,10.41c-2.29,4.84-10.6,17.35-18.35,26.49
				c-3.1,3.65-6.6,6.68-8.89,8.64c-1.6,1.36-2.74,2.18-3.31,2.24c-4.29,7.1-10.03,15.53-17.68,25.09
				C224.38,135.85,220.41,168.24,243.72,194z"/>
			<g>
				<path class="st3" d="M267.57,239.05c0.19-1.37,0.04-2.78-0.17-4.15c-0.21-1.38-0.56-2.73-0.95-4.07
					c-0.8-2.68-1.85-5.27-3.02-7.8c-1.21-2.52-2.5-5-3.94-7.39c-1.44-2.4-2.98-4.72-4.58-7.02c-3.2-4.58-6.6-9.02-10.06-13.42
					l-5.24-6.55c-1.76-2.17-3.58-4.31-5.09-6.67l-1.12-1.78l-0.98-1.86l-0.49-0.93l-0.41-0.97l-0.83-1.93
					c-0.94-2.64-1.75-5.34-2.17-8.11c-0.45-2.77-0.7-5.57-0.65-8.37c-0.01-2.8,0.25-5.6,0.65-8.37c0.39-2.78,1.02-5.51,1.71-8.22
					c0.76-2.69,1.59-5.37,2.59-7.99c1.98-5.24,4.41-10.31,7.24-15.14c2.85-4.81,5.99-9.5,9.87-13.57c4-3.9,7.32-8.43,10.41-13.07
					c3.05-4.67,5.88-9.52,8-14.67c0.51-1.29,0.97-2.61,1.3-3.95c0.32-1.32,0.54-2.76,0.17-4.01c-0.05-0.12-0.1-0.18-0.19-0.18
					c-0.1-0.01-0.24,0.04-0.38,0.12c-0.28,0.16-0.55,0.36-0.8,0.59c-0.51,0.45-0.99,0.95-1.46,1.47c-0.93,1.03-1.82,2.11-2.7,3.19
					c-3.49,4.36-6.85,8.83-10.31,13.23c-3.42,4.42-7.01,8.75-11.02,12.67c-3.99,3.94-8.34,7.5-12.86,10.8
					c-4.51,3.32-9.21,6.36-13.61,9.79c-2.21,1.7-4.28,3.57-6.15,5.61c-1.88,2.04-3.46,4.36-4.88,6.73
					c-1.43,2.38-2.55,4.94-3.38,7.59c-0.46,1.31-0.72,2.68-1.02,4.03c-0.2,1.37-0.44,2.74-0.5,4.13c-0.15,1.38-0.07,2.77-0.07,4.16
					l0.16,2.08l0.08,1.04l0.15,1.03l0.32,2.06l0.45,2.04c0.26,1.37,0.7,2.69,1.08,4.03c1.61,5.33,4.07,10.37,6.5,15.39
					c2.46,5.01,5.17,9.9,8.19,14.59c3.01,4.7,6.32,9.2,9.74,13.62c6.86,8.82,13.97,17.46,20.93,26.21
					c7.12,8.7,12.51,18.66,17.12,28.85c0.6,1.27,1.14,2.56,1.67,3.86l1.6,3.89c0.97,2.63,2.02,5.23,2.88,7.9
					c1.85,5.29,3.35,10.7,4.57,16.18c1.23,5.47,2.03,11.07,2.04,16.7c-0.01,0.7,0.05,1.41-0.02,2.11l-0.2,2.11l-0.1,1.06l-0.05,0.53
					c-0.01,0.09,0,0.1,0.03,0.14c0.03,0.03,0.07,0.04,0.11,0.03c0,0.01,0.1-0.04,0.17-0.07l0.23-0.1c0.32-0.12,0.62-0.27,0.93-0.42
					c2.44-1.22,4.55-3.07,6.25-5.21c1.7-2.16,2.98-4.63,3.97-7.2c0.88-2.61,1.59-5.3,1.91-8.06c0.75-5.5,0.56-11.09-0.01-16.62
					l-0.16-1.58l0.94,1.27c3.82,5.13,7.14,10.59,9.93,16.33c1.39,2.87,2.62,5.82,3.65,8.85l0.38,1.14l0.18,0.54
					c0.04,0.12,0.11,0.22,0.21,0.3c0.18,0.16,0.45,0.22,0.67,0.13c0.17-0.04,0.49-0.4,0.76-0.64c1.09-1.07,2-2.35,2.8-3.68
					c1.53-2.7,2.45-5.74,2.8-8.84c0.05-0.78,0.2-1.55,0.16-2.33l-0.02-2.34c-0.17-1.55-0.28-3.12-0.65-4.65
					c-0.25-1.55-0.76-3.04-1.21-4.54c-0.47-1.5-1.13-2.93-1.69-4.4c-0.7-1.41-1.38-2.83-2.1-4.23l-2.4-4.07l-0.81-1.37l1.4,0.67
					c2.71,1.3,5.13,2.96,7.45,4.79c2.3,1.83,4.45,3.86,6.44,6.02c0.95,1.12,1.96,2.19,2.83,3.38l1.34,1.75l1.25,1.82l0.62,0.91
					l0.57,0.94l1.14,1.88c0.38,0.63,0.7,1.29,1.05,1.94l1.01,1.88c0.24,0.38,0.84,0.45,1.13,0.13c0.16-0.19,0.41-0.54,0.6-0.8
					c0.19-0.3,0.39-0.59,0.57-0.89c0.73-1.21,1.28-2.53,1.71-3.89c0.85-2.72,1.15-5.6,0.99-8.46c-0.33-5.74-2.26-11.3-4.72-16.52
					l-1.03-2.17l1.82,1.54c5.25,4.44,10.03,9.36,14.28,14.75c2.1,2.71,4.09,5.52,5.75,8.54c0.43,0.74,0.79,1.53,1.19,2.29l0.29,0.58
					c0.1,0.21,0.14,0.27,0.25,0.38c0.18,0.2,0.46,0.29,0.73,0.28c0.27-0.02,0.52-0.15,0.68-0.38c0.17-0.26,0.39-0.69,0.58-1.03
					l0.51-1.13l0.41-1.17c0.97-3.16,1.07-6.57,0.52-9.86c-0.53-3.31-1.7-6.49-3.11-9.54c-2.86-6.11-6.86-11.66-11.25-16.81
					l-1.95-2.29l2.66,1.4c6.63,3.5,13.11,7.23,19.38,11.33c3.13,2.06,6.21,4.22,9.1,6.64l1.06,0.94c0.33,0.28,0.79,0.73,0.91,0.76
					c0.21,0.08,0.48,0.03,0.63-0.14c0.13-0.08,0.24-0.63,0.38-1.02c0.44-1.71,0.52-3.54,0.28-5.33c-0.41-3.6-1.92-7.03-3.73-10.21
					c-1.8-3.21-4.18-6.08-6.57-8.89c-4.96-5.51-10.63-10.37-16.52-14.9l-0.88-0.67l1.03-0.43c4.9-2.06,9.67-4.55,14.15-7.41
					c2.24-1.44,4.41-2.98,6.45-4.69c2.03-1.7,3.95-3.55,5.56-5.62c1.63-2.05,2.92-4.37,3.62-6.85c0.12-0.54,0.09-1-0.19-1.35
					c-0.28-0.36-0.8-0.63-1.37-0.82c-1.17-0.35-2.49-0.44-3.79-0.46c-2.63-0.01-5.28,0.31-7.92,0.71c-2.63,0.41-5.27,0.92-7.85,1.53
					l-2.19,0.52l1.57-1.61c4.06-4.15,7.95-8.51,11.51-13.09c1.78-2.29,3.47-4.66,4.94-7.13c0.72-1.24,1.4-2.51,1.93-3.82
					c0.52-1.3,0.94-2.68,0.86-3.96c0-0.65-0.24-1.22-0.56-1.68c-0.31-0.47-0.88-0.71-1.48-0.88c-1.24-0.29-2.68-0.13-4.05,0.15
					c-2.77,0.6-5.49,1.66-8.13,2.82c-5.29,2.37-10.4,5.21-15.33,8.27l-0.78-1.05c5.33-4.65,10.51-9.5,15.5-14.52
					c4.97-5.03,9.8-10.24,13.94-15.93c1.02-1.43,2-2.89,2.85-4.41c0.85-1.51,1.62-3.09,2.03-4.71c0.4-1.57,0.5-3.51-0.76-4.04
					c-0.61-0.31-1.45-0.35-2.26-0.27c-0.82,0.07-1.66,0.25-2.49,0.48c-3.33,0.95-6.53,2.5-9.65,4.12c-3.12,1.65-6.17,3.45-9.13,5.35
					l-2.48,1.59l1.63-2.45c2.85-4.28,5.55-8.69,8.04-13.19c1.24-2.26,2.41-4.55,3.48-6.88c1.04-2.34,2.02-4.72,2.59-7.17
					c0.27-1.22,0.47-2.48,0.29-3.62c-0.05-0.28-0.1-0.57-0.22-0.8c-0.08-0.27-0.25-0.45-0.4-0.66c-0.32-0.36-0.75-0.48-1.3-0.46
					c-1.12,0.11-2.35,0.6-3.54,1.05l-3.6,1.43c-4.83,1.91-9.8,3.47-14.84,4.72l-1.54,0.38l1.01-1.23
					c4.19-5.1,8.13-10.45,11.75-15.99c3.59-5.54,6.93-11.31,9.18-17.49c1.05-3.08,1.88-6.35,1.51-9.53
					c-0.13-0.78-0.29-1.56-0.61-2.28c-0.07-0.18-0.13-0.38-0.23-0.49c-0.04-0.06-0.08-0.13-0.13-0.19l-0.17-0.13
					c-0.1-0.12-0.28-0.12-0.41-0.19c-0.16-0.02-0.33-0.05-0.51-0.06c-0.72,0-1.5,0.25-2.24,0.54c-0.75,0.29-1.47,0.67-2.19,1.06
					c-2.85,1.61-5.51,3.59-8.11,5.63c-2.59,2.05-5.11,4.21-7.55,6.43l-2.57,2.35l1.94-2.89c3.98-5.92,7.63-12.08,11.02-18.37
					c3.37-6.3,6.47-12.75,9.03-19.42c2.57-6.65,4.63-13.55,5.45-20.62c0.39-3.53,0.43-7.12-0.21-10.61
					c-0.21-0.86-0.37-1.73-0.61-2.58l-0.43-1.25l-0.21-0.63c-0.08-0.24-0.12-0.36-0.24-0.46c-0.49-0.43-1.6-0.38-1.99,0.12
					l-1.6,2.15c-8.59,11.46-17.57,22.64-27.12,33.31c-4.81,5.31-9.76,10.49-15,15.38c-5.24,4.87-10.77,9.52-17.02,13.05l-0.06-0.12
					c6.21-3.56,11.71-8.23,16.91-13.12c5.2-4.91,10.12-10.11,14.89-15.44c9.49-10.71,18.39-21.93,26.92-33.43l1.59-2.16
					c0.37-0.48,0.92-0.63,1.41-0.66c0.5-0.02,1.04,0.06,1.48,0.44c0.23,0.19,0.35,0.51,0.4,0.69l0.22,0.64l0.45,1.29
					c0.25,0.87,0.42,1.76,0.64,2.64c0.66,3.57,0.62,7.21,0.24,10.79c-0.81,7.16-2.87,14.11-5.44,20.81
					c-2.56,6.71-5.65,13.2-9.02,19.53c-3.38,6.32-7.02,12.5-11.01,18.48l-0.63-0.54c2.46-2.25,4.98-4.42,7.59-6.49
					c2.61-2.06,5.29-4.07,8.21-5.73c0.74-0.4,1.49-0.8,2.29-1.11c0.8-0.31,1.63-0.6,2.57-0.61c0.24,0.01,0.48,0.04,0.73,0.08
					c0.24,0.11,0.5,0.14,0.71,0.33l0.32,0.25c0.09,0.1,0.15,0.21,0.23,0.32c0.17,0.22,0.23,0.42,0.31,0.63
					c0.36,0.81,0.54,1.66,0.68,2.51c0.4,3.45-0.47,6.81-1.53,9.97c-2.27,6.32-5.63,12.13-9.23,17.72
					c-3.63,5.58-7.56,10.95-11.78,16.12l-0.53-0.85c4.99-1.25,9.9-2.81,14.69-4.72l3.6-1.44c1.22-0.45,2.42-0.98,3.88-1.13
					c0.73-0.06,1.65,0.18,2.2,0.82c0.24,0.31,0.49,0.62,0.6,0.98c0.17,0.35,0.24,0.7,0.3,1.06c0.22,1.42-0.01,2.77-0.29,4.06
					c-0.59,2.59-1.59,5.02-2.64,7.4c-1.07,2.37-2.26,4.69-3.5,6.97c-2.5,4.56-5.19,8.98-8.06,13.31l-0.84-0.85
					c3-1.94,6.07-3.76,9.22-5.44c3.16-1.66,6.39-3.24,9.89-4.25c0.88-0.25,1.78-0.45,2.73-0.53c0.93-0.08,1.95-0.09,2.95,0.39
					c0.24,0.12,0.47,0.31,0.7,0.47c0.19,0.21,0.38,0.43,0.54,0.66c0.12,0.25,0.24,0.5,0.33,0.76l0.15,0.77
					c0.02,0.5,0.02,0.99-0.01,1.47c-0.09,0.47-0.14,0.95-0.26,1.4c-0.46,1.83-1.28,3.46-2.16,5.04c-0.88,1.58-1.89,3.07-2.93,4.53
					c-4.22,5.8-9.08,11.03-14.08,16.09c-5.02,5.05-10.21,9.91-15.58,14.59l-0.78-1.05c5-3.09,10.12-5.95,15.5-8.36
					c2.69-1.19,5.45-2.27,8.4-2.91c1.47-0.29,3.02-0.5,4.63-0.14c0.78,0.22,1.65,0.58,2.19,1.34c0.52,0.71,0.82,1.58,0.83,2.39
					c0.08,1.65-0.4,3.14-0.96,4.53c-0.57,1.4-1.27,2.71-2.02,3.99c-1.52,2.54-3.24,4.94-5.04,7.26c-3.62,4.64-7.52,9.01-11.62,13.21
					l-0.62-1.1c2.64-0.62,5.29-1.14,7.96-1.55c2.68-0.4,5.37-0.73,8.12-0.72c1.38,0.02,2.77,0.1,4.18,0.52
					c0.69,0.24,1.44,0.57,2,1.27c0.58,0.71,0.62,1.73,0.42,2.48c-0.75,2.71-2.14,5.17-3.85,7.32c-1.69,2.17-3.66,4.08-5.75,5.82
					c-2.09,1.75-4.3,3.32-6.58,4.79c-4.57,2.92-9.37,5.41-14.38,7.51l0.15-1.11c5.93,4.57,11.65,9.48,16.68,15.09
					c2.43,2.87,4.84,5.79,6.7,9.11c1.86,3.28,3.44,6.84,3.87,10.69c0.25,1.91,0.17,3.88-0.32,5.78l-0.22,0.71
					c-0.04,0.19-0.2,0.6-0.45,0.84c-0.49,0.53-1.29,0.69-1.95,0.43c-0.33-0.12-0.62-0.41-0.75-0.52l-0.52-0.46l-1.04-0.92
					c-2.82-2.38-5.87-4.52-8.97-6.57c-6.22-4.08-12.69-7.82-19.26-11.3l0.7-0.89c4.43,5.21,8.48,10.83,11.4,17.08
					c1.44,3.12,2.64,6.4,3.19,9.84c0.57,3.42,0.46,7.01-0.58,10.37l-0.44,1.24l-0.54,1.2c-0.23,0.4-0.38,0.74-0.68,1.19
					c-0.34,0.47-0.91,0.78-1.49,0.81c-0.58,0.03-1.18-0.18-1.58-0.61c-0.2-0.19-0.37-0.51-0.45-0.68l-0.29-0.56
					c-0.39-0.75-0.74-1.51-1.16-2.24c-1.62-2.96-3.57-5.74-5.65-8.41c-4.18-5.32-8.94-10.23-14.1-14.6l0.8-0.63
					c2.5,5.3,4.46,10.97,4.8,16.92c0.16,2.96-0.14,5.97-1.04,8.82c-0.45,1.42-1.03,2.81-1.81,4.1c-0.41,0.66-0.77,1.23-1.32,1.89
					c-0.36,0.37-0.9,0.55-1.41,0.49c-0.51-0.06-0.98-0.35-1.26-0.77c-0.15-0.24-0.2-0.37-0.29-0.53l-0.25-0.48l-0.51-0.96
					c-0.35-0.63-0.66-1.29-1.03-1.91l-1.12-1.86l-0.56-0.93l-0.61-0.89l-1.23-1.79l-1.32-1.72c-0.86-1.17-1.84-2.23-2.78-3.33
					c-1.95-2.13-4.06-4.12-6.31-5.92c-2.25-1.79-4.67-3.44-7.22-4.67l0.6-0.7l2.43,4.13c0.73,1.42,1.43,2.87,2.13,4.3
					c0.57,1.5,1.24,2.96,1.72,4.49c0.46,1.54,0.97,3.06,1.23,4.65c0.38,1.56,0.49,3.18,0.67,4.78l0.02,2.42
					c0.03,0.81-0.12,1.61-0.17,2.41c-0.36,3.21-1.32,6.37-2.92,9.19c-0.84,1.39-1.79,2.72-2.96,3.87l-0.45,0.42
					c-0.12,0.12-0.36,0.33-0.63,0.42c-0.54,0.2-1.15,0.06-1.56-0.3c-0.21-0.18-0.37-0.41-0.47-0.67l-0.2-0.58l-0.37-1.12
					c-1.01-2.99-2.23-5.9-3.6-8.75c-2.76-5.68-6.06-11.13-9.81-16.19l0.78-0.32c0.57,5.58,0.76,11.24-0.01,16.84
					c-0.33,2.8-1.06,5.55-1.97,8.23c-1.02,2.64-2.34,5.19-4.1,7.43c-1.77,2.22-3.96,4.15-6.53,5.43c-0.32,0.16-0.64,0.32-0.98,0.45
					l-0.25,0.1c-0.09,0.03-0.14,0.07-0.32,0.11c-0.3,0.06-0.64-0.05-0.85-0.27c-0.22-0.21-0.3-0.58-0.25-0.83l0.05-0.52l0.1-1.03
					l0.19-2.06c0.07-0.69,0.01-1.38,0.02-2.08c-0.01-5.54-0.78-11.1-2-16.53c-1.2-5.44-2.69-10.83-4.53-16.1
					c-0.85-2.66-1.89-5.25-2.86-7.86l-1.59-3.87c-0.52-1.29-1.07-2.58-1.66-3.84c-4.58-10.16-9.92-20.06-16.99-28.71
					c-6.95-8.76-14.05-17.4-20.91-26.24c-3.42-4.43-6.74-8.95-9.76-13.67c-3.03-4.72-5.74-9.63-8.21-14.66
					c-2.42-5.04-4.89-10.1-6.51-15.49c-0.38-1.35-0.82-2.69-1.08-4.07l-0.45-2.06l-0.32-2.09l-0.16-1.04l-0.08-1.05l-0.16-2.11
					c0.01-1.41-0.07-2.82,0.08-4.22c0.05-1.41,0.3-2.8,0.51-4.19c0.31-1.37,0.58-2.76,1.05-4.09c0.84-2.69,1.99-5.28,3.44-7.7
					c1.45-2.41,3.04-4.74,4.96-6.82c1.91-2.07,4.01-3.96,6.23-5.67c4.43-3.44,9.14-6.47,13.64-9.78c4.51-3.29,8.84-6.83,12.82-10.74
					c4-3.89,7.57-8.19,11-12.6c3.46-4.39,6.82-8.86,10.33-13.22c0.88-1.09,1.78-2.17,2.72-3.21c0.48-0.52,0.96-1.03,1.5-1.5
					c0.27-0.24,0.56-0.46,0.89-0.64c0.17-0.08,0.36-0.17,0.61-0.16c0.28,0,0.49,0.25,0.56,0.45c0.42,1.46,0.16,2.9-0.16,4.27
					c-0.34,1.37-0.8,2.7-1.33,4.01c-2.14,5.2-4.99,10.05-8.06,14.73c-3.1,4.65-6.45,9.2-10.47,13.11c-3.85,4.02-7,8.7-9.84,13.49
					c-2.83,4.81-5.26,9.86-7.24,15.08c-1.01,2.6-1.83,5.27-2.6,7.96c-0.69,2.7-1.33,5.42-1.72,8.19c-0.4,2.76-0.67,5.54-0.66,8.33
					c-0.05,2.79,0.19,5.58,0.63,8.33c0.42,2.76,1.22,5.44,2.15,8.07l0.82,1.92l0.41,0.96l0.48,0.93l0.97,1.85l1.11,1.77
					c1.49,2.35,3.31,4.49,5.07,6.66l5.23,6.56c3.45,4.4,6.85,8.85,10.04,13.44c1.6,2.3,3.14,4.63,4.58,7.03
					c1.44,2.4,2.73,4.89,3.93,7.41c1.17,2.54,2.22,5.14,3.02,7.83c0.39,1.35,0.73,2.71,0.94,4.09c0.21,1.38,0.36,2.79,0.16,4.2
					L267.57,239.05z"/>
				<path class="st3" d="M269.35,118.07c6.31-5.78,12.04-12.18,17.36-18.86c5.3-6.7,10.03-13.86,13.97-21.42
					c3.92-7.55,7.08-15.61,8.3-24.03c0.59-4.2,0.68-8.48-0.02-12.66c-0.69-4.17-2.2-8.2-4.49-11.75l0.7-0.05
					c-2.26,4.73-4.74,9.34-7.34,13.89c-2.63,4.52-5.4,8.97-8.38,13.28c-2.97,4.31-6.12,8.5-9.6,12.42
					c-3.46,3.92-7.23,7.6-11.45,10.68c4.16-3.17,7.84-6.92,11.21-10.9c3.37-3.99,6.47-8.19,9.38-12.52
					c2.92-4.33,5.62-8.79,8.2-13.33c2.58-4.53,5.03-9.15,7.26-13.86l0.31-0.65l0.39,0.6c2.36,3.64,3.94,7.78,4.66,12.05
					c0.74,4.27,0.65,8.65,0.02,12.92c-1.27,8.56-4.5,16.66-8.48,24.26c-4.02,7.59-8.88,14.71-14.27,21.37
					C281.66,106.15,275.77,112.41,269.35,118.07z"/>
				<path class="st3" d="M285.33,104.27c2.82-0.11,5.64-0.43,8.4-0.96c1.38-0.26,2.75-0.59,4.1-0.98c0.67-0.2,1.34-0.41,2-0.65
					c0.66-0.23,1.36-0.5,2.09-0.6c0.72-0.11,1.57-0.13,2.3,0.37c0.74,0.51,0.97,1.41,0.99,2.15c0.04,1.53-0.42,2.93-0.96,4.27
					c-0.28,0.67-0.61,1.32-1,1.94l-1.14,1.78c-0.76,1.2-1.53,2.39-2.32,3.57c-3.22,4.67-6.72,9.18-10.84,13.11
					c-2.06,1.95-4.28,3.76-6.7,5.26c-2.44,1.46-5.09,2.63-7.9,3.03c1.38-0.3,2.72-0.77,4-1.33c1.28-0.58,2.5-1.3,3.67-2.06
					c2.34-1.55,4.48-3.39,6.47-5.38c3.97-3.98,7.44-8.44,10.59-13.12c0.8-1.16,1.57-2.34,2.34-3.52l1.16-1.78
					c0.36-0.57,0.68-1.18,0.95-1.81c0.53-1.26,0.97-2.62,0.94-3.93c-0.02-0.65-0.21-1.27-0.67-1.59c-0.45-0.34-1.13-0.38-1.78-0.3
					c-1.31,0.18-2.65,0.81-4.04,1.12c-1.38,0.36-2.77,0.65-4.17,0.87C290.99,104.13,288.16,104.36,285.33,104.27z"/>
				<path class="st3" d="M295.6,121.95c5.83-1.43,11.75-2.69,17.84-2.7c1.51,0.08,3.1,0.09,4.55,1.05c0.18,0.1,0.32,0.3,0.48,0.45
					c0.12,0.19,0.26,0.4,0.32,0.61c0.14,0.43,0.16,0.84,0.17,1.24c0.01,0.8-0.14,1.56-0.27,2.32c-0.65,3-1.81,5.81-3.1,8.55
					c-1.34,2.72-2.86,5.33-4.57,7.83c-1.7,2.5-3.56,4.9-5.64,7.09c-2.08,2.19-4.31,4.25-6.77,6.01c-2.46,1.74-5.1,3.25-7.92,4.32
					c5.48-2.49,10.22-6.34,14.19-10.79c3.98-4.45,7.33-9.47,9.92-14.84c1.29-2.68,2.46-5.45,3.11-8.33
					c0.13-0.72,0.28-1.45,0.27-2.15c0-0.72-0.1-1.34-0.65-1.69c-1.09-0.75-2.67-0.88-4.11-0.98c-2.97-0.12-5.96,0.19-8.93,0.57
					C301.51,120.87,298.55,121.39,295.6,121.95z"/>
				<path class="st3" d="M309.28,146.7c4.57-0.04,9.15,0.05,13.69,0.96c0.57,0.13,1.13,0.28,1.69,0.49c0.54,0.24,1.16,0.45,1.55,1.2
					c0.15,0.37,0.13,0.72,0.1,1.02c-0.03,0.31-0.09,0.6-0.15,0.9c-0.14,0.57-0.31,1.14-0.52,1.68c-0.82,2.18-1.93,4.22-3.19,6.15
					c-2.56,3.83-5.7,7.29-9.34,10.11c-1.82,1.41-3.76,2.66-5.79,3.74c-2.04,1.05-4.17,1.94-6.36,2.56
					c4.27-1.61,8.24-3.94,11.73-6.83c3.49-2.88,6.57-6.27,9.03-10.07c1.25-1.88,2.36-3.86,3.17-5.95c0.21-0.52,0.37-1.05,0.51-1.58
					c0.12-0.51,0.23-1.12,0.1-1.45c-0.13-0.31-0.64-0.61-1.13-0.81c-0.5-0.21-1.04-0.37-1.58-0.52c-2.18-0.55-4.45-0.83-6.71-1.06
					C313.84,147,311.56,146.85,309.28,146.7z"/>
				<path class="st3" d="M317.76,166.99c2.44-0.17,4.88-0.2,7.33-0.16c2.44,0.09,4.9,0.24,7.33,0.82c0.61,0.15,1.21,0.35,1.79,0.64
					c0.56,0.29,1.21,0.72,1.42,1.52c0.19,1.46-0.41,2.62-0.93,3.75c-1.14,2.23-2.71,4.17-4.41,5.97c-1.73,1.76-3.63,3.35-5.65,4.76
					c-2.02,1.41-4.14,2.67-6.37,3.71c-4.44,2.11-9.19,3.52-14.02,4.24c4.76-1.08,9.4-2.64,13.72-4.84c4.31-2.2,8.35-4.99,11.69-8.47
					c1.67-1.73,3.22-3.61,4.33-5.72c0.52-1.03,1.04-2.23,0.9-3.22c-0.09-0.42-0.53-0.77-1.02-1.04c-0.5-0.27-1.06-0.48-1.63-0.64
					c-2.31-0.64-4.75-0.87-7.17-1.04C322.64,167.07,320.21,167.01,317.76,166.99z"/>
				<path class="st3" d="M324.52,185.5c2.32,0.3,4.62,0.77,6.87,1.46c1.12,0.36,2.23,0.79,3.26,1.43c0.5,0.33,1.01,0.73,1.34,1.33
					c0.17,0.29,0.25,0.66,0.21,1.02c-0.03,0.38-0.16,0.61-0.24,0.92c-0.83,2.29-2.4,4.2-4.21,5.75c-1.82,1.56-3.92,2.71-6.06,3.71
					c-4.38,1.83-9.04,2.79-13.7,3.25c-4.68,0.49-9.38,0.34-14.04,0.05l3.51-0.05c1.17,0,2.33-0.02,3.5-0.11l3.49-0.18l3.47-0.37
					c4.6-0.6,9.19-1.54,13.43-3.38c2.09-0.95,4.14-2.04,5.9-3.51c1.76-1.46,3.23-3.29,4.09-5.37c0.2-0.56,0.37-0.99,0.12-1.44
					c-0.22-0.44-0.64-0.83-1.1-1.14c-0.93-0.63-2.01-1.09-3.09-1.49C329.08,186.55,326.8,185.99,324.52,185.5z"/>
				<path class="st3" d="M322.52,203.01c1.52,1.41,3.02,2.84,4.57,4.19c0.77,0.68,1.55,1.37,2.35,1.99c0.2,0.16,0.41,0.3,0.61,0.44
					c0.1,0.07,0.21,0.12,0.31,0.18c0.05,0.02,0.37,0.23,0.4,0.38c0.18,0.34,0.15,0.64,0.14,0.93c-0.03,0.29-0.09,0.56-0.16,0.83
					c-0.66,2.1-2.15,3.74-3.77,5.09c-1.64,1.35-3.52,2.36-5.47,3.15c-3.94,1.51-8.15,2.07-12.3,2.13
					c-4.17,0.01-8.31-0.44-12.37-1.27c4.11,0.47,8.24,0.75,12.35,0.6c4.09-0.2,8.22-0.75,12-2.27c1.89-0.74,3.71-1.68,5.29-2.95
					c1.57-1.25,2.95-2.83,3.63-4.67c0.14-0.43,0.25-0.99,0.12-1.27c-0.01-0.04-0.03-0.06-0.04-0.06c-0.01-0.01-0.01-0.01-0.02-0.03
					l-0.09-0.06c-0.12-0.08-0.24-0.15-0.35-0.23c-0.21-0.16-0.43-0.32-0.63-0.49c-0.81-0.67-1.56-1.39-2.3-2.11
					C325.33,206.05,323.89,204.56,322.52,203.01z"/>
				<path class="st3" d="M308.2,222.98l2.5,5.5c0.84,1.82,1.65,3.7,2.62,5.4c0.06,0.11,0.12,0.18,0.18,0.26l0.04,0.06
					c0.05,0.06,0.13,0.17,0.13,0.27c0.02,0.21-0.05,0.33-0.1,0.41c-0.22,0.31-0.44,0.45-0.66,0.61c-0.45,0.3-0.92,0.52-1.4,0.73
					c-0.96,0.4-1.94,0.7-2.93,0.94c-1.99,0.48-4.03,0.72-6.06,0.8c-4.08,0.1-8.15-0.42-12.07-1.44c-3.93-1.02-7.72-2.49-11.31-4.32
					c3.74,1.51,7.56,2.8,11.47,3.67c3.91,0.87,7.9,1.38,11.89,1.22c1.99-0.05,3.98-0.27,5.91-0.7c0.97-0.22,1.92-0.5,2.83-0.86
					c0.45-0.18,0.89-0.4,1.29-0.64c0.19-0.12,0.4-0.27,0.47-0.38c0.02-0.02,0-0.03,0.01,0.06c0.01,0.04,0.04,0.1,0.06,0.11
					l-0.07-0.09c-0.09-0.12-0.18-0.25-0.24-0.37C310.93,230.55,309.58,226.78,308.2,222.98z"/>
				<path class="st3" d="M284.35,235.79c0.76,2.99,1.27,6.05,1.48,9.15c0.11,1.55,0.1,3.12-0.13,4.68
					c-0.12,0.78-0.29,1.57-0.64,2.33c-0.34,0.73-0.92,1.55-1.83,1.81c-1.68,0.52-3.37,0-4.77-0.69c-1.42-0.72-2.7-1.64-3.86-2.67
					c-2.34-2.06-4.39-4.4-6.14-6.94c1.03,1.15,2.06,2.29,3.16,3.36c1.09,1.08,2.22,2.12,3.41,3.06c1.2,0.93,2.43,1.84,3.78,2.48
					c1.33,0.64,2.84,1.01,4.14,0.58c0.62-0.15,1.04-0.71,1.35-1.34c0.31-0.64,0.48-1.37,0.61-2.1c0.25-1.48,0.25-3.01,0.24-4.53
					c-0.02-1.53-0.13-3.06-0.28-4.59C284.75,238.85,284.55,237.32,284.35,235.79z"/>
				<path class="st3" d="M240.23,130.82c4.72-1.74,9.65-3.01,14.73-3.31c2.53-0.13,5.15,0.04,7.58,1.04c1.2,0.51,2.33,1.3,3.13,2.39
					c0.81,1.08,1.26,2.39,1.4,3.69c0.29,2.64-0.51,5.25-1.76,7.47c-1.24,2.25-2.85,4.25-4.64,6.05c-3.58,3.59-7.67,6.61-12.04,9.1
					c2.09-1.39,4.12-2.87,6.05-4.47c1.94-1.58,3.81-3.26,5.5-5.09c1.68-1.84,3.27-3.78,4.42-5.96c1.18-2.15,1.87-4.6,1.59-6.99
					c-0.12-1.19-0.5-2.35-1.2-3.3c-0.69-0.95-1.68-1.67-2.78-2.16c-2.23-0.96-4.76-1.12-7.23-1.1c-2.49,0.06-4.98,0.39-7.44,0.86
					C245.08,129.49,242.64,130.1,240.23,130.82z"/>
				<path class="st3" d="M255.69,153.83c4.53-2.14,9.18-4.11,14.14-5.2c0.63-0.1,1.25-0.24,1.91-0.25c0.33-0.01,0.65-0.05,0.99,0
					c0.33,0.05,0.66,0,1.08,0.26c0.64,0.49,0.91,1.12,1.16,1.73c0.24,0.62,0.38,1.26,0.49,1.9c0.38,2.57,0.02,5.18-0.8,7.61
					c-1.72,4.86-5.25,8.85-9.32,11.82c-2.05,1.49-4.24,2.75-6.5,3.87c-2.28,1.08-4.62,1.98-7.01,2.77c4.64-1.89,9.16-4.12,13.1-7.17
					c3.91-3.01,7.31-6.89,8.9-11.56c0.81-2.3,1.17-4.8,0.84-7.2c-0.1-0.59-0.21-1.19-0.43-1.74c-0.2-0.54-0.49-1.1-0.86-1.38
					c-0.11-0.1-0.44-0.11-0.73-0.15c-0.28-0.05-0.59-0.02-0.89-0.02c-0.6-0.01-1.21,0.11-1.82,0.18c-2.44,0.42-4.84,1.15-7.21,1.95
					C260.37,152.02,258.02,152.91,255.69,153.83z"/>
				<path class="st3" d="M265.95,172.39c4.56-0.27,9.16-0.36,13.72,0.44c1.13,0.24,2.3,0.48,3.34,1.23c0.26,0.2,0.5,0.44,0.67,0.77
					c0.17,0.34,0.2,0.72,0.18,1.02c-0.03,0.62-0.14,1.2-0.28,1.77c-0.57,2.27-1.51,4.4-2.61,6.43c-2.27,4.02-5.36,7.65-9.26,10.18
					c-1.96,1.24-4.09,2.2-6.32,2.8c-2.23,0.58-4.54,0.83-6.83,0.69c4.57-0.09,9.06-1.5,12.77-4.05c3.7-2.57,6.71-6.08,8.86-10.04
					c1.09-1.96,2.04-4.04,2.6-6.2c0.14-0.54,0.25-1.09,0.28-1.6c0.04-0.52-0.11-0.84-0.54-1.16c-0.82-0.6-1.94-0.91-3.02-1.17
					c-2.2-0.49-4.47-0.7-6.74-0.85C270.52,172.48,268.24,172.42,265.95,172.39z"/>
				<path class="st3" d="M274.42,193.56c4.21-0.7,8.48-1.19,12.8-0.75c1.07,0.15,2.18,0.32,3.19,0.98c0.49,0.32,0.96,0.89,1.01,1.56
					c0.02,0.62-0.03,1.14-0.13,1.69c-0.37,2.18-1.27,4.21-2.45,6.04c-2.45,3.64-6.08,6.31-10.04,8c-4,1.64-8.29,2.37-12.55,2.53
					c4.23-0.52,8.43-1.42,12.28-3.15c3.81-1.77,7.3-4.35,9.58-7.86c1.15-1.73,2.03-3.67,2.4-5.7c0.1-0.49,0.15-1.04,0.15-1.48
					c-0.02-0.4-0.28-0.75-0.67-1.01c-0.78-0.53-1.84-0.76-2.86-0.94c-2.07-0.32-4.21-0.34-6.33-0.28
					C278.67,193.22,276.55,193.37,274.42,193.56z"/>
			</g>
		</g>
		<g>
			<path class="st1" d="M181.06,168.12c3.25-6.95,10.99-33.17-14.63-50.63c-18.31-12.48-27.8-23.95-34.18-32.49
				c-5.13-6.87-8.58-11.49-11.19-15.07c-2.58-3.54-6.91-7.11-2.26,4.79c1.51,3.86,0.16,3.32-3.07,0.39
				c-2.24-2.02-5.65-5.15-8.64-8.89c-7.49-9.35-15.45-22.09-17.59-26.99c-4.25-9.71-5.05-14.98-7.74-10.63
				c-2.69,4.35-6.46,22.71,1.19,39.48c3.73,8.17-6.14,0.8-19.55-12.99C49.57,40.87,33.43,20.27,27.64,10.3
				c-8.99-15.47-9.32,8.2-6,21.4c3.03,12.03,13.9,40.1,24.26,51.64c0,0-19.89-19.57-24.32-16.13c-4.43,3.44,5.68,32.53,20.38,46.76
				c0,0-9.62-1.89-20.07-7.3s0.97,24.13,9.6,33.9c0,0-15.2-10.3-22.2-11.28c-7-0.98-5.48,15.71,30.9,46.91
				c0,0-26.94-17.04-30.52-11.83s7.16,20.71,18.41,31.39c0,0-19.66-5.1-22.34-1.63s11.96,22.09,28.55,27.59
				c0,0-28.64,20.85-27.39,38.77c0.1,1.37,1.64,2.11,2.76,1.32c6.81-4.83,25.62-16.83,29.13-16.79c0,0-20.19,21.23-12.87,37.81
				c0.75,1.7,3.13,1.81,4.03,0.18c3.49-6.32,11.71-19.58,22.26-25.97c0,0-10.72,17.79-3.54,31c0.84,1.55,3.06,1.58,3.97,0.07
				c3.91-6.47,13.17-21.39,22.69-23.28c0,0-16.07,19.94-3.19,39.42c0.99,1.49,2.77,0.65,3.45-1.01c2.9-7.11,9.63-23.25,14.47-25.92
				c0,0-2.08,7.75-1.11,16.65c0.97,8.89,4.99,18.92,13.72,22.12c0,0-0.1-47.79,36.77-88.48
				C165.72,198.6,170.66,190.34,181.06,168.12z"/>
			<path class="st2" d="M139.94,192.53c-24.03,25.09-26.12,48.74-26.12,48.74s-9.82,12.14-14.16,9.45
				c-4.35-2.69-0.62-18.42-0.62-18.42c-14.98,5.05-28.94,0.47-28.93-0.41s5.45-13.08,5.45-13.08
				c-16.66-0.24-23.15-11.22-21.74-12.58c1.78-1.73,8.88-7.77,8.88-7.77c-10.47-3.66-13.89-9.84-13.85-12.47
				c0.04-2.63,13.21-4.2,13.21-4.2s-15.59-13.37-11.16-16.82s20.18-0.59,20.18-0.59c-6.94-5.36-12.05-15.95-11.14-18.57
				s19.33-2.36,19.33-2.36c-3.46-3.56-12.85-21.23-11.04-25.59c1.97-4.72,23.67,0.34,23.67,0.34c-7.77-8.88-13.73-21.24-5.86-19.37
				c8.91,2.11,18.37,2.89,18.37,2.89c-5.07-4.7-13.61-19.37-19.81-30.72c0.12-0.53-0.1-1.47-0.75-2.89
				c-7.65-16.77-3.89-35.13-1.19-39.48c2.69-4.35,3.49,0.93,7.74,10.63c2.15,4.91,10.11,17.64,17.59,26.99
				c2.99,3.74,6.4,6.87,8.64,8.89c1.56,1.41,2.67,2.25,3.25,2.33c4.09,7.22,9.59,15.81,16.97,25.58
				C160.92,134.95,163.97,167.44,139.94,192.53z"/>
			<g>
				<path class="st3" d="M114.69,236.91c-0.16-1.41,0.04-2.82,0.28-4.19c0.25-1.38,0.64-2.73,1.06-4.06c0.87-2.66,2-5.23,3.24-7.74
					c1.28-2.49,2.64-4.94,4.14-7.3c1.5-2.36,3.12-4.65,4.78-6.9c3.32-4.5,6.85-8.85,10.42-13.15l5.42-6.41
					c1.82-2.13,3.69-4.21,5.25-6.52l1.16-1.74l1.02-1.82l0.51-0.91l0.44-0.95l0.87-1.9c1-2.6,1.88-5.26,2.37-8
					c0.52-2.74,0.84-5.52,0.87-8.31c0.09-2.79-0.1-5.58-0.42-8.35c-0.31-2.77-0.87-5.51-1.48-8.23c-0.69-2.7-1.44-5.4-2.37-8.03
					c-1.83-5.27-4.12-10.39-6.81-15.28c-2.71-4.87-5.72-9.63-9.46-13.76c-3.91-4.03-7.12-8.67-10.1-13.4
					c-2.93-4.77-5.64-9.7-7.64-14.95c-0.48-1.32-0.91-2.66-1.21-4.04c-0.28-1.38-0.51-2.82-0.04-4.27c0.07-0.2,0.29-0.44,0.57-0.43
					c0.25,0,0.44,0.09,0.61,0.18c0.33,0.2,0.61,0.42,0.87,0.67c0.52,0.49,1,1.01,1.46,1.54c0.92,1.07,1.78,2.17,2.63,3.28
					c3.38,4.46,6.62,9.02,9.96,13.51c3.31,4.51,6.75,8.9,10.64,12.91c3.87,4.02,8.1,7.68,12.51,11.1c4.4,3.43,9.02,6.59,13.36,10.16
					c2.17,1.77,4.22,3.72,6.07,5.84c1.86,2.13,3.38,4.5,4.76,6.95c1.38,2.45,2.46,5.08,3.22,7.79c0.43,1.35,0.66,2.74,0.93,4.12
					c0.17,1.4,0.38,2.8,0.39,4.21c0.11,1.41-0.01,2.82-0.04,4.22l-0.22,2.1l-0.11,1.05l-0.18,1.04l-0.38,2.08l-0.51,2.05
					c-0.3,1.38-0.78,2.7-1.2,4.04c-1.77,5.35-4.38,10.34-6.95,15.3c-2.61,4.96-5.46,9.8-8.62,14.42c-3.15,4.64-6.6,9.06-10.14,13.39
					c-7.11,8.65-14.45,17.08-21.65,25.64c-7.31,8.44-12.93,18.19-17.79,28.22c-0.63,1.25-1.21,2.51-1.77,3.79l-1.7,3.82
					c-1.04,2.59-2.16,5.15-3.08,7.78c-1.98,5.22-3.63,10.56-4.98,15.96c-1.37,5.4-2.31,10.93-2.47,16.47
					c-0.01,0.69-0.09,1.39-0.04,2.08l0.14,2.07l0.07,1.03l0.03,0.52c0.04,0.26-0.05,0.62-0.27,0.83c-0.22,0.22-0.56,0.32-0.86,0.25
					c-0.17-0.04-0.23-0.08-0.32-0.12l-0.25-0.11c-0.33-0.14-0.65-0.31-0.97-0.47c-2.53-1.36-4.67-3.34-6.38-5.62
					c-1.7-2.29-2.95-4.87-3.89-7.54c-0.83-2.7-1.48-5.47-1.73-8.28c-0.61-5.61-0.26-11.27,0.47-16.83l0.77,0.34
					c-3.9,4.95-7.35,10.3-10.27,15.9c-1.45,2.81-2.75,5.69-3.85,8.65l-0.41,1.11l-0.21,0.58c-0.1,0.25-0.27,0.48-0.48,0.66
					c-0.42,0.35-1.04,0.47-1.57,0.26c-0.26-0.1-0.5-0.31-0.62-0.44l-0.44-0.43c-1.14-1.18-2.05-2.54-2.85-3.95
					c-1.53-2.87-2.39-6.05-2.66-9.27c-0.03-0.81-0.16-1.61-0.1-2.42l0.09-2.42c0.22-1.59,0.37-3.2,0.8-4.76
					c0.31-1.58,0.86-3.09,1.36-4.62c0.52-1.52,1.23-2.96,1.84-4.44c0.75-1.41,1.48-2.84,2.25-4.24l2.55-4.06l0.58,0.71
					c-2.58,1.15-5.05,2.74-7.35,4.46c-2.31,1.74-4.47,3.67-6.48,5.74c-0.97,1.07-1.99,2.1-2.87,3.25l-1.36,1.69l-1.28,1.75
					l-0.64,0.88l-0.59,0.91l-1.18,1.82c-0.39,0.61-0.72,1.25-1.09,1.88l-0.53,0.94l-0.27,0.47c-0.1,0.17-0.16,0.29-0.31,0.53
					c-0.3,0.41-0.78,0.69-1.29,0.73c-0.51,0.05-1.04-0.15-1.39-0.53c-0.53-0.68-0.88-1.26-1.27-1.93c-0.74-1.31-1.29-2.71-1.69-4.15
					c-0.82-2.88-1.04-5.89-0.79-8.84c0.51-5.93,2.64-11.55,5.28-16.77l0.78,0.65c-5.27,4.22-10.17,8.99-14.5,14.19
					c-2.15,2.61-4.18,5.33-5.88,8.25c-0.44,0.72-0.81,1.47-1.23,2.21l-0.3,0.55c-0.09,0.17-0.26,0.48-0.47,0.67
					c-0.42,0.42-1.02,0.61-1.6,0.56c-0.58-0.05-1.14-0.37-1.46-0.85c-0.28-0.46-0.43-0.8-0.65-1.21l-0.51-1.22l-0.41-1.25
					c-0.94-3.39-0.95-6.98-0.28-10.38c0.64-3.42,1.93-6.66,3.47-9.74c3.09-6.17,7.3-11.67,11.88-16.75l0.68,0.91
					C33.7,247.55,27.13,251.1,20.8,255c-3.16,1.96-6.27,4.02-9.16,6.32l-1.06,0.89l-0.53,0.44c-0.14,0.11-0.43,0.39-0.77,0.5
					c-0.67,0.25-1.46,0.06-1.94-0.48c-0.24-0.24-0.39-0.66-0.43-0.85l-0.2-0.71c-0.44-1.91-0.47-3.89-0.16-5.79
					c0.55-3.83,2.22-7.35,4.17-10.57c1.95-3.26,4.45-6.11,6.96-8.91c5.19-5.46,11.04-10.21,17.1-14.61l0.12,1.11
					c-4.95-2.24-9.68-4.87-14.16-7.91c-2.24-1.52-4.41-3.16-6.44-4.97c-2.04-1.8-3.96-3.76-5.58-5.98c-1.64-2.2-2.96-4.7-3.64-7.42
					c-0.18-0.76-0.11-1.77,0.49-2.47c0.58-0.69,1.34-0.99,2.04-1.21c1.42-0.38,2.82-0.42,4.19-0.4c2.75,0.07,5.44,0.47,8.1,0.95
					c2.66,0.49,5.29,1.08,7.92,1.78l-0.65,1.08c-3.99-4.32-7.76-8.8-11.24-13.54c-1.74-2.37-3.38-4.82-4.83-7.4
					c-0.71-1.3-1.37-2.64-1.9-4.05c-0.51-1.41-0.96-2.91-0.83-4.56c0.03-0.82,0.36-1.67,0.9-2.37c0.56-0.74,1.44-1.09,2.23-1.28
					c1.63-0.32,3.17-0.06,4.63,0.27c2.92,0.72,5.65,1.88,8.31,3.14c5.31,2.56,10.35,5.56,15.26,8.79l-0.81,1.03
					c-5.24-4.83-10.28-9.84-15.16-15.03c-4.85-5.2-9.56-10.57-13.62-16.48c-1-1.49-1.96-3-2.8-4.61c-0.83-1.6-1.61-3.26-2.01-5.1
					c-0.1-0.46-0.14-0.94-0.22-1.4c-0.02-0.48-0.01-0.97,0.03-1.47l0.17-0.77c0.1-0.25,0.23-0.5,0.35-0.75
					c0.17-0.22,0.36-0.44,0.56-0.64c0.23-0.15,0.47-0.33,0.71-0.45c1.02-0.45,2.03-0.42,2.96-0.31c0.94,0.11,1.84,0.33,2.71,0.6
					c3.48,1.11,6.65,2.78,9.77,4.53c3.11,1.77,6.12,3.67,9.06,5.69l-0.87,0.83c-2.75-4.41-5.31-8.91-7.68-13.54
					c-1.17-2.32-2.29-4.66-3.3-7.07c-0.98-2.41-1.91-4.86-2.43-7.47c-0.24-1.3-0.44-2.65-0.17-4.07c0.08-0.35,0.15-0.71,0.33-1.05
					c0.12-0.36,0.39-0.66,0.63-0.96c0.56-0.62,1.49-0.84,2.22-0.75c1.45,0.19,2.63,0.75,3.84,1.24l3.56,1.54
					c4.73,2.04,9.59,3.74,14.55,5.13l-0.56,0.84c-4.07-5.28-7.84-10.76-11.32-16.44c-3.44-5.69-6.63-11.59-8.72-17.98
					c-0.97-3.19-1.75-6.57-1.25-10.01c0.17-0.85,0.37-1.7,0.75-2.49c0.09-0.2,0.15-0.4,0.33-0.62c0.08-0.1,0.15-0.22,0.24-0.31
					l0.32-0.24c0.21-0.18,0.48-0.21,0.72-0.31c0.24-0.04,0.49-0.06,0.73-0.06c0.95,0.04,1.77,0.35,2.55,0.69
					c0.79,0.34,1.53,0.75,2.26,1.18c2.88,1.75,5.49,3.83,8.05,5.96c2.55,2.15,5.01,4.38,7.4,6.71l-0.64,0.53
					c-3.82-6.09-7.28-12.37-10.49-18.78c-3.19-6.42-6.09-13-8.46-19.77c-2.38-6.76-4.23-13.77-4.84-20.95
					c-0.28-3.59-0.21-7.23,0.55-10.78c0.24-0.87,0.43-1.76,0.71-2.62l0.48-1.27l0.24-0.64c0.06-0.18,0.19-0.49,0.42-0.68
					c0.46-0.37,0.99-0.43,1.49-0.4c0.49,0.05,1.04,0.21,1.39,0.7l1.53,2.2c8.19,11.73,16.78,23.2,25.96,34.17
					c4.62,5.46,9.39,10.8,14.45,15.86c5.06,5.04,10.42,9.86,16.54,13.59l-0.07,0.11c-6.15-3.71-11.55-8.51-16.64-13.53
					c-5.09-5.04-9.9-10.36-14.55-15.8C42.42,31.38,33.76,19.95,25.5,8.25l-1.54-2.2c-0.37-0.51-1.49-0.59-1.99-0.18
					c-0.12,0.1-0.17,0.22-0.25,0.45l-0.23,0.62l-0.47,1.24c-0.27,0.84-0.45,1.71-0.69,2.56c-0.73,3.47-0.79,7.06-0.51,10.6
					c0.62,7.09,2.48,14.05,4.86,20.76c2.38,6.73,5.28,13.27,8.48,19.66c3.21,6.38,6.68,12.65,10.49,18.68l1.86,2.94l-2.5-2.42
					c-2.38-2.29-4.84-4.52-7.37-6.64c-2.54-2.11-5.14-4.17-7.95-5.86c-0.7-0.41-1.42-0.81-2.16-1.12c-0.73-0.31-1.5-0.59-2.22-0.61
					c-0.17,0.01-0.34,0.02-0.51,0.04c-0.13,0.07-0.32,0.07-0.42,0.18l-0.18,0.13c-0.05,0.05-0.09,0.13-0.13,0.19
					c-0.1,0.1-0.17,0.3-0.24,0.48c-0.34,0.71-0.52,1.48-0.68,2.26c-0.46,3.18,0.28,6.46,1.24,9.57c2.07,6.24,5.25,12.1,8.68,17.74
					c3.46,5.63,7.25,11.09,11.29,16.31l0.98,1.26l-1.53-0.43c-5-1.39-9.92-3.1-14.7-5.14l-3.56-1.53c-1.17-0.48-2.39-1.01-3.51-1.15
					c-0.55-0.04-0.98,0.07-1.32,0.42c-0.15,0.21-0.33,0.38-0.42,0.65c-0.13,0.23-0.19,0.51-0.25,0.79
					c-0.21,1.14-0.06,2.41,0.18,3.63c0.5,2.47,1.41,4.88,2.39,7.24c1,2.36,2.11,4.68,3.28,6.98c2.36,4.58,4.93,9.06,7.66,13.42
					l1.56,2.49l-2.43-1.66c-2.9-1.99-5.91-3.87-8.98-5.61c-3.07-1.71-6.23-3.35-9.53-4.39c-0.82-0.25-1.66-0.46-2.48-0.55
					c-0.82-0.1-1.65-0.08-2.27,0.2c-1.27,0.5-1.23,2.44-0.87,4.02c0.36,1.64,1.1,3.23,1.9,4.77c0.8,1.55,1.75,3.03,2.72,4.49
					c3.98,5.81,8.66,11.15,13.49,16.32c4.84,5.16,9.89,10.16,15.08,14.95l-0.81,1.03c-4.84-3.19-9.87-6.18-15.09-8.7
					c-2.61-1.24-5.29-2.38-8.05-3.05c-1.37-0.32-2.79-0.52-4.05-0.27c-0.6,0.15-1.18,0.38-1.5,0.84c-0.34,0.45-0.59,1.01-0.61,1.66
					c-0.11,1.28,0.26,2.67,0.75,3.98c0.5,1.32,1.13,2.61,1.82,3.87c1.41,2.51,3.03,4.92,4.74,7.27c3.44,4.68,7.2,9.15,11.14,13.41
					l1.53,1.66l-2.18-0.58c-2.57-0.68-5.19-1.27-7.81-1.75c-2.62-0.47-5.27-0.86-7.89-0.93c-1.3-0.02-2.62,0.03-3.8,0.35
					c-0.57,0.17-1.1,0.43-1.39,0.78c-0.29,0.34-0.34,0.8-0.23,1.34c0.62,2.5,1.85,4.85,3.42,6.95c1.55,2.12,3.41,4.02,5.4,5.78
					c1.98,1.76,4.11,3.37,6.31,4.87c4.4,2.99,9.1,5.62,13.94,7.81l1.02,0.46l-0.9,0.65c-6.02,4.36-11.82,9.05-16.94,14.42
					c-2.47,2.75-4.93,5.54-6.82,8.7c-1.9,3.13-3.51,6.51-4.02,10.1c-0.29,1.78-0.26,3.61,0.13,5.34c0.13,0.4,0.22,0.95,0.35,1.04
					c0.14,0.17,0.41,0.23,0.62,0.15c0.13-0.02,0.59-0.46,0.93-0.73l1.09-0.91c2.96-2.35,6.1-4.41,9.28-6.38
					c6.39-3.92,12.97-7.47,19.7-10.78l2.7-1.33l-2.02,2.23c-4.54,5.03-8.7,10.45-11.73,16.48c-1.5,3.01-2.76,6.16-3.38,9.45
					c-0.64,3.27-0.63,6.68,0.24,9.87l0.38,1.18l0.47,1.14c0.18,0.34,0.39,0.78,0.55,1.05c0.15,0.23,0.4,0.37,0.67,0.39
					c0.27,0.02,0.55-0.07,0.74-0.26c0.11-0.11,0.15-0.17,0.26-0.38l0.31-0.57c0.42-0.75,0.81-1.53,1.26-2.26
					c1.74-2.97,3.81-5.73,5.99-8.37c4.4-5.27,9.32-10.05,14.69-14.34l1.86-1.49l-1.09,2.14c-2.61,5.14-4.69,10.64-5.19,16.38
					c-0.24,2.85-0.03,5.75,0.75,8.49c0.39,1.37,0.9,2.7,1.6,3.93c0.17,0.31,0.36,0.61,0.54,0.91c0.18,0.27,0.42,0.63,0.58,0.82
					c0.28,0.33,0.88,0.28,1.14-0.1l1.06-1.85c0.37-0.63,0.71-1.29,1.11-1.9l1.2-1.85l0.6-0.92l0.65-0.89l1.3-1.78l1.39-1.71
					c0.9-1.16,1.94-2.21,2.93-3.3c2.05-2.11,4.25-4.07,6.6-5.84c2.37-1.76,4.83-3.36,7.58-4.58l1.42-0.63l-0.85,1.35l-2.52,4.01
					c-0.76,1.38-1.48,2.78-2.22,4.17c-0.6,1.45-1.3,2.87-1.81,4.35c-0.49,1.49-1.04,2.97-1.34,4.51c-0.42,1.52-0.57,3.08-0.79,4.63
					l-0.09,2.34c-0.06,0.78,0.07,1.56,0.1,2.34c0.26,3.1,1.09,6.17,2.55,8.91c0.76,1.35,1.63,2.65,2.7,3.75
					c0.26,0.24,0.57,0.62,0.74,0.66c0.21,0.09,0.48,0.04,0.67-0.11c0.09-0.08,0.17-0.18,0.21-0.29l0.2-0.54l0.41-1.13
					c1.12-3,2.44-5.91,3.9-8.74c2.96-5.66,6.42-11.03,10.39-16.05l0.98-1.24l-0.21,1.58c-0.73,5.51-1.07,11.1-0.48,16.62
					c0.24,2.76,0.88,5.47,1.68,8.11c0.92,2.6,2.12,5.1,3.76,7.31c1.64,2.19,3.69,4.1,6.1,5.39c0.3,0.16,0.6,0.32,0.91,0.45l0.23,0.1
					c0.08,0.03,0.17,0.08,0.17,0.07c0.04,0.01,0.08,0,0.11-0.03c0.03-0.04,0.04-0.05,0.03-0.14l-0.03-0.53l-0.07-1.06l-0.14-2.12
					c-0.05-0.71,0.03-1.41,0.04-2.11c0.17-5.63,1.12-11.21,2.51-16.64c1.37-5.44,3.03-10.81,5.02-16.04
					c0.93-2.64,2.06-5.21,3.1-7.81l1.71-3.84c0.56-1.28,1.15-2.56,1.78-3.81c4.89-10.06,10.56-19.86,17.93-28.35
					c7.2-8.56,14.56-16.99,21.67-25.61c3.54-4.32,6.98-8.73,10.12-13.33c3.15-4.6,6-9.41,8.6-14.35c2.57-4.95,5.17-9.92,6.93-15.2
					c0.42-1.33,0.89-2.64,1.19-4l0.5-2.02l0.37-2.05l0.18-1.03l0.11-1.03l0.22-2.07c0.03-1.39,0.15-2.77,0.04-4.16
					c-0.01-1.39-0.22-2.76-0.38-4.14c-0.27-1.36-0.49-2.73-0.91-4.06c-0.75-2.67-1.8-5.26-3.16-7.68c-1.36-2.41-2.87-4.77-4.69-6.87
					c-1.82-2.09-3.84-4.02-5.99-5.78c-4.3-3.55-8.92-6.72-13.33-10.17c-4.42-3.44-8.67-7.12-12.55-11.16
					c-3.9-4.03-7.36-8.46-10.66-12.97c-3.33-4.49-6.56-9.06-9.93-13.52c-0.85-1.11-1.7-2.21-2.61-3.27
					c-0.45-0.53-0.92-1.04-1.42-1.51c-0.25-0.24-0.52-0.44-0.79-0.61c-0.14-0.07-0.28-0.13-0.38-0.13c-0.09,0-0.14,0.06-0.2,0.18
					c-0.4,1.24-0.22,2.68,0.06,4.02c0.29,1.35,0.71,2.68,1.19,3.99c1.97,5.21,4.66,10.14,7.58,14.89
					c2.96,4.73,6.15,9.35,10.03,13.36c3.77,4.18,6.77,8.95,9.49,13.84c2.69,4.91,4.98,10.04,6.81,15.34
					c0.93,2.64,1.68,5.34,2.37,8.06c0.62,2.73,1.17,5.48,1.48,8.27c0.32,2.78,0.5,5.59,0.41,8.39c-0.03,2.8-0.36,5.6-0.89,8.35
					c-0.5,2.76-1.39,5.44-2.4,8.05l-0.88,1.91l-0.44,0.95l-0.51,0.92l-1.03,1.83l-1.17,1.75c-1.58,2.32-3.46,4.41-5.28,6.53
					l-5.43,6.4c-3.58,4.29-7.11,8.64-10.43,13.13c-1.66,2.25-3.27,4.53-4.78,6.88c-1.5,2.35-2.87,4.8-4.14,7.28
					c-1.24,2.5-2.37,5.06-3.24,7.71c-0.42,1.33-0.81,2.67-1.06,4.04c-0.25,1.36-0.44,2.77-0.29,4.14L114.69,236.91z"/>
				<path class="st3" d="M116.47,115.91c-6.25-5.85-11.97-12.27-17.2-19.06c-5.2-6.81-9.86-14.07-13.66-21.77
					c-3.76-7.7-6.75-15.9-7.79-24.49c-0.51-4.28-0.48-8.66,0.39-12.91c0.84-4.25,2.53-8.34,5-11.91l0.41-0.59l0.29,0.66
					c2.09,4.76,4.42,9.45,6.86,14.06c2.45,4.61,5.02,9.15,7.81,13.56c2.78,4.41,5.77,8.7,9.02,12.78
					c3.25,4.08,6.83,7.92,10.89,11.21c-4.13-3.2-7.8-6.98-11.15-11c-3.37-4.01-6.39-8.29-9.24-12.68c-2.85-4.39-5.49-8.91-8-13.51
					c-2.47-4.61-4.81-9.29-6.94-14.09l0.7,0.07c-2.39,3.49-4.02,7.47-4.82,11.62C78.24,42,78.2,46.29,78.67,50.5
					c0.98,8.45,3.91,16.59,7.62,24.25c3.73,7.67,8.25,14.96,13.36,21.81C104.78,103.4,110.32,109.95,116.47,115.91z"/>
				<path class="st3" d="M100.89,101.66c-2.83,0.01-5.66-0.3-8.46-0.78c-1.4-0.26-2.78-0.59-4.15-0.99
					c-1.38-0.35-2.7-1.02-4.01-1.24c-0.65-0.1-1.33-0.08-1.79,0.25c-0.46,0.31-0.67,0.92-0.71,1.57c-0.07,1.31,0.33,2.68,0.82,3.95
					c0.25,0.64,0.55,1.26,0.9,1.84l1.11,1.81c0.73,1.21,1.47,2.4,2.24,3.59c3.01,4.76,6.35,9.32,10.21,13.41
					c1.93,2.05,4.02,3.94,6.31,5.56c1.15,0.8,2.34,1.55,3.61,2.17c1.27,0.6,2.59,1.1,3.97,1.45c-2.8-0.49-5.42-1.73-7.82-3.26
					c-2.38-1.57-4.54-3.44-6.55-5.45c-4.01-4.04-7.38-8.66-10.47-13.41c-0.76-1.2-1.49-2.41-2.22-3.63l-1.09-1.82
					c-0.38-0.64-0.68-1.3-0.94-1.97c-0.51-1.35-0.92-2.77-0.84-4.3c0.05-0.74,0.3-1.63,1.05-2.12c0.74-0.47,1.59-0.43,2.31-0.3
					c0.73,0.13,1.42,0.41,2.08,0.66c0.65,0.26,1.31,0.49,1.98,0.71c1.34,0.43,2.7,0.79,4.07,1.09
					C95.26,101.07,98.07,101.47,100.89,101.66z"/>
				<path class="st3" d="M90.12,119.04c-2.93-0.65-5.88-1.25-8.84-1.71c-2.96-0.46-5.95-0.86-8.91-0.82
					c-1.45,0.05-3.03,0.15-4.14,0.86c-0.56,0.34-0.67,0.95-0.7,1.67c-0.03,0.7,0.1,1.44,0.21,2.16c0.57,2.9,1.66,5.7,2.87,8.42
					c2.44,5.44,5.64,10.56,9.5,15.12c3.84,4.56,8.47,8.54,13.88,11.19c-2.78-1.15-5.38-2.73-7.79-4.54
					c-2.41-1.83-4.58-3.95-6.59-6.2c-2.02-2.25-3.81-4.7-5.44-7.24c-1.63-2.54-3.09-5.2-4.34-7.96c-1.21-2.77-2.29-5.62-2.86-8.63
					c-0.11-0.76-0.24-1.52-0.21-2.32c0.02-0.4,0.06-0.81,0.2-1.23c0.07-0.21,0.21-0.41,0.34-0.6c0.16-0.15,0.31-0.34,0.49-0.44
					c1.47-0.91,3.06-0.88,4.57-0.92C78.44,116.02,84.33,117.45,90.12,119.04z"/>
				<path class="st3" d="M75.74,143.39c-2.28,0.08-4.56,0.17-6.83,0.36c-2.27,0.17-4.55,0.38-6.74,0.87
					c-0.54,0.13-1.08,0.28-1.59,0.47c-0.49,0.19-1.01,0.47-1.15,0.78c-0.14,0.33-0.04,0.94,0.06,1.45c0.13,0.53,0.27,1.07,0.47,1.59
					c0.76,2.11,1.81,4.12,3,6.04c2.35,3.86,5.33,7.34,8.74,10.32c3.41,2.98,7.3,5.42,11.53,7.16c-2.18-0.69-4.28-1.64-6.29-2.74
					c-2-1.13-3.9-2.44-5.68-3.9c-3.56-2.92-6.59-6.47-9.05-10.37c-1.2-1.97-2.25-4.04-3.01-6.24c-0.19-0.55-0.34-1.12-0.47-1.7
					c-0.05-0.3-0.11-0.59-0.12-0.9c-0.01-0.31-0.02-0.65,0.13-1.02c0.41-0.73,1.04-0.93,1.58-1.15c0.57-0.2,1.14-0.33,1.71-0.44
					C66.59,143.19,71.18,143.23,75.74,143.39z"/>
				<path class="st3" d="M66.69,163.44c-2.44-0.04-4.88-0.06-7.31,0.06c-2.42,0.11-4.87,0.27-7.2,0.84
					c-0.58,0.14-1.14,0.34-1.65,0.59c-0.5,0.25-0.95,0.6-1.05,1.01c-0.17,0.99,0.32,2.2,0.81,3.25c1.04,2.14,2.54,4.07,4.16,5.84
					c3.24,3.58,7.2,6.48,11.45,8.8c4.26,2.33,8.85,4.02,13.58,5.23c-4.81-0.86-9.51-2.4-13.89-4.63c-2.2-1.1-4.29-2.42-6.26-3.89
					c-1.98-1.46-3.84-3.1-5.52-4.91c-1.64-1.84-3.16-3.82-4.24-6.09c-0.49-1.14-1.06-2.31-0.83-3.77c0.23-0.8,0.9-1.21,1.46-1.48
					c0.59-0.27,1.2-0.45,1.81-0.59c2.44-0.51,4.9-0.59,7.35-0.61C61.82,163.1,64.26,163.19,66.69,163.44z"/>
				<path class="st3" d="M59.41,181.75c-2.3,0.43-4.59,0.92-6.78,1.67c-1.1,0.37-2.18,0.8-3.13,1.4c-0.47,0.3-0.9,0.67-1.13,1.11
					c-0.27,0.44-0.11,0.88,0.07,1.44c0.8,2.11,2.22,3.98,3.94,5.48c1.72,1.52,3.73,2.67,5.8,3.68c4.18,1.96,8.74,3.03,13.33,3.76
					l3.46,0.47l3.48,0.28c1.16,0.13,2.33,0.18,3.49,0.21l3.5,0.15c-4.67,0.15-9.37,0.18-14.03-0.45c-4.65-0.6-9.28-1.68-13.61-3.64
					c-2.12-1.06-4.18-2.27-5.95-3.88c-1.76-1.6-3.28-3.55-4.04-5.86c-0.07-0.31-0.19-0.54-0.21-0.93c-0.03-0.35,0.06-0.72,0.24-1.01
					c0.34-0.59,0.86-0.97,1.37-1.29c1.05-0.61,2.17-1.01,3.3-1.34C54.78,182.39,57.09,181.98,59.41,181.75z"/>
				<path class="st3" d="M60.92,199.31c-1.42,1.51-2.9,2.95-4.41,4.38c-0.76,0.7-1.54,1.39-2.36,2.04c-0.2,0.17-0.42,0.32-0.64,0.47
					c-0.11,0.08-0.24,0.14-0.36,0.22l-0.09,0.05c-0.01,0.01-0.01,0.02-0.02,0.03c-0.01,0-0.03,0.02-0.04,0.06
					c-0.14,0.28-0.05,0.84,0.09,1.28c0.63,1.86,1.97,3.48,3.5,4.77c1.54,1.31,3.33,2.31,5.2,3.1c3.74,1.63,7.85,2.3,11.93,2.61
					c4.1,0.27,8.24,0.1,12.36-0.25c-4.08,0.72-8.24,1.06-12.4,0.92c-4.15-0.18-8.34-0.86-12.24-2.48c-1.93-0.84-3.78-1.9-5.38-3.3
					c-1.58-1.39-3.02-3.07-3.62-5.2c-0.06-0.27-0.12-0.54-0.14-0.83c0-0.29-0.02-0.59,0.17-0.93c0.03-0.15,0.36-0.35,0.41-0.37
					c0.1-0.06,0.21-0.11,0.31-0.18c0.21-0.14,0.42-0.27,0.62-0.43c0.83-0.6,1.62-1.26,2.41-1.92
					C57.82,202.06,59.36,200.67,60.92,199.31z"/>
				<path class="st3" d="M74.66,219.67c-1.48,3.76-2.94,7.49-4.86,11.12c-0.06,0.11-0.15,0.24-0.25,0.36l-0.07,0.09
					c0.02,0,0.05-0.07,0.06-0.11c0.01-0.09-0.01-0.08,0.01-0.06c0.07,0.1,0.27,0.27,0.46,0.39c0.39,0.26,0.83,0.48,1.27,0.68
					c0.9,0.39,1.84,0.7,2.8,0.94c1.92,0.49,3.9,0.76,5.89,0.87c3.98,0.27,7.99-0.13,11.92-0.88c3.93-0.76,7.79-1.94,11.57-3.34
					c-3.64,1.74-7.48,3.09-11.43,4c-3.95,0.9-8.04,1.31-12.11,1.1c-2.03-0.14-4.06-0.44-6.04-0.97c-0.99-0.27-1.96-0.6-2.91-1.02
					c-0.47-0.22-0.94-0.45-1.38-0.77c-0.22-0.17-0.44-0.31-0.64-0.63c-0.04-0.08-0.12-0.2-0.09-0.41c0.01-0.1,0.09-0.22,0.14-0.27
					l0.04-0.06c0.06-0.08,0.12-0.15,0.19-0.26c1.02-1.67,1.88-3.53,2.77-5.32L74.66,219.67z"/>
				<path class="st3" d="M98.15,233.16c-0.25,1.52-0.49,3.04-0.66,4.57c-0.19,1.52-0.35,3.05-0.41,4.58
					c-0.05,1.52-0.09,3.05,0.12,4.54c0.1,0.74,0.26,1.47,0.55,2.12c0.29,0.63,0.7,1.2,1.32,1.37c1.29,0.47,2.81,0.14,4.15-0.46
					c1.37-0.6,2.62-1.47,3.85-2.37c1.22-0.91,2.38-1.91,3.5-2.97c1.14-1.03,2.2-2.14,3.26-3.27c-1.83,2.49-3.94,4.77-6.34,6.76
					c-1.19,1-2.5,1.89-3.94,2.56c-1.42,0.65-3.13,1.12-4.79,0.55c-0.9-0.28-1.46-1.12-1.77-1.86c-0.32-0.77-0.47-1.56-0.57-2.35
					c-0.18-1.57-0.15-3.14,0-4.69C96.71,239.16,97.3,236.12,98.15,233.16z"/>
				<path class="st3" d="M145.21,129.47c-2.39-0.78-4.81-1.46-7.26-1.98c-2.44-0.54-4.92-0.95-7.41-1.07
					c-2.47-0.1-5.01-0.01-7.26,0.89c-1.11,0.45-2.12,1.14-2.84,2.08c-0.72,0.93-1.14,2.07-1.29,3.26c-0.35,2.38,0.27,4.85,1.39,7.03
					c1.09,2.21,2.63,4.2,4.25,6.08c1.64,1.88,3.46,3.61,5.36,5.25c1.88,1.65,3.87,3.19,5.93,4.64c-4.3-2.61-8.31-5.74-11.78-9.44
					c-1.73-1.85-3.29-3.89-4.46-6.17c-1.18-2.26-1.91-4.89-1.55-7.52c0.18-1.3,0.66-2.6,1.5-3.65c0.83-1.06,1.98-1.82,3.2-2.3
					c2.46-0.94,5.08-1.02,7.6-0.83C135.65,126.19,140.55,127.6,145.21,129.47z"/>
				<path class="st3" d="M129.11,152.04c-2.31-0.99-4.62-1.94-6.98-2.79c-2.34-0.86-4.73-1.66-7.15-2.15
					c-0.6-0.09-1.22-0.23-1.82-0.24c-0.3-0.01-0.61-0.06-0.89-0.01c-0.28,0.03-0.62,0.03-0.73,0.13c-0.37,0.27-0.68,0.82-0.89,1.35
					c-0.23,0.54-0.36,1.14-0.48,1.73c-0.39,2.4-0.11,4.9,0.64,7.22c1.45,4.72,4.74,8.69,8.56,11.81c3.85,3.16,8.31,5.52,12.89,7.54
					c-2.36-0.85-4.68-1.82-6.93-2.96c-2.23-1.17-4.38-2.5-6.39-4.05c-3.99-3.08-7.4-7.16-8.98-12.08c-0.76-2.45-1.03-5.07-0.59-7.63
					c0.13-0.64,0.28-1.27,0.54-1.88c0.27-0.6,0.55-1.23,1.21-1.7c0.43-0.25,0.76-0.19,1.09-0.23c0.34-0.04,0.66,0,0.99,0.03
					c0.66,0.03,1.27,0.19,1.9,0.31C120.05,147.67,124.64,149.78,129.11,152.04z"/>
				<path class="st3" d="M118.33,170.3c-2.28-0.04-4.57-0.05-6.84,0.05c-2.27,0.08-4.56,0.23-6.77,0.66
					c-1.08,0.23-2.22,0.51-3.05,1.09c-0.43,0.31-0.6,0.62-0.57,1.15c0.02,0.52,0.11,1.07,0.23,1.61c0.5,2.17,1.39,4.28,2.43,6.27
					c2.04,4.02,4.95,7.61,8.58,10.29c3.64,2.66,8.08,4.2,12.65,4.41c-2.29,0.07-4.59-0.24-6.8-0.88c-2.21-0.67-4.31-1.68-6.23-2.98
					c-3.82-2.64-6.81-6.35-8.97-10.43c-1.04-2.07-1.92-4.22-2.43-6.5c-0.12-0.57-0.22-1.15-0.23-1.78c-0.01-0.3,0.03-0.68,0.21-1.01
					c0.18-0.32,0.43-0.56,0.69-0.75c1.07-0.72,2.24-0.92,3.38-1.13C109.19,169.69,113.78,169.9,118.33,170.3z"/>
				<path class="st3" d="M109.26,191.22c-2.12-0.25-4.24-0.46-6.36-0.55c-2.12-0.11-4.25-0.16-6.33,0.11
					c-1.02,0.15-2.08,0.35-2.88,0.86c-0.39,0.25-0.66,0.59-0.7,0.99c-0.02,0.44,0.01,0.99,0.1,1.49c0.31,2.04,1.14,4,2.24,5.76
					c2.18,3.58,5.6,6.25,9.36,8.13c3.8,1.84,7.97,2.86,12.18,3.49c-4.25-0.28-8.52-1.14-12.47-2.88c-3.91-1.8-7.47-4.57-9.81-8.28
					c-1.13-1.87-1.97-3.92-2.28-6.11c-0.09-0.55-0.12-1.08-0.09-1.69c0.07-0.68,0.56-1.23,1.06-1.54c1.03-0.63,2.14-0.76,3.22-0.89
					C100.82,189.79,105.08,190.41,109.26,191.22z"/>
			</g>
		</g>
	</g>
</g>
</svg>
