<!-- Generator: Adobe Illustrator 24.1.2, SVG Export Plug-In  -->
<svg version="1.1" xmlns="http://www.w3.org/2000/svg" xmlns:xlink="http://www.w3.org/1999/xlink" x="0px" y="0px" width="371.7px"
	 height="377.84px" viewBox="0 0 371.7 377.84" style="overflow:visible;enable-background:new 0 0 371.7 377.84;"
	 xml:space="preserve">
<style type="text/css">
	.st0{fill:#FFFFFF;}
	.st1{fill:url(#SVGID_1_);}
	.st2{fill:url(#SVGID_2_);stroke:#F0FFFF;stroke-width:1.9759;stroke-miterlimit:10;}
	.st3{fill:url(#SVGID_3_);}
	.st4{fill:url(#SVGID_4_);}
	.st5{clip-path:url(#SVGID_6_);fill:#67A5DC;}
	.st6{clip-path:url(#SVGID_6_);fill:#F4F4F4;}
	.st7{fill:#F0FFFF;}
	.st8{clip-path:url(#SVGID_8_);fill:#67A5DC;}
	.st9{clip-path:url(#SVGID_8_);fill:#F4F4F4;}
	.st10{clip-path:url(#SVGID_10_);fill:#67A5DC;}
	.st11{clip-path:url(#SVGID_10_);fill:#F4F4F4;}
	.st12{clip-path:url(#SVGID_12_);fill:#67A5DC;}
	.st13{clip-path:url(#SVGID_12_);fill:#F4F4F4;}
	.st14{clip-path:url(#SVGID_14_);fill:#67A5DC;}
	.st15{clip-path:url(#SVGID_14_);fill:#F4F4F4;}
	.st16{clip-path:url(#SVGID_16_);fill:#67A5DC;}
	.st17{clip-path:url(#SVGID_16_);fill:#F4F4F4;}
	.st18{clip-path:url(#SVGID_18_);fill:#67A5DC;}
	.st19{clip-path:url(#SVGID_18_);fill:#F4F4F4;}
	.st20{fill:url(#SVGID_19_);}
	.st21{fill:none;stroke:#F0FFFF;stroke-width:2.2081;stroke-miterlimit:10;}
	.st22{fill:none;stroke:#F0FFFF;stroke-width:3.5484;stroke-miterlimit:10;}
	.st23{fill:url(#SVGID_20_);}
	.st24{fill:url(#SVGID_21_);stroke:#F0FFFF;stroke-width:1.9759;stroke-miterlimit:10;}
	.st25{fill:url(#SVGID_22_);}
	.st26{fill:url(#SVGID_23_);}
	.st27{clip-path:url(#SVGID_25_);fill:#67A5DC;}
	.st28{clip-path:url(#SVGID_25_);fill:#F4F4F4;}
	.st29{clip-path:url(#SVGID_27_);fill:#67A5DC;}
	.st30{clip-path:url(#SVGID_27_);fill:#F4F4F4;}
	.st31{clip-path:url(#SVGID_29_);fill:#67A5DC;}
	.st32{clip-path:url(#SVGID_29_);fill:#F4F4F4;}
	.st33{clip-path:url(#SVGID_31_);fill:#67A5DC;}
	.st34{clip-path:url(#SVGID_31_);fill:#F4F4F4;}
	.st35{clip-path:url(#SVGID_33_);fill:#67A5DC;}
	.st36{clip-path:url(#SVGID_33_);fill:#F4F4F4;}
	.st37{clip-path:url(#SVGID_35_);fill:#67A5DC;}
	.st38{clip-path:url(#SVGID_35_);fill:#F4F4F4;}
	.st39{clip-path:url(#SVGID_37_);fill:#67A5DC;}
	.st40{clip-path:url(#SVGID_37_);fill:#F4F4F4;}
	.st41{fill:url(#SVGID_38_);}
</style>
<defs>
</defs>
<g>
	<path class="st0" d="M216.04,52.4c1.64-2.35,2.4-3.71,2.78-4.69c2.47-3.65,4.46-6.86,5.73-8.95c0.22-0.37,0.4-0.76,0.54-1.17
		c2.13-3.76,3-7.87,2.53-11.93C225.89,11.03,207.58,0,185.05,0c-0.88,0-1.77,0.02-2.66,0.05c-14.45,0.57-27.21,5.76-34.13,13.87
		c-4.05,4.74-5.84,10.17-5.18,15.71c0.15,1.25,0.44,2.53,0.86,3.81c0.11,0.44,0.27,0.88,0.48,1.3c0.58,1.42,1.33,2.81,2.24,4.15
		l0.28,0.51c2.05,3.84,4.57,8.54,7.36,13.21C112.54,58.92,74.32,77.75,46.16,106C16.39,135.86,0,174.23,0,214.04
		c0,90.32,83.37,163.79,185.85,163.79S371.7,304.36,371.7,214.04C371.7,133.71,305.24,65.24,216.04,52.4z M336.9,216.67
		c0,72.13-67.47,130.8-150.41,130.8S36.08,288.8,36.08,216.67c0-72.13,67.47-130.8,150.41-130.8S336.9,144.55,336.9,216.67z"/>
	<g>
		<g>
			<g>
				<radialGradient id="SVGID_1_" cx="185.8477" cy="214.0426" r="171.1755" gradientUnits="userSpaceOnUse">
					<stop  offset="0" style="stop-color:#DA8F22"/>
					<stop  offset="0.1981" style="stop-color:#DB9423"/>
					<stop  offset="0.4177" style="stop-color:#E0A127"/>
					<stop  offset="0.6476" style="stop-color:#E7B72C"/>
					<stop  offset="0.8831" style="stop-color:#F0D634"/>
					<stop  offset="1" style="stop-color:#F6E839"/>
				</radialGradient>
				<path class="st1" d="M185.85,54.25C85.42,54.25,4,125.79,4,214.04c0,88.25,81.42,159.79,181.85,159.79
					s181.85-71.54,181.85-159.79C367.69,125.79,286.28,54.25,185.85,54.25z M186.49,351.48c-85.28,0-154.41-60.35-154.41-134.8
					s69.13-134.8,154.41-134.8s154.41,60.35,154.41,134.8S271.76,351.48,186.49,351.48z"/>
			</g>
			<g>
				<linearGradient id="SVGID_2_" gradientUnits="userSpaceOnUse" x1="147.7598" y1="51.7367" x2="221.4543" y2="51.7367">
					<stop  offset="0" style="stop-color:#67A5DC"/>
					<stop  offset="0.1524" style="stop-color:#6CA8DD"/>
					<stop  offset="0.324" style="stop-color:#79AFDF"/>
					<stop  offset="0.5049" style="stop-color:#90BCE3"/>
					<stop  offset="0.6922" style="stop-color:#AFCDE8"/>
					<stop  offset="0.8826" style="stop-color:#D7E4EF"/>
					<stop  offset="1" style="stop-color:#F4F4F4"/>
				</linearGradient>
				<path class="st2" d="M151.29,29.38l67.19,3.63c2.27,0.12,3.64,2.03,2.64,3.68c-5.79,9.6-22.97,36.11-36.87,37.36
					c-15.16,1.36-28.98-27.9-36.22-41.02C147.05,31.25,148.84,29.25,151.29,29.38z"/>
				<linearGradient id="SVGID_3_" gradientUnits="userSpaceOnUse" x1="146.9445" y1="27.6481" x2="223.7534" y2="27.6481">
					<stop  offset="0" style="stop-color:#67A5DC"/>
					<stop  offset="0.1524" style="stop-color:#6CA8DD"/>
					<stop  offset="0.324" style="stop-color:#79AFDF"/>
					<stop  offset="0.5049" style="stop-color:#90BCE3"/>
					<stop  offset="0.6922" style="stop-color:#AFCDE8"/>
					<stop  offset="0.8826" style="stop-color:#D7E4EF"/>
					<stop  offset="1" style="stop-color:#F4F4F4"/>
				</linearGradient>
				<path class="st3" d="M223.65,26.13c1.55,13.03-14.35,24.28-35.5,25.11c-21.15,0.84-39.55-9.05-41.1-22.08
					s14.35-24.28,35.5-25.11S222.1,13.1,223.65,26.13z"/>
				<linearGradient id="SVGID_4_" gradientUnits="userSpaceOnUse" x1="162.4125" y1="18.3862" x2="211.8836" y2="18.3862">
					<stop  offset="0" style="stop-color:#67A5DC"/>
					<stop  offset="0.4198" style="stop-color:#69A6DC"/>
					<stop  offset="0.571" style="stop-color:#70AADD"/>
					<stop  offset="0.6787" style="stop-color:#7BB0DF"/>
					<stop  offset="0.7659" style="stop-color:#8CBAE2"/>
					<stop  offset="0.8405" style="stop-color:#A2C6E6"/>
					<stop  offset="0.9066" style="stop-color:#BED5EB"/>
					<stop  offset="0.9649" style="stop-color:#DDE7F0"/>
					<stop  offset="1" style="stop-color:#F4F4F4"/>
				</linearGradient>
				<path class="st4" d="M211.82,17.41c0.97,7.83-9.28,14.62-22.91,15.16c-13.63,0.54-25.46-5.37-26.43-13.21
					s9.28-14.62,22.91-15.16S210.85,9.58,211.82,17.41z"/>
				<g>
					<g>
						<defs>
							<line id="SVGID_5_" x1="162.48" y1="19.36" x2="148.14" y2="22.99"/>
						</defs>
						<clipPath id="SVGID_6_">
							<use xlink:href="#SVGID_5_"  style="overflow:visible;"/>
						</clipPath>
						<path class="st5" d="M148.14,19.36v3.63V19.36z"/>
						<rect x="148.14" y="19.36" class="st5" width="7.17" height="3.63"/>
						<rect x="155.31" y="19.36" class="st6" width="7.17" height="3.63"/>
						<path class="st6" d="M162.48,22.99v-3.63V22.99z"/>
					</g>
					
						<rect x="147.91" y="20.07" transform="matrix(0.9694 -0.2454 0.2454 0.9694 -0.4474 38.7675)" class="st7" width="14.79" height="2.21"/>
				</g>
				<g>
					<g>
						<defs>
							<line id="SVGID_7_" x1="165.82" y1="25.49" x2="151.9" y2="37.23"/>
						</defs>
						<clipPath id="SVGID_8_">
							<use xlink:href="#SVGID_7_"  style="overflow:visible;"/>
						</clipPath>
						<path class="st8" d="M151.9,25.49v11.74V25.49z"/>
						<rect x="151.9" y="25.49" class="st8" width="6.96" height="11.74"/>
						<rect x="158.86" y="25.49" class="st9" width="6.96" height="11.74"/>
						<path class="st9" d="M165.82,37.23V25.49V37.23z"/>
					</g>
					
						<rect x="149.75" y="30.26" transform="matrix(0.7643 -0.6449 0.6449 0.7643 17.2202 109.8341)" class="st7" width="18.21" height="2.21"/>
				</g>
				<g>
					<g>
						<defs>
							<line id="SVGID_9_" x1="211.82" y1="17.41" x2="221.63" y2="22.22"/>
						</defs>
						<clipPath id="SVGID_10_">
							<use xlink:href="#SVGID_9_"  style="overflow:visible;"/>
						</clipPath>
						<path class="st10" d="M211.82,17.41v4.81V17.41z"/>
						<rect x="211.82" y="17.41" class="st10" width="4.91" height="4.81"/>
						<rect x="216.72" y="17.41" class="st11" width="4.91" height="4.81"/>
						<path class="st11" d="M221.63,22.22v-4.81V22.22z"/>
					</g>
					
						<rect x="215.62" y="14.35" transform="matrix(0.44 -0.898 0.898 0.44 103.5792 205.7161)" class="st7" width="2.21" height="10.92"/>
				</g>
				<g>
					<g>
						<defs>
							<line id="SVGID_11_" x1="208.46" y1="25.93" x2="219.58" y2="37.75"/>
						</defs>
						<clipPath id="SVGID_12_">
							<use xlink:href="#SVGID_11_"  style="overflow:visible;"/>
						</clipPath>
						<path class="st12" d="M208.46,25.93v11.81V25.93z"/>
						<rect x="208.46" y="25.93" class="st12" width="5.56" height="11.81"/>
						<rect x="214.02" y="25.93" class="st13" width="5.56" height="11.81"/>
						<path class="st13" d="M219.58,37.75V25.93V37.75z"/>
					</g>
					
						<rect x="212.92" y="23.73" transform="matrix(0.728 -0.6855 0.6855 0.728 36.3755 155.3753)" class="st7" width="2.21" height="16.23"/>
				</g>
				<g>
					<g>
						<defs>
							<line id="SVGID_13_" x1="198.56" y1="31.65" x2="201.85" y2="47.51"/>
						</defs>
						<clipPath id="SVGID_14_">
							<use xlink:href="#SVGID_13_"  style="overflow:visible;"/>
						</clipPath>
						<path class="st14" d="M198.56,31.65v15.85V31.65z"/>
						<rect x="198.56" y="31.65" class="st14" width="1.65" height="15.85"/>
						<rect x="200.21" y="31.65" class="st15" width="1.65" height="15.85"/>
						<path class="st15" d="M201.85,47.51V31.65V47.51z"/>
					</g>
					
						<rect x="199.1" y="31.48" transform="matrix(0.9791 -0.2033 0.2033 0.9791 -3.8656 41.5314)" class="st7" width="2.21" height="16.19"/>
				</g>
				<g>
					<g>
						<defs>
							<line id="SVGID_15_" x1="184.22" y1="32.75" x2="180.62" y2="49.41"/>
						</defs>
						<clipPath id="SVGID_16_">
							<use xlink:href="#SVGID_15_"  style="overflow:visible;"/>
						</clipPath>
						<path class="st16" d="M180.62,32.75v16.66V32.75z"/>
						<rect x="180.62" y="32.75" class="st16" width="1.8" height="16.66"/>
						<rect x="182.42" y="32.75" class="st17" width="1.8" height="16.66"/>
						<path class="st17" d="M184.22,49.41V32.75V49.41z"/>
					</g>
					
						<rect x="173.9" y="39.98" transform="matrix(0.2114 -0.9774 0.9774 0.2114 103.6992 210.6935)" class="st7" width="17.04" height="2.21"/>
				</g>
				<g>
					<g>
						<defs>
							<line id="SVGID_17_" x1="173.52" y1="31.58" x2="164.53" y2="46.85"/>
						</defs>
						<clipPath id="SVGID_18_">
							<use xlink:href="#SVGID_17_"  style="overflow:visible;"/>
						</clipPath>
						<path class="st18" d="M164.53,31.58v15.27V31.58z"/>
						<rect x="164.53" y="31.58" class="st18" width="4.49" height="15.27"/>
						<rect x="169.02" y="31.58" class="st19" width="4.49" height="15.27"/>
						<path class="st19" d="M173.52,46.85V31.58V46.85z"/>
					</g>
					
						<rect x="160.16" y="38.11" transform="matrix(0.5072 -0.8618 0.8618 0.5072 49.4978 164.9967)" class="st7" width="17.72" height="2.21"/>
				</g>
				<radialGradient id="SVGID_19_" cx="185.8842" cy="60.9869" r="23.4986" gradientUnits="userSpaceOnUse">
					<stop  offset="0" style="stop-color:#DA8F22"/>
					<stop  offset="0.1981" style="stop-color:#DB9423"/>
					<stop  offset="0.4177" style="stop-color:#E0A127"/>
					<stop  offset="0.6476" style="stop-color:#E7B72C"/>
					<stop  offset="0.8831" style="stop-color:#F0D634"/>
					<stop  offset="1" style="stop-color:#F6E839"/>
				</radialGradient>
				<path class="st20" d="M156.53,46.57c0,0,8.56,27.82,23.56,29.79s21.44-10.24,32.53-26.03s-16.33,11.23-21.24,15.35
					c-3.58,3-5.66-14.25-6.65-11.99c-3.63,8.36-4.69,7.89-6.66,10.67C174.27,69.74,172.05,64.6,156.53,46.57z"/>
				
					<ellipse transform="matrix(2.188675e-03 -1 1 2.188675e-03 168.3522 205.4935)" class="st21" cx="187.15" cy="18.39" rx="14.22" ry="24.73"/>
				
					<ellipse transform="matrix(8.699360e-03 -1 1 8.699360e-03 156.0895 212.7495)" class="st22" cx="185.35" cy="27.65" rx="23.65" ry="38.4"/>
			</g>
		</g>
	</g>
</g>
</svg>
