<!-- Generator: Adobe Illustrator 24.1.2, SVG Export Plug-In  -->
<svg version="1.1" xmlns="http://www.w3.org/2000/svg" xmlns:xlink="http://www.w3.org/1999/xlink" x="0px" y="0px"
	 width="370.81px" height="225.55px" viewBox="0 0 370.81 225.55"
	 style="overflow:visible;enable-background:new 0 0 370.81 225.55;" xml:space="preserve">
<style type="text/css">
	.st0{fill:#FFFFFF;}
	.st1{fill:#222221;}
	.st2{fill:#F99A10;}
	.st3{fill:#F2B122;}
	.st4{opacity:0.65;fill:#E2810E;}
</style>
<defs>
</defs>
<g>
	<path class="st0" d="M369.78,141.36l-28.58-31.62c-0.9-1-2.26-1.48-3.59-1.27c-0.3,0.05-28.31,4.38-45.01,1.1
		c-0.27-3.78-1.53-7.46-3.68-10.62l-0.06-0.08c-1.49-2.19-2.29-4.75-2.35-7.35c12.84,1.64,29.19,1.16,42.31-7.62l31.45,18.89
		c1.79,1.08,4.12,0.59,5.33-1.12c1.21-1.71,0.9-4.06-0.72-5.39l-32.87-27.13c-1.04-0.86-2.45-1.14-3.73-0.73
		c-0.24,0.07-22.5,6.94-39.38,7.62c-0.67-6.61-4.37-12.7-10.12-16.28l-1.07-0.67c-1.24-0.77-2.35-1.74-3.28-2.86
		c11.05-2.35,20-6.82,26.72-13.34l34.32,12.95c1.96,0.74,4.16-0.16,5.04-2.05s0.15-4.16-1.67-5.18l-37.2-20.8
		c-1.18-0.66-2.61-0.68-3.8-0.05c-0.15,0.08-14.35,7.46-28.61,12.1c-3.01-6.42-9.02-11.04-16.22-12.17l-2.86-0.45
		c-4.16-0.66-7.73-3.14-9.79-6.82l-1.15-2.05c-4.71-8.43-14.56-12.74-23.95-10.49l-3.78,0.91c-3.94,0.94-8.06,0.1-11.32-2.31
		l-2.93-2.17c-7.71-5.71-18.07-5.71-25.78,0l-2.93,2.17c-3.25,2.41-7.38,3.25-11.32,2.31l-3.78-0.91
		c-9.39-2.25-19.24,2.06-23.95,10.49l-1.15,2.05c-2.06,3.68-5.62,6.16-9.79,6.82l-2.86,0.45c-5.87,0.93-11.05,4.23-14.39,9.04
		C87.13,32.07,73.12,24.78,72.97,24.7c-1.2-0.63-2.63-0.61-3.81,0.05l-37.2,20.8c-1.83,1.02-2.56,3.28-1.67,5.18
		c0.88,1.9,3.08,2.79,5.04,2.05l34.32-12.95c6.67,6.48,15.57,10.94,26.54,13.3c-1.1,2.43-2.9,4.5-5.22,5.94l-1.08,0.67
		c-4.81,2.99-8.23,7.75-9.58,13.16c-16.67-1.02-37.57-7.47-37.79-7.54c-1.29-0.4-2.69-0.13-3.73,0.73L5.93,93.23
		C4.31,94.57,4,96.92,5.21,98.63c1.21,1.71,3.53,2.2,5.33,1.12l31.45-18.89c12.52,8.37,27.97,9.13,39.97,7.89
		c0.64,3.49-0.1,7.12-2.13,10.11l-0.07,0.1c-1.62,2.39-2.74,5.07-3.3,7.88c-16.87,2.67-42.98-1.36-43.26-1.4
		c-1.33-0.21-2.68,0.27-3.59,1.27L1.03,138.32c-1.4,1.55-1.37,3.93,0.07,5.44c1.44,1.51,3.81,1.66,5.43,0.33l28.37-23.26
		c14.6,6.95,31.28,4.8,43.94,1.12c0.39,0.64,0.83,1.27,1.31,1.89l0.06,0.09c0.02,0.03,0.04,0.06,0.07,0.09
		c0.18,0.24,0.36,0.47,0.54,0.7c-4.16,4.63-5.23,10.91-2.47,16.47c1.22,2.45,0.82,5.13-1.13,7.44c-2.74,3.23-4.01,7.2-3.58,11.18
		c0.45,4.16,2.71,7.99,6.36,10.78l0.36,0.28c2.53,1.94,3.69,4.54,3.18,7.13l-0.03,0.17c-1.57,7.98,3.84,15.72,12.87,18.39l1.75,0.52
		c3.42,1.01,6.04,3.17,7.01,5.78l0.39,1.05c2.65,7.1,10.72,11.88,19.57,11.59l3.14-0.1c3.67-0.12,7.25,1.09,9.6,3.21l1.83,1.65
		c5.73,5.18,14.76,6.73,22.49,3.86l3.18-1.18c3.33-1.24,7.14-1.24,10.47,0l3.18,1.18c2.58,0.96,5.31,1.42,8.02,1.42
		c5.38,0,10.66-1.84,14.47-5.29l1.83-1.65c2.35-2.12,5.94-3.31,9.6-3.21l3.14,0.1c8.87,0.29,16.92-4.49,19.57-11.59l0.39-1.05
		c0.97-2.6,3.59-4.76,7.01-5.78l1.75-0.52c9.03-2.68,14.45-10.41,12.87-18.39l-0.03-0.18c-0.51-2.59,0.65-5.19,3.19-7.13l0.36-0.28
		c2.54-1.95,4.4-4.37,5.45-7.09l1.04-0.39c9.64-3.57,15.48-13.53,13.87-23.69l-0.04-0.24c-0.7-4.43,0.82-8.92,4.06-12.01l0.41-0.39
		c0.92-0.88,1.76-1.84,2.51-2.87c13.59,4.48,31.7,7.46,47.42-0.04l28.37,23.26c1.62,1.33,3.99,1.18,5.43-0.33
		C371.15,145.29,371.18,142.92,369.78,141.36z"/>
	<g>
		<g>
			<g>
				<path class="st1" d="M96.42,110.59c0,0-35.87,20.06-62.02,5.47L4,140.99l28.58-31.62c0,0,42.56,6.69,55.94-2.43
					S96.42,110.59,96.42,110.59z"/>
				<path class="st1" d="M104.33,79.65c0,0-38.41,14.64-62.15-3.6L8.47,96.3l32.87-27.13c0,0,41.14,12.8,55.7,5.72
					S104.33,79.65,104.33,79.65z"/>
				<path class="st1" d="M131.21,49.83c0,0-40.41,7.52-60.5-14.67L33.92,49.04l37.2-20.8c0,0,38.18,19.96,53.77,15.61
					S131.21,49.83,131.21,49.83z"/>
				<path class="st1" d="M274.4,113.63c0,0,35.87,20.06,62.02,5.47l30.4,24.93l-28.58-31.62c0,0-42.56,6.69-55.94-2.43
					S274.4,113.63,274.4,113.63z"/>
				<path class="st1" d="M266.49,82.69c0,0,38.41,14.64,62.15-3.6l33.7,20.25l-32.87-27.13c0,0-41.14,12.8-55.7,5.72
					C259.22,70.86,266.49,82.69,266.49,82.69z"/>
				<path class="st1" d="M239.6,52.87c0,0,40.41,7.52,60.5-14.67l36.78,13.88l-37.2-20.8c0,0-38.18,19.96-53.77,15.61
					S239.6,52.87,239.6,52.87z"/>
			</g>
			<path class="st2" d="M194.86,7.48l2.93,2.17c4.2,3.11,9.55,4.2,14.63,2.98l3.78-0.91c7.69-1.84,15.67,1.65,19.53,8.55l1.15,2.05
				c2.64,4.72,7.31,7.97,12.65,8.82l2.86,0.45c8.14,1.29,14.3,8.03,14.86,16.25l0.05,0.79c0.38,5.67,3.47,10.81,8.3,13.81l1.08,0.67
				c7.26,4.51,10.25,13.58,7.09,21.53v0c-2.16,5.44-1.49,11.6,1.8,16.44l0.06,0.09c4.84,7.14,3.82,16.73-2.42,22.69l-0.41,0.39
				c-4.19,4-6.15,9.8-5.25,15.52l0.04,0.24c1.31,8.31-3.42,16.39-11.31,19.31l-1.97,0.73c-5.2,1.93-9.2,6.19-10.79,11.5l-0.44,1.48
				c-2.31,7.72-9.55,12.9-17.61,12.59l-3.52-0.14c-5.29-0.21-10.4,1.97-13.91,5.94l-2.05,2.32c-5.17,5.84-13.57,7.6-20.65,4.31
				l-3.56-1.65c-4.71-2.19-10.15-2.19-14.86,0l-3.56,1.65c-7.08,3.28-15.48,1.53-20.65-4.31l-2.05-2.32
				c-3.51-3.97-8.62-6.15-13.91-5.94l-3.52,0.14c-8.06,0.31-15.3-4.87-17.61-12.59l-0.44-1.48c-1.59-5.32-5.58-9.58-10.79-11.5
				l-1.97-0.73c-7.89-2.92-12.62-11-11.31-19.31l0.04-0.24c0.9-5.72-1.06-11.52-5.25-15.52l-0.41-0.39
				c-6.24-5.96-7.26-15.55-2.42-22.69l0.06-0.09c3.29-4.84,3.96-11,1.8-16.44l0,0c-3.16-7.95-0.17-17.01,7.09-21.53l1.08-0.67
				c4.83-3,7.92-8.14,8.3-13.81l0.05-0.79c0.56-8.22,6.72-14.97,14.86-16.25l2.86-0.45c5.35-0.85,10.01-4.1,12.65-8.82l1.15-2.05
				c3.86-6.9,11.84-10.39,19.53-8.55l3.78,0.91c5.08,1.22,10.43,0.13,14.63-2.98l2.93-2.17C180.08,2.86,188.61,2.86,194.86,7.48z"/>
			<path class="st3" d="M179.97,84.32l2.61,1.55c3.74,2.22,8.52,3,13.04,2.13l3.37-0.65c6.86-1.32,13.97,1.18,17.42,6.1l1.02,1.47
				c2.36,3.37,6.51,5.69,11.28,6.3l2.55,0.32c7.26,0.92,12.75,5.73,13.25,11.6l0.05,0.57c0.34,4.05,3.1,7.72,7.4,9.86l0.96,0.48
				c6.48,3.22,9.14,9.69,6.32,15.37v0c-1.93,3.88-1.33,8.28,1.6,11.74l0.06,0.07c4.32,5.1,3.41,11.94-2.15,16.2l-0.36,0.28
				c-3.74,2.86-5.48,7-4.68,11.08l0.03,0.17c1.17,5.93-3.05,11.7-10.09,13.79l-1.75,0.52c-4.64,1.38-8.2,4.42-9.62,8.21l-0.39,1.05
				c-2.06,5.51-8.52,9.21-15.7,8.99l-3.14-0.1c-4.72-0.15-9.27,1.41-12.4,4.24l-1.83,1.65c-4.61,4.17-12.1,5.42-18.42,3.08
				l-3.18-1.18c-4.2-1.56-9.05-1.56-13.25,0l-3.18,1.18c-6.31,2.34-13.8,1.09-18.42-3.08l-1.83-1.65c-3.13-2.83-7.68-4.39-12.4-4.24
				l-3.14,0.1c-7.18,0.22-13.64-3.47-15.7-8.99l-0.39-1.05c-1.42-3.79-4.98-6.84-9.62-8.21l-1.75-0.52
				c-7.03-2.09-11.26-7.85-10.09-13.79l0.03-0.17c0.8-4.08-0.94-8.23-4.68-11.08l-0.36-0.28c-5.56-4.25-6.47-11.1-2.15-16.2
				l0.06-0.07c2.93-3.46,3.53-7.85,1.6-11.74l0,0c-2.82-5.67-0.15-12.14,6.32-15.37l0.96-0.48c4.3-2.14,7.06-5.81,7.4-9.86
				l0.05-0.57c0.5-5.87,5.99-10.68,13.25-11.6l2.55-0.32c4.77-0.6,8.92-2.92,11.28-6.3l1.02-1.47c3.44-4.93,10.56-7.42,17.42-6.1
				l3.37,0.65c4.53,0.87,9.3,0.09,13.04-2.13l2.61-1.55C166.79,81.02,174.4,81.02,179.97,84.32z"/>
			<path class="st1" d="M152.91,124.23c-2.05-1.82-4.14-2.86-6.29-3.8c-2.15-0.91-4.35-1.61-6.57-2.1
				c-2.22-0.47-4.44-0.76-6.65-0.65c-2.2,0.12-4.4,0.62-6.7,2.17c0.25-1.37,1.02-2.66,2.07-3.69c1.05-1.04,2.38-1.8,3.77-2.31
				c2.81-1,5.81-1,8.58-0.39c2.78,0.62,5.39,1.86,7.58,3.66c1.09,0.91,2.07,1.96,2.83,3.16
				C152.28,121.48,152.85,122.84,152.91,124.23z"/>
			<path class="st1" d="M214.04,124.92c-2.4-1.33-4.66-1.89-6.97-2.33c-2.3-0.42-4.6-0.62-6.87-0.61c-2.27,0.02-4.5,0.23-6.63,0.82
				c-2.12,0.6-4.16,1.56-6.06,3.58c-0.05-1.39,0.42-2.82,1.21-4.06c0.8-1.24,1.93-2.28,3.17-3.08c2.52-1.58,5.45-2.24,8.29-2.26
				c2.84,0,5.66,0.64,8.19,1.91c1.26,0.65,2.45,1.46,3.45,2.47C212.82,122.38,213.67,123.58,214.04,124.92z"/>
			<path class="st1" d="M186.57,184.26c-1.6,4.47-4.3,8.51-8.15,11.73c-1.92,1.58-4.15,2.93-6.65,3.83
				c-2.48,0.89-5.14,1.33-7.85,1.23c-2.7-0.12-5.48-0.8-7.94-2.2c-1.22-0.71-2.38-1.54-3.33-2.52c-0.5-0.47-0.94-0.99-1.37-1.5
				c-0.4-0.54-0.8-1.07-1.14-1.63c-1.4-2.22-2.23-4.58-2.75-6.91c-0.51-2.35-0.74-4.67-0.68-7.07c2.91,3.76,5.21,7.69,8.06,10.33
				c2.79,2.69,5.86,3.85,9.48,4.02c0.89,0.05,1.81,0.03,2.72-0.08c0.92-0.08,1.84-0.24,2.76-0.45c1.82-0.4,3.65-1.1,5.51-1.96
				C178.93,189.36,182.53,186.79,186.57,184.26z"/>
			<g>
				<g>
					
						<ellipse transform="matrix(0.2344 -0.9721 0.9721 0.2344 -37.7801 245.7693)" class="st0" cx="137.15" cy="146.87" rx="18.04" ry="18.04"/>
					<path class="st1" d="M137.11,166.17c-3.93,0-7.75-1.2-11.03-3.5c-4.22-2.96-7.03-7.38-7.93-12.46s0.25-10.19,3.2-14.41
						c2.96-4.22,7.38-7.03,12.46-7.93c5.07-0.89,10.19,0.24,14.41,3.2c4.22,2.96,7.03,7.38,7.93,12.46l0,0
						c0.89,5.08-0.25,10.19-3.2,14.41c-2.96,4.22-7.38,7.03-12.46,7.93C139.36,166.07,138.23,166.17,137.11,166.17z M137.18,130.07
						c-0.98,0-1.96,0.08-2.94,0.26c-4.42,0.78-8.27,3.23-10.85,6.9s-3.57,8.13-2.79,12.55s3.23,8.27,6.9,10.85
						c3.67,2.58,8.13,3.57,12.55,2.79c4.42-0.78,8.27-3.23,10.85-6.9s3.57-8.13,2.79-12.55l0,0c-0.78-4.42-3.23-8.27-6.9-10.85
						C143.93,131.11,140.6,130.07,137.18,130.07z"/>
				</g>
				<g>
					
						<ellipse transform="matrix(0.2344 -0.9721 0.9721 0.2344 -41.7065 249.5858)" class="st1" cx="137.61" cy="151.27" rx="10.74" ry="10.74"/>
				</g>
			</g>
			<g>
				<g>
					
						<ellipse transform="matrix(0.9108 -0.4128 0.4128 0.9108 -44.3839 97.1332)" class="st0" cx="202.62" cy="151.29" rx="18.04" ry="18.04"/>
					<path class="st1" d="M202.6,170.59c-2.88,0-5.75-0.65-8.42-1.95c-4.63-2.25-8.11-6.18-9.8-11.05
						c-3.47-10.05,1.88-21.06,11.93-24.53c10.05-3.48,21.06,1.88,24.53,11.93c1.68,4.87,1.37,10.1-0.88,14.74s-6.18,8.11-11.05,9.79
						C206.86,170.24,204.73,170.59,202.6,170.59z M202.61,134.49c-1.82,0-3.66,0.3-5.47,0.92c-8.75,3.03-13.41,12.61-10.39,21.36
						c1.46,4.24,4.49,7.66,8.53,9.62c4.04,1.96,8.59,2.24,12.83,0.77s7.66-4.49,9.62-8.53c1.96-4.03,2.24-8.59,0.77-12.83
						C216.1,138.86,209.57,134.49,202.61,134.49z"/>
				</g>
				<g>
					
						<ellipse transform="matrix(0.9108 -0.4128 0.4128 0.9108 -45.8504 97.9302)" class="st1" cx="203.73" cy="155.08" rx="10.74" ry="10.74"/>
				</g>
			</g>
			<path class="st4" d="M264.41,146.1l-0.06-0.07c-3.05-3.6-3.67-8.17-1.67-12.21v0c2.93-5.9,0.16-12.63-6.58-15.98l-1-0.5
				c-4.48-2.23-7.34-6.04-7.7-10.25l-0.05-0.59c-0.52-6.1-6.23-11.11-13.78-12.07l-2.65-0.34c-4.96-0.63-9.28-3.04-11.73-6.55
				l-1.07-1.52c-3.58-5.12-10.98-7.72-18.11-6.35l-3.51,0.67c-4.71,0.9-9.68,0.09-13.57-2.21l-2.72-1.61
				c-5.79-3.43-13.71-3.43-19.5,0l-2.72,1.61c-3.89,2.31-8.86,3.12-13.57,2.21l-3.51-0.67c-7.13-1.37-14.53,1.22-18.11,6.35
				l-1.07,1.52c-2.45,3.51-6.78,5.92-11.73,6.55l-2.65,0.34c-7.55,0.96-13.27,5.96-13.78,12.07l-0.05,0.59
				c-0.36,4.21-3.22,8.03-7.7,10.25l-1,0.5c-1.02,0.51-1.93,1.1-2.77,1.74c0.81,1.38,1.81,2.66,3.02,3.81l0.41,0.39
				c0.25,0.24,0.49,0.48,0.72,0.73c0.52-0.34,1.07-0.67,1.66-0.96l0.96-0.48c4.3-2.14,7.06-5.81,7.4-9.86l0.05-0.57
				c0.5-5.87,5.99-10.68,13.25-11.6l2.55-0.32c4.77-0.6,8.92-2.92,11.28-6.3l1.02-1.46c3.44-4.93,10.56-7.42,17.42-6.1l3.37,0.65
				c4.53,0.87,9.3,0.09,13.04-2.13l2.61-1.55c5.57-3.3,13.18-3.3,18.74,0l2.61,1.55c3.74,2.22,8.52,3,13.04,2.13l3.37-0.65
				c6.86-1.32,13.97,1.18,17.42,6.1l1.02,1.46c2.36,3.37,6.51,5.69,11.28,6.3l2.55,0.32c7.26,0.92,12.75,5.73,13.25,11.6l0.05,0.57
				c0.34,4.05,3.1,7.72,7.4,9.86l0.96,0.48c6.48,3.22,9.14,9.69,6.32,15.37h0c-1.93,3.88-1.33,8.28,1.6,11.74l0.06,0.07
				c2.38,2.81,3.16,6.15,2.46,9.29c0.32-0.14,0.62-0.3,0.95-0.42l1.79-0.66C268.07,154.86,267.71,149.99,264.41,146.1z"/>
		</g>
	</g>
</g>
</svg>
