<!-- Generator: Adobe Illustrator 24.1.2, SVG Export Plug-In  -->
<svg version="1.1" xmlns="http://www.w3.org/2000/svg" xmlns:xlink="http://www.w3.org/1999/xlink" x="0px" y="0px"
	 width="312.15px" height="371.16px" viewBox="0 0 312.15 371.16"
	 style="overflow:visible;enable-background:new 0 0 312.15 371.16;" xml:space="preserve">
<style type="text/css">
	.st0{fill:#FFFFFF;}
	.st1{fill:#AEBCC1;}
	.st2{fill:#C7DFE5;}
	.st3{fill:#789AF9;}
	.st4{fill:#B9D9ED;}
</style>
<defs>
</defs>
<g>
	<path class="st0" d="M297.57,76.78c9.07-13.08,22.65-37.97,8.35-53.96c-11.37-12.71-27.82-12.49-38.18-5.7
		c-5.93,3.88-9.51,9.49-10.5,15.83c-1.5-0.76-3.09-1.32-4.76-1.54c-3.5-0.47-6.82,0.57-9.58,2.99c-8.04,7.04-0.16,21.18,2.43,25.82
		c1.32,2.36,2.72,4.63,4.04,6.66c-1.7,1.41-2.97,3.35-3.5,5.66l-0.7,3.06c-0.62,2.71-0.15,5.51,1.33,7.87
		c0.56,0.89,1.23,1.68,2,2.34c-0.2,6.4-1.14,12.1-2.83,13.8c-0.75,0.75-3.09,2.33-6.75,4.35l-0.14-1.37
		c-0.53-5.04-3.18-9.34-6.96-12.15c0.29-2.85,0.37-5.73,0.2-8.63v0c-0.94-16.18-9.03-30.93-22.77-41.53
		c-13.53-10.44-30.98-15.61-49.11-14.56c-18.14,1.05-34.86,8.21-47.09,20.15c-3.22,3.14-6.02,6.52-8.4,10.08
		c-1.87,0.3-3.74,0.95-5.51,1.99c-3.78,2.21-6.9,5.86-8.77,10.3c-1.87,4.44-2.32,9.22-1.27,13.47c0.97,3.91,3.2,7.09,6.23,9.03
		c0.43,5.69,1.74,11.2,3.88,16.41c-9.4-4.72-15.82-9.61-18.97-13.94c-4.27-5.87-9.25-16.21-12.79-24.12
		c1.49-2.4,1.97-5.23,1.33-7.98l-0.64-2.77c-0.59-2.54-2.06-4.66-4.01-6.1c0.9-1.45,1.81-2.97,2.69-4.54
		c2.59-4.65,10.47-18.78,2.43-25.82c-2.77-2.42-6.08-3.46-9.58-2.99c-1.66,0.22-3.26,0.78-4.76,1.54
		c-0.98-6.33-4.57-11.94-10.5-15.83C34.04-2.18,17.6-2.4,6.23,10.31C-7.72,25.9,4.86,49.97,13.9,63.28
		c-1.46,2.38-1.92,5.19-1.29,7.91l0.64,2.77c0.86,3.7,3.56,6.49,6.92,7.63c4.96,14.21,13.47,37.48,18.03,43.56
		c0.66,0.88,1.34,1.87,2.06,2.93c5.62,8.22,14.04,20.55,48.42,35.57c0.85,5.64,2.78,18.86,3.54,27.88l0.98,14.67
		c-0.19,4.79,1.99,9.9,5.83,12.66c-0.1,2.5,0.76,4.9,2.44,6.77c0.97,1.08,2.16,1.89,3.46,2.43c0.18,14.13-0.13,28.97-1.67,39.37
		c-1.87,12.59-2.95,25.27,0.58,34.66c-0.41,2.04-0.64,4.15-0.64,6.32c0,0.5,0.01,1,0.04,1.5c-0.02,0.5-0.04,1-0.04,1.5
		c0,15.85,11.55,28.75,25.75,28.75c11.82,0,21.8-8.94,24.81-21.08c0.6,3.29,1.63,6.08,3.26,8.34c-0.54,2.72-0.83,5.56-0.83,8.49
		c0,19.44,12.56,35.25,28,35.25s28-15.81,28-35.25c0-5.62-1.06-10.94-2.92-15.66c5.09-7.92,6.61-20.29,4.9-39.54
		c-1.73-19.45-3.66-37.12-5.28-50.9c0.8-1.03,1.38-2.21,1.7-3.48c1.28-0.53,2.49-1.27,3.57-2.22c2.42-2.13,3.91-5.02,4.26-8.2
		l14.6-1.54c4.64-0.49,8.8-2.76,11.74-6.38c2.93-3.63,4.28-8.17,3.79-12.81l-3.65-34.57c2.4-1.56,4.86-3.16,7.31-4.79
		c34.12-22.57,35.2-26.88,35.84-29.46c0.99-3.94,3.03-12.86,4.45-21.25c0.78-4.62,1.24-8.2,1.43-11.02c2.2-1.48,3.73-3.7,4.33-6.3
		l0.7-3.06c0.62-2.71,0.15-5.51-1.33-7.87C297.61,76.83,297.59,76.81,297.57,76.78z"/>
	<g>
		<ellipse class="st1" cx="128.95" cy="311.39" rx="20.75" ry="23.75"/>
		<ellipse class="st2" cx="128.95" cy="308.39" rx="20.75" ry="23.75"/>
		<ellipse class="st2" cx="184.2" cy="335.89" rx="23" ry="30.25"/>
		<path class="st1" d="M232.49,209.39l-24.59,2.6c-6.84,0.72-12.97-4.24-13.69-11.08l-9.78-92.58c-0.72-6.84,4.24-12.97,11.08-13.69
			l24.59-2.6c6.84-0.72,12.97,4.24,13.69,11.08l9.78,92.58C244.29,202.53,239.33,208.67,232.49,209.39z"/>
		<path class="st2" d="M228.49,207.39l-24.59,2.6c-6.84,0.72-12.97-4.24-13.69-11.08l-9.78-92.58c-0.72-6.84,4.24-12.97,11.08-13.69
			l24.59-2.6c6.84-0.72,12.97,4.24,13.69,11.08l9.78,92.58C240.29,200.53,235.33,206.67,228.49,207.39z"/>
		<path class="st3" d="M108.2,186.14c0,0,4,55,0,82s-2,42,18,44s32,1,32-44c0,0,0.75,19.21,0,35c-1,21,2,28,21,25s34-2,30-47
			s-9-80-9-80L108.2,186.14z"/>
		<path class="st2" d="M201.12,228.5l-92.81-4.75c-2.5-0.13-4.42-2.26-4.3-4.76l0.51-9.92c0.13-2.5,2.26-4.42,4.76-4.3l92.81,4.75
			c2.5,0.13,4.42,2.26,4.3,4.76l-0.51,9.92C205.75,226.71,203.62,228.63,201.12,228.5z"/>
		<path class="st3" d="M97.2,191.14l1,15c-0.27,4.32,2.49,9.5,6.81,9.78l100.17,6.37c4.32,0.27,8.04-3,8.32-7.32l3.7-42.83
			c0,0,64-39,66-47s8-35,5-38s-35-12-35-12s2,22-4,28s-57,32-98,25c-41-7-67-21-75-32s-18-36-18-36l-37,9c0,0,15,45,21,53
			s11,21,51,38C93.2,160.14,96.2,179.14,97.2,191.14z"/>
		<path class="st1" d="M264.2,46.14c0,0-10-15-18-8s13,34,13,34l28,10c0,0,32-37,15-56S253.2,22.14,264.2,46.14z"/>
		<path class="st1" d="M47.96,33.63c0,0,10-15,18-8s-13,34-13,34l-28,10c0,0-32-37-15-56S58.96,9.63,47.96,33.63z"/>
		<path class="st2" d="M59.73,68.92L24.81,77c-3,0.69-6-1.18-6.69-4.18l-0.64-2.77c-0.69-3,1.18-6,4.18-6.69l34.92-8.08
			c3-0.69,6,1.18,6.69,4.18l0.64,2.77C64.61,65.23,62.73,68.23,59.73,68.92z"/>
		<path class="st2" d="M254.12,83.22l32.76,7.52c2.92,0.67,5.83-1.15,6.51-4.08l0.7-3.06c0.67-2.92-1.15-5.83-4.08-6.51l-32.76-7.52
			c-2.92-0.67-5.83,1.15-6.51,4.08l-0.7,3.06C249.37,79.63,251.19,82.55,254.12,83.22z"/>
		<path class="st2" d="M194.28,199.64l-62.53-3.06c-3.7-0.18-6.55-3.32-6.36-7.02l1.69-34.56c0.18-3.7,3.32-6.55,7.02-6.36
			l62.53,3.06c3.7,0.18,6.55,3.32,6.36,7.02l-1.69,34.56C201.12,196.97,197.98,199.82,194.28,199.64z"/>
		<path class="st1" d="M164.74,167.16l-31.36-1.54c-1.54-0.08-2.74-1.39-2.66-2.93l0.17-3.4c0.08-1.54,1.39-2.74,2.93-2.66
			l31.36,1.54c1.54,0.08,2.74,1.39,2.66,2.93l-0.17,3.4C167.6,166.04,166.28,167.24,164.74,167.16z"/>
		<path class="st1" d="M186.47,173.23l-4.39-0.22c-2.1-0.1-3.71-1.89-3.61-3.98l0.26-5.39c0.1-2.1,1.89-3.71,3.98-3.61l4.39,0.22
			c2.1,0.1,3.71,1.89,3.61,3.98l-0.26,5.39C190.35,171.72,188.56,173.33,186.47,173.23z"/>
		<path class="st1" d="M186.74,192.26l-6.79-0.33c-1.99-0.1-3.52-1.79-3.42-3.77l0.28-5.79c0.1-1.99,1.79-3.52,3.77-3.42l6.79,0.33
			c1.99,0.1,3.52,1.79,3.42,3.77l-0.28,5.79C190.41,190.83,188.72,192.36,186.74,192.26z"/>
		
			<ellipse transform="matrix(0.9983 -0.0581 0.0581 0.9983 -4.705 9.6453)" class="st1" cx="163.62" cy="85.79" rx="63.5" ry="55.16"/>
		
			<ellipse transform="matrix(0.9983 -0.0581 0.0581 0.9983 -5.1127 9.9577)" class="st4" cx="168.79" cy="92.96" rx="51.15" ry="40.55"/>
		<path class="st2" d="M109.59,77.68c-3.01,7.12-5.07,11.74-10.41,9.48c-5.34-2.26-7.23-9.86-4.23-16.98
			c3.01-7.12,9.78-11.07,15.12-8.81C115.42,63.63,112.6,70.56,109.59,77.68z"/>
		<path class="st1" d="M224.2,109.14c0,0-2,16-15,23c-13,7-19,20-19,23s9,5,9,3s7-15,10-17s17.07-7.4,23.03-24.7
			c5.97-17.3-8.8-11.2-8.8-11.2S222.2,107.14,224.2,109.14z"/>
		<g>
			<path class="st1" d="M173.2,344.14c1.79-1.49,3.84-2.64,6-3.54c2.16-0.9,4.49-1.45,6.87-1.55c2.37-0.07,4.8,0.37,6.91,1.48
				c2.13,1.06,3.89,2.72,5.23,4.61c-0.85-0.79-1.66-1.6-2.62-2.23c-0.91-0.68-1.9-1.25-2.93-1.68c-2.06-0.89-4.31-1.26-6.55-1.18
				c-2.24,0.07-4.47,0.56-6.63,1.27c-1.08,0.35-2.15,0.78-3.18,1.26C175.22,343.04,174.2,343.57,173.2,344.14z"/>
		</g>
	</g>
</g>
</svg>
