<!-- Generator: Adobe Illustrator 24.1.2, SVG Export Plug-In  -->
<svg version="1.1" xmlns="http://www.w3.org/2000/svg" xmlns:xlink="http://www.w3.org/1999/xlink" x="0px" y="0px"
	 width="384.09px" height="323.29px" viewBox="0 0 384.09 323.29"
	 style="overflow:visible;enable-background:new 0 0 384.09 323.29;" xml:space="preserve">
<style type="text/css">
	.st0{fill:#FFFFFF;}
	.st1{fill:#CE6024;}
	.st2{fill:#F9DC4B;}
	.st3{fill:#FCE8B1;}
	.st4{fill:#BC3E17;}
	.st5{fill:#F9B630;}
	.st6{fill:#F9E48C;}
	.st7{fill:#222221;}
	.st8{fill:#F15A24;}
</style>
<defs>
</defs>
<g>
	<g>
		<path class="st0" d="M334.95,259.01c15.86,5.82,22.75,12.2,39.11,16.37c-7.92-15.71-28.01-28.29-44.18-38
			c26.49,15.91,32.73,14.16,49.89,11.82c-15.82-7.4-41.03-16.48-64.03-26.21c-7.53-16.51-20.04-32.37-27.76-38.61
			c-1.71-1.38-3.41-2.75-5.11-4.11c42.35,5.64,72.57,3.17,31.29-12.52c0.56,0-0.15-1.6,0.38-1.6c25.9-0.23,15.84-12.29-4.4-13.83
			c40.71,2.23,16.97-11.94-7.44-14.41c35.2,3.56,29.4-18.5-5.76-13.25c42.12-6.29,8.9-22.39-15.09-16.34
			c34.68-15.83,14.42-23.25-11.94-16.97c29.69-18.71,32.72-26.98-5.93-19.24c34.96-26.05-17.57-22.86-30.37-6.57
			c41.96-53.4,3.74-51.96-31.8-14.66c50.71-82.38-24.92-39.68-31.92,7.92c-3.25,11.48-3.78,23.8-2.64,36.16
			c-0.36-0.26-0.7-0.54-1.06-0.79c-19.61-13.29-39.81-4.42-48.79,10.36c-1.88,3.09-3.89,6.92-5.33,10.29
			c-0.41-0.27-0.86-0.48-1.33-0.56c-4.51-0.77-13.42,0.56-31.93,5.22c-18.52,4.66,26.98,4.11,32.62,7.56c0,0,0.07-0.23,0.2-0.61
			c1.19,2.36,2.81,4.72,3.87,6.82c2.74,5.42,7.52,10.44,14.78,14.45c-3.68,12.18-1.19,25.89,6.33,36.1
			c-21.25,8.86-43.99,21.04-53.89,21.42c-2.77,1.39-3.93,2.76-4.01,4.06C44,201.44-3.51,175.7,40.98,212.1
			c-25.49,1.13-60.59,16.16-13.39,22.31c-41.18,15.57,11.89,16.74,30.65,22.56c-47.29,29.51-24.65,25.81,17.1,23.08
			c-36.25,35.23,14.38,17.88,30.9,4.54c-16.37,24.32-8.27,27.69,19.85,11.99c-12.91,20.42,8.58,12.39,18.69,7.76
			c-6.78,25.75,18.36,12.19,26.29-0.03c-5.51,30.42,29.33,1.99,35.57-14.22c4.24,44.91,14.87,17.44,19.63-8.41
			c10.97,33.72,19.83,7.52,11.38-13.47c33.26,30.73,28.23,11.05,13.82-8.74c9.41,3.79,18.56,6.72,27.13,8.48
			c14.99,18.48,30.18,36.9,50.7,46.53c-1.81-15.47-11.61-25.43-20.73-34.62c16.56,12.3,28.15,30.95,45.49,34.98
			c-4.92-17.81-15.44-26.54-25.88-40.53c13.04,7.49,41.68,33.51,46.6,27.54C364.58,281.57,353.09,272.65,334.95,259.01z"/>
		<path class="st0" d="M149.42,323.29c-1.53,0-2.97-0.27-4.3-0.85c-2.94-1.3-5.91-4.31-5.76-11.17
			c-13.28,4.93-17.64,2.56-19.77,0.13c-1.44-1.64-1.92-3.6-1.81-5.66c-11.89,5.58-18.59,6.13-22.24,2.17
			c-2.34-2.55-2.67-6.12-0.85-11.21c-3.54,1.76-7.29,3.39-10.98,4.75c-18.5,6.82-22.43,2.38-23.73,0.92
			c-3.96-4.47-0.82-10.78,4.63-17.27c-23.69,1.64-34.58,2.21-36.82-4.67c-1.53-4.72,1.18-9.48,19.47-21.57
			c-2.81-0.52-5.79-1.02-8.74-1.52c-19.01-3.19-29.8-5.35-30.5-12.56c-0.33-3.34,1.75-6.08,5.55-8.57
			c-9.61-2.51-13.78-6.04-13.56-11.11c0.37-8.63,16.68-14.01,30.43-16.22c-11.8-10.25-13.19-13.68-11.18-17.28
			c2.87-5.15,9.78-2.77,28.23,3.59c9.18,3.17,19.47,6.71,29.06,9.1c1.04-1.09,2.44-2.08,4.21-2.97c0.55-0.28,1.16-0.43,1.78-0.46
			c6.02-0.23,19.59-6.4,32.71-12.38c4.9-2.23,9.93-4.52,14.95-6.7c-5.42-9.67-7.23-21.34-4.92-32.08
			c-6.18-3.95-10.77-8.84-13.65-14.56c-0.44-0.88-1.04-1.87-1.67-2.93c-0.32-0.53-0.64-1.06-0.95-1.61
			c-2.23-0.89-11.95-1.69-17.82-2.17c-15.9-1.31-20.69-1.7-21.1-6.67c-0.37-4.49,4.65-5.76,7.65-6.51
			c16.86-4.24,26.2-5.88,31.88-5.5c1.24-2.54,2.67-5.18,4.08-7.5c5.65-9.29,14.74-15.9,24.96-18.13c7.97-1.74,16.08-0.73,23.78,2.9
			c-0.31-10.62,0.77-20.4,3.22-29.17c4.19-27.51,29.89-53.75,44.61-57.38c6.58-1.63,9.86,1.27,11.22,3.14
			c1.5,2.06,5.39,7.38-4.05,27.72c15.07-10.83,28.71-14.72,35.3-9.01c5.91,5.12,4.57,14.87-3.97,29.08
			c8.19-2.67,16.95-3.59,22.91-2.2c6.19,1.45,7.83,5.1,8.25,7.15c0.58,2.81-0.27,5.8-2.65,9.08c12.04-1.5,17.42-0.14,19.17,4.23
			c1.46,3.67,0.13,7.7-9.42,15.12c8.09-0.05,15.31,1.66,17.15,7.03c1.39,4.05-0.87,7.79-4.72,11.11c8.48,0.87,16.09,3.54,19.67,7.47
			c2.13,2.34,2.81,5.22,1.86,7.88c-0.34,0.96-0.89,1.87-1.64,2.71c4.58,1.28,8.04,3.35,9.89,6.13c1.8,2.7,1.92,5.91,0.3,8.6
			c-0.8,1.33-1.99,2.48-3.52,3.43c6.06,2.52,10.76,5.93,10.41,10.34c-0.21,2.66-1.73,4.55-4.91,5.74c1.85,1.77,2.92,3.82,2.84,6.12
			c-0.11,3.42-2.4,5.89-6.81,7.38c8.51,4.23,11.43,7.8,10.39,11.94c-0.68,2.69-2.38,9.41-41.76,5.48
			c7.44,7.82,16.51,20.3,22.77,33.48c9.36,3.93,19,7.74,28.33,11.42c12.95,5.11,25.17,9.94,34.31,14.21
			c1.73,0.81,2.73,2.67,2.44,4.56c-0.29,1.89-1.79,3.37-3.68,3.63l-2.14,0.3c-5.85,0.81-10.63,1.39-15.41,1.16
			c6.38,5.63,11.69,11.73,15.11,18.51c0.76,1.51,0.57,3.33-0.49,4.65c-1.06,1.32-2.79,1.9-4.43,1.48
			c-4.17-1.06-7.74-2.26-10.99-3.54c6.14,6.41,11.58,13.84,16.64,23.89c0.77,1.53,0.56,3.36-0.52,4.68
			c-4.85,5.88-13.77,0.98-28.37-9.61c3.46,5.32,6.43,11.27,8.48,18.7c0.41,1.47,0.01,3.04-1.05,4.14c-1.05,1.1-2.61,1.56-4.09,1.22
			c-7.88-1.83-14.47-6.17-20.73-11.56c0.55,2.06,0.97,4.22,1.24,6.5c0.18,1.56-0.49,3.09-1.76,4c-1.27,0.92-2.94,1.07-4.36,0.4
			c-21.33-10.01-37.24-29.27-51.26-46.54c-4.47-0.98-9.17-2.28-14.06-3.88c4.35,7.8,6.69,15.31,2.6,18.95
			c-3.22,2.86-8.09,2.64-19.72-6.6c0.86,7.99-0.21,15.4-3.23,19.08c-1.78,2.16-4.25,3.13-6.79,2.65c-2.68-0.5-5.12-2.58-7.43-6.37
			c-0.94,3.58-1.95,6.86-2.98,9.69c-2.24,6.15-5.51,13.17-11.16,12.94c-4.73-0.21-7.6-4.64-9.54-15.58
			c-7.78,9.78-19.76,19.32-28.19,19.32c-0.89,0-1.75-0.11-2.55-0.33c-2.49-0.7-5.09-2.43-6.29-6.45
			C161.53,319.76,154.97,323.29,149.42,323.29z M144.79,300.02c1,0,1.99,0.35,2.78,1.01c1.28,1.07,1.82,2.79,1.39,4.4
			c-1.8,6.83-0.72,8.96-0.36,9.12c2.89,1.28,13.89-4.95,18.85-12.6c1.12-1.73,3.3-2.42,5.21-1.66c1.91,0.76,3.02,2.76,2.66,4.78
			c-1.24,6.84,0.11,8.29,0.12,8.3c0.13,0.07,1,0.22,2.85-0.44c8.1-2.9,21.06-15.9,24.33-24.4c0.72-1.87,2.63-3,4.62-2.73
			c1.98,0.27,3.52,1.88,3.71,3.87c1,10.64,2.26,15.83,3.14,18.32c2.16-3.93,5.39-13.22,7.95-27.1c0.36-1.94,1.99-3.39,3.96-3.53
			c1.95-0.13,3.78,1.09,4.39,2.97c2.38,7.31,4.33,10.68,5.47,12.19c1.24-3.76,1.58-13.33-2.19-22.71c-0.75-1.87-0.11-4.02,1.55-5.16
			c1.66-1.15,3.9-0.99,5.38,0.38c9.01,8.33,14.17,11.97,16.97,13.57c-1.27-3.45-4.26-9.31-9.57-16.6c-1.13-1.56-1.1-3.68,0.09-5.19
			c1.18-1.52,3.23-2.07,5.02-1.35c9.51,3.83,18.38,6.61,26.38,8.26c0.98,0.2,1.85,0.73,2.48,1.51
			c11.7,14.43,24.74,30.51,40.83,40.73c-3.59-9.28-10.52-16.25-17.28-23.06c-1.59-1.6-1.68-4.16-0.2-5.87
			c1.48-1.71,4.02-1.98,5.83-0.64c6.15,4.57,11.55,9.88,16.76,15.02c6.26,6.17,12.28,12.09,18.81,15.84
			c-3.58-7.74-8.53-13.72-14.03-20.38c-2.59-3.13-5.27-6.37-7.97-9.99c-1.22-1.64-1.13-3.91,0.23-5.44c1.36-1.53,3.61-1.9,5.38-0.88
			c4.47,2.57,10.44,7.02,16.76,11.74c5.56,4.15,13.67,10.2,19.45,13.59c-8.43-13.67-18.23-21.43-34.19-33.44
			c-1.71-1.29-2.22-3.63-1.2-5.51c1.02-1.88,3.27-2.73,5.28-1.99c6.9,2.53,12.07,5.12,17.07,7.63c3.06,1.54,6.05,3.03,9.3,4.42
			c-10.01-10.84-25.16-19.94-35.15-25.94c-2.04-1.23-2.7-3.88-1.48-5.92c0.66-1.1,1.74-1.8,2.9-2.02
			c-5.03-2.02-10.06-4.08-15.02-6.18c-1-0.42-1.8-1.2-2.25-2.18c-7.05-15.46-19.04-30.98-26.55-37.05c-1.7-1.38-3.4-2.74-5.09-4.1
			c-1.51-1.21-2.03-3.28-1.27-5.06c0.76-1.78,2.62-2.84,4.54-2.58c23.09,3.07,37.22,3.11,43.48,2.23
			c-2.36-1.41-6.63-3.53-14.29-6.44c-1.95-0.74-3.09-2.77-2.71-4.82c0.03-0.14,0.06-0.28,0.1-0.42c0-0.87,0.19-2.11,1.17-3.21
			c0.84-0.94,2.05-1.48,3.31-1.49c5.47-0.05,8.48-0.64,10.07-1.15c-2.19-1.43-7.03-3.48-14.76-4.07c-2.36-0.18-4.13-2.22-3.98-4.58
			c0.15-2.36,2.16-4.15,4.54-4.03c7.02,0.39,11.44,0.23,14.18-0.06c-4.58-2.18-12.85-4.8-22.29-5.75c-2.37-0.24-4.1-2.36-3.86-4.73
			c0.24-2.37,2.36-4.11,4.73-3.86l0,0c0.01,0,0.01,0,0.01,0c12.24,1.24,17.35-0.9,18.69-1.97c-1.59-1.63-9.1-4.98-24.26-2.72
			c-2.36,0.35-4.55-1.27-4.91-3.63c-0.35-2.36,1.27-4.55,3.63-4.91c10.85-1.62,14.76-3.66,16.05-4.6c-3.18-2.8-16.9-6.46-29.45-3.3
			c-2.16,0.55-4.39-0.65-5.13-2.76c-0.74-2.11,0.25-4.43,2.28-5.35c11.21-5.12,14.57-8.45,15.54-9.76
			c-2.57-1.2-11.31-2.27-24.69,0.91c-2.05,0.49-4.16-0.58-4.98-2.53s-0.11-4.2,1.68-5.32c12.17-7.67,17.2-11.95,19.28-14.16
			c-2.92-0.15-9.11,0.2-22.06,2.8c-1.97,0.39-3.97-0.63-4.79-2.48c-0.82-1.84-0.25-4.01,1.36-5.22c8.55-6.37,9.85-9.56,10.04-10.36
			c-0.64-0.42-2.74-1.19-7.16-1.03c-9.24,0.34-22.29,4.62-27.27,10.94c0,0,0,0.01-0.01,0.01l0,0c-1.47,1.87-4.18,2.2-6.06,0.73
			c-1.87-1.47-2.2-4.19-0.73-6.06l0,0c0.01-0.01,0.01-0.02,0.02-0.03c18.85-24,18.09-32.89,16.86-33.96
			c-3.01-2.6-20.99,2.74-42.16,24.97c-1.53,1.6-4.01,1.79-5.76,0.44c-1.75-1.35-2.2-3.8-1.04-5.68
			c20.33-33.02,16.43-39.83,16.38-39.89c-0.24-0.13-1.97-0.32-5.59,1.47c-12.13,5.97-31.49,26.94-34.77,49.23
			c-0.03,0.19-0.07,0.37-0.12,0.55c-2.85,10.05-3.69,21.69-2.5,34.59c0.16,1.69-0.7,3.32-2.18,4.16c-1.48,0.83-3.31,0.72-4.68-0.29
			l-0.44-0.33c-0.17-0.13-0.33-0.26-0.51-0.38c-7.43-5.03-15.47-6.81-23.23-5.12c-7.92,1.73-14.99,6.89-19.42,14.18
			c-1.85,3.04-3.74,6.69-5.05,9.75c-0.5,1.18-1.51,2.07-2.73,2.43c-1.19,0.35-2.47,0.18-3.52-0.48c-2.95-0.41-8.57,0.41-14.75,1.66
			c7.61,0.65,12.57,1.2,15.73,2.06c0.19-0.04,0.38-0.06,0.58-0.08c1.71-0.1,3.36,0.82,4.14,2.37c0.54,1.08,1.23,2.23,1.9,3.34
			c0.68,1.14,1.39,2.32,1.97,3.47c2.52,5,6.9,9.25,13.01,12.61c1.78,0.98,2.64,3.08,2.05,5.03c-3.25,10.75-1.07,23.13,5.67,32.3
			c0.78,1.07,1.04,2.43,0.68,3.71c-0.35,1.28-1.27,2.32-2.5,2.83c-6.45,2.69-13.05,5.69-19.43,8.6
			c-14.48,6.59-27.07,12.32-34.9,13.07c-0.54,0.32-0.85,0.56-1.01,0.7c-0.21,1.02-0.79,1.93-1.63,2.56
			c-1.01,0.76-2.31,1.04-3.54,0.76c-10.91-2.45-22.68-6.51-33.07-10.09c-3.89-1.34-8.24-2.84-11.93-4c2.45,2.26,5.95,5.3,10.96,9.39
			c1.39,1.13,1.93,3,1.36,4.7c-0.56,1.7-2.12,2.87-3.9,2.95c-15.32,0.68-29.14,5.86-32.13,8.84c1.38,0.97,5.81,3.15,19.11,4.88
			c1.96,0.26,3.5,1.81,3.73,3.78c0.23,1.97-0.91,3.84-2.76,4.54c-6.77,2.56-9.96,4.37-11.44,5.43c4.21,1.93,15.29,3.79,22.29,4.96
			c7.45,1.25,14.48,2.43,19.56,4.01c1.61,0.5,2.79,1.89,3,3.57c0.22,1.67-0.56,3.32-2,4.22c-15.22,9.5-21.04,14.28-23.23,16.63
			c5.17,0.74,17.56-0.12,28.69-0.9c2.9-0.2,5.94-0.41,9.08-0.62c1.82-0.1,3.49,0.9,4.22,2.55c0.73,1.65,0.36,3.59-0.94,4.85
			c-7.97,7.75-10.41,11.73-11.15,13.43c5.93,0.35,25.99-6.99,36.34-15.35c1.66-1.34,4.05-1.27,5.63,0.18
			c1.57,1.44,1.86,3.82,0.66,5.59c-6.21,9.23-7.41,13.33-7.62,14.84c1.8-0.02,7.38-0.99,21.79-9.03c1.73-0.96,3.88-0.63,5.24,0.8
			c1.36,1.43,1.57,3.6,0.51,5.27c-2.31,3.66-3.03,5.69-3.25,6.67c2.2,0.09,7.75-1.13,16.5-5.14
			C143.57,300.14,144.18,300.02,144.79,300.02z M335.54,235.7c12.59,7.33,19.77,10.01,26.55,10.56c-5.63-2.3-11.72-4.7-17.97-7.17
			C341.28,237.98,338.42,236.84,335.54,235.7z M83,209.49C83,209.49,83,209.5,83,209.49C83,209.5,83,209.49,83,209.49z"/>
	</g>
	<g>
		<g>
			<g>
				<path class="st1" d="M275.48,202.49c24.56,17.07,77.7,34.26,104.29,46.69c-17.16,2.34-23.41,4.09-49.89-11.82
					c16.17,9.71,36.26,22.29,44.18,38c-16.37-4.17-23.26-10.55-39.11-16.37c18.14,13.64,29.63,22.57,39.84,42.84
					c-4.92,5.97-33.56-20.05-46.6-27.54c10.45,13.99,20.97,22.71,25.88,40.53c-17.34-4.03-28.92-22.67-45.49-34.98
					c9.13,9.19,18.92,19.15,20.73,34.62c-33.41-15.69-52.71-54.68-79.97-79.25"/>
				<path class="st2" d="M169.88,58.76c7-47.6,82.63-90.3,31.92-7.92c35.54-37.3,73.76-38.74,31.8,14.66
					c12.8-16.3,65.33-19.48,30.37,6.57c38.65-7.74,35.62,0.53,5.93,19.24c26.36-6.27,46.63,1.14,11.94,16.97
					c23.99-6.04,57.21,10.06,15.09,16.34c35.16-5.25,40.96,16.81,5.76,13.25c24.42,2.47,48.15,16.64,7.44,14.41
					c20.24,1.54,30.3,13.6,4.4,13.83c-0.53,0,0.18,1.6-0.38,1.6c84.33,32.05-129.69,8.95-136.12-25.8
					C169.36,116.34,162.37,85.29,169.88,58.76z"/>
				<path class="st3" d="M203.97,108.78c7.05-1.02,14.6,8.16,5.56,9.68c6.42-3.66,26.18-3.77,21.84,7.51
					c8.86-4.35,19.77,3.74,18.2,13.47c9.77,2.02,16.36,18.87,5.39,23.25c-18.03-1.7-35.38-10.95-52.25-17.5
					c-7.65-3.42-16.1-8.26-17.55-16.51C184.08,117.08,189.32,110.47,203.97,108.78z"/>
				<path class="st4" d="M199.66,115.25c7.05-1.02,14.6,8.16,5.56,9.68c6.42-3.66,26.18-3.77,21.84,7.51
					c8.86-4.35,19.77,3.74,18.2,13.47c9.77,2.02,16.36,18.87,5.39,23.25c-18.03-1.7-35.38-10.95-52.25-17.5
					c-7.65-3.42-16.1-8.26-17.55-16.51C179.77,123.56,185.01,116.94,199.66,115.25z"/>
				<path class="st2" d="M100.93,210.41c-26.88,8.09-115.74-43.95-59.96,1.68c-25.49,1.13-60.59,16.16-13.39,22.31
					c-41.18,15.57,11.89,16.74,30.65,22.56c-47.29,29.51-24.65,25.81,17.1,23.08c-36.25,35.23,14.38,17.88,30.9,4.54
					c-16.37,24.32-8.27,27.69,19.85,11.99c-12.91,20.42,8.58,12.39,18.69,7.76c-6.78,25.75,18.36,12.19,26.29-0.03
					c-5.51,30.42,29.33,1.99,35.57-14.22c4.24,44.91,14.87,17.44,19.63-8.41c10.97,33.72,19.83,7.52,11.38-13.47
					c46.65,43.11,17.99-12.98-6.27-29.41c-14.85-13.71-29.71-27.42-44.56-41.13C174.99,169.6,117.57,207.58,100.93,210.41z"/>
				<path class="st5" d="M133.13,174.61c28.27,38.65,129.58,107.16,176.08,93.46c32.54-14.76-4.96-70.56-21.24-83.71
					c-45.21-36.51-85.46-66.25-145.9-50.18"/>
				<path class="st6" d="M161.56,170.98c32.24-12.62,30.94-58.68,4.62-76.85c-19.61-13.29-39.81-4.42-48.79,10.36
					c-2.99,4.93-6.32,11.75-7.16,15.53c-0.92,4.14,3.22,9.14,5.26,13.19c2.74,5.42,7.52,10.44,14.78,14.45
					c-3.97,13.14-0.77,28.06,8.18,38.46"/>
				<path class="st3" d="M175.7,192.66c-2.06-34.11-78.78,18.22-99.47,19c-13.45,6.77,10.58,13,16.8,12.52
					c-12.19,9,4.43,12.8,12.25,13.51c-7.59,10.77,2.7,12.4,11.39,9.43c2.53,5.91,10.18,5.53,15.52,4.33
					c-6.11,7.48,10.76,13.15,16.21,8.52c0.2,11.42,15.51,10.35,21.31,3.27c2.31,8.08,16.5,3.65,19.82-2.18
					c-1.42,9.84,14.7,5.43,19.93,3.11c6.83,21.45,43.46-37.47,2.17-39.59c1.11-10.61-10.37-17.08-19.87-16.53
					C196.96,198.82,182.58,193.91,175.7,192.66z"/>
				<path class="st4" d="M182.17,186.18c-2.06-34.11-78.78,18.22-99.47,19c-13.45,6.77,10.58,13,16.8,12.52
					c-12.19,9,4.43,12.8,12.25,13.51c-7.59,10.77,2.7,12.4,11.39,9.43c2.53,5.91,10.18,5.53,15.52,4.33
					c-6.11,7.48,10.76,13.15,16.21,8.52c0.2,11.42,15.51,10.35,21.31,3.27c2.31,8.08,16.5,3.65,19.82-2.18
					c-1.42,9.84,14.7,5.43,19.93,3.11c6.83,21.45,43.46-37.47,2.17-39.59c1.11-10.61-10.37-17.08-19.87-16.53
					C203.43,192.35,189.06,187.43,182.17,186.18z"/>
				<circle class="st7" cx="133.67" cy="107.71" r="3.38"/>
			</g>
		</g>
		<path class="st8" d="M115.23,119.03c0,0-1.79-4.34-4.5-4.8c-4.51-0.77-13.42,0.56-31.93,5.22s26.98,4.11,32.62,7.56
			C111.41,127,112.67,122.87,115.23,119.03z"/>
	</g>
</g>
</svg>
