<!-- Generator: Adobe Illustrator 24.1.2, SVG Export Plug-In  -->
<svg version="1.1" xmlns="http://www.w3.org/2000/svg" xmlns:xlink="http://www.w3.org/1999/xlink" x="0px" y="0px"
	 width="365.12px" height="375.04px" viewBox="0 0 365.12 375.04"
	 style="overflow:visible;enable-background:new 0 0 365.12 375.04;" xml:space="preserve">
<style type="text/css">
	.st0{fill:#FFFFFF;}
	.st1{fill:#B6C2C3;}
	.st2{opacity:0.5;}
	.st3{fill:#89979B;}
	.st4{fill:#909999;}
	.st5{fill:none;stroke:#000000;stroke-width:1.2197;stroke-miterlimit:10;}
	.st6{fill:#EF95A0;}
	.st7{fill:#FFFDEE;}
	.st8{opacity:0.5;fill:#89979B;}
	.st9{fill:#370E1D;}
	.st10{fill:#FF1546;}
	.st11{opacity:0.2;fill:#89979B;}
</style>
<defs>
</defs>
<g>
	<path class="st0" d="M335.99,16.61c-47.27-25.99-86.17,1.16-105.85,20.66c-17.44-12.14-34-18.69-50.57-20
		c-17.64-1.4-35.28,3.13-53.9,13.85c-8.62-13.5-25.25-24.53-43.94-29.02C52.47-4.94,26.66,5.96,12.7,31.27
		c-2.6,4.71-4.28,9.23-5.13,13.79c-0.02,0.11-0.05,0.21-0.06,0.32l-0.79,4.58c-0.17,1-0.09,2.02,0.24,2.98
		c0.29,8.73,3.71,15.93,6.73,22.29c4.46,9.38,7.68,16.16,2.2,26.47c-8.34,15.7-16.43,32.33-15.86,47.93
		c0.61,16.85,10.62,30.37,31.5,42.55c14.7,8.58,30.7,9.14,46.59,1.71c-4.18,10.05-6.84,20.6-7.93,31.47
		c-2.88,1.67-4.91,3.66-6.19,6.04c-1.83,3.41-1.93,7.25-0.29,11.09c1.53,3.56,3.81,6.17,6.79,7.77
		c1.93,15.38,7.19,30.46,15.24,43.75c-3.85,23.08-4.46,40.48-1.81,51.73c5.34,22.68,28.16,26.97,49.78,28.17
		c0.82,0.04,1.63,0.07,2.43,0.07c22.49,0,36.52-17.37,39.16-23.98c0.15-0.39,0.34-0.91,0.53-1.71c5.01,0.3,10.07,0.28,15.08-0.08
		c0.3,1.91,0.61,2.87,0.88,3.55c0.15,0.37,0.34,0.78,0.55,1.21c3.59,7.2,17.53,22.08,37.67,22.08c0.38,0,0.77,0,1.12-0.01
		c0.7,0.02,1.42,0.01,2.27-0.04c7.25-0.4,12.92-1.04,17.86-2c0.58-0.11,1.14-0.31,1.66-0.59c0.2-0.05,0.39-0.09,0.58-0.14l0.3-0.07
		c0.68-0.17,1.36-0.35,1.98-0.53l0.2-0.05c1.52-0.43,2.99-0.92,4.37-1.45c0,0,0.14-0.05,0.14-0.05c0.67-0.26,1.33-0.53,1.95-0.8
		l0.21-0.09c2.18-0.97,4.23-2.11,6.09-3.38c2.68-1.84,5-4.02,6.92-6.51c2.01-2.62,3.58-5.61,4.66-8.9c0.33-1.02,0.59-1.9,0.79-2.79
		c2.65-11.26,1.96-28.92-2.04-52.5c11-17.64,16.81-37.92,16.81-58.7c0-14.12-2.63-27.85-7.81-40.9c10.62,4.44,20.48,6.69,29.37,6.69
		c14.74,0,24.18-6.11,29.5-11.23c9.57-9.22,14.91-23.24,15.01-39.5c0.1-14.68-4.3-29.56-11.76-39.82
		c-3.48-4.78-0.27-12.13,5.25-23.73c3.5-7.35,7.12-14.95,8.78-23.19c0.21-0.52,0.35-1.07,0.4-1.63l0.33-3.23
		c0.01-0.12,0.02-0.24,0.03-0.37C366.45,42.2,356.97,28.15,335.99,16.61z"/>
	<g>
		<g>
			<g>
				<g>
					<ellipse class="st1" cx="182.21" cy="236.98" rx="106.04" ry="104.96"/>
				</g>
				<g class="st2">
					<path class="st3" d="M182.21,324.62c-55.62,0-101.23-42.39-105.68-96.3c-0.24,2.86-0.36,5.74-0.36,8.66
						c0,57.97,47.48,104.96,106.04,104.96s106.04-46.99,106.04-104.96c0-2.92-0.13-5.8-0.36-8.66
						C283.44,282.24,237.83,324.62,182.21,324.62z"/>
				</g>
				<g>
					<path class="st4" d="M182.75,342.48c-59.07,0-107.12-47.57-107.12-106.04S123.69,130.4,182.75,130.4
						c59.07,0,107.12,47.57,107.12,106.04S241.82,342.48,182.75,342.48z M182.75,132.56c-57.87,0-104.96,46.6-104.96,103.88
						s47.08,103.88,104.96,103.88c57.87,0,104.96-46.6,104.96-103.88S240.63,132.56,182.75,132.56z"/>
				</g>
			</g>
			<path class="st5" d="M220.08,59.52"/>
			<g>
				<g>
					<path class="st1" d="M41.55,20.57c7.57-4.33,18.39-8.66,43.28,3.25c29.3,14.01,30.3,44.36,32.46,45.45
						c2.16,1.08,83.32,24.89,106.04,21.64s10.46-21.79,42.2-51.94c21.64-20.56,45.95-18.7,59.51-11.9
						c10.8,5.41,21.43,14.22,32.9,32.46c1.26-12.37-3.9-25-25.32-36.79c-64.92-35.71-112.53,36.79-114.7,40.04
						c0,0-91.97,20.56-93.06-12.98c-1.08-33.54-76.45-68.78-106.04-15.15c-2.43,4.41-3.83,8.42-4.46,12.13
						C25.37,31.16,32.59,25.69,41.55,20.57z"/>
					<path class="st4" d="M218.39,92.2c-27.76,0-98.85-20.7-101.55-22.04c-0.87-0.43-1.21-1.74-2.03-4.88
						c-2.33-8.9-7.78-29.73-30.42-40.56c-24.16-11.55-34.53-7.75-42.35-3.28l0,0c-9.33,5.33-16.38,11.04-26.87,25.91l-2.55,3.62
						l0.75-4.37c0.7-4.06,2.19-8.13,4.57-12.45c12.58-22.8,35.9-32.6,62.39-26.23c24.97,6,44.96,24.38,45.53,41.83
						c0.15,4.54,2.01,8.14,5.7,11c19.28,14.94,80.28,2.3,85.75,1.12c6.25-9.27,53.17-74.46,115.78-40.02
						c19.18,10.55,27.39,22.55,25.84,37.77l-0.3,2.89l-1.55-2.46c-10.04-15.97-20.07-25.87-32.5-32.1
						c-13.9-6.97-37.53-8.07-58.38,11.73c-15.25,14.49-20.26,26.3-23.91,34.93c-3.96,9.35-6.58,15.52-18.83,17.27
						C222.01,92.1,220.3,92.2,218.39,92.2z M117.85,68.41c4.29,1.7,83.19,24.65,105.34,21.5c11.14-1.59,13.32-6.73,17.28-16.07
						c3.72-8.79,8.83-20.83,24.38-35.6c21.6-20.52,46.17-19.33,60.65-12.07c12.08,6.06,21.92,15.44,31.63,30.22
						c0.11-12.91-7.91-23.39-24.98-32.78C270.26-10.42,223.89,55.6,218.8,63.24l-0.22,0.33l-0.44,0.17
						c-2.72,0.61-66.97,14.73-87.8-1.41c-4.13-3.2-6.31-7.41-6.48-12.52c-0.53-16.32-20.26-34.25-44-39.95
						C67.59,6.91,37.16,3.47,19.7,35.12c-1.29,2.34-2.31,4.6-3.07,6.83C25.7,29.86,32.42,24.63,41.05,19.7l0,0
						c8.87-5.07,20.37-8.19,44.21,3.21c23.47,11.23,29.09,32.69,31.49,41.86C117.16,66.34,117.58,67.96,117.85,68.41z"/>
				</g>
				<g>
					<path class="st6" d="M357.94,59.52c-11.47-18.24-22.1-27.05-32.9-32.46c-13.56-6.8-37.87-8.66-59.51,11.9
						c-31.74,30.15-19.48,48.69-42.2,51.94S119.45,70.34,117.29,69.26c-2.16-1.08-3.16-31.43-32.46-45.45
						c-24.89-11.9-35.71-7.57-43.28-3.25c-8.96,5.12-16.17,10.59-27.19,26.2c-3.9,22.7,20.42,34.28,7.71,58.2
						C3.68,139.59-3.9,163.4,35.05,186.12s72.5-27.05,72.5-27.05l86.56,3.25c0,0-29.56-65.63,55.18,1.08
						c101.71,80.07,121.19-11.9,95.22-47.61C334.23,101.64,355.75,80.97,357.94,59.52z"/>
					<path class="st4" d="M317.43,196.22c-15.42,0-37.57-7.5-68.75-32.04c-38.06-29.96-51.49-32.01-56.05-28.44
						c-5.69,4.45-0.2,20.39,2.4,26.16l0.66,1.47l-87.63-3.29c-1.67,2.36-9.75,13.28-21.56,21.84
						c-17.69,12.81-35.65,14.56-51.95,5.06c-40.52-23.64-31.1-49.1-13.36-82.49c6.9-12.98,2.53-22.15-2.08-31.87
						c-3.69-7.75-7.5-15.76-5.73-26.03l0.04-0.22l0.13-0.18c10.7-15.17,17.93-21.01,27.51-26.49c8.87-5.07,20.37-8.19,44.21,3.21
						c23.47,11.23,29.09,32.69,31.49,41.86c0.41,1.57,0.83,3.19,1.1,3.65c4.29,1.7,83.19,24.65,105.34,21.5
						c11.14-1.59,13.32-6.73,17.28-16.07c3.72-8.79,8.83-20.83,24.38-35.6c21.6-20.52,46.17-19.33,60.65-12.07
						c12.78,6.4,23.05,16.53,33.3,32.82l0.18,0.29l-0.04,0.34c-0.91,8.9-4.98,17.46-8.92,25.74c-5.6,11.77-10.44,21.93-4.68,29.84
						c13.65,18.77,15.51,54.08-2.56,71.47C337.87,191.39,329.82,196.22,317.43,196.22z M197.09,132.45
						c9.75,0,27.16,9.96,52.82,30.16c55.03,43.32,80.93,32.76,91.46,22.62c17.36-16.71,15.51-50.73,2.33-68.85
						c-6.45-8.87-1.13-20.05,4.5-31.88c3.81-8.02,7.76-16.3,8.7-24.74c-9.98-15.79-19.96-25.61-32.32-31.81
						c-13.9-6.97-37.53-8.07-58.38,11.73c-15.25,14.49-20.26,26.3-23.91,34.93c-3.96,9.35-6.58,15.52-18.83,17.27
						c-22.73,3.25-103.75-20.29-106.63-21.74c-0.87-0.43-1.21-1.74-2.03-4.88c-2.33-8.9-7.78-29.73-30.42-40.56
						c-24.16-11.55-34.53-7.75-42.35-3.28c-9.29,5.31-16.32,10.99-26.74,25.72c-1.57,9.54,2.08,17.2,5.6,24.62
						c4.63,9.73,9.41,19.79,2.04,33.66c-17.75,33.42-26.47,57.03,12.6,79.82c37.69,21.98,70.83-26.26,71.16-26.75l0.31-0.46
						l0.56,0.02l84.99,3.19c-2.08-5.08-8.14-21.65-1.18-27.09C192.86,133.02,194.75,132.45,197.09,132.45z"/>
				</g>
			</g>
			<g>
				<g>
					<path class="st1" d="M191.95,236.98c0,1.08,5.41,28.13,4.33,46.53c-1.08,18.39-1.08,60.59,1.08,66
						c2.16,5.41,15.15,20.56,34.63,19.48c19.48-1.08,38.95-4.33,43.28-22.72c4.33-18.39-2.16-54.1-7.57-76.82
						c-5.41-22.72-11.9-35.71-8.66-45.45"/>
				</g>
				<g class="st2">
					<path class="st3" d="M193.32,239.99c4.23,11.47,10.19,30.75,10.88,50.05c0.7,19.71-1.34,47.21-2.85,64.02
						c-1.58-1.95-2.66-3.71-3.15-4.95c-2.16-5.41-2.16-47.61-1.08-66C197.98,268.34,194.66,248,193.32,239.99z"/>
				</g>
				<g>
					<g>
						<path class="st7" d="M220.16,366.66c-10.93-3.45-19.41-11.72-21.88-16.45c2.09-8.03,6.13-17.49,13.54-17.49
							c0.21,0,0.43,0.01,0.65,0.02c1.76,0.13,3.21,0.91,4.43,2.39C222.28,341.63,221.05,358.86,220.16,366.66z"/>
					</g>
					<g>
						<path class="st4" d="M211.82,333.25c0.2,0,0.41,0.01,0.61,0.02c1.61,0.11,2.93,0.83,4.06,2.19c3.64,4.4,4.82,15.74,3.21,30.47
							c-10.35-3.47-18.35-11.21-20.84-15.79C200.92,342.34,204.82,333.25,211.82,333.25 M211.82,332.17
							c-7.64,0-11.84,9.29-14.11,18.1c2.27,4.56,10.9,13.53,22.91,17.09c1.69-14.17,1.77-34.46-8.12-35.17
							C212.28,332.18,212.05,332.17,211.82,332.17L211.82,332.17z"/>
					</g>
				</g>
				<g>
					<g>
						<path class="st7" d="M231.62,368.48c-4.19,0-8.22-0.92-10.47-1.53c-0.18-7.26,0.28-23.96,7.65-31.54
							c2.43-2.5,5.43-3.77,8.93-3.77c0.24,0,0.48,0.01,0.72,0.02c10.37,0.49,11.44,21.92,11.13,34.98
							c-4.53,0.86-9.81,1.43-16.54,1.81C232.57,368.47,232.1,368.48,231.62,368.48z"/>
					</g>
					<g>
						<path class="st4" d="M237.73,332.18c0.23,0,0.46,0.01,0.7,0.02c9.8,0.47,10.9,21.09,10.62,33.99
							c-4.42,0.81-9.55,1.36-16.04,1.72c-0.45,0.02-0.91,0.04-1.38,0.04c-2.97,0-6.55-0.51-9.94-1.41
							c-0.15-7.39,0.41-23.44,7.5-30.75C231.51,333.39,234.39,332.18,237.73,332.18 M237.73,331.1c-15.04,0-17.51,22.2-17.1,36.27
							c3.14,0.9,7.2,1.66,11,1.66c0.49,0,0.97-0.01,1.44-0.04c5.82-0.32,11.63-0.84,17.04-1.9c0.38-14.25-0.87-35.46-11.63-35.97
							C238.23,331.1,237.98,331.1,237.73,331.1L237.73,331.1z"/>
					</g>
				</g>
				<g>
					<g>
						<path class="st7" d="M250.6,366.21c-0.64-10.58-0.32-23.99,4.58-29.22c1.36-1.46,2.97-2.16,4.91-2.16
							c0.34,0,0.69,0.02,1.05,0.07c5.87,0.73,10.22,5.33,12.91,13.65C270.96,357.75,263.5,363.37,250.6,366.21z"/>
					</g>
					<g>
						<path class="st4" d="M260.08,335.37c0.32,0,0.65,0.02,0.98,0.06c5.61,0.7,9.78,5.11,12.41,13.11c-3,8.75-10.13,14.18-22.37,17
							c-0.8-14.26,0.78-24.24,4.47-28.18C256.83,336.02,258.3,335.37,260.08,335.37 M260.08,334.29c-10.28,0-10.86,19.13-9.99,32.58
							c11.46-2.41,20.94-7.4,24.52-18.32c-2.25-7.04-6.25-13.3-13.41-14.19C260.82,334.31,260.44,334.29,260.08,334.29
							L260.08,334.29z"/>
					</g>
				</g>
				<g>
					<path class="st4" d="M229.96,370.12c-19.18,0-31.46-14.85-33.61-20.21c-2.33-5.82-2.2-48.69-1.16-66.47
						c0.89-15.1-2.71-36.54-3.89-43.58c-0.37-2.18-0.44-2.63-0.44-2.88h2.16h-1.08l1.08-0.03c0.01,0.21,0.2,1.3,0.41,2.56
						c1.32,7.86,4.82,28.72,3.92,44.07c-1.12,19.1-0.99,60.56,1.01,65.54c1.78,4.46,14.19,19.88,33.56,18.8
						c19.54-1.09,38.19-4.49,42.29-21.89c4.89-20.78-4.56-63.67-7.57-76.33c-1.66-6.98-3.42-13.03-4.98-18.38
						c-3.48-11.96-6-20.61-3.65-27.66l2.05,0.68c-2.14,6.42,0.17,14.36,3.67,26.37c1.56,5.37,3.33,11.45,5.01,18.48
						c3.9,16.37,12.44,56.67,7.58,77.32c-4.42,18.79-23.89,22.42-44.28,23.55C231.34,370.1,230.65,370.12,229.96,370.12z"/>
				</g>
			</g>
			<g>
				<path class="st1" d="M174.13,234.81c0,1.08-5.41,28.13-4.33,46.53c1.08,18.39,1.08,60.59-1.08,66
					c-2.16,5.41-15.15,20.56-34.63,19.48c-19.48-1.08-38.95-4.33-43.28-22.72c-4.33-18.39,2.16-54.1,7.57-76.82
					s11.9-35.71,8.66-45.45"/>
				<path class="st8" d="M173.32,237.24c-4.23,11.47-10.19,30.75-10.88,50.05c-0.7,19.71,1.34,47.21,2.85,64.02
					c1.58-1.95,2.66-3.71,3.15-4.95c2.16-5.41,2.16-47.61,1.08-66C168.66,265.59,171.98,245.25,173.32,237.24z"/>
				<g>
					<path class="st7" d="M145.92,364.49c-0.89-7.79-2.12-25.02,3.26-31.53c1.22-1.48,2.67-2.26,4.43-2.39
						c0.22-0.02,0.44-0.02,0.65-0.02c7.4,0,11.44,9.46,13.54,17.49C165.33,352.78,156.85,361.04,145.92,364.49z"/>
					<g>
						<path class="st4" d="M154.27,331.09L154.27,331.09c7,0,10.9,9.09,12.96,16.89c-2.49,4.58-10.49,12.32-20.84,15.79
							c-1.61-14.73-0.43-26.06,3.21-30.47c1.12-1.36,2.45-2.08,4.06-2.19C153.86,331.1,154.06,331.09,154.27,331.09 M154.27,330.01
							c-0.23,0-0.46,0.01-0.69,0.02c-9.88,0.71-9.8,20.99-8.12,35.17c12.02-3.57,20.64-12.54,22.91-17.09
							C166.11,339.3,161.91,330.01,154.27,330.01L154.27,330.01z"/>
					</g>
				</g>
				<g>
					<path class="st7" d="M134.46,366.32c-0.48,0-0.95-0.01-1.41-0.04c-6.73-0.38-12.01-0.95-16.54-1.81
						c-0.31-13.06,0.76-34.49,11.13-34.98c0.25-0.01,0.49-0.02,0.72-0.02c3.5,0,6.5,1.27,8.93,3.77c7.37,7.59,7.83,24.28,7.65,31.54
						C142.68,365.4,138.65,366.32,134.46,366.32z"/>
					<g>
						<path class="st4" d="M128.36,330.01c3.34,0,6.22,1.21,8.54,3.6c7.1,7.31,7.65,23.36,7.5,30.75c-3.39,0.9-6.97,1.41-9.94,1.41
							c-0.47,0-0.94-0.01-1.38-0.04c-6.49-0.36-11.62-0.91-16.04-1.72c-0.28-12.9,0.82-33.52,10.62-33.99
							C127.89,330.02,128.13,330.01,128.36,330.01L128.36,330.01 M128.36,328.93c-0.25,0-0.5,0.01-0.75,0.02
							c-10.77,0.51-12.01,21.72-11.63,35.97c5.41,1.05,11.23,1.58,17.04,1.9c0.48,0.03,0.96,0.04,1.44,0.04c3.8,0,7.85-0.77,11-1.66
							C145.87,351.13,143.39,328.93,128.36,328.93L128.36,328.93z"/>
					</g>
				</g>
				<g>
					<path class="st7" d="M115.49,364.05c-12.9-2.84-20.37-8.46-23.45-17.66c2.69-8.32,7.04-12.92,12.91-13.65
						c0.36-0.05,0.71-0.07,1.05-0.07c1.94,0,3.54,0.71,4.91,2.16C115.81,340.06,116.13,353.47,115.49,364.05z"/>
					<g>
						<path class="st4" d="M106,332.12v1.08c1.78,0,3.25,0.65,4.51,1.99c3.69,3.94,5.27,13.92,4.47,28.18
							c-12.24-2.82-19.37-8.24-22.37-17c2.63-8,6.8-12.41,12.41-13.11c0.34-0.04,0.67-0.06,0.98-0.06L106,332.12 M106,332.12
							c-0.36,0-0.73,0.02-1.12,0.07c-7.16,0.89-11.17,7.16-13.41,14.19c3.58,10.92,13.06,15.91,24.52,18.32
							C116.86,351.25,116.29,332.12,106,332.12L106,332.12z"/>
					</g>
				</g>
				<g>
					<path class="st4" d="M136.12,367.96c-0.69,0-1.38-0.02-2.08-0.06c-20.38-1.13-39.85-4.77-44.27-23.55
						c-4.86-20.66,3.68-60.96,7.57-77.32c1.67-7.03,3.45-13.11,5.01-18.48c3.5-12.02,5.81-19.96,3.67-26.37l2.05-0.68
						c2.35,7.06-0.17,15.7-3.65,27.66c-1.56,5.34-3.32,11.4-4.98,18.37c-3.01,12.65-12.46,55.55-7.57,76.33
						c4.09,17.4,22.74,20.8,42.29,21.89c19.36,1.07,31.78-14.34,33.56-18.8c1.99-4.98,2.13-46.44,1.01-65.54
						c-0.9-15.34,2.6-36.21,3.92-44.07c0.21-1.26,0.39-2.35,0.41-2.56l2.16,0.03c0,0.25-0.07,0.7-0.44,2.88
						c-1.18,7.04-4.78,28.48-3.89,43.58c1.05,17.78,1.17,60.65-1.16,66.47C167.58,353.11,155.3,367.96,136.12,367.96z"/>
				</g>
			</g>
			<g>
				<path class="st1" d="M98.9,116.87c0,0-7.57,6.49-10.82,25.97s16.23,48.69,54.1,55.18s25.97,8.66,25.97,8.66
					s28.13,17.31,42.2-15.15c0,0,29.22,0,44.36-25.97c15.15-25.97-5.41-44.36-5.41-44.36s19.19-46.47-18.39-74.66
					c-34.63-25.97-66-30.3-102.79-8.66C88.49,61.19,91.32,101.72,98.9,116.87z"/>
				<path class="st4" d="M184.78,212.38c-9.29,0-16.8-4.54-17.2-4.78l-2.41-1.48l2.78-0.5c0.17-0.03,0.36-0.08,0.53-0.14
					c-1.29-0.83-6.39-2.94-26.49-6.38c-40.31-6.91-58.1-37.75-54.99-56.43c2.78-16.66,8.66-24.01,10.58-26.02
					c-7.36-15.79-9.78-56.3,29.98-79.69c35.8-21.06,67.87-18.37,103.99,8.72c35.31,26.48,21.2,69.3,19.01,75.25
					c3.21,3.25,19.07,21.2,5.08,45.19c-13.96,23.92-39.94,26.26-44.58,26.48c-4.43,9.89-10.63,16.16-18.45,18.62
					C189.94,212.05,187.29,212.38,184.78,212.38z M170.54,206.72c3.72,1.79,12.58,5.22,21.44,2.42c7.35-2.32,13.19-8.39,17.38-18.04
					l0.28-0.65l0.71,0c0.29,0,28.78-0.33,43.43-25.43c14.51-24.88-4.39-42.28-5.2-43.01l-0.57-0.51l0.29-0.71
					c0.19-0.46,18.42-46.04-18.04-73.38c-35.32-26.49-66.66-29.14-101.6-8.59c-39.07,22.98-36.14,62.9-28.8,77.57l0.38,0.76
					l-0.64,0.55c-0.07,0.06-7.33,6.57-10.46,25.33c-2.97,17.81,14.28,47.26,53.22,53.94c28.62,4.91,28.63,7.23,28.64,8.62
					C171,206.05,170.82,206.43,170.54,206.72z"/>
			</g>
			<g>
				<path class="st9" d="M180.54,203.93c-4.76,0-7.55-2.55-8.89-3.77c-0.59-0.53-0.85-0.78-1.21-0.78c-0.03,0-0.2,0.01-0.35,0.11
					c-1.01-1.53-3.45-6.41-5.6-11.05l40.06-32.68c0.49,3.14,2.01,13.62,2.01,21.71c0,9.34-0.71,14.62-15.96,23.33
					C186.97,202.87,183.58,203.93,180.54,203.93z"/>
				<path class="st4" d="M204.16,156.77c0.59,3.92,1.86,13.31,1.86,20.69c0,9.14-0.7,14.3-15.69,22.87
					c-3.55,2.03-6.84,3.05-9.8,3.05c-4.55,0-7.24-2.45-8.53-3.63c-0.63-0.57-1.01-0.92-1.57-0.92c-0.04,0-0.08,0-0.12,0.01
					c-1.05-1.71-3.22-6.08-5.16-10.25L204.16,156.77 M204.94,154.74l-41.12,33.54c0,0,5.6,12.13,6.4,12.13
					c0.06,0,0.09-0.07,0.09-0.23c0-0.19,0.04-0.27,0.12-0.27c0.62,0,3.61,4.55,10.1,4.55c2.78,0,6.19-0.83,10.33-3.2
					c15.15-8.66,16.23-14.07,16.23-23.8S204.94,154.74,204.94,154.74L204.94,154.74z"/>
			</g>
			<path class="st10" d="M185.46,193.7c0,0-7.66-7.89-12.99,6.81c2.8,2.24,8.53,5.33,18.4-0.31c4.42-2.52,7.63-4.77,9.98-6.93
				C197.29,190.72,191.14,188.01,185.46,193.7z"/>
			<g>
				<path class="st1" d="M213.59,139.59c0,2.16,6.49,14.07-19.48,34.63s-18.39,40.04-18.39,49.77s0,40.04-16.23,50.86
					c-16.23,10.82-37.18,18.83-55.18,2.16c-14.61-13.53-10.28-20.02-13.53-28.67c-3.25-8.66-15.79,2.46-20.56-8.66
					c-3.25-7.57,7.57-10.82,19.48-12.98c14.2-2.58,6.47-6.11,10.28-14.61c5.01-11.18,23.55-17.07,18.39,10.82
					c-4.68,25.29,7.57,34.63,10.82,17.31c3.25-17.31,1.08-40.04,6.49-47.61c0,0-6.49-6.49,3.25-18.39c0,0-10.82-2.16,1.08-20.56
					c0,0-6.49-4.33,5.41-18.39c11.9-14.07,23.8-10.82,23.8-10.82"/>
				<path class="st4" d="M127.55,287.62c-8.9,0-16.92-3.27-23.98-9.82c-10.68-9.89-11.51-16.13-12.31-22.16
					c-0.31-2.34-0.6-4.55-1.49-6.93c-1.18-3.14-3.62-3.1-7.82-2.77c-4.4,0.35-9.88,0.78-12.72-5.84c-0.91-2.13-0.9-4.11,0.06-5.88
					c2.58-4.8,11.67-7.04,20.22-8.59c8.35-1.52,8.3-3.01,8.2-6.28c-0.06-2.02-0.14-4.53,1.29-7.71c3.01-6.72,10.18-11.22,15.33-9.61
					c3.18,0.99,8.07,5.04,5.11,21.07c-3.01,16.28,1.1,24.34,3.87,24.85c1.6,0.29,3.72-2.04,4.83-7.93
					c1.3-6.93,1.72-14.68,2.13-22.17c0.59-10.8,1.09-20.19,4.09-25.18c-1.44-2-4.55-8.22,2.83-17.99c-1.05-0.55-2.39-1.59-3.18-3.47
					c-1.68-3.99-0.13-9.84,4.63-17.4c-0.53-0.63-1.16-1.68-1.38-3.26c-0.59-4.15,1.89-9.53,7.35-15.99
					c12.21-14.43,24.4-11.31,24.92-11.17l-0.57,2.09c-0.46-0.12-11.42-2.84-22.69,10.48c-6.22,7.35-7.17,11.77-6.87,14.19
					c0.23,1.86,1.21,2.59,1.25,2.62l0.83,0.6l-0.54,0.88c-5.87,9.08-5.92,13.79-4.93,16.14c0.98,2.31,3.13,2.77,3.15,2.77l1.77,0.35
					l-1.14,1.39c-8.94,10.93-3.55,16.71-3.31,16.95l0.63,0.65l-0.52,0.74c-3.04,4.25-3.58,14.2-4.15,24.73
					c-0.41,7.56-0.83,15.37-2.16,22.45c-1.85,9.89-6.09,9.9-7.35,9.66c-5.06-0.94-8.54-11.44-5.6-27.37
					c1.94-10.5,0.62-17.28-3.63-18.61c-4.03-1.26-10.21,2.84-12.72,8.43c-1.22,2.73-1.16,4.87-1.1,6.76
					c0.13,4.23-0.27,6.71-9.98,8.47c-6.98,1.27-16.52,3.43-18.7,7.49c-0.63,1.18-0.62,2.49,0.03,4.01c2.23,5.2,6.27,4.88,10.55,4.54
					c3.85-0.31,8.22-0.65,10.02,4.16c0.98,2.61,1.3,5.05,1.61,7.4c0.75,5.65,1.52,11.5,11.63,20.86
					c14.21,13.16,31.82,12.41,53.85-2.27c15.75-10.5,15.75-40.2,15.75-49.96c0-1.52-0.19-3.3-0.42-5.35
					c-1.2-11.02-3-27.67,19.22-45.27c22.54-17.84,20.09-28.84,19.28-32.45c-0.13-0.56-0.21-0.96-0.21-1.32h2.16
					c0,0.12,0.09,0.53,0.16,0.85c0.88,3.94,3.55,15.94-20.05,34.62c-21.29,16.85-19.56,32.79-18.41,43.34
					c0.23,2.12,0.43,3.95,0.43,5.59c0,10.04,0,40.61-16.71,51.76C148.22,283.66,137.35,287.62,127.55,287.62z"/>
			</g>
			<path class="st11" d="M169.35,193.32c-6.49,29.22,7.57,51.94-8.66,72.5c-4.75,6.01-10.69,11.09-16.74,15.28
				c5.89-2.17,11.56-5.33,16.74-8.79c16.23-10.82,16.23-41.12,16.23-50.86s-7.57-29.22,18.39-49.77
				c19.08-15.1,20.63-25.53,20.12-30.86c-4.14,2.79-5.9,10.33-12.13,15.54C190.75,166.88,172.72,178.15,169.35,193.32z"/>
			<g>
				<path class="st4" d="M140.88,154.31l-1.73-1.3c10.19-13.58,20.76-7.93,20.87-7.87l-1.05,1.89l0.53-0.95l-0.52,0.95
					C158.6,146.83,149.89,142.29,140.88,154.31z"/>
			</g>
			<g>
				<path class="st4" d="M139.93,174.64l-1.99-0.85c3.49-8.14,14.59-8.23,15.06-8.23l0,2.16
					C152.9,167.73,142.85,167.83,139.93,174.64z"/>
			</g>
			<g>
				<path class="st4" d="M136.53,193.29l-1.69-1.35c4.54-5.68,12.27-6.84,12.59-6.89l0.31,2.14
					C147.67,187.2,140.53,188.29,136.53,193.29z"/>
			</g>
			
				<ellipse transform="matrix(0.9906 -0.1367 0.1367 0.9906 -31.4625 13.7402)" class="st4" cx="84.29" cy="235.89" rx="6.49" ry="2.71"/>
			
				<ellipse transform="matrix(0.4379 -0.899 0.899 0.4379 -135.7517 220.0329)" class="st4" cx="108.09" cy="218.58" rx="6.49" ry="2.71"/>
			<g>
				<path d="M122.34,67.89c0.65-1.38,1.36-2.77,2.31-3.99c0.43-0.65,0.97-1.2,1.48-1.8c0.56-0.54,1.1-1.12,1.71-1.6
					c2.41-2.02,5.39-3.3,8.43-3.93c3.05-0.62,6.2-0.73,9.23-0.2c1.52,0.25,2.97,0.79,4.39,1.37c1.43,0.59,2.79,1.18,4.17,2
					c0.58,0.34,0.79,1.12,0.46,1.72c-0.28,0.52-0.86,0.75-1.39,0.59l-0.07-0.02c-1.29-0.39-2.69-0.77-4.07-1.02
					c-1.38-0.26-2.77-0.39-4.12-0.64c-2.71-0.45-5.44-0.8-8.16-0.59c-1.36,0.11-2.7,0.37-4,0.76c-1.32,0.37-2.59,0.92-3.78,1.64
					c-2.46,1.35-4.5,3.5-6.25,5.91l-0.01,0.01c-0.07,0.09-0.19,0.11-0.27,0.04C122.32,68.08,122.3,67.98,122.34,67.89z"/>
				<g>
					<path class="st0" d="M131.9,109.72c-4.37-3.7-6.97-9.79-6.97-16.34c0-10.92,7.18-19.8,16.01-19.8s16.01,8.88,16.01,19.8
						c0,5.58-1.92,10.91-5.28,14.67c-1.91-0.23-3.86-0.35-5.79-0.35C141.2,107.7,136.5,108.38,131.9,109.72z"/>
					<path d="M140.95,74.09c8.56,0,15.53,8.66,15.53,19.29c0,5.36-1.81,10.48-4.99,14.13c-1.85-0.21-3.73-0.32-5.6-0.32
						c-4.65,0-9.31,0.66-13.86,1.97c-4.14-3.62-6.6-9.48-6.6-15.78C125.42,82.74,132.38,74.09,140.95,74.09 M140.95,73.07
						c-9.11,0-16.5,9.09-16.5,20.31c0,7.05,2.92,13.26,7.35,16.9c3.87-1.15,8.66-2.07,14.09-2.07c1.92,0,3.91,0.12,5.98,0.38
						c3.42-3.72,5.58-9.14,5.58-15.2C157.44,82.16,150.06,73.07,140.95,73.07L140.95,73.07z"/>
				</g>
				<path d="M149.32,99c0-6.17-4.78-11.17-10.68-11.17c-5.9,0-10.68,5-10.68,11.17c0,4.6,2.66,8.54,6.45,10.26
					c3.16-0.8,6.81-1.4,10.85-1.5C147.74,105.71,149.32,102.55,149.32,99z"/>
				<g>
					<path class="st1" d="M121.54,114.71c0,0,15.53-10.15,35.91-5.08"/>
					<path class="st4" d="M121.54,114.71c2.48-1.99,5.32-3.46,8.25-4.6c1.46-0.6,2.98-1.03,4.49-1.47c1.53-0.37,3.07-0.7,4.63-0.92
						c0.78-0.13,1.56-0.2,2.35-0.25c0.79-0.05,1.57-0.16,2.35-0.15c1.57,0.02,3.15-0.02,4.71,0.2c3.13,0.25,6.2,1.05,9.13,2.12
						c-3.11-0.25-6.15-0.59-9.2-0.54c-3.04-0.03-6.07,0.2-9.07,0.63c-3.01,0.38-5.98,1.06-8.92,1.88
						C127.31,112.44,124.4,113.45,121.54,114.71z"/>
				</g>
			</g>
			<g>
				<path d="M224.76,67.89c-0.65-1.38-1.36-2.77-2.31-3.99c-0.43-0.65-0.97-1.2-1.48-1.8c-0.56-0.54-1.1-1.12-1.71-1.6
					c-2.41-2.02-5.39-3.3-8.43-3.93c-3.05-0.62-6.2-0.73-9.23-0.2c-1.52,0.25-2.97,0.79-4.39,1.37c-1.43,0.59-2.79,1.18-4.17,2
					c-0.58,0.34-0.79,1.12-0.46,1.72c0.28,0.52,0.86,0.75,1.39,0.59l0.07-0.02c1.29-0.39,2.69-0.77,4.07-1.02
					c1.38-0.26,2.77-0.39,4.12-0.64c2.71-0.45,5.44-0.8,8.16-0.59c1.36,0.11,2.7,0.37,4,0.76c1.32,0.37,2.59,0.92,3.78,1.64
					c2.46,1.35,4.5,3.5,6.25,5.91l0.01,0.01c0.07,0.09,0.19,0.11,0.27,0.04C224.78,68.08,224.8,67.98,224.76,67.89z"/>
				<g>
					<path class="st0" d="M215.19,109.72c-4.59-1.34-9.29-2.02-13.98-2.02c-1.93,0-3.88,0.12-5.79,0.35
						c-3.36-3.76-5.28-9.09-5.28-14.67c0-10.92,7.18-19.8,16.01-19.8s16.01,8.88,16.01,19.8
						C222.17,99.93,219.57,106.01,215.19,109.72z"/>
					<path d="M206.15,74.09c8.56,0,15.53,8.66,15.53,19.29c0,6.3-2.46,12.16-6.6,15.78c-4.56-1.31-9.22-1.97-13.86-1.97
						c-1.87,0-3.75,0.11-5.6,0.32c-3.18-3.66-4.99-8.78-4.99-14.13C190.63,82.74,197.59,74.09,206.15,74.09 M206.15,73.07
						c-9.11,0-16.5,9.09-16.5,20.31c0,6.06,2.17,11.48,5.58,15.2c2.06-0.26,4.06-0.38,5.98-0.38c5.43,0,10.22,0.92,14.09,2.07
						c4.43-3.64,7.35-9.85,7.35-16.9C222.65,82.16,215.27,73.07,206.15,73.07L206.15,73.07z"/>
				</g>
				<path d="M197.78,99c0-6.17,4.78-11.17,10.68-11.17c5.9,0,10.68,5,10.68,11.17c0,4.6-2.66,8.54-6.45,10.26
					c-3.16-0.8-6.81-1.4-10.85-1.5C199.36,105.71,197.78,102.55,197.78,99z"/>
				<g>
					<path class="st1" d="M225.56,114.71c0,0-15.53-10.15-35.91-5.08"/>
					<path class="st4" d="M225.56,114.71c-2.87-1.25-5.77-2.26-8.71-3.1c-2.94-0.82-5.91-1.5-8.92-1.88c-3-0.43-6.03-0.66-9.07-0.63
						c-3.05-0.05-6.09,0.29-9.2,0.54c2.93-1.07,6-1.87,9.13-2.12c1.56-0.22,3.13-0.17,4.71-0.2c0.79-0.01,1.57,0.1,2.35,0.15
						c0.79,0.05,1.57,0.12,2.35,0.25c1.56,0.22,3.1,0.55,4.63,0.92c1.51,0.44,3.03,0.88,4.49,1.47
						C220.24,111.25,223.09,112.72,225.56,114.71z"/>
				</g>
			</g>
		</g>
	</g>
</g>
</svg>
