<!-- Generator: Adobe Illustrator 24.1.2, SVG Export Plug-In  -->
<svg version="1.1" xmlns="http://www.w3.org/2000/svg" xmlns:xlink="http://www.w3.org/1999/xlink" x="0px" y="0px" width="364px"
	 height="325.23px" viewBox="0 0 364 325.23" style="overflow:visible;enable-background:new 0 0 364 325.23;" xml:space="preserve"
	>
<style type="text/css">
	.st0{fill:#FFFFFF;}
	.st1{fill:#222221;}
	.st2{fill:#722716;}
</style>
<defs>
</defs>
<g>
	<path class="st0" d="M362.84,123.08c-3.36-10.87-12.88-18.27-24.85-19.33l-80.57-7.1c-7.53-0.66-14.05-5.04-17.02-11.42
		l-32.15-69.1C203.62,6.18,193.56,0,182,0s-21.62,6.18-26.25,16.14l-32.15,69.1c-2.97,6.38-9.49,10.76-17.02,11.42l-80.57,7.1
		c-11.97,1.05-21.49,8.46-24.85,19.33c-3.14,10.17,0.18,20.81,8.68,27.78l60.7,49.8c5.55,4.55,8,11.52,6.4,18.17L59.3,292.33
		c-2.42,10.06,1.36,20.34,9.85,26.82c5.29,4.03,11.65,6.09,18.07,6.09c4.97,0,9.96-1.23,14.5-3.73l69.67-38.32
		c6.55-3.6,14.68-3.6,21.23,0l69.67,38.32c10.4,5.72,23.19,4.8,32.57-2.36c8.49-6.48,12.27-16.76,9.85-26.82l-17.64-73.48
		c-1.6-6.66,0.85-13.62,6.4-18.17l60.7-49.8C362.65,143.89,365.98,133.25,362.84,123.08z"/>
	<g>
		<g>
			<defs>
				<path id="XMLID_1_" d="M204.62,17.81l32.15,69.1c3.57,7.67,11.35,12.93,20.3,13.72l80.57,7.1
					c21.49,1.89,30.17,26.75,13.98,40.03l-60.7,49.8c-6.74,5.53-9.71,14.04-7.75,22.2l17.64,73.48c4.71,19.6-18.02,34.96-36.6,24.74
					l-69.67-38.32c-7.74-4.26-17.35-4.26-25.09,0l-69.67,38.32c-18.58,10.22-41.31-5.14-36.6-24.74l17.64-73.48
					c1.96-8.16-1.01-16.67-7.75-22.2l-60.7-49.8c-16.19-13.28-7.51-38.14,13.98-40.03l80.57-7.1c8.95-0.79,16.73-6.05,20.3-13.72
					l32.15-69.1C167.96-0.62,196.05-0.62,204.62,17.81z"/>
			</defs>
			<use xlink:href="#XMLID_1_"  style="overflow:visible;fill:#F5E235;"/>
			<clipPath id="XMLID_2_">
				<use xlink:href="#XMLID_1_"  style="overflow:visible;"/>
			</clipPath>
		</g>
		<g>
			<g>
				
					<ellipse transform="matrix(0.1653 -0.9862 0.9862 0.1653 2.2142 353.5662)" class="st0" cx="209.98" cy="175.48" rx="41.23" ry="32"/>
				<path class="st1" d="M207.31,217.93c-1.37,0-2.76-0.11-4.14-0.33c-7.48-1.18-14.02-5.39-18.93-12.17
					c-6.75-9.32-9.4-22.14-7.29-35.18c3.76-23.22,21.65-39.77,39.85-36.89c7.48,1.18,14.02,5.39,18.93,12.17
					c6.75,9.32,9.4,22.14,7.29,35.18l0,0C239.55,202.16,224.02,217.93,207.31,217.93z M212.63,135.92
					c-15.31,0-29.59,14.75-32.83,34.79c-1.99,12.29,0.48,24.32,6.78,33.02c4.45,6.15,10.34,9.95,17.04,11.01
					c16.64,2.64,33.04-12.84,36.55-34.5l0,0c1.99-12.29-0.48-24.32-6.78-33.02c-4.45-6.15-10.34-9.95-17.04-11.01
					C215.1,136.01,213.86,135.92,212.63,135.92z"/>
			</g>
			<g>
				
					<ellipse transform="matrix(0.1653 -0.9862 0.9862 0.1653 -44.4947 298.3787)" class="st0" cx="154.02" cy="175.48" rx="41.23" ry="32"/>
				<path class="st1" d="M151.35,217.93c-1.38,0-2.76-0.11-4.14-0.33c-7.48-1.18-14.02-5.39-18.93-12.17
					c-6.75-9.32-9.4-22.14-7.29-35.18c3.76-23.22,21.63-39.78,39.86-36.89c7.47,1.18,14.02,5.39,18.93,12.17
					c6.75,9.32,9.4,22.14,7.29,35.18C183.59,202.16,168.06,217.93,151.35,217.93z M156.67,135.92c-15.31,0-29.59,14.75-32.84,34.79
					c-1.99,12.29,0.48,24.32,6.78,33.02c4.45,6.15,10.34,9.95,17.04,11.01c16.64,2.64,33.04-12.84,36.54-34.5
					c1.99-12.29-0.48-24.32-6.78-33.02c-4.45-6.15-10.34-9.95-17.04-11.01C159.15,136.01,157.91,135.92,156.67,135.92z"/>
			</g>
			<ellipse class="st1" cx="155.37" cy="187.97" rx="14.26" ry="14.09"/>
			<ellipse class="st1" cx="209.17" cy="187.97" rx="14.26" ry="14.09"/>
			<path class="st1" d="M121.69,122.83c3.39-4.13,7.61-7.51,12.26-10.25c4.65-2.72,9.87-4.79,15.49-5.35
				c5.56-0.58,11.63,0.53,16.28,3.83l0.88,0.59l0.82,0.67c0.53,0.46,1.1,0.86,1.58,1.37c0.95,1.01,1.92,2,2.7,3.12
				c1.64,2.18,2.86,4.61,3.8,7.09c-1.84-1.94-3.52-3.9-5.51-5.5c-1.88-1.7-3.98-3.05-6.13-4.13c-4.33-2.19-9.14-2.76-13.93-2.3
				c-4.82,0.45-9.61,2.03-14.31,3.93C130.91,117.86,126.32,120.23,121.69,122.83z"/>
			<path class="st1" d="M189.03,124.13c3.39-4.13,7.61-7.51,12.26-10.25c4.65-2.72,9.87-4.79,15.49-5.35
				c5.56-0.58,11.63,0.53,16.28,3.83l0.88,0.59l0.82,0.67c0.53,0.46,1.1,0.86,1.58,1.37c0.95,1.01,1.92,2,2.7,3.12
				c1.64,2.18,2.86,4.61,3.8,7.09c-1.84-1.94-3.52-3.9-5.51-5.5c-1.88-1.7-3.98-3.05-6.13-4.13c-4.33-2.19-9.14-2.76-13.93-2.3
				c-4.82,0.45-9.61,2.03-14.31,3.93C198.25,119.16,193.66,121.53,189.03,124.13z"/>
			<path class="st2" d="M148.45,235.36c5.91,4.03,11.91,7.67,18.13,10.63c6.21,2.94,12.69,5.16,19.23,5.77
				c6.54,0.6,13.04-0.72,18.83-3.99c5.79-3.29,10.76-8.26,15.41-13.71c-2.67,6.63-6.98,12.83-13.05,17.35
				c-6.09,4.49-14.1,6.6-21.68,5.84c-7.6-0.72-14.65-3.63-20.83-7.47C158.35,245.86,152.81,241.08,148.45,235.36z"/>
		</g>
	</g>
</g>
</svg>
