<!-- Generator: Adobe Illustrator 24.1.2, SVG Export Plug-In  -->
<svg version="1.1" xmlns="http://www.w3.org/2000/svg" xmlns:xlink="http://www.w3.org/1999/xlink" x="0px" y="0px"
	 width="361.25px" height="326.61px" viewBox="0 0 361.25 326.61"
	 style="overflow:visible;enable-background:new 0 0 361.25 326.61;" xml:space="preserve">
<style type="text/css">
	.st0{fill:#FFFFFF;}
	.st1{fill:#29ABE2;}
	.st2{fill:#006837;}
	.st3{fill:#294C3A;}
	.st4{fill:#222221;}
	.st5{fill:#3A0606;}
	.st6{fill:#720707;}
	.st7{fill:#050504;stroke:#FFFFFF;stroke-miterlimit:10;}
	.st8{fill:none;stroke:#222221;stroke-width:2;stroke-miterlimit:10;}
	.st9{fill:url(#SVGID_1_);}
	.st10{fill:url(#SVGID_2_);}
	.st11{fill:url(#SVGID_3_);}
	.st12{fill:url(#SVGID_4_);}
	.st13{fill:url(#SVGID_5_);}
	.st14{fill:#F9F4C2;}
	.st15{fill:url(#SVGID_6_);}
	.st16{fill:url(#SVGID_7_);}
	.st17{fill:none;stroke:#222221;stroke-width:0.9735;stroke-miterlimit:10;}
	.st18{fill:#FFFFFF;stroke:#222221;stroke-width:0.9735;stroke-miterlimit:10;}
	.st19{fill:#007D39;}
	.st20{fill:#030402;}
	.st21{fill:#ED1C24;}
	.st22{fill:#1B1D22;}
	.st23{fill:#F9E0AC;}
	.st24{fill:#630C0C;}
	.st25{fill:#7E7F7F;}
	.st26{fill:url(#SVGID_8_);}
	.st27{opacity:0.49;}
	.st28{fill:#DA8F22;}
	.st29{fill:#F7931E;}
	.st30{fill:#D5EAF7;}
	.st31{fill:url(#SVGID_9_);}
	.st32{opacity:0.21;fill:#F9F0C7;}
	.st33{fill:#090909;}
	.st34{fill:url(#SVGID_10_);}
	.st35{fill:url(#SVGID_11_);}
	.st36{fill:url(#SVGID_12_);}
	.st37{fill:url(#SVGID_13_);}
	.st38{fill:url(#SVGID_14_);}
	.st39{fill:url(#SVGID_15_);}
	.st40{fill:url(#SVGID_16_);}
	.st41{fill:url(#SVGID_17_);}
	.st42{fill:url(#SVGID_18_);}
</style>
<defs>
</defs>
<g>
	<path class="st0" d="M300.4,84.63c-6.01-2.96-12.97-6.38-17.57-9.04c4.74-0.54,10.54-0.78,16.59-1.04
		c21.09-0.88,45-1.88,52.27-15.91c4.17-8.06,2.03-18.44-6.56-31.75C334.5,10.46,311.56,1.46,276.93,0.16
		c-26.64-1-55.65,2.74-76.72,6.4c-1.84-2.88-5.34-4.43-8.99-3.97c-2.37,0.3-4.62,1.37-6.87,3.26c-1.52,1.28-2.9,2.78-4.18,4.57
		c-8.88,1.89-14.26,3.27-14.5,3.34c-1.67,0.43-2.95,1.67-3.48,3.23c-2.58,0.23-5.46,0.91-8.63,2.03c-1.5-2.78-3.13-5.27-4.92-7.55
		c-1.37-1.74-3.53-4.27-6.5-6.11c-3.26-2.02-6.93-2.82-10.32-2.26c-2.85,0.47-5.48,2.12-7.04,4.42c-1.32,1.95-1.78,4.23-1.3,6.43
		c0.62,2.82,2.72,5.19,5.75,6.48c1.17,0.5,2.28,0.78,3.26,1.02c0.43,0.11,0.86,0.21,1.28,0.34c1.59,0.5,3.12,1.54,4.56,2.78
		c-1.6-0.21-3.17-0.41-4.69-0.59c-6.96-4.9-14.56-9.88-23.07-13.64C99.75,5.57,77.48,2.69,69.77,3.49
		c-6.38,0.67-15.12,4.79-19.22,12.28c-2.7,4.94-3.33,14.14,0.28,21.01c0.06,0.12,0.27,0.49,0.58,1.04c5.31,9.4,6.97,13.1,7.43,14.56
		c1.29,4.08,7.2,15.62,13.47,18.61c3.76,1.8,7.72,1.84,11.3,1.44c12.78,8.25,30.01,16.21,51.45,23.78
		c-55.96-7.81-83.13-6.35-91.55,4.35c-2.24,2.85-4.27,7.77-1.19,15c2.06,4.86,7.23,9.81,15.75,15.08c-0.5,1.08-1,2.21-1.49,3.4
		c-0.51,1.22-0.92,2.52-1.23,3.88c-4.81-11.47-9.38-16.94-14.8-17.72c-1.9-0.27-5.57-0.13-8.87,3.94c-1.84,2.26-2.55,4.6-2.11,6.96
		c0.72,3.85,4.09,5.78,7.06,7.49c1.94,1.11,3.52,2.07,4.64,3.15c-22.35,0.76-35.39,6.51-39.78,17.49
		c-6.91,17.29,11.64,40.93,27.41,56.94c-10.61-2.08-16.89-3.37-16.97-3.38c-2.47-0.5-4.93,0.9-5.74,3.29
		c-0.81,2.39,0.28,5,2.55,6.11c6.43,3.12,13.19,6.11,20.16,8.91c-1.94,5.19-3.56,10.7-4.85,16.44c-2.98,13.29,0.6,26.55,10.35,38.34
		c20.74,25.09,66.91,40.73,119.09,40.73c2.72,0,5.47-0.04,8.22-0.13c25.86-0.81,59.73-7.48,92.91-18.31
		c31.79-10.37,57.98-22.8,72.12-34.19c3.95-1.33,7.6-3.06,10.87-5.15c7.3-4.66,11.36-10.71,12.06-17.97
		c1.15-11.92-7.03-26.31-24.99-43.93c0.62-2.2,1.01-4.44,1.16-6.63c2.35-0.31,4.44-0.86,6.27-1.66c0.41-0.18,0.79-0.41,1.13-0.69
		c8.53-6.88,6.42-15.04,5.15-19.92c-0.3-1.17-0.77-2.95-0.67-3.5c1.34-5.77,1.58-11.32,0.72-16.33
		c12.86-4.19,20.37-10.73,22.35-19.49C365.75,116.79,329.51,98.96,300.4,84.63z"/>
	<g>
		<path class="st1" d="M166.93,18.61c0,0,143-37,174,11s-38.6,36.6-63.8,41.8c-25.2,5.2,85.8,35.2,78.8,66.2
			c-6.18,27.38-85,21-98,20s124,77,77,107s-149-37-196-42s-96,0-96,0s-152.4-132,153.8-48c0,0-138.85-35.23-149.8-61
			c-17-40,157,1,209,8c32.46,4.37-163.31-22.41-192-75c-24-44,129-4,162-6S166.93,18.61,166.93,18.61z"/>
		<g>
			<path class="st2" d="M326.77,246.28c38.75,19.96-88.76,72.81-165.21,75.2c-80.89,2.53-141.71-32.31-132.63-72.85
				c8.03-35.84,32.04-73.7,97.3-72.35C188.6,177.57,220.47,191.52,326.77,246.28z"/>
			<path class="st3" d="M10.93,217.68c0,0,230.17,47.3,294.46,37.5C305.39,255.18,133.63,277.22,10.93,217.68z"/>
		</g>
		<g>
			<path d="M62.44,159.5c0,0-5.37-13.62-1.24-23.53s9.93-19.37,15.28-12.8c5.37,6.61-10.32,6.19-12.39,16.51
				c-2.06,10.32,1.65,19.4,1.65,19.4L62.44,159.5z"/>
			<path d="M49.6,163.62c0,0,5.37-13.62,1.24-23.53c-4.13-9.91-9.93-19.37-15.28-12.8c-5.37,6.61,10.32,6.19,12.39,16.51
				c2.06,10.32-1.65,19.4-1.65,19.4L49.6,163.62z"/>
			<path class="st4" d="M77.11,203.99c-1.14,2.63-4.2,3.83-6.83,2.68c-2.63-1.14-3.83-4.2-2.68-6.83
				c1.14-2.63,8.63-13.58,11.26-12.44C81.48,188.55,78.25,201.36,77.11,203.99z"/>
			<path class="st4" d="M108.07,199.45c-1.14,2.63-4.2,3.83-6.83,2.68c-2.63-1.14-3.83-4.2-2.68-6.83
				c1.14-2.63,8.63-13.58,11.26-12.44C112.44,184.01,109.21,196.82,108.07,199.45z"/>
			<path class="st4" d="M140.68,196.39c-0.99,2.69-3.97,4.07-6.66,3.08s-4.07-3.97-3.08-6.66c0.99-2.69,7.83-14.06,10.51-13.07
				C144.14,180.73,141.66,193.7,140.68,196.39z"/>
			<path class="st5" d="M186.91,160.38c0.41,3.64-6.01,12.51-11.48,12.53c-5.47,0.03-9.93-5.15-9.96-11.56
				c-0.03-6.41,4.38-11.63,9.85-11.65C180.8,149.67,186.5,156.71,186.91,160.38z"/>
			<path class="st6" d="M182.99,160.53c0,16.08-18.27,32.82-40.05,32.82s-42.24-14.22-37.98-29.73
				c2.89-10.53,17.75-31.79,33.85-32.2C160.58,130.86,182.99,144.45,182.99,160.53z"/>
			<path class="st5" d="M136.76,164.81c-2.56-10.64-13.54-15.33-22.31-17.39c-4.8,5.97-8.24,12.46-9.48,16.97
				c-3.18,11.6,7.47,22.48,22.16,27.23C133.64,185.13,139.43,175.89,136.76,164.81z"/>
			<path class="st6" d="M131.51,171.1c0,12.21-13.88,24.94-30.43,24.94s-32.09-10.81-28.86-22.59c2.2-8,13.49-24.15,25.72-24.47
				C114.48,148.56,131.51,158.88,131.51,171.1z"/>
			<path class="st5" d="M80.39,159.63c-4.13,4.83-7.11,10.3-8.13,14.02c-2.41,8.78,5.62,17.02,16.72,20.65
				C99.53,173.37,87.61,163.46,80.39,159.63z"/>
			<ellipse class="st6" cx="57.07" cy="181.79" rx="30.14" ry="23.53"/>
			<g>
				
					<ellipse transform="matrix(0.9967 -0.0815 0.0815 0.9967 -13.1543 6.1089)" class="st0" cx="68.28" cy="164.25" rx="14.14" ry="16.72"/>
				
					<ellipse transform="matrix(0.9967 -0.0815 0.0815 0.9967 -13.5366 6.2434)" class="st7" cx="69.74" cy="169" rx="8.21" ry="10.07"/>
				
					<ellipse transform="matrix(0.9967 -0.0815 0.0815 0.9967 -13.1543 6.1089)" class="st8" cx="68.28" cy="164.25" rx="14.14" ry="16.72"/>
				
					<ellipse transform="matrix(0.9967 -0.0815 0.0815 0.9967 -13.4054 4.0669)" class="st0" cx="43.13" cy="166.3" rx="14.14" ry="16.72"/>
				
					<ellipse transform="matrix(0.9967 -0.0815 0.0815 0.9967 -13.7877 4.2013)" class="st7" cx="44.59" cy="171.06" rx="8.21" ry="10.07"/>
				
					<ellipse transform="matrix(0.9967 -0.0815 0.0815 0.9967 -13.4054 4.0669)" class="st8" cx="43.13" cy="166.3" rx="14.14" ry="16.72"/>
			</g>
			<path class="st4" d="M45.53,188.34c1.2,0.9,2.4,1.73,3.61,2.5c1.21,0.77,2.43,1.47,3.68,2.05c2.48,1.16,5.07,1.81,7.49,1.44
				c0.61-0.07,1.2-0.24,1.79-0.43l0.87-0.33c0.28-0.15,0.56-0.3,0.85-0.43c1.11-0.64,2.19-1.41,3.19-2.36
				c2.05-1.84,3.8-4.14,5.7-6.47c-0.66,2.92-1.85,5.75-3.78,8.22l-0.75,0.91c-0.26,0.3-0.56,0.56-0.84,0.85l-0.43,0.42
				c-0.15,0.13-0.32,0.25-0.48,0.38c-0.33,0.24-0.63,0.51-0.99,0.73c-1.36,0.93-2.99,1.54-4.67,1.79c-1.68,0.24-3.4,0.08-4.97-0.39
				c-1.57-0.46-3.01-1.2-4.29-2.09c-1.29-0.89-2.43-1.92-3.43-3.07C47.09,190.92,46.19,189.7,45.53,188.34z"/>
			<path class="st4" d="M94.08,207.08c-0.62,2.8-3.39,4.56-6.19,3.94c-2.8-0.62-4.56-3.39-3.94-6.19s5.88-14.98,8.68-14.36
				S94.7,204.28,94.08,207.08z"/>
			<path class="st4" d="M122.55,203.25c-0.03,2.86-2.38,5.16-5.25,5.13c-2.86-0.03-5.16-2.38-5.13-5.25
				c0.03-2.86,2.67-15.87,5.53-15.84C120.58,187.33,122.58,200.38,122.55,203.25z"/>
			<path class="st4" d="M164.71,197.42c-0.01,2.86-2.34,5.18-5.2,5.17c-2.86-0.01-5.18-2.34-5.17-5.2
				c0.01-2.86,2.53-15.89,5.4-15.88C162.6,181.52,164.72,194.56,164.71,197.42z"/>
		</g>
		<g>
			<g>
				<linearGradient id="SVGID_1_" gradientUnits="userSpaceOnUse" x1="170.3216" y1="184.4554" x2="203.5477" y2="228.1464">
					<stop  offset="0" style="stop-color:#289448"/>
					<stop  offset="0.185" style="stop-color:#3F9C46"/>
					<stop  offset="0.5379" style="stop-color:#64A841"/>
					<stop  offset="0.8221" style="stop-color:#7BB03F"/>
					<stop  offset="1" style="stop-color:#84B33E"/>
				</linearGradient>
				<path class="st9" d="M205.13,195.36c-5.49-28.06-42.57-11.03-40.7,12.16c0.23,25.68,40.2,37.76,40.49,17.15"/>
				<linearGradient id="SVGID_2_" gradientUnits="userSpaceOnUse" x1="176.4617" y1="176.8836" x2="237.1582" y2="229.4698">
					<stop  offset="0" style="stop-color:#289448"/>
					<stop  offset="0.185" style="stop-color:#3F9C46"/>
					<stop  offset="0.5379" style="stop-color:#64A841"/>
					<stop  offset="0.8221" style="stop-color:#7BB03F"/>
					<stop  offset="1" style="stop-color:#84B33E"/>
				</linearGradient>
				<path class="st10" d="M232.18,195.1c-11.23-20.64-37.61-7.13-39.46,14.27c-0.99,11.49,3.95,16.68,8.17,20.69
					c8.33,7.92,30.06,14.07,32.65-1.05"/>
				<linearGradient id="SVGID_3_" gradientUnits="userSpaceOnUse" x1="207.0184" y1="186.8387" x2="268.7614" y2="233.146">
					<stop  offset="0" style="stop-color:#289448"/>
					<stop  offset="0.185" style="stop-color:#3F9C46"/>
					<stop  offset="0.5379" style="stop-color:#64A841"/>
					<stop  offset="0.8221" style="stop-color:#7BB03F"/>
					<stop  offset="1" style="stop-color:#84B33E"/>
				</linearGradient>
				<path class="st11" d="M257.95,197.35c-5.41-12.33-25.46-9.87-29.97,0.2c-15.27,20.27,3.55,57.18,34.69,35.92"/>
				<linearGradient id="SVGID_4_" gradientUnits="userSpaceOnUse" x1="234.0668" y1="191.4233" x2="295.5482" y2="232.4981">
					<stop  offset="0" style="stop-color:#289448"/>
					<stop  offset="0.185" style="stop-color:#3F9C46"/>
					<stop  offset="0.5379" style="stop-color:#64A841"/>
					<stop  offset="0.8221" style="stop-color:#7BB03F"/>
					<stop  offset="1" style="stop-color:#84B33E"/>
				</linearGradient>
				<path class="st12" d="M281.26,200.07c-5.94-16.27-24.08-4.46-29.89,6.63c-9.22,17.62,18.63,46.26,32.31,26.27"/>
				<g>
					<linearGradient id="SVGID_5_" gradientUnits="userSpaceOnUse" x1="276.7224" y1="198.6614" x2="312.303" y2="204.1555">
						<stop  offset="0" style="stop-color:#289448"/>
						<stop  offset="0.185" style="stop-color:#3F9C46"/>
						<stop  offset="0.5379" style="stop-color:#64A841"/>
						<stop  offset="0.8221" style="stop-color:#7BB03F"/>
						<stop  offset="1" style="stop-color:#84B33E"/>
					</linearGradient>
					<path class="st13" d="M315.72,188.95l-23.01-5.04c-9.48,6.34-2.36,24.05,3.18,32.15c1.43,1.54,2.87,2.66,4.29,3.44
						C307.08,215.47,314.37,206.34,315.72,188.95z"/>
					<path class="st14" d="M318.92,189.66l-3.21-0.7c-1.35,17.39-8.64,26.52-15.54,30.55C313.69,226.85,325.88,202.06,318.92,189.66
						z"/>
				</g>
				<g>
					<linearGradient id="SVGID_6_" gradientUnits="userSpaceOnUse" x1="262.8915" y1="202.5572" x2="302.1349" y2="223.2254">
						<stop  offset="0" style="stop-color:#289448"/>
						<stop  offset="0.185" style="stop-color:#3F9C46"/>
						<stop  offset="0.5379" style="stop-color:#64A841"/>
						<stop  offset="0.8221" style="stop-color:#7BB03F"/>
						<stop  offset="1" style="stop-color:#84B33E"/>
					</linearGradient>
					<path class="st15" d="M305.83,214.51l-17.76-20.97c-12.86-4.38-13.11,18.07-11.3,26.45c0.42,8.99,5.81,16.11,12.13,18.38
						C296.73,237.81,301.89,231.91,305.83,214.51z"/>
					<path class="st14" d="M305.65,214.51c-3.93,17.4-8.93,23.3-16.76,23.86c7.94,2.86,17.35-1.92,20.24-20.23L305.65,214.51z"/>
				</g>
				<linearGradient id="SVGID_7_" gradientUnits="userSpaceOnUse" x1="318.4457" y1="128.0565" x2="311.1203" y2="176.1951">
					<stop  offset="0" style="stop-color:#289448"/>
					<stop  offset="0.185" style="stop-color:#3F9C46"/>
					<stop  offset="0.5379" style="stop-color:#64A841"/>
					<stop  offset="0.8221" style="stop-color:#7BB03F"/>
					<stop  offset="1" style="stop-color:#84B33E"/>
				</linearGradient>
				<path class="st16" d="M332.87,173.4c5.81-25.04-12.36-37.63-28.03-29.17c-8.12,4.06-6.54,9.63-9.54,17.3
					c-2.61,6.69-8.65,5.19-8.91,13.56c-0.45,14.47,31.16,24.46,43.73,18.96C339.05,186.85,331.67,178.54,332.87,173.4z"/>
				<path class="st17" d="M300.82,177.34c-0.58,8.36,15.97,13.29,18.01,4.34"/>
				<path class="st18" d="M301.45,177.05c-1.48,0.5-2.97,0.99-4.45,1.49"/>
				<path class="st18" d="M317.92,181.02c1.65,0.99,3.46,1.72,5.34,2.15"/>
				<path class="st19" d="M266.32,235.17c-16.09,0.37,0.41,20.69,3.04,0.52C269.36,235.7,267.09,235.16,266.32,235.17z"/>
				<path class="st19" d="M291.16,227.13c-12.82,5.41,6.9,16.5,2.61-0.54C293.77,226.59,291.77,226.87,291.16,227.13z"/>
				<path class="st19" d="M303.48,208.13c-12.82,5.41,6.9,16.5,2.61-0.54C306.08,207.58,304.09,207.87,303.48,208.13z"/>
				<path class="st19" d="M238.53,233.94c-15.28,0.35,0.39,19.65,2.88,0.5C241.42,234.43,239.26,233.92,238.53,233.94z"/>
				<path class="st19" d="M214.31,232.95c-15.28,0.35,0.39,19.65,2.88,0.5C217.19,233.45,215.04,232.93,214.31,232.95z"/>
				<path class="st19" d="M185.14,229c-15.28,0.35,0.39,19.65,2.88,0.5C188.03,229.49,185.87,228.98,185.14,229z"/>
				<g>
					<g>
						<circle class="st18" cx="306.65" cy="160.9" r="4.77"/>
					</g>
					<ellipse class="st4" cx="307.16" cy="161.79" rx="2.22" ry="2.27"/>
				</g>
				<g>
					<circle class="st18" cx="322.82" cy="165.62" r="4.77"/>
					<ellipse class="st4" cx="323.47" cy="166.73" rx="2.22" ry="2.27"/>
				</g>
			</g>
		</g>
		<g>
			<path class="st20" d="M120.76,284.18c0,0-20.58-7.03-21.94,1.32C97.99,290.6,105.6,296.47,120.76,284.18z"/>
			<path class="st20" d="M131.82,294.73c0,0-20.55,0.04-18.93,8.25C113.88,308,122.59,311.04,131.82,294.73z"/>
			<path class="st20" d="M153.27,299.03c0,0-22.27,6.75-18.82,14.41C136.56,318.12,146.62,318.31,153.27,299.03z"/>
			<path class="st20" d="M227.9,266.46c0,0,18.55-11.35,21.69-3.51C251.52,267.75,245.37,275.15,227.9,266.46z"/>
			<path class="st20" d="M226.95,279.93c0,0,20.06-4.45,20.28,3.91C247.36,288.96,239.52,293.83,226.95,279.93z"/>
			<path class="st20" d="M209.34,293.88c0,0,23.04-3.23,23.13,5.18C232.53,304.19,223.47,308.59,209.34,293.88z"/>
			<ellipse class="st21" cx="173.05" cy="268.47" rx="63.35" ry="44.25"/>
			<path class="st22" d="M109.91,265.32c-0.12,1.14-0.19,2.28-0.19,3.44c0,6.79,2.19,13.23,6.11,18.98c2-2.5,3.19-5.58,3.19-8.92
				C119.02,272.91,115.31,267.8,109.91,265.32z"/>
			<path class="st22" d="M143.66,237.84c0-2.71-0.78-5.25-2.15-7.45c-10.84,4.36-19.65,10.89-25.22,18.74
				c2.91,2.36,6.72,3.79,10.91,3.79C136.29,252.93,143.66,246.17,143.66,237.84z"/>
			<path class="st22" d="M182,232.81c5.18,0,9.8-2.19,12.82-5.62c-6.78-1.73-14.1-2.68-21.74-2.68c-1.91,0-3.81,0.06-5.68,0.18
				C170.14,229.52,175.65,232.81,182,232.81z"/>
			<path class="st22" d="M223.35,250.38c0,6.77,5.51,12.37,12.64,13.24c-1.22-7.33-5-14.11-10.7-19.9
				C224.06,245.68,223.35,247.95,223.35,250.38z"/>
			<ellipse class="st22" cx="138.1" cy="281.66" rx="9.8" ry="10.43"/>
			<ellipse class="st22" cx="211.26" cy="278.4" rx="7.79" ry="9.43"/>
			
				<ellipse transform="matrix(0.7938 -0.6081 0.6081 0.7938 -105.2022 172.3389)" class="st22" cx="201.57" cy="241.33" rx="7.58" ry="5.58"/>
			
				<ellipse transform="matrix(0.7938 -0.6081 0.6081 0.7938 -115.9231 146.3274)" class="st22" cx="157.85" cy="244.13" rx="6.92" ry="5.09"/>
			<ellipse class="st23" cx="175.56" cy="279.78" rx="37.21" ry="32.18"/>
			<path class="st24" d="M162.99,292.85c2.21,1.66,4.21,3.22,6.25,4.39c2.03,1.19,4.02,1.9,5.88,1.92c0.94,0.01,1.89-0.12,2.87-0.44
				c0.97-0.33,1.98-0.77,3-1.36c2.06-1.13,4.05-2.73,6.39-4.26c-0.16,0.68-0.36,1.34-0.6,1.99c-0.25,0.64-0.56,1.26-0.86,1.89
				c-0.34,0.6-0.72,1.19-1.11,1.78c-0.21,0.28-0.44,0.56-0.67,0.83c-0.23,0.28-0.45,0.56-0.72,0.81l-0.79,0.77
				c-0.27,0.25-0.59,0.46-0.88,0.69l-0.45,0.34c-0.16,0.11-0.33,0.2-0.5,0.3c-0.34,0.19-0.66,0.4-1.02,0.56
				c-1.41,0.7-3.07,1.07-4.72,1.04c-1.65-0.02-3.27-0.46-4.66-1.16c-1.4-0.7-2.59-1.64-3.59-2.69c-1-1.05-1.82-2.22-2.46-3.46
				C163.7,295.55,163.19,294.25,162.99,292.85z"/>
			<circle class="st0" cx="187" cy="274.88" r="11.69"/>
			<ellipse class="st7" cx="187.88" cy="278.27" rx="6.79" ry="7.04"/>
			<circle class="st8" cx="187" cy="274.88" r="11.69"/>
			<circle class="st0" cx="166.13" cy="274.88" r="11.69"/>
			<ellipse class="st7" cx="167.01" cy="278.27" rx="6.79" ry="7.04"/>
			<g>
				<path class="st25" d="M183.03,252.07c-0.95,0-1.72-0.77-1.73-1.72c-0.08-9.78,1.46-15.93,9.79-20.37
					c2.98-1.59,6.3-1.41,9.1,0.49c2.73,1.86,4.35,4.96,4.04,7.7c-0.24,2.09-1.54,3.68-3.65,4.5c-2.48,0.96-4.49,0.85-5.95-0.31
					c-2.44-1.93-1.97-5.87-1.91-6.32c0.13-0.95,1-1.61,1.95-1.48c0.94,0.13,1.61,1,1.48,1.94c-0.13,0.97-0.01,2.63,0.64,3.14
					c0.42,0.33,1.35,0.26,2.56-0.21c1.19-0.46,1.4-1.17,1.46-1.67c0.17-1.43-0.93-3.34-2.55-4.45c-1-0.68-3.04-1.62-5.52-0.3
					c-6.86,3.66-8.03,8.49-7.96,17.29c0.01,0.96-0.76,1.74-1.72,1.74C183.04,252.07,183.03,252.07,183.03,252.07z"/>
			</g>
			<g>
				<path class="st25" d="M173.87,251.82c0,0-0.01,0-0.01,0c-0.96-0.01-1.72-0.79-1.72-1.74c0.07-8.8-1.1-13.63-7.96-17.29
					c-2.48-1.32-4.52-0.38-5.52,0.3c-1.62,1.1-2.71,3.01-2.55,4.45c0.06,0.5,0.27,1.21,1.46,1.67c1.21,0.46,2.14,0.54,2.56,0.21
					c0.65-0.51,0.76-2.17,0.64-3.14c-0.12-0.94,0.54-1.81,1.48-1.94c0.94-0.12,1.81,0.53,1.94,1.47c0.06,0.44,0.53,4.38-1.91,6.32
					c-1.47,1.16-3.47,1.27-5.95,0.31c-2.11-0.81-3.41-2.41-3.65-4.5c-0.32-2.75,1.3-5.84,4.04-7.7c2.8-1.91,6.11-2.09,9.1-0.49
					c8.33,4.44,9.87,10.59,9.79,20.37C175.59,251.05,174.82,251.82,173.87,251.82z"/>
			</g>
			<circle class="st8" cx="166.13" cy="274.88" r="11.69"/>
		</g>
		<g>
			<g>
				<path class="st4" d="M171.9,91.13c-3.56,2.78-5.34,7.25-6.52,11.62c-0.7,2.59-1.17,5.6,0.43,7.75c0.99,1.32,2.1,2.28,3.7,1.85
					c1.78-0.48,1.06-2.69,0.94-4.52c-0.22-3.67,1.11-7.4,3.61-10.09c1.1-1.18,2.52-2.44,2.35-4.05c-0.16-1.54-2.14-2.56-3.49-1.8
					L171.9,91.13z"/>
				<path class="st4" d="M267.45,144.28c0,0-0.39,17.6-8.15,3.4L267.45,144.28z"/>
				<path class="st4" d="M237.05,111.52c-2.21-0.5-4.62-0.09-6.54,1.12c-1.92,1.21-3.34,3.19-3.86,5.4
					c-0.34,1.45-0.3,2.95-0.22,4.43c0.14,2.44,0.06,6.07,0.64,6.82c0.7,0.9,1.8,0.81,2.17,0.56c1.79-1.21,1.64-3.17,1.75-5.34
					s-0.08-4.41,0.73-6.41c0.08-0.2,0.18-0.41,0.37-0.53c0.25-0.16,0.57-0.12,0.86-0.1c1.51,0.15,3.17-0.23,4.17-1.38
					c1-1.15,1.04-3.15-0.18-4.06L237.05,111.52z"/>
				
					<linearGradient id="SVGID_8_" gradientUnits="userSpaceOnUse" x1="191.8594" y1="23.8395" x2="310.668" y2="23.8395" gradientTransform="matrix(-0.9993 0.0366 0.0366 0.9993 467.5958 55.099)">
					<stop  offset="0.2563" style="stop-color:#F6E839"/>
					<stop  offset="0.8949" style="stop-color:#F6E839"/>
					<stop  offset="1" style="stop-color:#F6E839"/>
				</linearGradient>
				<path class="st26" d="M164.48,67.07c-0.08,5.23,0.57,10.48,1.92,15.53c0.9,3.36,2.15,6.7,4.36,9.38
					c3.79,4.61,9.91,6.66,15.84,7.35s11.94,0.26,17.87,0.98c14.61,1.77,28.12,11,35.09,23.96c3.27,6.08,5.2,12.94,9.48,18.35
					c2.22,2.8,5.02,5.12,8.18,6.79c1.15,0.61,2.38,1.14,3.68,1.22c2.35,0.14,4.56-1.21,6.25-2.85c3.28-3.2,5.18-7.54,6.59-11.9
					c6.05-18.74,4.23-39.21-0.7-58.27c-2.49-9.62-5.91-19.32-12.47-26.79c-7.83-8.92-19.25-13.71-30.39-17.82
					c-9.03-3.34-18.23-6.45-27.78-7.65c-9.55-1.2-19.56-0.39-28.22,3.82c-8.66,4.21-15.78,12.13-17.61,21.58L164.48,67.07z"/>
				<g class="st27">
					<g>
						<path class="st28" d="M156.52,50.95c1.57-8.09,16.27,8.75,16.27,8.75c-0.08,5.23,0.57,10.48,1.92,15.53
							c0.9,3.36,2.15,6.7,4.36,9.38c3.79,4.61,9.91,6.66,15.84,7.35c5.93,0.7,11.94,0.26,17.87,0.98
							c14.61,1.77,28.12,11,35.09,23.96c3.27,6.08,3.83,13.94,8.11,19.34c2.22,2.8,8.99,13.52,7.73,14.04
							c-0.91,0.38-1.87,0.58-2.85,0.52c-1.3-0.08-2.53-0.61-3.68-1.22c-3.16-1.66-5.96-3.99-8.18-6.79
							c-4.29-5.41-6.22-12.27-9.48-18.35c-6.96-12.97-20.48-22.19-35.09-23.96c-5.92-0.72-11.94-0.28-17.87-0.98
							c-5.93-0.7-12.05-2.75-15.84-7.35c-2.21-2.68-3.46-6.03-4.36-9.38c-1.35-5.06-2-10.3-1.92-15.53L156.52,50.95z"/>
					</g>
				</g>
				<path class="st29" d="M184.63,27.88c5.02-2.69,10.59-4.35,16.26-4.84c-0.61,2.66-1.96,5.14-3.87,7.09
					c5.77-2.89,12.62-3.55,18.84-1.81c-1.36,0.81-2.71,1.61-4.07,2.42c6.09-0.66,12.79-1.17,17.79,2.36
					c-1.61,0.8-3.21,1.59-4.82,2.39c3.98,1.88,7.41,4.88,9.8,8.57c-2.88-0.03-5.77,0.46-8.48,1.44c2.49,0.92,4.59,2.86,5.7,5.27
					c-2.39-0.47-4.9-0.33-7.22,0.41c2.64,1.08,4.92,3.03,6.38,5.47c-2.61-1.63-5.85-2.21-8.87-1.59c3.4,1.41,6.18,4.25,7.52,7.69
					c-2.3-1.25-5.16-1.42-7.59-0.45c2.21,1.93,3.65,4.7,3.97,7.61c-2.78-0.85-5.78-0.94-8.61-0.25c1.92,1.87,3.17,4.42,3.47,7.09
					c-1.18-0.72-2.38-1.45-3.72-1.75s-2.88-0.12-3.89,0.81c1.93,2.41,3.17,5.37,3.54,8.43c-2.39-0.72-4.88-1.13-7.38-1.21
					c1.46,2.82,2.69,5.75,3.67,8.77c-2.62-1.85-5.63-3.15-8.77-3.79c1.02,2.68,2.05,5.37,3.07,8.05c-2.85-1.27-5.81-2.3-8.83-3.06
					c0.32,2.22,0.63,4.43,0.95,6.65c-3.41-1.04-6.79-2.16-10.15-3.36c-0.79,0.91,0.26,2.57-0.55,3.47c-0.6,0.66-1.67,0.33-2.48-0.04
					c-2.07-0.95-4.14-1.9-6.21-2.85c-0.37,0.58-0.44,1.34-0.18,1.97c-1.5,0.26-3.02-0.3-4.34-1.05c-4.68-2.65-7.69-7.67-8.82-12.92
					c-1.13-5.25-0.56-10.74,0.6-15.98L184.63,27.88z"/>
				<g>
					<path class="st4" d="M248.32,116.91c6.57-2.32,16.41-10.03,21.49-15.49c1.6-1.73,4.16-5.7,6.21-9.65
						c1.16,7.24,1.73,14.57,1.48,21.83c-1.54,2.58-3.97,4.69-6.36,6.6c-1.9,1.52-3.82,3.01-5.91,4.26
						c-7.09,4.26-15.92,5.46-23.92,3.38c-0.55-1.21-1.13-2.4-1.75-3.56c-1.16-2.17-2.51-4.23-4.02-6.17
						C239.75,118.98,244.25,118.35,248.32,116.91z"/>
					<path class="st4" d="M251.28,63.71c1.62-4.27,3.7-12.16,4.44-17.56c1.73,1.42,3.35,2.97,4.84,4.67
						c3.04,3.46,5.4,7.41,7.31,11.6c-0.72,4.58-2.33,9.87-3.59,12.73c-3.15,7.16-18.35,28.31-37.78,34.11
						c-3.35-2.5-7.03-4.56-10.91-6.1c5.17-1.99,9.61-5.52,13.81-9.2C235.77,88.38,248.73,70.44,251.28,63.71z"/>
				</g>
				<path class="st30" d="M137.7,33.03c-9.28-6.71-18.65-13.47-29.13-18.1c-9.74-4.31-31.21-7.2-38.27-6.47
					c-5.17,0.54-12.25,4.04-15.35,9.7c-2.04,3.73-2.36,11.2,0.31,16.28c0.4,0.76,6.99,12.13,8.35,16.41
					c1.36,4.28,6.81,13.67,10.86,15.61c3.76,1.8,8.18,1.14,12.29,0.44c13.95-2.38,28.01-4.82,42.15-4.37L137.7,33.03z"/>
				<path class="st30" d="M209.21,42.7c12.38-11.76,28.43-23.48,41.87-25.67c7.41-1.2,15.03-2.88,25.35-2.46
					c11.44,0.46,24.78,4.12,32.81,6.51c4.56,1.35,9.77,4.3,10.23,9.03c1.25,12.78-9.39,22.08-11.82,24.91
					c-3.59,4.17-9.84,11.57-21.99,12.72c-7.33,0.69-30.49-5.02-40.07-6.02c-6.65-0.69-21,0.34-24.14,1.36
					c-2.28,0.74-11.84,2.02-13.7,0.52S209.21,42.7,209.21,42.7z"/>
				
					<radialGradient id="SVGID_9_" cx="301.7028" cy="-7.2208" r="37.6241" gradientTransform="matrix(-0.9993 0.0366 0.0366 0.9993 467.5958 55.099)" gradientUnits="userSpaceOnUse">
					<stop  offset="0.2563" style="stop-color:#F6E839"/>
					<stop  offset="0.8949" style="stop-color:#F6E839"/>
					<stop  offset="1" style="stop-color:#F6E839"/>
				</radialGradient>
				<path class="st31" d="M165.08,21.94c12.16,0.82,16.2,3,19.17,4.36c5.36,2.45,10.49,5.43,14.33,9.9c1.4,1.63,2.72,3.37,3.62,5.32
					c1.92,4.17,1.78,9.07,0.43,13.47s-3.8,8.35-6.43,12.12c-6.29,9.01-13.74,17.2-22.1,24.33c-2.26,1.93-4.71,3.84-7.63,4.42
					c-4.86,0.97-9.56-1.94-13.59-4.83c-7.02-5.03-13.9-10.5-18.85-17.57c-4.96-7.07-7.82-15.99-6.02-24.44
					c1.82-8.54,8.22-15.59,15.81-19.92C151.41,24.79,159.48,21.56,165.08,21.94z"/>
				<path class="st32" d="M198.73,40.33c-3.85-4.47-8.97-7.45-14.33-9.9c-2.97-1.36-7.01-3.54-19.17-4.36
					c-5.6-0.38-13.67,2.85-21.26,7.17c-7.59,4.32-13.99,11.38-15.81,19.92c-0.29,1.38-0.45,2.78-0.51,4.18
					c-0.31-2.77-0.23-5.57,0.36-8.31c1.82-8.54,8.22-15.59,15.81-19.92c7.59-4.32,15.66-7.55,21.26-7.17
					c12.16,0.82,16.2,3,19.17,4.36c5.36,2.45,10.49,5.43,14.33,9.9c1.4,1.63,2.72,3.37,3.62,5.32c1.2,2.61,1.59,5.5,1.39,8.37
					c-0.22-1.46-0.62-2.89-1.24-4.24C201.45,43.7,200.13,41.97,198.73,40.33z"/>
				<path class="st4" d="M154.99,34.38c-3.14-3.25-6.28-6.49-9.42-9.74c-2.99-3.1-6.17-6.3-10.28-7.6
					c-1.35-0.43-2.78-0.63-4.08-1.19c-1.3-0.56-2.53-1.57-2.83-2.96c-0.52-2.36,1.89-4.46,4.27-4.85c2.37-0.39,4.83,0.32,6.87,1.58
					s3.71,3.05,5.2,4.94c4.29,5.47,7.19,11.9,9.43,18.48L154.99,34.38z"/>
				<path class="st4" d="M177.94,32.74c-1.05-3.69,0.36-7.59,1.88-11.11c1.9-4.4,4.1-8.86,7.76-11.94c1.24-1.04,2.68-1.93,4.28-2.13
					s3.38,0.41,4.21,1.8c1.16,1.95,0.1,4.45-1.17,6.33c-3.4,5.05-8.2,8.97-12.8,12.96c-1.79,1.55-3.64,3.23-4.44,5.46L177.94,32.74z
					"/>
				<g>
					<path class="st33" d="M150.01,77.99c0.77,1.45,1.98,2.68,3.39,3.6c1.41,0.93,3.06,1.51,4.75,1.71c0.85,0.1,1.7,0.08,2.52,0.02
						c0.82-0.06,1.64-0.14,2.47-0.34c0.82-0.2,1.64-0.49,2.37-0.96c0.69-0.5,1.31-1.14,1.58-1.93c-0.51,0.64-1.15,1.12-1.87,1.4
						c-0.7,0.32-1.46,0.48-2.23,0.55c-0.77,0.07-1.57,0.09-2.37,0.11c-0.79,0.02-1.57,0.01-2.33-0.08
						c-1.53-0.16-3.01-0.64-4.42-1.31C152.47,80.07,151.18,79.13,150.01,77.99z"/>
				</g>
				<g>
					<path class="st33" d="M165.2,77.19c0.2,0.48,0.46,0.93,0.74,1.36c0.28,0.43,0.61,0.84,0.95,1.22c0.35,0.38,0.72,0.74,1.13,1.06
						c0.2,0.16,0.41,0.32,0.62,0.46l0.17,0.11l0-0.11c-0.09,0.11-0.33,0.11-0.44-0.04c0.06,0.19,0.34,0.29,0.54,0.15l0.06-0.04
						l-0.06-0.07l-0.14-0.14c-0.18-0.17-0.36-0.36-0.54-0.54c-0.35-0.37-0.7-0.73-1.04-1.1c-0.34-0.37-0.67-0.76-1-1.14
						C165.85,77.98,165.53,77.59,165.2,77.19z"/>
				</g>
				<g>
					<path class="st33" d="M151.67,76.63c-0.45,0.13-0.88,0.3-1.31,0.47c-0.43,0.17-0.85,0.36-1.27,0.55
						c-0.42,0.2-0.82,0.42-1.24,0.49c-0.21,0.04-0.42,0.02-0.62-0.07c-0.2-0.07-0.38-0.22-0.48-0.44c0.02,0.24,0.19,0.45,0.4,0.59
						c0.21,0.13,0.47,0.19,0.72,0.19c0.51-0.02,0.95-0.26,1.36-0.44c0.42-0.2,0.83-0.4,1.24-0.63
						C150.87,77.12,151.28,76.89,151.67,76.63z"/>
				</g>
				<path class="st4" d="M193.2,82.72c1.07-0.84,2.56-1.28,3.82-0.78c1.19,0.48,1.96,1.7,2.22,2.96c0.27,1.26,0.11,2.56-0.04,3.83
					c-0.55,4.59-1.14,9.31-3.37,13.35c-1.7,3.08-4.25,5.59-6.86,7.94c-2.78,2.5-5.67,4.89-8.85,6.87c-1.06,0.66-2.2,1.29-3.44,1.44
					c-1.25,0.14-2.64-0.31-3.27-1.39c-0.69-1.17-0.29-2.73,0.57-3.77c0.87-1.04,2.12-1.67,3.34-2.27c2.6-1.27,5.27-2.52,7.35-4.53
					c2.38-2.31,3.79-5.47,4.52-8.7c0.73-3.23,0.16-6.66,0.93-9.88C190.48,86.35,192.13,83.55,193.2,82.72z"/>
				<path class="st4" d="M210.23,96.93c1.06-1.11,3.13-0.93,3.99,0.34c1.09,1.62,0,3.88-1.52,5.1c-1.52,1.22-3.45,1.91-4.83,3.29
					c-2.26,2.27-2.52,5.78-3.46,8.84c-0.45,1.46-0.87,2.72-1.66,4.03c-0.34,0.57-1.12,1.15-1.89,0.94c-0.98-0.26-1.06-1.1-0.97-2.11
					c0.36-3.89,1.09-7.74,2.17-11.49c0.18-0.64,0.38-1.28,0.74-1.84c0.37-0.57,0.89-1.01,1.4-1.45c1.4-1.2,2.79-2.4,4.19-3.61
					L210.23,96.93z"/>
				<path class="st4" d="M219.25,95.82c-0.12,3.16-0.05,6.35,0.8,9.39c0.42,1.48,0.98,3.03,0.6,4.52c-0.37,1.49-1.59,2.59-2.83,3.49
					c-4.47,3.27-9.93,5.16-13.89,9.04c-0.45,0.44-0.9,0.96-0.92,1.58c-0.05,1.23,1.51,1.86,2.74,1.78c1.78-0.12,3.42-0.94,5-1.75
					c4.63-2.36,9.29-4.75,13.38-7.95c1.54-1.2,3.06-2.64,3.52-4.54c0.38-1.59-0.05-3.25-0.47-4.83c-0.9-3.32-1.79-6.64-2.69-9.95
					c-0.29-1.08-0.61-2.25-1.48-2.95C220.52,91.62,219.29,94.73,219.25,95.82z"/>
				<path class="st4" d="M245.58,127.5c-0.96,3.87-13.08,2.34-18.28,6.81c-0.51,0.44-1.03,0.94-1.21,1.59
					c-0.33,1.17,0.56,1.9,1.72,2.26s2.95-0.09,4.05-0.61c1.1-0.52,5.54-1.74,6.96-1.95c2.64-0.39,5.24-0.97,7.79-1.74
					c0.84-0.25,1.69-0.54,2.35-1.12c1.07-0.94,1.41-2.45,1.66-3.85c0.76-4.32,1.22-8.7,1.37-13.09c0.04-1.17,0.01-2.47-0.77-3.34
					c-0.79-0.87-2.61-1.02-3.59,0.64C246.33,116.06,247.13,121.27,245.58,127.5z"/>
				<g>
					
						<ellipse transform="matrix(0.9012 -0.4335 0.4335 0.9012 -10.4189 69.5541)" class="st0" cx="147.31" cy="57.62" rx="7.1" ry="10.71"/>
					<path class="st4" d="M140.46,60.92L140.46,60.92c-1.28-2.67-1.8-5.51-1.45-8.01c0.36-2.58,1.58-4.49,3.45-5.39
						c1.87-0.9,4.13-0.66,6.36,0.67c2.17,1.29,4.07,3.47,5.35,6.14c2.68,5.57,1.79,11.59-1.99,13.4c-0.68,0.32-1.4,0.49-2.14,0.52
						C146.6,68.38,142.66,65.5,140.46,60.92z M142.89,48.44c-1.55,0.75-2.57,2.38-2.88,4.61c-0.32,2.31,0.17,4.94,1.36,7.43l0,0
						c2.44,5.07,7.08,7.91,10.36,6.33c3.27-1.57,3.95-6.98,1.52-12.04c-1.2-2.49-2.96-4.51-4.96-5.7c-1.25-0.74-2.49-1.1-3.63-1.06
						C144.04,48.03,143.44,48.17,142.89,48.44z"/>
				</g>
				<g>
					
						<ellipse transform="matrix(0.4837 -0.8752 0.8752 0.4837 39.64 182.3855)" class="st0" cx="174.41" cy="57.59" rx="10.71" ry="7.1"/>
					<path class="st4" d="M168.99,67.41c-3.67-2.03-4.22-8.08-1.23-13.5c1.43-2.59,3.45-4.66,5.69-5.82
						c2.31-1.2,4.58-1.31,6.39-0.31c3.67,2.03,4.22,8.08,1.23,13.5l0,0c-2.27,4.11-5.94,6.68-9.18,6.8
						C170.86,68.11,169.87,67.9,168.99,67.41z M180.18,60.78c2.72-4.92,2.35-10.35-0.83-12.11c-1.51-0.83-3.43-0.72-5.43,0.32
						c-2.06,1.08-3.94,3-5.27,5.41c-2.72,4.92-2.35,10.35,0.83,12.11C172.66,68.28,177.46,65.7,180.18,60.78L180.18,60.78z"/>
				</g>
				<g>
					
						<ellipse transform="matrix(0.4265 -0.9045 0.9045 0.4265 43.2846 191.4418)" class="st4" cx="172.61" cy="61.59" rx="5.82" ry="4.07"/>
					<path class="st0" d="M169.91,67.31c-2.29-1.08-2.93-4.52-1.45-7.68l0,0c1.49-3.15,4.56-4.85,6.84-3.77
						c1.14,0.54,1.91,1.65,2.16,3.14c0.24,1.42-0.01,3.03-0.72,4.53c-0.71,1.5-1.79,2.72-3.04,3.44c-0.72,0.41-1.46,0.63-2.16,0.66
						C170.97,67.66,170.42,67.55,169.91,67.31z M169.38,60.07L169.38,60.07c-1.25,2.65-0.82,5.48,0.96,6.32
						c0.83,0.39,1.85,0.29,2.86-0.29c1.07-0.61,2.01-1.68,2.63-2.99c0.62-1.31,0.84-2.71,0.63-3.93c-0.2-1.15-0.76-2-1.59-2.39
						c-0.37-0.17-0.77-0.25-1.18-0.23C172.12,56.61,170.37,57.97,169.38,60.07z"/>
				</g>
				<g>
					
						<ellipse transform="matrix(0.939 -0.3438 0.3438 0.939 -12.0451 55.0879)" class="st4" cx="149.32" cy="61.51" rx="4.07" ry="5.82"/>
					<path class="st0" d="M145.01,63.08L145.01,63.08c-1.2-3.28-0.24-6.65,2.13-7.52c2.37-0.87,5.28,1.09,6.48,4.37
						c1.2,3.28,0.24,6.65-2.13,7.52c-0.34,0.12-0.69,0.19-1.04,0.2C148.32,67.73,146.04,65.89,145.01,63.08z M147.49,56.52
						c-1.84,0.68-2.53,3.46-1.52,6.21v0c1.01,2.75,3.33,4.43,5.17,3.76c1.84-0.68,2.53-3.46,1.52-6.21
						c-0.87-2.38-2.73-3.97-4.42-3.91C147.99,56.39,147.74,56.43,147.49,56.52z"/>
				</g>
			</g>
		</g>
	</g>
</g>
</svg>
