<!-- Generator: Adobe Illustrator 24.1.2, SVG Export Plug-In  -->
<svg version="1.1" xmlns="http://www.w3.org/2000/svg" xmlns:xlink="http://www.w3.org/1999/xlink" x="0px" y="0px"
	 width="299.45px" height="386.14px" viewBox="0 0 299.45 386.14"
	 style="overflow:visible;enable-background:new 0 0 299.45 386.14;" xml:space="preserve">
<style type="text/css">
	.st0{fill:#FFFFFF;}
	.st1{fill:#EAEAEA;}
	.st2{fill:#3E3E3D;}
	.st3{fill:#585857;}
	.st4{fill:#222221;}
	.st5{fill:#CA4F5F;}
	.st6{fill:#848484;}
	.st7{fill:#6F6F6E;}
</style>
<defs>
</defs>
<g>
	<path class="st0" d="M298.95,309.02c-2-13.14-10.06-24.51-23.3-32.88l-0.69-0.48c2.32-13.48,1.03-26.78-3.77-39.12
		c0.74-0.18,1.45-0.54,2.05-1.06c1.37-1.18,2-3,1.65-4.78c-3.42-17.08-10.79-31.15-21.92-41.83c-0.25-7.81-2.07-19.83-10.14-26.7
		c-2.43-2.06-5.23-3.47-8.33-4.18c2.71-5.26,5.07-11.13,7.12-17.68c0.75,0.17,1.55,0.16,2.32-0.04c1.83-0.47,3.25-1.95,3.64-3.8
		c3.52-16.54-1.43-29.42-6.21-41.87c-0.18-0.46-0.36-0.93-0.54-1.4c9.71-8.13,18.51-21.53,20.61-34.4c0.71,0.06,1.45-0.03,2.15-0.28
		c1.67-0.61,2.89-2.06,3.21-3.81c2.5-13.8-3.42-28.19-13.9-37.15c0.19-0.28,0.35-0.58,0.49-0.9c0.79-1.89,0.35-4.06-1.1-5.5
		c-9.25-9.1-21.55-12.83-34.66-10.49c-16.36,2.92-32.34,14.91-40.66,30.26c-9.96-1.93-20.35-2-31.04-0.2
		c0.26-1.39-0.08-2.84-0.97-3.98c-1.06-1.36-2.74-2.08-4.46-1.91c-2.63,0.27-4.52,0.49-5.79,0.67c-1.28,0.18-2.35,0.5-3.21,0.94
		c-8.93,1.41-18.91,5.06-29.78,10.9c-2.43-7.72-7.36-14.02-14.49-18.44c-9.86-6.12-23.48-8.21-36.88-6.02
		c0.59-1.18,0.72-2.58,0.26-3.9c-0.77-2.21-2.97-3.59-5.3-3.32C29.92,7.46,17.2,19.28,10.06,37.94c-1.7-0.07-3.33,0.73-4.32,2.15
		C-1.1,49.95-1.85,61.9,3.63,73.71c6.96,14.99,23.03,27.72,39,31.48c-3.56,16.32-0.67,30.87,8.12,41.57
		c-0.54,0.55-0.95,1.23-1.18,1.98c-0.42,1.33-0.26,2.78,0.43,4c4.53,7.87,9.92,15.11,15.89,21.36
		c-14.12,5.49-29.6,22.69-35.53,34.12c-0.63,1.21-0.73,2.63-0.29,3.92c0.44,1.29,1.39,2.35,2.62,2.92c0.18,0.08,0.36,0.16,0.55,0.24
		c-1.27,1.94-2.58,4.03-3.81,6.12c-6.22,10.62-7.61,16.52-4.78,20.38c0.26,0.36,0.57,0.71,0.93,1.04
		c-8.29,15.42-7.25,27.38-3.01,33.86c2.49,3.8,6.22,6.11,10.49,6.64c0.91,3.68,2.11,7.21,3.6,10.54c0.03,0.07,0.06,0.13,0.09,0.2
		c0.44,0.87,0.91,1.76,1.42,2.69c-5.79,10.75-5.97,24.46-0.43,39c9.01,23.63,30.35,42.99,54.36,49.32c1.97,0.52,5.53,1.06,9.83,1.06
		c8.08,0,18.79-1.91,26.5-9.45c4.92-4.82,8.78-10.21,11.48-16.06c0.13-0.14,0.25-0.3,0.36-0.45c5.35,1.95,11.15,4.15,16.67,6.49
		c1.96,0.83,4.24,0.33,5.67-1.26c0.56-0.63,0.95-1.37,1.14-2.15c8.8,0.78,17.13-1.81,24.25-4.97c0.97,1.5,2.02,2.96,3.13,4.38
		c0.09,0.11,0.18,0.22,0.28,0.33c0.13,0.13,0.25,0.26,0.38,0.39c0.15,0.2,0.31,0.39,0.48,0.57c2.19,2.22,4.55,4.28,6.96,6.06
		l0.21,0.16c0.91,0.67,1.69,1.22,2.42,1.7c0.27,0.18,0.54,0.34,0.8,0.51l0.32,0.2c0.3,0.19,0.6,0.37,0.89,0.55
		c14.37,8.65,31.76,9.75,48.97,3.1c15.28-5.91,29-17.34,37.64-31.36C297.8,333.02,300.72,320.62,298.95,309.02z M202.37,366.11
		L202.37,366.11L202.37,366.11L202.37,366.11z"/>
	<g>
		<g>
			<path class="st1" d="M102.54,183.89c-45.88,3.48-79.95,66.27-61.32,107.93c21.91,43.67,76.39,52.7,117.69,70.24
				c-1.08-1.95-2.17-3.91-3.25-5.86c22.21,9.06,45.04-12.43,64.97-20.94c41.01-16.19,64.15-66.03,41.64-105.89
				c2.61,0.63,5.19,1.41,7.72,2.33c-13.72-68.55-91.32-70.82-143.73-45.84L102.54,183.89z"/>
			<path class="st2" d="M177.62,219.26c-16.63,4.8-29.68,28.33-16.31,28.84c-4.89,25.73,42.86,17.5,44.71-2.88
				c0.08,2.1,0.69,4.19,1.77,6c7.6-6.07,13.21-14.6,15.77-23.98c-2.38,1.51,0.56,5.6,3.29,4.88c7.24-4.27,7.12-15.75,9.91-23.11
				c11.1,24.45,25.75-65.9-21.06-42.76C215.7,166.25,153.32,226.28,177.62,219.26z"/>
			<path class="st2" d="M76.87,177.67c-12.3-3.32-34.58,18.43-42.06,32.85c2.78,1.29,6.28,0.87,8.66-1.06
				c-3.73,4.62-25.23,35.47-9.59,29.33c-25.21,37.2,5.25,58.63,24.85,16.63c0.69,2.87,2.51,5.46,4.98,7.08
				c5.92-7.48,8.35-17.62,6.48-26.97c1.6,3.1,3.2,6.21,4.8,9.31c5.22-8.47,6.6-19.21,3.68-28.73c1.84,1.21,3.68,2.41,5.53,3.62
				C102.04,189.05,87.17,180.45,76.87,177.67z"/>
			<path class="st2" d="M270.72,278.81c-46.23-22.42-111.46,35.3-75.64,80.76c49.85,53,141.06-39.42,77.81-79.25L270.72,278.81z"/>
			<g>
				<path class="st0" d="M234.18,298.81c-20.2,5.11-47.23,35.86-38.32,61.63c30.09,30.53,74.45,9.69,91.43-20.42
					C287.27,315.04,266.39,290.66,234.18,298.81z"/>
			</g>
			<path class="st0" d="M124.95,373.11c39.39-38.52-8.21-103.66-58.22-91.04c-52.74,13.31-23.64,84.92,26.65,98.18
				C98.01,381.46,114.73,383.1,124.95,373.11z"/>
			<g>
				<path class="st2" d="M67.17,281.62c-29.01,7.32-33.25,32.28-22.83,55.46c0.43-10.98,4.4-15.69,10.58-23.07
					c20.13-24.07,66.97-5.25,81.28,43.28C152.93,319.18,110.97,270.57,67.17,281.62z"/>
			</g>
			<g>
				<path class="st1" d="M180.13,35.79c11.61-24.68,46.53-42.85,68.66-21.06c-4.02-0.07-8.03-0.14-12.05-0.21
					c16.56,4.29,28.19,22.47,25.14,39.3c-1.75-1.45-3.5-2.91-5.24-4.36c2.35,15.1-10.92,35.65-24.02,43.51"/>
				<path class="st3" d="M222.41,68.68c9.14-3.53,13.4-16.08,11.56-25.36c-4.51-15.26-31.66-16.55-36.71-0.76"/>
				<path class="st1" d="M98.44,47.09C96.8,18.11,63.78,12.12,40.49,20.6c-0.08-3.95,2.05-7.87,5.4-9.96
					C26.72,12.85,16,32.1,11.77,49.25c-0.64-2.11-1.27-4.22-1.91-6.33C-7.53,68,25.38,100.76,51.29,101.31"/>
				<path class="st3" d="M89.34,47.82C69.89,27,37.89,38.65,44.32,64.51c1.69,6.82,9.47,17.75,17.41,17.04"/>
			</g>
			<path class="st1" d="M141.03,29.82c-1.08,2.94-2.62,5.7-4.56,8.16c43.1-12.06,81.81,7.23,97.47,51.06
				c5.45,15.26,12.6,28.34,8.75,46.4c-2.31-2.66-0.28-6.09-2.59-8.75c-14.82,64.94-51.71,65.43-109.06,71.2
				c2.37-1.24,4.18-3.52,4.85-6.11c-34.82,9.81-64.83-12.44-81.55-41.53c1.98-0.93,4.26-1.2,6.41-0.75
				c-28.82-22.17-10.06-67.63,13.33-87.66c17.44-13.8,44.73-31.73,66.8-31.04C140.88,30.79,125.03,31.46,141.03,29.82z"/>
			<path class="st4" d="M144.94,132.02c12.78,10.32,37.09-19.66,14.36-21.4C159.3,110.63,115.46,108.22,144.94,132.02z"/>
			<g>
				<path class="st5" d="M152.13,166.74c-0.38-9.17-13.69-3.78-19.45,1.43c3.91,4.46,7.97,8.92,13.69,10.32
					c10.51,2.19,18.51-3.61,25.75-10.72C166.87,160.38,156.56,162.3,152.13,166.74z"/>
				<path class="st4" d="M186.16,153.16c-5.12,5.24-9.38,11.13-14.62,16.39c-2.59,2.65-5.48,5.1-8.76,7.1
					c-3.28,1.98-7.11,3.3-11.07,3.5c-1.98,0.08-3.93-0.1-5.88-0.52c-2.01-0.52-3.82-1.35-5.48-2.44c-3.28-2.19-5.84-5.03-8.15-7.87
					c-2.36-2.82-4.5-5.74-7.12-8.11c-1.3-1.19-2.72-2.26-4.33-2.99c-1.6-0.74-3.38-1.17-5.21-1.22c1.81-0.3,3.72-0.19,5.54,0.36
					c1.83,0.52,3.5,1.5,5.04,2.58c3.06,2.24,5.54,5.04,8.04,7.66c2.51,2.6,4.98,5.2,7.89,6.92c1.43,0.87,2.98,1.56,4.52,1.93
					c1.62,0.31,3.33,0.45,5,0.36c3.36-0.11,6.64-1.21,9.66-2.9c3.05-1.66,5.83-3.9,8.54-6.25
					C175.16,162.93,180.12,157.37,186.16,153.16z"/>
				<g>
					<path class="st4" d="M121.4,157.52c-9.1,0-18.25-2.43-24.92-6.05l0.8-1.47c10.82,5.87,28.39,8.53,41.04,2.26
						c6.92-3.43,11.39-9.18,13.01-16.69c0.08-0.56,0.19-1.12,0.31-1.69l1.64,0.3c-0.09,0.58-0.2,1.15-0.32,1.72
						c-1.62,10.8,5.25,15.04,11.48,16.69c15.41,4.08,41.8-4.46,46-17.84l1.59,0.5c-4.55,14.5-31.78,23.26-48.02,18.96
						c-7.57-2-11.95-6.48-12.8-12.88c-2.4,5.41-6.52,9.64-12.16,12.43C133.73,156.39,127.58,157.52,121.4,157.52z"/>
				</g>
				<path class="st4" d="M101.54,143.86c-0.52,1.67-1.12,3.31-1.99,4.86c-0.85,1.55-1.94,3.01-3.31,4.23
					c-1.37,1.19-3.04,2.15-4.87,2.48c-1.81,0.36-3.66,0.14-5.3-0.47c1.77-0.07,3.42-0.26,4.96-0.79c1.53-0.53,2.9-1.4,4.11-2.47
					c1.23-1.06,2.29-2.34,3.32-3.67C99.48,146.68,100.4,145.21,101.54,143.86z"/>
				<path class="st4" d="M206.44,127.48c0.72,1.46,1.51,2.8,2.43,4.03c0.93,1.22,1.95,2.35,3.11,3.33c1.13,1.01,2.39,1.86,3.73,2.61
					c1.35,0.74,2.78,1.34,4.33,1.85c-1.63,0.18-3.3-0.09-4.86-0.66c-1.57-0.56-3.02-1.46-4.29-2.54c-1.25-1.11-2.33-2.42-3.11-3.9
					C206.99,130.74,206.49,129.11,206.44,127.48z"/>
			</g>
			<g>
				<ellipse class="st6" cx="229.12" cy="321.89" rx="6.57" ry="5"/>
				
					<ellipse transform="matrix(0.546 -0.8378 0.8378 0.546 -156.0545 357.5759)" class="st6" cx="251.88" cy="322.77" rx="5" ry="6.57"/>
				
					<ellipse transform="matrix(0.9728 -0.2317 0.2317 0.9728 -71.6459 71.2743)" class="st6" cx="267.64" cy="340.69" rx="5" ry="6.57"/>
				<ellipse class="st6" cx="234.92" cy="350.45" rx="19.15" ry="13.24"/>
			</g>
			<g>
				
					<ellipse transform="matrix(0.3699 -0.9291 0.9291 0.3699 -283.5628 285.1983)" class="st7" cx="68.48" cy="351.66" rx="6.57" ry="5"/>
				
					<ellipse transform="matrix(0.7746 -0.6324 0.6324 0.7746 -190.7791 123.3564)" class="st7" cx="77.68" cy="329.33" rx="6.57" ry="5"/>
				
					<ellipse transform="matrix(0.9841 -0.1775 0.1775 0.9841 -56.0952 22.8301)" class="st7" cx="99.56" cy="324.96" rx="6.57" ry="5"/>
				
					<ellipse transform="matrix(0.5799 -0.8147 0.8147 0.5799 -247.6961 229.9388)" class="st7" cx="99.12" cy="355.16" rx="16.36" ry="13.24"/>
			</g>
			<g>
				<ellipse class="st0" cx="111.73" cy="100.52" rx="19.31" ry="20.92"/>
				<ellipse class="st4" cx="114.6" cy="106.25" rx="11.5" ry="12.45"/>
				<g>
					<path class="st4" d="M111.73,122.19c-11.06,0-20.06-9.72-20.06-21.67s9-21.67,20.06-21.67c11.06,0,20.06,9.72,20.06,21.67
						S122.79,122.19,111.73,122.19z M111.73,80.35c-10.24,0-18.56,9.05-18.56,20.17s8.33,20.17,18.56,20.17s18.56-9.05,18.56-20.17
						S121.96,80.35,111.73,80.35z"/>
				</g>
			</g>
			<g>
				<ellipse class="st0" cx="187.22" cy="99.43" rx="19.31" ry="20.92"/>
				<ellipse class="st4" cx="190.09" cy="105.15" rx="11.5" ry="12.45"/>
				<g>
					<path class="st4" d="M187.21,121.09c-11.06,0-20.06-9.72-20.06-21.67c0-11.95,9-21.67,20.06-21.67
						c11.06,0,20.06,9.72,20.06,21.67C207.28,111.37,198.28,121.09,187.21,121.09z M187.21,79.26c-10.24,0-18.56,9.05-18.56,20.17
						s8.33,20.17,18.56,20.17s18.56-9.05,18.56-20.17S197.45,79.26,187.21,79.26z"/>
				</g>
			</g>
		</g>
	</g>
</g>
</svg>
