<!-- Generator: Adobe Illustrator 24.1.2, SVG Export Plug-In  -->
<svg version="1.1" xmlns="http://www.w3.org/2000/svg" xmlns:xlink="http://www.w3.org/1999/xlink" x="0px" y="0px"
	 width="731.96px" height="350.88px" viewBox="0 0 731.96 350.88"
	 style="overflow:visible;enable-background:new 0 0 731.96 350.88;" xml:space="preserve">
<style type="text/css">
	.st0{fill:#FFFFFF;}
	.st1{fill:#B47F24;}
	.st2{fill:url(#SVGID_1_);}
	.st3{fill:#BB9B69;}
	.st4{fill:#FFFFFF;stroke:#222221;stroke-width:3.3502;stroke-miterlimit:10;}
	.st5{fill:#F7931E;}
	.st6{fill:#FBB03B;}
	.st7{clip-path:url(#XMLID_7_);}
	.st8{clip-path:url(#XMLID_9_);}
	.st9{fill:#222221;}
	.st10{fill:url(#SVGID_2_);}
	.st11{fill:url(#SVGID_3_);}
	.st12{clip-path:url(#XMLID_10_);}
	.st13{clip-path:url(#XMLID_12_);}
	.st14{fill:url(#SVGID_4_);}
</style>
<defs>
</defs>
<g>
	<path class="st0" d="M714.29,283.4c-0.11-0.13-0.22-0.26-0.34-0.39c-1.92-1.99-3.67-3.23-5.24-3.94
		c-1.21-23.69-7.13-47.85-34.98-56.68c-4.87-27.36-11.91-42.18-22.05-46.51c-4.04-1.72-8.32-1.74-12.77-0.06
		c-2.76-9.93-6.78-17.99-12.39-24.94c-15.62-19.36-29.84-29.87-43.35-32.01c-0.19-0.58-0.4-1.19-0.61-1.82
		c-8.53-25.73-19.08-53.26-36.27-54.14l-0.96-0.05c-1.77-0.11-3.46,0.76-4.44,2.25l-0.53,0.8c-4.95,7.54-6.69,16-7.88,24.43
		c-2.38-0.99-4.85-1.39-6.81-1.3c-3.1,0.15-6.18,0.42-9.21,0.81c-0.48-0.99-1.01-1.99-1.6-3.02c-3.53-6.12-8.58-12.04-13.47-17.77
		l-1.67-1.96c-0.64-0.75-1.27-1.5-1.9-2.25c-3.49-4.17-8.08-9.77-13.67-16.64c-5.07-6.24-10.89-13.45-17.3-21.44
		c-7.41-9.23-14.35-17.93-19.22-24.04c-2.17-2.72-5.84-3.51-8.94-1.92c-3.1,1.6-4.6,5.06-3.64,8.41c2.75,9.62,5.35,19.11,7.99,28.8
		l0.79,2.89c2.42,8.87,4.92,18.03,7.52,27.25c2.14,7.6,4.12,14.44,6.05,20.92c0.42,1.4,0.86,2.84,1.34,4.32
		c0.18,0.57,0.37,1.13,0.55,1.68c-14.2-8.72-21.09-9.97-25.83-5.66c-7.34,6.67-0.17,18.93,11.71,39.23
		c3.06,5.23,6.22,10.62,8.81,15.5c-5.2,9.95-9.52,19.22-11.08,29.58c-0.05,0.33-0.07,0.66-0.05,0.99
		c-4.2,11.1-7.9,22.34-11.48,33.24c-5.76,17.53-11.72,35.66-19.5,52.34c-1.17,1.39-2.43,2.83-3.79,4.38
		c-11.1,12.68-26.31,30.05-14.38,49.93c0.09,0.15,0.19,0.29,0.29,0.43l0.21,0.28c0.1,0.14,0.21,0.27,0.33,0.4
		c14.79,15.94,40.6,19.05,59.44,21.32c0.08,0.01,0.16,0.02,0.23,0.02l0.15,0.01c0.07,0,0.13,0.01,0.2,0.01
		c18.85,0.61,24.83-14.48,29.17-25.42c0.61-1.53,1.19-3,1.79-4.4c2.86-2.32,6.13-4.57,9.57-6.94c11.09-7.63,23.53-16.2,26.8-30.75
		c9.78-0.89,18.18-2.71,28.11-7.51c5.05,10.16,12.16,18.9,19.07,27.4c8.7,10.7,16.92,20.81,20.54,32.89
		c0.38,1.27,1.25,2.34,2.42,2.97c0.22,0.12,0.44,0.22,0.66,0.3c1.24,3.69,3.58,10.74,6.08,18.49c0.67,2.06,2.59,3.46,4.76,3.46
		h123.41c1.36,0,2.67-0.56,3.61-1.54s1.44-2.31,1.39-3.67C731.15,323.3,728.42,301.37,714.29,283.4z"/>
	<g>
		<g>
			<g>
				<path class="st1" d="M539.12,112.55c0,0,3.62-30.75,7.24-41.6c3.16-9.48,26.23,50.65,18.99,60.6
					C565.35,131.54,551.78,112.55,539.12,112.55z"/>
				<path class="st1" d="M476.71,133.35l-37.08-37.08c0,0-3.53,6.48,23.56,51.17L476.71,133.35z"/>
				<g>
					<linearGradient id="SVGID_1_" gradientUnits="userSpaceOnUse" x1="557.23" y1="347.217" x2="549.1384" y2="69.2133">
						<stop  offset="0" style="stop-color:#EFE0BF"/>
						<stop  offset="0.2041" style="stop-color:#ECDCBA"/>
						<stop  offset="0.4272" style="stop-color:#E4D2AD"/>
						<stop  offset="0.6592" style="stop-color:#D7C097"/>
						<stop  offset="0.896" style="stop-color:#C5A879"/>
						<stop  offset="1" style="stop-color:#BB9B69"/>
					</linearGradient>
					<path class="st2" d="M713.67,332.33l-132.95-203.5c0,0-28.04-71.45-34.37-57.88c-6.33,13.57-7.24,33.46-7.24,33.46
						l-63.21,10.52c-68.98-49.76-26.19,3.97-12.72,32.51l-1.29,2.46c-18.76,36.42-26.45,78.01-43.83,114.9
						c-10.69,12.88-28.95,29.22-18.12,47.27c12.98,13.98,37.02,17.02,55.34,19.23c16.91,0.53,19.87-15.32,25.26-27.28
						c13.42-11.45,35.1-19.82,35.97-39.82c13.88-0.83,23.25-2.8,35.42-9.51l1.96-0.63c5.82,15.36,17.55,27.5,27.54,40.43
						c6.4,8.28,12.09,16.87,15.07,26.84c0,0,3.31,9.79,7.01,21.26h112.83L713.67,332.33z"/>
				</g>
			</g>
			<g>
				<path class="st0" d="M553.85,253.22c11.17-6.73,26.07-19.12,33.55-29.8"/>
				<path class="st3" d="M554.71,254.65l-1.73-2.87c10.75-6.48,25.55-18.63,33.05-29.33l2.74,1.92
					C581.01,235.46,565.76,247.99,554.71,254.65z"/>
			</g>
			<g>
				<path class="st3" d="M455.6,332.12c-0.29,0-0.58,0-0.88-0.01l-0.15-0.01c-18.07-2.18-42.83-5.16-56.37-19.75l-0.21-0.28
					c-10.06-16.76,3.2-31.9,13.85-44.07c1.52-1.73,2.95-3.37,4.28-4.97c8.05-17.12,14.13-35.62,20-53.5
					c6.75-20.53,13.72-41.77,23.76-61.26l0.91-1.73c-2.95-6.11-7.2-13.37-11.31-20.4c-10.86-18.56-16.8-29.24-12.66-33.01
					c2.85-2.59,9.62-2.01,39.55,19.58l-1.96,2.72c-30.33-21.87-34.75-20.34-35.33-19.82c-0.05,0.05-1.27,1.29,2.5,9.3
					c2.59,5.5,6.58,12.32,10.8,19.53c4.32,7.39,8.79,15.02,11.81,21.42l0.36,0.75l-1.68,3.2c-9.91,19.24-16.85,40.35-23.55,60.76
					c-5.93,18.05-12.06,36.71-20.25,54.07l-0.09,0.19l-0.14,0.16c-1.4,1.68-2.89,3.39-4.47,5.2c-10.42,11.9-22.22,25.38-13.59,39.99
					c12.72,13.57,36.63,16.46,54.12,18.57c12.94,0.39,16.88-9.6,21.06-20.16c0.81-2.04,1.65-4.15,2.54-6.14l0.15-0.34l0.29-0.24
					c3.45-2.94,7.49-5.73,11.4-8.42c11.49-7.91,23.37-16.08,23.98-30.2l0.07-1.51l1.51-0.09c12.96-0.77,22.34-2.49,34.71-9.3
					l0.3-0.13l3.47-1.12l0.56,1.49c4.46,11.77,12.66,21.86,20.59,31.61c8.83,10.86,17.97,22.1,22.06,35.77l-3.21,0.96
					c-3.9-13.03-12.42-23.51-21.45-34.61c-7.77-9.56-15.79-19.43-20.54-31.06l-0.31,0.1c-12.39,6.8-21.86,8.7-34.52,9.54
					c-1.39,14.84-13.55,23.21-25.32,31.31c-3.9,2.68-7.59,5.22-10.84,7.96c-0.8,1.81-1.54,3.68-2.33,5.65
					C474.93,320.29,470.24,332.11,455.6,332.12z"/>
			</g>
			<path class="st3" d="M437.96,95.56c13.67,8.21,23.34,22.1,32.23,35.08"/>
			<path class="st4" d="M534.45,115.18"/>
			<g>
				<path class="st3" d="M576.43,125.07c-0.53-1.51-1.13-3.33-1.81-5.4c-5.02-15.13-15.32-46.2-27.83-48.33
					c-4.41,7.24-5.52,15.88-6.69,25.01c-0.84,6.55-1.7,13.32-3.88,19.73l-3.17-1.08c2.07-6.09,2.92-12.69,3.73-19.08
					c1.21-9.45,2.46-19.22,7.75-27.28l0.53-0.8l0.96,0.05c15.22,0.78,26,33.27,31.78,50.72c0.68,2.04,1.28,3.85,1.8,5.35
					L576.43,125.07z"/>
			</g>
			<path class="st3" d="M546.16,69.07c8.48,14.6,21.45,37.36,20.34,59.16"/>
			<path class="st5" d="M525.9,94.03c-22.04,1.05-48.99,8.96-57.6,32.64c-6.64,15.84-17.87,30.68-20.45,47.82
				c4.54-1.43,8.67-4.13,11.81-7.72c-3.54,11.44-6.82,22.96-9.85,34.55c19.16-1.83,19.45-31.64,26.51-45.92
				c2.94,10.19,0.97,21.07-1.02,31.49c10.47-6.08,18.49-16.25,21.95-27.85c0.75,23.72,14.38-3.21,16.43-12.03
				c1.02,25.57,15.55-8.25,14.7-17.34c-0.52,7.53,0.93,15.19,4.15,22.01c9.31-7.75,1.08-37.14,3.11-49.91
				C535.63,95.88,529.01,93.88,525.9,94.03z"/>
			<g>
				<g>
					<path class="st6" d="M710.33,286.49c-9.08-9.38-8.68,4.22-8.01,10.53l-6.55,1.69c1.03,15.55,4.79,30.01,10.08,43.88h21.08
						C726.08,322.42,723.13,302.77,710.33,286.49z"/>
				</g>
			</g>
			<g>
				<defs>
					<path id="XMLID_6_" d="M662.95,228.56c1.69-2.17,4.91-2.33,7.62-1.9c48.99,13.96,26.68,77.51,35.92,114.81
						c-17.82-24.1-33.84-49.53-47.9-76L662.95,228.56z"/>
				</defs>
				<use xlink:href="#XMLID_6_"  style="overflow:visible;fill:#F7931E;"/>
				<clipPath id="XMLID_7_">
					<use xlink:href="#XMLID_6_"  style="overflow:visible;"/>
				</clipPath>
				<g class="st7">
					<path class="st5" d="M710.36,298.07c-6.52,18.32-0.44,40.41,14.53,52.81"/>
				</g>
				<g class="st7">
					<path class="st5" d="M676.83,224.34c19.77,12.91,37.52,28.91,52.41,47.24"/>
				</g>
			</g>
			<g>
				<defs>
					<path id="XMLID_5_" d="M635.89,183.05c37.68-25.74,37.24,99.93,41.56,117.09c-34.37-17.95-34-57.98-41.85-91.19L635.89,183.05z
						"/>
				</defs>
				<use xlink:href="#XMLID_5_"  style="overflow:visible;fill:#FBB03B;"/>
				<clipPath id="XMLID_8_">
					<use xlink:href="#XMLID_5_"  style="overflow:visible;"/>
				</clipPath>
			</g>
			<g>
				<defs>
					<path id="XMLID_4_" d="M576.2,123.52c18.38-1.26,35.64,17.16,46.41,30.5c21.72,26.92,12.46,67.41,22,100.01
						c-20.65-14.94-40.06-35.23-50.49-58.49c-8.93-19.91-9.12-43.41-22.55-61.54L576.2,123.52z"/>
				</defs>
				<use xlink:href="#XMLID_4_"  style="overflow:visible;fill:#F7931E;"/>
				<clipPath id="XMLID_9_">
					<use xlink:href="#XMLID_4_"  style="overflow:visible;"/>
				</clipPath>
				<g class="st8">
					<path class="st5" d="M580.39,121.26c2.67-0.9,5.54,0.4,8.04,1.71c19.17,10.07,36.95,22.79,52.66,37.7"/>
				</g>
				<g class="st8">
					<path class="st5" d="M642.8,194.04c-3.5,22.34,2.2,45.99,15.49,64.28"/>
				</g>
				<g class="st8">
					<path class="st5" d="M0,45.35c1.83,0.18,3.06,1.91,4.03,3.46c12.97,20.73,25.95,41.47,38.92,62.2"/>
				</g>
			</g>
			<path class="st9" d="M464.27,302.3c0.49,2.97,0.26,6.08-0.48,9.07c-0.76,2.99-2.09,5.84-3.88,8.4l-1.39,1.89l-1.54,1.8
				c-0.57,0.55-1.15,1.09-1.75,1.61c-0.64,0.47-1.31,0.9-1.98,1.33c-2.77,1.54-5.96,2.45-9.09,2.1l-0.06-0.33
				c2.71-1.46,5.11-2.88,7.33-4.58c0.54-0.44,1.09-0.86,1.65-1.26c0.53-0.45,1.08-0.87,1.64-1.29l1.6-1.37l1.47-1.53
				c1.83-2.15,3.34-4.62,4.42-7.29c1.1-2.67,1.69-5.56,1.74-8.52L464.27,302.3z"/>
			<g>
				<ellipse class="st0" cx="516.81" cy="196.18" rx="15.39" ry="16.67"/>
				<g>
					<path class="st9" d="M516.81,213.69c-8.95,0-16.23-7.85-16.23-17.51s7.28-17.51,16.23-17.51c8.95,0,16.23,7.85,16.23,17.51
						S525.76,213.69,516.81,213.69z M516.81,180.35c-8.02,0-14.55,7.1-14.55,15.83c0,8.73,6.53,15.83,14.55,15.83
						c8.02,0,14.55-7.1,14.55-15.83C531.36,187.45,524.84,180.35,516.81,180.35z"/>
				</g>
				<ellipse class="st9" cx="519.1" cy="200.75" rx="9.16" ry="9.92"/>
			</g>
			<ellipse class="st9" cx="433.84" cy="313.08" rx="7.07" ry="4.81"/>
			<g>
				<g>
					<linearGradient id="SVGID_2_" gradientUnits="userSpaceOnUse" x1="439.769" y1="66.4732" x2="514.7717" y2="66.4732">
						<stop  offset="0" style="stop-color:#DEC3DF"/>
						<stop  offset="0.319" style="stop-color:#DCC0DD"/>
						<stop  offset="0.509" style="stop-color:#D5B8D8"/>
						<stop  offset="0.6652" style="stop-color:#CAAACF"/>
						<stop  offset="0.803" style="stop-color:#BA96C2"/>
						<stop  offset="0.9276" style="stop-color:#A67CB1"/>
						<stop  offset="1" style="stop-color:#9769A5"/>
					</linearGradient>
					<path class="st10" d="M495.91,70.34c-0.65-0.76-1.29-1.52-1.93-2.28c-3.81-4.56-8.58-10.38-13.71-16.69
						c-5.58-6.87-11.58-14.31-17.32-21.46c-7.42-9.24-14.36-17.94-19.23-24.06c-1.51-1.9-4.52-0.33-3.86,2.01
						c2.75,9.65,5.38,19.22,8.01,28.85c2.71,9.93,5.43,19.92,8.3,30.1c1.93,6.85,3.92,13.78,6.03,20.84
						c0.41,1.37,0.84,2.78,1.31,4.22c2.34,7.29,5.4,15.31,9.29,21.93c7.65,13,18.54,20.62,33.69,6.75
						c10.9-11.21,9.71-21.37,4.03-31.24C506.85,82.94,501.3,76.68,495.91,70.34z"/>
				</g>
			</g>
		</g>
	</g>
</g>
</svg>
