<!-- Generator: Adobe Illustrator 24.1.2, SVG Export Plug-In  -->
<svg version="1.1" xmlns="http://www.w3.org/2000/svg" xmlns:xlink="http://www.w3.org/1999/xlink" x="0px" y="0px" width="257px"
	 height="389.14px" viewBox="0 0 257 389.14" style="overflow:visible;enable-background:new 0 0 257 389.14;" xml:space="preserve"
	>
<style type="text/css">
	.st0{fill:#FFFFFF;}
	.st1{fill:#FFEF52;}
	.st2{fill:#C8D12B;}
	.st3{fill:#39B54A;}
	.st4{fill:#006837;}
	.st5{fill:#999999;}
	.st6{fill:#B3B3B3;}
	.st7{fill:#9E005D;}
	.st8{fill:#215FAA;}
	.st9{fill:#3FA9F5;}
	.st10{fill:#F15A24;}
	.st11{fill:#F7931E;}
</style>
<defs>
</defs>
<g>
	<path class="st0" d="M238.52,17.54c-8.59-3.56-16.45-3.69-23.35-0.4c-7.43,3.55-12.78,10.54-16.92,18.8
		c0.14-4.9-0.11-9.11-0.74-12.84c-2.17-12.78-9.08-20.43-20.53-22.72c-6.03-1.2-12.6,0.45-19,4.79
		c-12.58,8.53-22.72,26.05-26.65,45.92l-27.65-3.77c-1.4-0.19-2.81,0.22-3.89,1.13c-1.08,0.91-1.73,2.23-1.78,3.64l-1.06,28.25
		L96,54.6c-0.05-1.48-0.76-2.86-1.93-3.76c-8.6-6.69-18.86-3.24-23.63-0.99c-0.88-0.02-1.74,0.12-2.55,0.43
		c-1.84,0.02-3.52,0.45-4.95,1.26c-0.21-1.38-0.99-2.63-2.17-3.42c-0.6-0.4-14.53-9.5-26.1-1.34c-3.03,0.08-5.62,1.32-7.32,3.5
		c-2.11,2.71-2.08,5.83-1.86,7.5l-0.99,65.41c-0.04,2.97,1.92,5.5,4.63,6.32l-0.17,4.58C9.99,140.14,0,148.47,0,158.31l1,193
		c0,0.8,0.2,1.59,0.58,2.3c6.06,11.52,19.08,21.25,36.65,27.39c15.48,5.41,34.05,8.14,55.4,8.14c6.96,0,14.22-0.29,21.76-0.87
		c27.93-2.15,48.8-8.33,62.02-18.38c10.59-8.05,12.34-15.8,12.51-16.66c0.06-0.29,0.09-0.59,0.09-0.89l2-194.05
		c0-1.81-0.35-3.6-1.06-5.34c2.7-4.49,6.06-9.4,10.04-14.63c1.21-1.59,2.34-3.07,3.41-4.43c18.22-2.88,39.91-25.52,48.36-51.02
		C262.95,52.06,253.44,23.71,238.52,17.54z M233.17,69c-2.36,8.85-9.08,29.23-20.35,27.36c-1.21-0.2-2.02-0.76-2.72-1.86
		c-2.39-3.78-3.17-14.11,1.84-31.77c5.43-19.13,12.32-27.54,16.7-27.54c0.18,0,0.36,0.01,0.53,0.04c0.83,0.14,2.07,0.54,3.29,2.44
		C236.48,43.88,235.97,58.48,233.17,69z M150.11,130.65c-1.43-0.32-2.89-0.62-4.38-0.91l1.29-14.68c0.23,0.27,0.47,0.53,0.7,0.79
		c1.07,5.18,1.85,9.88,2.3,14C150.06,130.1,150.09,130.37,150.11,130.65z M176.56,51.24c-2.04,7.58-8.27,30.66-16.67,29.12
		c-0.2-0.04-0.77-0.4-1.48-1.51c-3.35-5.29-4.59-18.98-0.89-32.74c2.28-8.48,5.89-16.33,9.91-21.54c3.06-3.97,5.77-5.66,7.22-5.66
		c0.14,0,0.27,0.02,0.38,0.05c1.31,0.35,3.05,3.22,3.76,8.67C179.67,34.16,178.85,42.77,176.56,51.24z"/>
	<g>
		<path class="st1" d="M184.99,352.29c0,0-5,26-70,31s-99-13-109-32l-1-193h182L184.99,352.29z"/>
		<ellipse class="st2" cx="95.99" cy="158.29" rx="91" ry="28"/>
		<path class="st3" d="M97.99,185.29l5-133l44,6l-11,125c0,0-7.98,1.2-16,2C109.99,186.29,97.99,185.29,97.99,185.29z"/>
		<g>
			<g>
				
					<rect x="111.51" y="70.53" transform="matrix(0.0749 -0.9972 0.9972 0.0749 23.3071 186.2017)" class="st4" width="1" height="20.02"/>
			</g>
			<g>
				
					<rect x="107.74" y="78.18" transform="matrix(0.0518 -0.9987 0.9987 0.0518 17.8127 188.6383)" class="st4" width="1" height="13.52"/>
			</g>
			<g>
				
					<rect x="107.74" y="82.35" transform="matrix(0.0272 -0.9996 0.9996 0.0272 16.2324 194.8905)" class="st4" width="1" height="13.5"/>
			</g>
			<g>
				
					<rect x="111.51" y="83.53" transform="matrix(0.0749 -0.9972 0.9972 0.0749 10.3436 198.2278)" class="st4" width="1" height="20.02"/>
			</g>
			<g>
				
					<rect x="107.74" y="91.18" transform="matrix(0.0518 -0.9987 0.9987 0.0518 4.8302 200.965)" class="st4" width="1" height="13.52"/>
			</g>
			<g>
				
					<rect x="107.74" y="95.35" transform="matrix(0.0272 -0.9996 0.9996 0.0272 3.2372 207.5376)" class="st4" width="1" height="13.5"/>
			</g>
			<g>
				
					<rect x="110.51" y="96.53" transform="matrix(0.0749 -0.9972 0.9972 0.0749 -3.5449 209.2567)" class="st4" width="1" height="20.02"/>
			</g>
			<g>
				
					<rect x="106.74" y="104.18" transform="matrix(0.0518 -0.9987 0.9987 0.0518 -9.1006 212.293)" class="st4" width="1" height="13.52"/>
			</g>
			<g>
				
					<rect x="106.74" y="108.35" transform="matrix(0.0272 -0.9996 0.9996 0.0272 -10.7309 219.1849)" class="st4" width="1" height="13.5"/>
			</g>
			<g>
				
					<rect x="109.51" y="109.53" transform="matrix(0.0749 -0.9972 0.9972 0.0749 -17.4335 220.2856)" class="st4" width="1" height="20.02"/>
			</g>
			<g>
				
					<rect x="106.74" y="117.18" transform="matrix(0.0518 -0.9987 0.9987 0.0518 -22.0831 224.6196)" class="st4" width="1" height="13.52"/>
			</g>
			<g>
				
					<rect x="106.74" y="121.35" transform="matrix(0.0272 -0.9996 0.9996 0.0272 -23.7261 231.8319)" class="st4" width="1" height="13.5"/>
			</g>
			<g>
				
					<rect x="109.51" y="122.53" transform="matrix(0.0749 -0.9972 0.9972 0.0749 -30.397 232.3118)" class="st4" width="1" height="20.02"/>
			</g>
			<g>
				
					<rect x="105.74" y="130.18" transform="matrix(0.0518 -0.9987 0.9987 0.0518 -36.0139 235.9476)" class="st4" width="1" height="13.52"/>
			</g>
			<g>
				
					<rect x="105.74" y="134.35" transform="matrix(0.0272 -0.9996 0.9996 0.0272 -37.6941 243.4793)" class="st4" width="1" height="13.5"/>
			</g>
			<g>
				
					<rect x="109.51" y="136.53" transform="matrix(0.0749 -0.9972 0.9972 0.0749 -44.3576 245.263)" class="st4" width="1" height="20.02"/>
			</g>
			<g>
				
					<rect x="105.74" y="144.18" transform="matrix(0.0518 -0.9987 0.9987 0.0518 -49.9951 249.2224)" class="st4" width="1" height="13.52"/>
			</g>
			<g>
				
					<rect x="105.74" y="148.35" transform="matrix(0.0272 -0.9996 0.9996 0.0272 -51.689 257.0992)" class="st4" width="1" height="13.5"/>
			</g>
			<g>
				
					<rect x="108.51" y="149.53" transform="matrix(0.0749 -0.9972 0.9972 0.0749 -58.2462 256.2919)" class="st4" width="1" height="20.02"/>
			</g>
			<g>
				
					<rect x="105.74" y="157.18" transform="matrix(0.0518 -0.9987 0.9987 0.0518 -62.9776 261.5491)" class="st4" width="1" height="13.52"/>
			</g>
			<g>
				
					<rect x="104.74" y="161.35" transform="matrix(0.0272 -0.9996 0.9996 0.0272 -65.657 268.7466)" class="st4" width="1" height="13.5"/>
			</g>
			<g>
				
					<rect x="108.51" y="162.53" transform="matrix(0.0749 -0.9972 0.9972 0.0749 -71.2097 268.318)" class="st4" width="1" height="20.02"/>
			</g>
			<g>
				
					<rect x="104.74" y="170.18" transform="matrix(0.0518 -0.9987 0.9987 0.0518 -76.9084 272.877)" class="st4" width="1" height="13.52"/>
			</g>
			<g>
				
					<rect x="104.74" y="174.35" transform="matrix(0.0272 -0.9996 0.9996 0.0272 -78.6522 281.3936)" class="st4" width="1" height="13.5"/>
			</g>
		</g>
		<path class="st5" d="M194.99,62.29c0,1-13,59-20,73s-14,21-14,21l-5,23c0,0,19-6,21-8c2.55-2.55,1-11,20-36s20-22,20-22
			s-20-3-20-20S194.99,62.29,194.99,62.29z"/>
		<path class="st6" d="M182.99,57.29l6,3c0,0-11,43-15,64s-4,50-4,50s-7.15,3.15-10,4c-2.27,0.68-11,3-11,3s8-34,6-52s-9-40-9-40
			s12,16,24,1S182.99,57.29,182.99,57.29z"/>
		<path class="st7" d="M236.61,22.16c-27.19-11.26-36.64,19.58-43.61,43.13c-8.21,27.71-12.06,58.04,2,63c17,6,43.64-18.74,53-47
			S248.99,27.29,236.61,22.16z M237.99,70.29c-5.28,19.79-14,33-26,31c-11.03-1.84-10.46-20.23-4.87-39.93
			c5.59-19.71,13.93-32.56,22.87-31.07C241.99,32.29,241.99,55.29,237.99,70.29z"/>
		<path class="st7" d="M175.99,5.29c-14.87-2.97-34.45,17.74-40,48s13,62,21,63c9.97,1.25,27.45-23.74,33-54
			S195.99,9.29,175.99,5.29z M181.39,52.55c-5.14,19.07-11.39,34.74-22.39,32.74c-8.07-1.47-11.43-21.39-6.3-40.46
			c5.14-19.07,15.72-32.81,23.64-30.67C184.26,16.28,186.52,33.48,181.39,52.55z"/>
		<g>
			<path class="st8" d="M36.99,51.29l-4,109c9.68,3.78,19.61,1.29,23,0l2-108C57.99,52.29,45.99,44.29,36.99,51.29z"/>
			<path class="st9" d="M33.6,159.97l-0.6,18.32c0,0,13,4,22,5l0.54-23.38C52.14,161.2,43.28,163.75,33.6,159.97z"/>
		</g>
		<g>
			<path class="st8" d="M30.99,124.79c-0.01,0-0.02,0-0.02,0c-0.83-0.01-1.49-0.69-1.48-1.52l1-65.83
				c-0.13-0.67-0.36-2.59,0.79-4.07c0.56-0.72,1.66-1.58,3.71-1.58c0.52,0,0.91-0.01,1.21-0.02c0.35-0.34,0.87-0.5,1.38-0.37
				c1.61,0.4,1.55,1.6,1.52,1.84c-0.19,1.55-1.75,1.55-4.11,1.55c-0.67,0-1.13,0.14-1.35,0.42c-0.36,0.46-0.27,1.42-0.2,1.71
				l0.05,0.19l-1,66.2C32.48,124.13,31.81,124.79,30.99,124.79z"/>
		</g>
		<g>
			<path class="st10" d="M90.99,54.79l4,109c-9.68,3.78-19.61,1.29-23,0l-2-108C69.99,55.79,81.99,47.79,90.99,54.79z"/>
			<path class="st11" d="M94.39,163.47l0.6,22.82c0,0-9,0-22-1l-0.54-21.88C75.85,164.7,84.71,167.25,94.39,163.47z"/>
		</g>
		<g>
			<path class="st10" d="M63.99,128.29c-0.01,0-0.02,0-0.02,0c-0.83-0.01-1.49-0.69-1.48-1.52l1-65.83
				c-0.13-0.67-0.36-2.59,0.79-4.07c0.56-0.72,1.66-1.58,3.71-1.58c0.52,0,0.91-0.01,1.21-0.02c0.35-0.34,0.87-0.5,1.38-0.37
				c1.61,0.4,1.55,1.6,1.52,1.84c-0.19,1.55-1.75,1.55-4.11,1.55c-0.67,0-1.13,0.14-1.35,0.42c-0.36,0.46-0.27,1.42-0.2,1.71
				l0.05,0.19l-1,66.2C65.48,127.63,64.81,128.29,63.99,128.29z"/>
		</g>
	</g>
</g>
</svg>
