<!-- Generator: Adobe Illustrator 24.1.2, SVG Export Plug-In  -->
<svg version="1.1" xmlns="http://www.w3.org/2000/svg" xmlns:xlink="http://www.w3.org/1999/xlink" x="0px" y="0px"
	 width="284.96px" height="369.19px" viewBox="0 0 284.96 369.19"
	 style="overflow:visible;enable-background:new 0 0 284.96 369.19;" xml:space="preserve">
<style type="text/css">
	.st0{fill:#FFFFFF;}
	.st1{fill:#2C6D2F;}
	.st2{fill:url(#SVGID_1_);}
	.st3{fill:url(#SVGID_2_);}
	.st4{fill:url(#SVGID_3_);}
	.st5{fill:url(#SVGID_4_);}
	.st6{fill:url(#SVGID_5_);}
	.st7{fill:url(#SVGID_6_);}
	.st8{fill:url(#SVGID_7_);}
	.st9{fill:url(#SVGID_8_);}
	.st10{fill:url(#SVGID_9_);}
	.st11{fill:url(#SVGID_10_);}
	.st12{fill:#82B03F;}
	.st13{fill:#548C19;}
	.st14{fill:url(#SVGID_11_);}
	.st15{fill:url(#SVGID_12_);}
	.st16{fill:url(#SVGID_13_);}
	.st17{fill:url(#SVGID_14_);}
	.st18{fill:url(#SVGID_15_);}
	.st19{fill:url(#SVGID_16_);}
	.st20{fill:url(#SVGID_17_);}
	.st21{fill:url(#SVGID_18_);}
	.st22{fill:url(#SVGID_19_);}
	.st23{fill:url(#SVGID_20_);}
</style>
<defs>
</defs>
<g>
	<path class="st0" d="M280.97,18.13c-5.28-4.77-13.37-3.55-24.92,3.93c0.7-3.1,0.9-6.25,0.27-9.23c-1.03-4.88-4.12-8.73-8.93-11.15
		c-4.23-2.13-8.69-2.24-12.88-0.32c-9.07,4.14-15.34,17.54-18.76,26.99c-5.06-6.02-12.65-13.26-20.51-14.33
		c-4.32-0.59-8.35,0.67-11.66,3.64c-12.49,11.21-9.59,41.59-7.85,59.75c0.15,1.6,0.29,3.06,0.41,4.36
		c-2.72,3.07-6.9,8.39-8.94,13.98c-0.19,0.18-0.37,0.36-0.56,0.55c0.35-2.41,0.68-5.13,0.91-7.94c1.06-13.42-0.94-21.15-6.3-24.31
		c-4.3-2.53-9.02-1.13-12.84,1.05c-2.04-8.07-6.19-19.93-13.62-24.88c-3.48-2.32-7.43-3.02-11.42-2.02
		c-8.82,2.2-12.91,7.17-14.81,11.33c-5.06-5.48-12.54-11.9-21.46-14.39c-11.3-3.15-29.04-2.17-32.98,7.84
		c-2.61,6.63,1.38,13.78,12.46,21.95c-3.15,0.44-6.16,1.36-8.72,2.99c-4.2,2.68-6.73,6.93-7.29,12.3c-0.5,4.71,0.97,8.93,4.24,12.18
		c7.07,7.03,21.8,8.17,31.86,8.05c-3.85,6.86-7.95,16.52-6.19,24.26c0.81,3.53,2.75,6.41,5.64,8.47
		c-13.68-0.83-22.89,1.28-26.76,2.16c-0.52,0.12-0.92,0.22-1.2,0.27c-0.14,0.01-0.27,0.03-0.4,0.05c-6.14-5.58-14.28-8.98-23.2-8.98
		C15.49,126.67,0,142.17,0,161.22c0,14.84,9.41,27.53,22.57,32.41c-7.33,6.34-11.98,15.7-11.98,26.13
		c0,15.95,10.86,29.41,25.58,33.36c-6.16,6.24-9.98,14.81-9.98,24.26c0,16.5,11.63,30.33,27.11,33.74
		c-5.75,6.17-9.28,14.45-9.28,23.53c0,19.05,15.49,34.55,34.53,34.55c19.04,0,34.53-15.5,34.53-34.55c0-2.8-0.34-5.51-0.97-8.12
		c2.47,0.56,5.04,0.87,7.67,0.87c19.04,0,34.53-15.5,34.53-34.55c0-2.83-0.35-5.57-0.99-8.2c2.48,0.57,5.05,0.88,7.69,0.88
		c19.04,0,34.53-15.5,34.53-34.55c0-2.25-0.22-4.44-0.63-6.57c2.79,0.73,5.71,1.12,8.73,1.12c10.4,0,19.73-4.63,26.07-11.93
		c0.48,0.04,0.95,0.07,1.42,0.07c2.47,0,4.79-0.59,6.78-1.95c5.88-4.01,6.6-12.17,2.04-25.16c2.85,1.41,5.86,2.34,8.9,2.43
		c5,0.12,9.46-1.95,12.94-6.07c3.06-3.62,4.21-7.92,3.34-12.46c-1.89-9.79-13.44-19.04-21.82-24.58
		c7.04-3.51,15.86-9.19,18.75-16.58c1.59-4.06,1.31-8.28-0.79-12.19c-7.95-14.78-38.16-19.09-56.2-21.67
		c-1.59-0.23-3.04-0.43-4.33-0.63c-1.85-2.66-4.85-6.53-8.47-9.67c1.93,1.05,4.08,2.16,6.32,3.21c7.21,3.39,12.92,5.07,17.4,5.07
		c3.09,0,5.58-0.8,7.56-2.39c3.89-3.13,4.23-8.05,3.55-12.39c8.26,0.93,20.81,1.22,28.06-3.99c3.4-2.44,5.45-5.9,5.92-9.98
		c1.05-9.04-2.16-14.62-5.39-17.86c6.91-2.81,15.55-7.55,21.02-15.03C283.61,42.3,288.95,25.34,280.97,18.13z M58.23,135.6
		c0.09-0.01,0.17-0.01,0.23-0.01c0.01,0,0.02,0,0.03,0C58.4,135.59,58.32,135.59,58.23,135.6z M85.97,300.91
		c0.06-0.07,0.13-0.13,0.19-0.2c0.02,0.09,0.04,0.18,0.06,0.26C86.14,300.95,86.05,300.93,85.97,300.91z M107.61,136.57
		c-0.67-0.17-1.32-0.32-1.97-0.47c4.11-0.64,8.42-1.78,12.73-3.22C113.68,134.82,109.9,136.01,107.61,136.57z M171.57,162.67
		c-11.61-5.83-22.84-11.21-32.39-15.23c6.22-5.42,17.94-11.82,27.04-16.8c2.11-1.16,4.06-2.22,5.86-3.22
		c-0.82,0.95-1.64,1.94-2.46,2.96c-8.42,10.5-11.11,18.02-8.45,23.65c2.13,4.51,6.83,6,11.21,6.36
		C172.1,161.11,171.83,161.88,171.57,162.67z"/>
	<g>
		<path class="st1" d="M197.8,181.85c-25.57-13.47-50.23-25.97-66.86-32.33c6.43-12.46,47.3-28.57,52.38-35.68
			c5.57-7.8,3.05-33.98-16.72-10.03c-21.17,25.64-51.18,36.39-59.06,37.91c-29.58-7.69-47.02-1.12-49.03-1.12
			c0,0-67.98,41.25-23.96,20.63c44.02-20.63,169.94,41.81,168.83,36.24C202.26,191.88,197.8,181.85,197.8,181.85z"/>
		
			<radialGradient id="SVGID_1_" cx="-17.8301" cy="217.518" r="26.3518" gradientTransform="matrix(1.1206 0 0 1.1213 54.5279 -82.6778)" gradientUnits="userSpaceOnUse">
			<stop  offset="0" style="stop-color:#5E3D89"/>
			<stop  offset="0.2066" style="stop-color:#623F90"/>
			<stop  offset="0.504" style="stop-color:#6C46A3"/>
			<stop  offset="0.855" style="stop-color:#7E51C2"/>
			<stop  offset="1" style="stop-color:#8656D1"/>
		</radialGradient>
		<ellipse class="st2" cx="34.55" cy="161.22" rx="29.53" ry="29.55"/>
		
			<radialGradient id="SVGID_2_" cx="31.5174" cy="234.05" r="26.3518" gradientTransform="matrix(1.1206 0 0 1.1213 54.5279 -82.6778)" gradientUnits="userSpaceOnUse">
			<stop  offset="0" style="stop-color:#5E3D89"/>
			<stop  offset="0.2066" style="stop-color:#623F90"/>
			<stop  offset="0.504" style="stop-color:#6C46A3"/>
			<stop  offset="0.855" style="stop-color:#7E51C2"/>
			<stop  offset="1" style="stop-color:#8656D1"/>
		</radialGradient>
		<ellipse class="st3" cx="89.85" cy="179.76" rx="29.53" ry="29.55"/>
		
			<radialGradient id="SVGID_3_" cx="80.3676" cy="248.0961" r="26.3518" gradientTransform="matrix(1.1206 0 0 1.1213 54.5279 -82.6778)" gradientUnits="userSpaceOnUse">
			<stop  offset="0" style="stop-color:#5E3D89"/>
			<stop  offset="0.2066" style="stop-color:#623F90"/>
			<stop  offset="0.504" style="stop-color:#6C46A3"/>
			<stop  offset="0.855" style="stop-color:#7E51C2"/>
			<stop  offset="1" style="stop-color:#8656D1"/>
		</radialGradient>
		<ellipse class="st4" cx="144.59" cy="195.5" rx="29.53" ry="29.55"/>
		
			<radialGradient id="SVGID_4_" cx="133.0712" cy="261.8935" r="26.3518" gradientTransform="matrix(1.1206 0 0 1.1213 54.5279 -82.6778)" gradientUnits="userSpaceOnUse">
			<stop  offset="0" style="stop-color:#5E3D89"/>
			<stop  offset="0.2066" style="stop-color:#623F90"/>
			<stop  offset="0.504" style="stop-color:#6C46A3"/>
			<stop  offset="0.855" style="stop-color:#7E51C2"/>
			<stop  offset="1" style="stop-color:#8656D1"/>
		</radialGradient>
		<ellipse class="st5" cx="203.65" cy="210.98" rx="29.53" ry="29.55"/>
		
			<radialGradient id="SVGID_5_" cx="-8.3832" cy="269.7244" r="26.3518" gradientTransform="matrix(1.1206 0 0 1.1213 54.5279 -82.6778)" gradientUnits="userSpaceOnUse">
			<stop  offset="0" style="stop-color:#5E3D89"/>
			<stop  offset="0.2066" style="stop-color:#623F90"/>
			<stop  offset="0.504" style="stop-color:#6C46A3"/>
			<stop  offset="0.855" style="stop-color:#7E51C2"/>
			<stop  offset="1" style="stop-color:#8656D1"/>
		</radialGradient>
		<ellipse class="st6" cx="45.13" cy="219.76" rx="29.53" ry="29.55"/>
		
			<radialGradient id="SVGID_6_" cx="42.3316" cy="285.6349" r="26.3518" gradientTransform="matrix(1.1206 0 0 1.1213 54.5279 -82.6778)" gradientUnits="userSpaceOnUse">
			<stop  offset="0" style="stop-color:#5E3D89"/>
			<stop  offset="0.2066" style="stop-color:#623F90"/>
			<stop  offset="0.504" style="stop-color:#6C46A3"/>
			<stop  offset="0.855" style="stop-color:#7E51C2"/>
			<stop  offset="1" style="stop-color:#8656D1"/>
		</radialGradient>
		<ellipse class="st7" cx="101.97" cy="237.6" rx="29.53" ry="29.55"/>
		
			<radialGradient id="SVGID_7_" cx="95.0352" cy="297.5678" r="26.3518" gradientTransform="matrix(1.1206 0 0 1.1213 54.5279 -82.6778)" gradientUnits="userSpaceOnUse">
			<stop  offset="0" style="stop-color:#5E3D89"/>
			<stop  offset="0.2066" style="stop-color:#623F90"/>
			<stop  offset="0.504" style="stop-color:#6C46A3"/>
			<stop  offset="0.855" style="stop-color:#7E51C2"/>
			<stop  offset="1" style="stop-color:#8656D1"/>
		</radialGradient>
		<ellipse class="st8" cx="161.03" cy="250.98" rx="29.53" ry="29.55"/>
		
			<radialGradient id="SVGID_8_" cx="5.5385" cy="321.1162" r="26.3518" gradientTransform="matrix(1.1206 0 0 1.1213 54.5279 -82.6778)" gradientUnits="userSpaceOnUse">
			<stop  offset="0" style="stop-color:#5E3D89"/>
			<stop  offset="0.2066" style="stop-color:#623F90"/>
			<stop  offset="0.504" style="stop-color:#6C46A3"/>
			<stop  offset="0.855" style="stop-color:#7E51C2"/>
			<stop  offset="1" style="stop-color:#8656D1"/>
		</radialGradient>
		<ellipse class="st9" cx="60.73" cy="277.38" rx="29.53" ry="29.55"/>
		
			<radialGradient id="SVGID_9_" cx="58.2421" cy="334.9136" r="26.3518" gradientTransform="matrix(1.1206 0 0 1.1213 54.5279 -82.6778)" gradientUnits="userSpaceOnUse">
			<stop  offset="0" style="stop-color:#5E3D89"/>
			<stop  offset="0.2066" style="stop-color:#623F90"/>
			<stop  offset="0.504" style="stop-color:#6C46A3"/>
			<stop  offset="0.855" style="stop-color:#7E51C2"/>
			<stop  offset="1" style="stop-color:#8656D1"/>
		</radialGradient>
		<ellipse class="st10" cx="119.8" cy="292.85" rx="29.53" ry="29.55"/>
		
			<radialGradient id="SVGID_10_" cx="21.449" cy="372.1905" r="26.3518" gradientTransform="matrix(1.1206 0 0 1.1213 54.5279 -82.6778)" gradientUnits="userSpaceOnUse">
			<stop  offset="0" style="stop-color:#5E3D89"/>
			<stop  offset="0.2066" style="stop-color:#623F90"/>
			<stop  offset="0.504" style="stop-color:#6C46A3"/>
			<stop  offset="0.855" style="stop-color:#7E51C2"/>
			<stop  offset="1" style="stop-color:#8656D1"/>
		</radialGradient>
		<ellipse class="st11" cx="78.56" cy="334.65" rx="29.53" ry="29.55"/>
		<path class="st12" d="M184.43,121.64c0,0-40.12,37.91-4.46,33.45c0,0-15.04,31.5-0.28,36.93c14.77,5.44,21.45-6.83,21.45-12.4
			c0-5.57-3.34,22.3,8.91,36.79c12.26,14.49,45.69,26.76,15.6-28.99c0,0,20.06,26.76,32.32,12.26
			c12.26-14.49-25.63-34.56-25.63-34.56s32.32-11.15,24.52-25.64c-7.8-14.49-45.69-17.84-59.06-20.07c0,0-10.03-15.61-17.83-14.49
			C172.17,106.03,178.86,118.29,184.43,121.64z"/>
		<path class="st12" d="M160.22,103.91c0,0,11.87-53.92-15.11-30.17c0,0-5.26-34.51-20.52-30.7c-15.26,3.81-13.9,17.72-10.77,22.33
			c3.13,4.61-9.77-20.32-28.05-25.41s-52.82,3.57,3.39,32.75c0,0-31.62-10.85-33.62,8.04s40.62,14.17,40.62,14.17
			s-20.46,27.4-5.86,35s47.81-10.95,60.12-16.63c0,0,17.07,7.27,22.89,1.96C179.13,109.92,166.71,103.54,160.22,103.91z"/>
		<path class="st12" d="M186.62,96.01c0,0,46.25,30.11,33.54-3.52c0,0,34.13,7.23,35.95-8.4c1.81-15.64-11.67-19.26-17.09-17.95
			c-5.42,1.31,22.45-1.99,33.65-17.31s15.27-50.72-31.83-8.36c0,0,21.29-25.79,4.32-34.31S217.61,39.2,217.61,39.2
			s-18.42-28.81-30.67-17.82c-12.25,10.99-6.6,48.63-5.63,62.16c0,0-12.81,13.42-9.89,20.75S184.68,102.22,186.62,96.01z"/>
		<g>
			<path class="st13" d="M195.26,130.5c3.88,3.7,7.54,7.59,11.01,11.66c3.49,4.05,6.75,8.32,9.76,12.78l2.16,3.41
				c0.69,1.16,1.38,2.31,2.05,3.48l1.88,3.58c0.6,1.21,1.15,2.44,1.71,3.67c2.15,4.94,3.79,10.13,4.55,15.44
				c-1.93-5-4.11-9.81-6.59-14.46c-0.65-1.15-1.29-2.3-1.91-3.45l-2.01-3.4l-2.08-3.36l-2.17-3.3l-2.21-3.29l-2.28-3.25l-2.3-3.24
				c-0.79-1.06-1.56-2.14-2.33-3.23C201.39,139.26,198.22,134.97,195.26,130.5z"/>
		</g>
		<g>
			<path class="st13" d="M199.52,144.73c-0.18,1.41-0.48,2.66-0.76,3.88l-0.89,3.58l-0.93,3.57c-0.34,1.21-0.67,2.44-1.19,3.77
				c-0.69-1.25-0.99-2.62-1.08-3.99c-0.09-1.37,0.05-2.75,0.39-4.07c0.34-1.33,0.88-2.6,1.61-3.76
				C197.4,146.56,198.31,145.5,199.52,144.73z"/>
		</g>
		<g>
			<path class="st13" d="M216.53,172.87c0.2,1.53,0.22,2.94,0.26,4.33l0.03,4.1c0,1.36-0.01,2.71-0.05,4.1
				c-0.04,1.39-0.08,2.8-0.29,4.33c-0.96-1.21-1.56-2.6-1.98-4.03c-0.4-1.43-0.6-2.92-0.59-4.41c0.01-1.49,0.21-2.97,0.62-4.4
				C214.96,175.46,215.56,174.07,216.53,172.87z"/>
		</g>
		<g>
			<path class="st13" d="M215.76,147.01c1.63,0.11,3.12,0.37,4.59,0.63c1.47,0.27,2.9,0.55,4.33,0.85c1.43,0.29,2.86,0.6,4.32,0.94
				c1.45,0.35,2.92,0.7,4.46,1.25c-1.5,0.66-3.08,0.94-4.66,1.03c-1.58,0.08-3.17-0.05-4.71-0.37c-1.55-0.32-3.05-0.83-4.47-1.53
				C218.21,149.09,216.87,148.21,215.76,147.01z"/>
		</g>
		<g>
			<path class="st13" d="M229.03,177.2c1.5-0.39,3.03-0.38,4.52-0.18c1.49,0.22,2.94,0.66,4.3,1.29c1.36,0.63,2.64,1.45,3.77,2.44
				c1.12,1,2.12,2.15,2.79,3.56c-1.47-0.49-2.76-1.08-4.04-1.64l-3.74-1.71l-3.73-1.74C231.64,178.6,230.36,178,229.03,177.2z"/>
		</g>
		<g>
			<path class="st12" d="M190.12,87.05c-1.96-7.9,3.62-15.67,9.75-21.01c11.22-9.77,25.51-15.96,40.31-17.45"/>
			<path class="st13" d="M190.12,87.05c-0.46-1.37-0.75-2.82-0.76-4.31c0.01-1.48,0.22-2.97,0.62-4.41c0.84-2.87,2.29-5.54,4.08-7.9
				c1.75-2.4,3.88-4.51,6.1-6.42c2.22-1.91,4.57-3.67,7.02-5.28c4.93-3.18,10.27-5.71,15.84-7.45c2.79-0.87,5.63-1.54,8.5-2.02
				c2.88-0.43,5.77-0.71,8.66-0.69c-2.82,0.63-5.61,1.28-8.35,2.08c-2.74,0.79-5.42,1.74-8.06,2.76c-2.63,1.05-5.21,2.21-7.71,3.51
				c-2.52,1.26-4.95,2.69-7.31,4.24c-2.39,1.49-4.65,3.18-6.85,4.94c-2.23,1.73-4.25,3.64-6.09,5.73c-1.82,2.1-3.41,4.4-4.5,6.96
				c-0.56,1.27-0.92,2.62-1.16,4C189.95,84.19,189.96,85.61,190.12,87.05z"/>
		</g>
		<g>
			<path class="st12" d="M197.78,55.85c0.56-4.91-0.2-9.97-2.19-14.5"/>
			<path class="st13" d="M197.78,55.85c-0.46-1.29-0.72-2.5-0.96-3.68c-0.24-1.18-0.43-2.34-0.61-3.5
				c-0.18-1.16-0.33-2.32-0.45-3.52c-0.11-1.2-0.22-2.43-0.16-3.8c1.05,0.89,1.79,2,2.36,3.17c0.56,1.18,0.94,2.44,1.13,3.72
				c0.19,1.28,0.2,2.6,0.01,3.89C198.89,53.41,198.52,54.69,197.78,55.85z"/>
		</g>
		<g>
			<path class="st12" d="M227.38,43.47c1.28-5.54,2.57-11.07,3.85-16.61"/>
			<path class="st13" d="M227.38,43.47c-0.26-1.52-0.25-2.97-0.15-4.41c0.11-1.43,0.34-2.84,0.66-4.22
				c0.32-1.38,0.74-2.75,1.27-4.08c0.54-1.33,1.17-2.65,2.08-3.89c0.27,1.52,0.25,2.98,0.15,4.41c-0.11,1.43-0.34,2.84-0.66,4.22
				c-0.32,1.38-0.74,2.74-1.27,4.08C228.91,40.91,228.29,42.22,227.38,43.47z"/>
		</g>
		<g>
			<path class="st12" d="M216.8,67.95c4.05,1.23,8.1,2.46,12.16,3.68"/>
			<path class="st13" d="M216.8,67.95c1.19-0.27,2.29-0.26,3.37-0.17c1.07,0.1,2.12,0.32,3.13,0.62c1.01,0.3,2,0.71,2.95,1.22
				c0.95,0.52,1.87,1.13,2.71,2.01c-1.19,0.27-2.29,0.26-3.37,0.17c-1.07-0.1-2.12-0.32-3.13-0.62c-1.01-0.31-2-0.71-2.95-1.22
				C218.56,69.44,217.63,68.83,216.8,67.95z"/>
		</g>
		<g>
			<path class="st12" d="M197.48,80.75c4.48,3.85,9.5,7.07,14.85,9.56"/>
			<path class="st13" d="M197.48,80.75c1.51,0.5,2.84,1.17,4.14,1.85c1.29,0.7,2.53,1.43,3.75,2.21c1.22,0.78,2.4,1.6,3.57,2.49
				c1.16,0.9,2.32,1.83,3.4,3c-1.6-0.07-3.08-0.47-4.5-1c-1.42-0.54-2.77-1.23-4.04-2.05c-1.27-0.82-2.46-1.76-3.53-2.83
				C199.19,83.36,198.21,82.17,197.48,80.75z"/>
		</g>
		<g>
			<path class="st12" d="M150.54,101.15c-3.6-5.56-8.32-10.39-13.79-14.11c-10-6.8-22.06-9.71-33.83-12.49"/>
			<path class="st13" d="M150.54,101.15c-3.05-3.59-6.33-6.86-9.92-9.7c-1.81-1.4-3.65-2.75-5.62-3.9c-1.93-1.2-3.93-2.31-6.01-3.27
				c-2.05-1.01-4.16-1.93-6.3-2.75c-2.13-0.87-4.32-1.62-6.51-2.4c-4.39-1.52-8.86-2.91-13.27-4.58c4.69,0.49,9.32,1.27,13.91,2.4
				c2.3,0.53,4.56,1.25,6.82,2c2.25,0.77,4.45,1.7,6.61,2.72c4.29,2.09,8.38,4.76,11.84,8.08
				C145.57,93.03,148.5,96.89,150.54,101.15z"/>
		</g>
		<g>
			<path class="st12" d="M134.38,77c-1.5-4.36-4.28-8.26-7.91-11.1"/>
			<path class="st13" d="M134.38,77c-0.94-0.89-1.67-1.78-2.37-2.65c-0.69-0.88-1.34-1.74-1.97-2.63c-0.63-0.88-1.24-1.77-1.84-2.72
				c-0.6-0.95-1.2-1.92-1.73-3.11c1.28,0.23,2.39,0.81,3.38,1.53c0.99,0.73,1.85,1.61,2.55,2.61c0.71,0.99,1.26,2.1,1.63,3.27
				C134.39,74.48,134.58,75.72,134.38,77z"/>
		</g>
		<g>
			<path class="st12" d="M151,88.19c-1.46-3.73-2.93-7.45-4.39-11.18"/>
			<path class="st13" d="M151,88.19c-0.93-0.71-1.58-1.53-2.16-2.38c-0.56-0.85-1.02-1.75-1.39-2.68c-0.37-0.93-0.64-1.9-0.81-2.91
				c-0.16-1.01-0.23-2.06-0.03-3.21c0.93,0.71,1.59,1.53,2.16,2.38c0.56,0.85,1.02,1.75,1.39,2.68c0.36,0.93,0.64,1.9,0.81,2.91
				C151.12,85.99,151.19,87.03,151,88.19z"/>
		</g>
		<g>
			<path class="st12" d="M101.97,68.12c-1.88-2.21-3.76-4.42-5.64-6.63"/>
			<path class="st13" d="M101.97,68.12c-0.93-0.16-1.64-0.51-2.28-0.92c-0.63-0.41-1.18-0.9-1.65-1.45
				c-0.47-0.55-0.87-1.17-1.18-1.86c-0.3-0.7-0.53-1.45-0.54-2.4c0.93,0.16,1.64,0.51,2.28,0.92c0.63,0.41,1.18,0.9,1.65,1.46
				c0.47,0.55,0.86,1.17,1.17,1.86C101.72,66.42,101.95,67.17,101.97,68.12z"/>
		</g>
		<g>
			<path class="st12" d="M135.1,100.94c-5.65,2.65-10.34,7.28-13.07,12.9"/>
			<path class="st13" d="M135.1,100.94c-1.15,1.21-2.29,2.23-3.39,3.28c-1.1,1.03-2.17,2.05-3.22,3.09
				c-1.05,1.04-2.09,2.09-3.13,3.18c-1.06,1.08-2.1,2.21-3.32,3.34c0.14-1.67,0.7-3.23,1.47-4.68c0.78-1.44,1.78-2.77,2.95-3.92
				c1.17-1.15,2.5-2.14,3.96-2.89C131.86,101.6,133.43,101.06,135.1,100.94z"/>
		</g>
		<g>
			<path class="st12" d="M118.68,87.07c-4.94-0.95-10.28,2.85-11.01,7.83"/>
			<path class="st13" d="M118.68,87.07c-1.33,0.36-2.42,0.75-3.44,1.23c-1.01,0.47-1.93,1.02-2.81,1.65
				c-0.87,0.63-1.69,1.32-2.47,2.12c-0.79,0.8-1.51,1.7-2.29,2.84c-0.42-1.33-0.2-2.81,0.38-4.09c0.59-1.29,1.54-2.41,2.7-3.23
				c1.16-0.82,2.53-1.36,3.94-1.49C116.1,85.96,117.56,86.23,118.68,87.07z"/>
		</g>
	</g>
</g>
</svg>
