<!-- Generator: Adobe Illustrator 24.1.2, SVG Export Plug-In  -->
<svg version="1.1" xmlns="http://www.w3.org/2000/svg" xmlns:xlink="http://www.w3.org/1999/xlink" x="0px" y="0px"
	 width="360.42px" height="321.33px" viewBox="0 0 360.42 321.33"
	 style="overflow:visible;enable-background:new 0 0 360.42 321.33;" xml:space="preserve">
<style type="text/css">
	.st0{fill:#FFFFFF;}
	.st1{fill:#007D39;}
	.st2{fill:#FFFFFF;stroke:#222221;stroke-width:1.6255;stroke-miterlimit:10;}
	.st3{fill:url(#SVGID_1_);}
	.st4{fill:url(#SVGID_2_);}
	.st5{opacity:0.25;}
	.st6{fill:#022712;}
	.st7{fill:url(#SVGID_3_);}
	.st8{fill:url(#SVGID_4_);}
</style>
<defs>
</defs>
<g>
	<path class="st0" d="M354.58,115.94c-7.69-14.21-22.68-24.09-38.73-25.72c-6.95-17.95-19.3-33.84-35-44.97
		c-6.43-4.56-16.3-10-26.77-10c-1.56,0-3.11,0.12-4.62,0.36c-6.04-14.66-18.19-26.5-33.09-32.06C210.06,1.19,203.36,0,196.44,0
		c0,0,0,0,0,0c-10.41,0-20.53,2.71-29.26,7.84c-0.71,0.42-1.42,0.85-2.13,1.29c-2.6,1.6-5.06,3.12-7.57,3.57
		c-0.63,0.11-1.3,0.17-2.06,0.17c-1.61,0-3.32-0.25-5.14-0.51c-0.55-0.08-1.1-0.16-1.65-0.23c-2.98-0.4-6.05-0.6-9.11-0.6
		c0,0,0,0,0,0c-21.19,0-41.89,9.51-55.36,25.43c-0.63,0.74-1.24,1.5-1.85,2.25c-1.83,2.26-3.57,4.4-5.6,6.03
		c-2.35,1.88-5.25,3.21-8.32,4.6c-1.33,0.61-2.71,1.24-4.07,1.93c-21.28,10.78-33.6,35.73-29.68,59.13
		c-12.91,5.69-23.48,15.27-29.31,26.65c-7.12,13.91-7.09,30.4,0.08,43.02c6.56,11.55,19.62,19.31,32.51,19.31
		c1.08,0,2.15-0.05,3.21-0.16c4.18,6.57,11.71,11.37,20.73,13.08c2.86,0.54,5.83,0.81,9.08,0.81c5.83,0,11.65-0.88,16.64-1.7
		c8.88-1.46,19.19-3.41,29.18-6.88c4.5,3.01,9.78,5.51,15.75,7.44c9.55,3.08,18.1,3.49,25.08,1.17c0.23,0.75,0.44,1.48,0.63,2.18
		c4.66,17,5.43,46.75,4.95,55.72c-0.33,6.19-1.87,15.04-7.3,22.01c-2.23,2.86-4.8,4.93-7.44,5.97c-2.19,0.87-4.71,1.19-7.45,1.53
		c-27.88,3.5-35.94,6.28-35.94,12.38c0,5.07,6.63,6.09,15.31,6.91c6.37,0.6,13.91,0.87,18.55,0.87l81.35,0.06
		c0.86,0,1.8,0.02,2.8,0.03c1.19,0.02,2.46,0.04,3.77,0.04c8.01,0,16.74-0.79,20.8-6.66c1.22-1.76,1.61-3.53,1.16-5.27
		c-0.77-2.97-3.47-4.29-6.88-5.95c-0.95-0.46-2.02-0.99-3.19-1.61c-2.86-1.52-8.65-3.17-15.35-5.07
		c-5.42-1.54-13.61-3.87-15.16-5.01c-7.1-5.31-7.74-23.85-8.21-37.39l-0.11-3.06c-0.23-6.17,0.72-15.52,2.25-17.87
		c1.1-1.69,2.79-3.16,4.59-4.71c0.95-0.82,1.93-1.67,2.89-2.61c3.81-3.73,6.53-8.17,9.15-12.46l1.05-1.71
		c0.94-1.52,1.92-3.06,2.92-4.58c4.39-0.22,8.71-0.95,12.87-2.16c5.38-1.57,9.75-3.71,13.37-6.57c0.02-0.01,0.03-0.03,0.05-0.04
		c5.27,3.81,12.02,4.31,16.93,4.31c0.6,0,1.19-0.01,1.78-0.02c12.12-0.3,24.16-2.22,35.78-5.72c12.05-3.63,19.92-9.64,22.72-17.2
		c1.15,0.22,2.33,0.34,3.54,0.34c10.13,0,19.29-7.8,23.87-15.52C362.32,150.11,362.69,130.94,354.58,115.94z"/>
	<g>
		<path class="st1" d="M193.14,120.74c-1.58-4.99-4.65-5.49-9.63-7.07c-7.6-2.41-15.43-4.72-23.39-4.28
			c-7.96,0.43-16.19,4.12-20.02,11.11c-0.61,1.12-1.12,2.33-2.02,3.23c-2,2.01-5.19,1.94-8,2.29c-11,1.37-19.32,10.96-23.63,21.16
			c-2.54,6-3.78,13.7,0.73,18.41c-3.68,3.31-4.5,8.85-3.72,13.74c1.17,7.3,5.36,13.92,10.9,18.83c5.53,4.91,12.33,8.22,19.37,10.49
			c8.71,2.81,18.71,3.98,26.63-0.61c1.46-0.85,2.93-1.91,4.61-1.92c1.46-0.02,2.79,0.76,4.07,1.45c10.17,5.49,22.33,7.17,33.61,4.65
			c5.15-1.15,10.78-3.87,11.98-9.01c6.65,0.66,13.44,0.04,19.86-1.83c4.3-1.25,8.49-3.09,12-5.86c10.62-8.38,13.15-24.27,8.61-37.01
			c-4.54-12.74-14.85-22.65-26.11-30.14c-5.19-3.45-10.75-6.53-16.85-7.8c-6.1-1.27-12.83-0.54-17.88,3.11L193.14,120.74z"/>
		<path class="st2" d="M136.54,188.58"/>
		<linearGradient id="SVGID_1_" gradientUnits="userSpaceOnUse" x1="178.0125" y1="131.6768" x2="176.9391" y2="319.5215">
			<stop  offset="0" style="stop-color:#E68234"/>
			<stop  offset="1" style="stop-color:#E6AF34"/>
		</linearGradient>
		<path class="st3" d="M136.49,188.45c7.32,3.21,16,4.88,20,11.8c2.21,3.82,4.4,10.24,5.57,14.5c4.85,17.68,5.55,48.35,5.09,56.99
			s-2.81,17.42-8.14,24.25c-2.41,3.1-5.47,5.78-9.12,7.23c-2.65,1.05-5.52,1.42-8.35,1.77c-10.18,1.28-32.52,4.07-32.52,8.42
			c0,2.77,21.19,3.77,29.86,3.77c27.12,0.02,54.23,0.04,81.35,0.06c7.19,0.01,19.98,1.05,24.08-4.86c2.13-3.08-1.42-3.79-7.5-7.02
			c-5.39-2.86-27.13-7.5-31.02-10.41c-9.21-6.89-9.33-27.6-9.92-43.51c-0.17-4.69,0.34-16.26,2.89-20.2
			c2.06-3.18,5.32-5.34,8.03-7.99c3.94-3.86,6.7-8.73,9.6-13.42c5.19-8.4,10.99-16.41,17.34-23.97c-1.87-1.58-3.73-3.16-5.6-4.74
			c-0.45-0.38-0.99-0.79-1.57-0.69c-0.54,0.09-0.91,0.57-1.22,1.02c-7.93,11.41-15.08,19.88-22.07,31.89
			c-1.56,2.69-3.82,6.14-6.8,7.03c-0.29-4.88-0.08-7.05,0.38-11.91c0.46-4.85,1.43-9.97,4.73-13.55c1.79-1.94,6.07-8.07,7.98-9.88
			c4.88-4.62,6.5-10.19,5.36-13.58c-0.34-1.01,0.25-2.19-0.23-3.14c-0.4-0.78-1.14-1.32-1.85-1.83c-2.89-2.06-5.78-4.11-8.67-6.17
			c-1.3,6.28-2.63,12.65-5.62,18.33c-2.57,4.88-6.26,9.05-9.28,13.66s-5.42,9.97-4.88,15.46c-0.38-7.58-0.26-16.45,0.25-24.02
			c0.77-11.53-0.56-21.45-4.09-32.45c-3.66,1.55-7.31,3.11-10.97,4.66c-0.45,0.19-0.92,0.4-1.22,0.79
			c-0.49,0.65-0.56,1.62-0.21,2.35c1.96,4.07-4.05,27.37,1.64,40.58c-4.07-4.89-4.76-9.94-9.22-13.54c-3.01-2.43-4.1-2.95-7.72-4.32
			c-7.23-2.73-13.96-6.81-19.73-11.95c-2.68,3.36-5.35,6.72-8.03,10.08C125.12,179.94,133.24,187.02,136.49,188.45z"/>
		<path class="st2" d="M223.22,201.69"/>
		<linearGradient id="SVGID_2_" gradientUnits="userSpaceOnUse" x1="181.029" y1="-9.012" x2="179.9556" y2="198.1539">
			<stop  offset="0" style="stop-color:#84B33E"/>
			<stop  offset="0.0135" style="stop-color:#7EB13F"/>
			<stop  offset="0.0843" style="stop-color:#63A842"/>
			<stop  offset="0.1656" style="stop-color:#4DA144"/>
			<stop  offset="0.2605" style="stop-color:#3C9B46"/>
			<stop  offset="0.3779" style="stop-color:#319747"/>
			<stop  offset="0.5427" style="stop-color:#2A9548"/>
			<stop  offset="1" style="stop-color:#289448"/>
		</linearGradient>
		<path class="st4" d="M249.41,193.66c4.45,4.76,11.69,5.4,18.2,5.24c11.75-0.29,23.46-2.16,34.72-5.55
			c9.52-2.87,20.14-8.65,20.97-18.56c9.66,4.88,21.35-2.73,26.87-12.04c7.98-13.47,8.32-31.13,0.87-44.9s-22.43-23.14-38.06-23.82
			c-6.48-18.21-18.69-34.33-34.46-45.51c-9.2-6.52-20.8-11.5-31.59-8.22c-5.06-15-17.14-27.46-31.97-32.99s-32.12-4.02-45.77,3.99
			c-3.54,2.08-6.97,4.62-11.01,5.35c-3.33,0.6-6.73-0.1-10.09-0.55c-22.48-3.01-46.23,6.13-60.89,23.45
			c-2.57,3.04-4.9,6.33-8.01,8.82c-3.87,3.1-8.67,4.74-13.09,6.98c-20.5,10.39-32.22,35.64-26.92,58.01
			c-12.73,4.85-24.11,13.9-30.32,26.03s-6.73,27.38,0,39.22s21.04,19.36,34.41,16.77c3.45,7.39,11.3,11.98,19.31,13.51
			c8.01,1.52,16.28,0.41,24.33-0.91c14.76-2.43,29.66-5.67,42.69-13.01s24.1-19.37,27.11-34.02c15.06,7.24,34.96,2.2,44.77-11.32
			c-3.74,2.7-4.71,8.12-3.33,12.52c1.38,4.4,4.65,7.95,8.12,10.99c9.39,8.24,14.65,13.04,26.91,15.46
			C233.17,188.58,242.36,199.54,249.41,193.66z"/>
		<g class="st5">
			<g>
				<path class="st6" d="M150.1,127.3c-4.53-2.61-9.64-3.71-14.72-4.34c-5.1-0.56-10.25-0.57-15.32,0.09
					c-5.07,0.66-10.05,1.96-14.86,3.76c-2.38,0.95-4.76,1.97-7,3.24c-2.32,1.14-4.47,2.6-6.66,4.01c1.92-1.76,3.99-3.38,6.18-4.82
					c2.19-1.45,4.54-2.64,6.91-3.79c4.8-2.18,9.95-3.58,15.19-4.3c5.24-0.64,10.59-0.57,15.78,0.36
					C140.73,122.45,145.98,124.01,150.1,127.3z"/>
			</g>
			<g>
				<path class="st6" d="M285.46,115.42c-4.53-2.61-9.64-3.71-14.72-4.34c-5.1-0.56-10.25-0.57-15.32,0.09
					c-5.07,0.66-10.05,1.96-14.86,3.76c-2.38,0.95-4.76,1.97-7,3.24c-2.32,1.14-4.47,2.6-6.66,4.01c1.92-1.76,3.99-3.38,6.18-4.82
					c2.19-1.45,4.54-2.64,6.91-3.79c4.8-2.18,9.95-3.58,15.19-4.3c5.24-0.64,10.59-0.57,15.78,0.36
					C276.09,110.56,281.34,112.13,285.46,115.42z"/>
			</g>
			<g>
				<path class="st6" d="M209.36,66.99c-4.53-2.61-9.64-3.71-14.72-4.34c-5.1-0.56-10.25-0.57-15.32,0.09
					c-5.07,0.66-10.05,1.96-14.86,3.76c-2.38,0.95-4.76,1.97-7,3.24c-2.32,1.14-4.47,2.6-6.66,4.01c1.92-1.76,3.99-3.38,6.18-4.82
					c2.19-1.45,4.54-2.64,6.91-3.79c4.8-2.18,9.95-3.58,15.19-4.3c5.24-0.64,10.59-0.57,15.78,0.36
					C199.99,62.14,205.24,63.7,209.36,66.99z"/>
			</g>
			<g>
				<path class="st6" d="M86.45,117.37c-3.26-1.86-6.76-3.22-10.37-3.97c-3.61-0.73-7.33-0.93-10.96-0.45
					c-3.64,0.45-7.18,1.57-10.49,3.19c-1.66,0.81-3.25,1.76-4.75,2.86c-1.53,1.06-2.94,2.29-4.29,3.59
					c1.12-1.51,2.46-2.86,3.87-4.12c1.45-1.22,3.02-2.31,4.67-3.26c3.31-1.9,7.02-3.12,10.82-3.62c3.81-0.47,7.7-0.22,11.38,0.79
					C80.01,113.36,83.51,115.03,86.45,117.37z"/>
			</g>
		</g>
	</g>
</g>
</svg>
