<!-- Generator: Adobe Illustrator 24.1.2, SVG Export Plug-In  -->
<svg version="1.1" xmlns="http://www.w3.org/2000/svg" xmlns:xlink="http://www.w3.org/1999/xlink" x="0px" y="0px"
	 width="388.02px" height="235.69px" viewBox="0 0 388.02 235.69"
	 style="overflow:visible;enable-background:new 0 0 388.02 235.69;" xml:space="preserve">
<style type="text/css">
	.st0{fill:#FFFFFF;}
	.st1{fill:#F9EA37;}
	.st2{fill:#C02F3D;}
	.st3{fill:#367ACC;}
	.st4{fill:#8CC12F;}
	.st5{opacity:0.21;fill:#013F6D;}
	.st6{clip-path:url(#XMLID_3_);}
	.st7{fill:#ACD6FC;}
	.st8{clip-path:url(#XMLID_5_);}
</style>
<defs>
</defs>
<g>
	<path class="st0" d="M378.82,157.64c-8.98-9.79-22.22-12.02-28.85-12.5c-2.57-16.44-11.66-58.66-40.31-94.35
		c-13.9-17.32-30.39-30.43-49-38.95c-21.57-9.88-46.09-13.61-72.85-11.08c-46.71,4.42-82.85,23.49-107.43,56.7
		c-18.88,25.52-26.87,54.07-30.24,74.27c-4.88,2.17-8.56,4.73-10.56,6.29c-8.19-1.61-18.07,0.97-25.78,6.86
		c-9.21,7.04-14.11,17.76-13.79,30.18c0.57,22.16,19.56,32.65,30.54,35.44c10.7,10.85,21.83,16.2,33.09,15.86
		c11.99-0.34,20.57-7.08,24.09-10.42c5.32,1.09,18.38,2.69,29.24-4.64c8.85-5.97,14.01-16.29,15.36-30.66
		c2.51-26.8-12.1-37.47-23.16-41.69c8.23-40.08,38.37-60.4,89.65-60.4c57.2,0,78.79,41.03,86.84,68.65
		c-7.26,1.06-14.55,4.66-19.92,10c-4.91,4.88-10.68,13.55-10.33,27.16c0.57,22.16,19.56,32.64,30.54,35.44
		c10.39,10.54,21.19,15.88,32.12,15.88c0.32,0,0.64,0,0.97-0.01c11.99-0.35,20.57-7.08,24.09-10.42c5.33,1.09,18.38,2.69,29.24-4.64
		c8.85-5.97,14.01-16.28,15.36-30.65C389.01,176.35,386.01,165.48,378.82,157.64z"/>
	<g>
		<g>
			<path class="st1" d="M191.51,41.32c-90.62,2.38-111.21,92.43-114.49,111.01l16.29,0.85c1.66-25.12,14.2-93.36,101.53-93.91
				c91.54-0.57,108.02,81.66,113.71,112.67c3.59,0.17,7.54,0.32,11.51,0.44C316.16,125.89,285.4,38.85,191.51,41.32z"/>
			<path class="st2" d="M194.84,59.27c-87.33,0.54-99.87,68.79-101.53,93.91l9.78,0.51c1.99-20.61,7.98-79.12,95.74-79.12
				s95.74,93.75,95.08,95.74c-0.23,0.7,6.19,1.23,14.64,1.63C302.86,140.94,286.38,58.71,194.84,59.27z"/>
			<path class="st3" d="M188.19,4.75C54.55,17.39,52.55,149.03,51.89,151.03l12.25,0.64C66.19,131.3,82.3,24.75,194.84,20.71
				c99.53-3.58,138.68,111.43,140.94,152.07c6.6,0.13,11.32,0.19,11.32,0.19C352.42,141.72,321.83-7.88,188.19,4.75z"/>
			<path class="st4" d="M194.84,20.71C82.3,24.75,66.19,131.3,64.13,151.67l12.89,0.67c3.29-18.58,23.87-108.63,114.49-111.01
				c93.89-2.47,124.65,84.57,128.54,131.06c5.54,0.17,11.09,0.3,15.72,0.4C333.52,132.14,294.37,17.13,194.84,20.71z"/>
		</g>
		<path class="st5" d="M55.03,131.91c0,0,16-15,36,1c0,0,13-3,15,5c2.07,8.29-4,15-4,15h-32L55.03,131.91z"/>
		<path class="st5" d="M291.03,153.91c0,0,0-5,5-6c0,0,12-17,28-14s19,6,22,8l4,15l-55,5L291.03,153.91z"/>
		<g>
			<defs>
				<path id="XMLID_2_" d="M90.45,139.73c0,0,41.89-1.99,37.9,40.56c-3.99,42.55-41.89,31.25-41.89,31.25s-23.27,27.26-53.86-4.65
					c0,0-27.93-5.98-28.59-31.91s23.27-36.57,36.57-32.58C40.58,142.39,64.52,120.44,90.45,139.73z"/>
			</defs>
			<use xlink:href="#XMLID_2_"  style="overflow:visible;fill:#ACD6FC;"/>
			<clipPath id="XMLID_3_">
				<use xlink:href="#XMLID_2_"  style="overflow:visible;"/>
			</clipPath>
			<g class="st6">
				<path class="st7" d="M69.13,116.8"/>
				<g>
					<path class="st0" d="M69.13,121.8c2.62,0,5.12-2.3,5-5c-0.12-2.71-2.2-5-5-5c-2.62,0-5.12,2.3-5,5
						C64.25,119.51,66.33,121.8,69.13,121.8L69.13,121.8z"/>
				</g>
			</g>
			
				<use xlink:href="#XMLID_2_"  style="overflow:visible;fill:none;stroke:#FFFFFF;stroke-width:2;stroke-linecap:round;stroke-linejoin:round;stroke-miterlimit:10;"/>
		</g>
		<g>
			<defs>
				<path id="XMLID_1_" d="M345.85,149.03c0,0,41.89-1.99,37.9,40.56s-41.89,31.25-41.89,31.25s-23.27,27.26-53.86-4.65
					c0,0-27.93-5.98-28.59-31.91s23.27-36.57,36.57-32.58C295.98,151.69,319.92,129.75,345.85,149.03z"/>
			</defs>
			<use xlink:href="#XMLID_1_"  style="overflow:visible;fill:#ACD6FC;"/>
			<clipPath id="XMLID_4_">
				<use xlink:href="#XMLID_1_"  style="overflow:visible;"/>
			</clipPath>
			
				<use xlink:href="#XMLID_1_"  style="overflow:visible;fill:none;stroke:#FFFFFF;stroke-width:2;stroke-linecap:round;stroke-linejoin:round;stroke-miterlimit:10;"/>
		</g>
	</g>
</g>
</svg>
