<!-- Generator: Adobe Illustrator 24.1.2, SVG Export Plug-In  -->
<svg version="1.1" xmlns="http://www.w3.org/2000/svg" xmlns:xlink="http://www.w3.org/1999/xlink" x="0px" y="0px" width="386px"
	 height="330.28px" viewBox="0 0 386 330.28" style="overflow:visible;enable-background:new 0 0 386 330.28;" xml:space="preserve"
	>
<style type="text/css">
	.st0{fill:#FFFFFF;}
	.st1{fill:#80AFDD;}
	.st2{fill:#EAEAEA;}
	.st3{fill:#7E94AF;}
	.st4{fill:#C02F3D;}
	.st5{fill:url(#SVGID_1_);}
	.st6{fill:url(#SVGID_2_);}
</style>
<defs>
</defs>
<g>
	<path class="st0" d="M385.97,152.17c-0.36-4.89-3.59-9.34-7.94-11.43c0.3-15.18,0.43-30.46,0.39-45.46
		c-0.01-4.68-0.03-9.99-1.44-15.18c-1.68-6.17-5.15-11.07-9.79-13.79c-3.05-1.79-6.39-2.45-9.39-1.86
		c-4.18,0.82-7.84,4.13-9.57,8.63c-1.44,3.76-1.43,7.66-1.23,10.97c0.78,12.72,4.82,24.72,8.73,36.31
		c1.32,3.91,3.18,8.91,4.97,13.75c0.1,0.27,0.2,0.55,0.31,0.82c-3.63-3.83-8.21-6.48-13.04-8.94c0.05-0.77-0.13-1.55-0.51-2.23
		c-10.97-19.38-30.77-33.38-52.15-37.08c-5.91-25.1-20.27-47.55-32.24-64.43c-4.52-6.38-9.67-12.89-16.66-17.33
		c-8.21-5.21-17.67-6.37-25.29-3.12c-6.68,2.85-12.09,9.22-14.82,17.46c-2.39,7.19-2.6,14.92-2.76,21.13
		c-0.52,19.42-0.57,39.12-0.15,58.57c0.05,2.19-0.01,5.08-0.07,8.41c-0.02,1.27-0.05,2.59-0.07,3.95
		c-16.65,7.37-31.89,13.82-47.93,18.35c-3.89,1.1-7.7,2.03-11.33,2.76c-0.38,0.08-0.75,0.21-1.1,0.4c-0.16,0.08-0.31,0.17-0.46,0.26
		c-12.88,2.52-24.04,2.67-34.1,0.45c-15.98-3.52-28.92-13.74-33.76-26.65c-1.11-2.97-1.86-6.14-2.65-9.49
		c-1.53-6.51-3.11-13.23-7.59-18.84c-7.11-8.92-18.6-11.34-27-11.8c-12-0.65-21.51,2.78-26.78,9.67c-3.17,4.14-4.49,9.11-5.48,13.44
		c-3.75,16.37-5.06,33.17-3.91,49.93c0.21,3.02,0.5,6.07,0.77,9.03c0.57,6.02,1.16,12.25,1.05,18.21l-0.65,3.16
		c-1.32,6.47-2.82,13.81-2.14,21.15c0.8,8.72,4.72,16.1,10.75,20.24c6.22,4.27,15.03,4.95,24.17,1.88
		c8.04-2.7,16.83-10.57,22.17-15.94l107.54,22.55c7.22,1.51,14.64,3.07,22.13,4.59c-3.76,8.6-7.45,17.15-10.92,25.21
		c-4.66,10.82-9.48,22.01-11.82,34.01c-2.14,11-1.26,35.48,10.49,42.23c4.87,2.8,10.8,4.15,16.87,4.15c8.54,0,17.35-2.68,23.85-7.81
		c31.64-24.98,49.37-51.09,64.63-81.85c0.45,0.57,0.95,1.1,1.49,1.59c2.87,2.6,6.36,3.61,9.98,4.5c2.51,0.61,6.3,1.54,10.03,0.22
		c1.88-0.67,3.6-1.84,5.27-3.59c3.97-4.16,6.29-10.15,6.54-16.87c0.02-0.56,0.03-1.11,0.02-1.66c1.72-0.67,3.33-1.36,4.8-2.06
		c14.5-6.91,25.9-19.32,32.23-35.07c4.93-2.57,9.12-7.3,12.2-12.51c-0.08,0.21-0.15,0.41-0.23,0.62c-1.8,4.84-3.66,9.85-4.97,13.76
		c-3.91,11.6-7.95,23.59-8.73,36.31c-0.2,3.32-0.22,7.21,1.23,10.97c1.73,4.5,5.4,7.81,9.57,8.63c3.01,0.59,6.35-0.07,9.39-1.86
		c4.63-2.72,8.11-7.62,9.79-13.79c1.41-5.19,1.42-10.5,1.44-15.18c0.04-15.92-0.1-32.03-0.43-47.93c1.31-0.89,2.45-2.03,3.35-3.36
		c1.05-1.56,1.64-3.22,2-4.33C385.8,156.48,386.12,154.25,385.97,152.17z"/>
	<g>
		<g>
			<path class="st1" d="M291.91,89.82c-5.07-23.81-18.03-45.4-32.11-65.27c-4.37-6.16-9.17-12.22-15.54-16.26
				s-14.64-5.78-21.58-2.82c-6.2,2.65-10.47,8.64-12.6,15.04s-2.38,13.24-2.56,19.98c-0.52,19.45-0.57,38.92-0.15,58.38
				c0.11,4.94-0.29,13.11-0.17,21.43C207.2,120.3,300.85,131.78,291.91,89.82z"/>
			<path class="st1" d="M371.06,163.51c-2.59,7.7-7.28,19.59-9.87,27.29c-3.88,11.5-7.79,23.17-8.53,35.28
				c-0.19,3.13-0.16,6.36,0.97,9.3c1.12,2.93,3.53,5.54,6.61,6.14c2.25,0.44,4.62-0.22,6.6-1.38c4.1-2.41,6.71-6.81,7.95-11.39
				s1.28-9.4,1.3-14.15c0.05-16.61-0.11-33.23-0.48-49.84"/>
			<path class="st1" d="M369.39,146.36c-2.59-7.7-7.28-19.59-9.87-27.29c-3.88-11.5-7.79-23.17-8.53-35.28
				c-0.19-3.13-0.16-6.36,0.97-9.3c1.12-2.93,3.53-5.54,6.61-6.14c2.25-0.44,4.62,0.22,6.6,1.38c4.1,2.41,6.71,6.81,7.95,11.39
				c1.25,4.58,1.28,9.4,1.3,14.15c0.05,16.61-0.11,33.23-0.48,49.84"/>
			<path class="st2" d="M363.67,162.39c1.63,0.9,3.37,1.59,5.18,2.03c1.82,0.45,3.73,0.65,5.56,0.25c2.13-0.47,4.06-1.79,5.28-3.59
				c0.68-1.01,1.14-2.15,1.51-3.32c0.55-1.72,0.92-3.52,0.79-5.32c-0.31-4.26-3.76-8.09-7.96-8.85c-4.2-0.76-8.77,1.62-10.56,5.5"/>
			<path class="st3" d="M346.11,185.14c7.96-2.5,14.4-12.42,17.02-20.89s1.73-18.38-3.87-25.26c-3.92-4.82-9.66-7.73-15.23-10.51"/>
			<path class="st4" d="M316.45,219.11c28.41-13.53,40.43-47.27,33.45-76.25c-6.98-28.98-34.71-51.62-64.5-52.66
				c-15.61-0.55-30.9,4.22-45.45,9.89c-28.24,11.01-55.14,25.66-84.31,33.91c-15.66,4.43-32.31,6.95-48.2,3.44
				c-15.89-3.5-30.93-13.91-36.65-29.15c-3.41-9.08-3.57-19.66-9.62-27.25c-5.61-7.04-15.1-9.8-24.09-10.3
				c-8.58-0.47-18.17,1.28-23.38,8.11c-2.62,3.42-3.8,7.71-4.76,11.91c-3.65,15.95-4.94,32.44-3.82,48.76
				c0.9,13.15,3.35,26.5,0.55,39.38c10.22,5.83,21.95,8.32,33.47,10.74c42.16,8.84,84.32,17.68,126.48,26.52
				c24.34,5.1,48.72,10.21,73.38,13.47C263.45,232.86,298.81,227.52,316.45,219.11z"/>
			<linearGradient id="SVGID_1_" gradientUnits="userSpaceOnUse" x1="238.5795" y1="174.6498" x2="232.2459" y2="63.8131">
				<stop  offset="0" style="stop-color:#67A5DC"/>
				<stop  offset="0.022" style="stop-color:#71ABDD"/>
				<stop  offset="0.0921" style="stop-color:#8CBCE1"/>
				<stop  offset="0.1727" style="stop-color:#A2CAE5"/>
				<stop  offset="0.2668" style="stop-color:#B3D4E7"/>
				<stop  offset="0.3832" style="stop-color:#BEDCE9"/>
				<stop  offset="0.5466" style="stop-color:#C5E0EA"/>
				<stop  offset="1" style="stop-color:#C7E1EA"/>
			</linearGradient>
			<path class="st5" d="M286.14,89.72c-13.37-0.47-26.51,2.97-39.15,7.53c-2.11,0.76-4.22,1.55-6.3,2.36
				c-28.24,11.01-55.14,25.66-84.31,33.91c-3.82,1.08-7.71,2.04-11.62,2.84c-6.33,3.41-11.54,8.86-14.57,15.39
				c-0.83,1.79-1.45,4.07-0.19,5.59c0.86,1.04,2.3,1.34,3.62,1.57c36.82,6.33,74.31,7.26,111.67,7.99c1.37,0.03,2.74,0.06,4.11,0.08
				c9.93,0.19,19.91,0.38,29.77-0.85c23.07-2.89,45.34-14.07,60.02-32.1c2.03-2.49,3.94-5.25,4.79-8.3
				C332.32,105.15,309.91,90.55,286.14,89.72z"/>
			<path class="st1" d="M296.68,184.89c-4.49-3.43-10.38-4.28-16-4.88c-22.42-2.41-45.82-2.51-66.65,6.13
				c-2.35,0.98-4.71,2.09-6.55,3.86c-2.23,2.15-20.1,43.61-27.79,61.45c-4.64,10.78-9.32,21.67-11.56,33.19s-0.33,32.89,8.56,38
				c9.85,5.66,25.83,4.89,36.25-3.34c42.18-33.3,60.46-69.21,84.56-127.99C299.01,187.63,296.68,184.89,296.68,184.89z"/>
			<path class="st3" d="M301.29,212.65c-2.3-0.58-4.66-0.87-7.03-0.85c-1.63,0.01-3.32,0.18-4.74,0.99
				c-1.53,0.87-2.57,2.39-3.52,3.87c-2.23,3.46-4.33,7.13-5.04,11.18c-0.71,4.06,0.21,8.61,3.26,11.38c2.24,2.03,5.3,2.86,8.25,3.58
				c2.55,0.62,5.27,1.21,7.74,0.34c1.43-0.51,2.66-1.48,3.71-2.58c3.59-3.76,5.24-9.06,5.44-14.26c0.13-3.55-0.42-7.27-2.48-10.17
				s-5.89-4.72-9.28-3.62"/>
			<path class="st0" d="M300.04,222.75c0.48-1.13-1.18-1.97-2.4-1.88c-2.52,0.19-4.91,1.61-6.27,3.73c-1.36,2.12-1.67,4.89-0.8,7.26
				c0.36,0.97,0.92,1.89,1.74,2.52c1.53,1.18,3.76,1.14,5.47,0.25s2.95-2.51,3.78-4.25c1.06-2.22,1.46-5.12-0.18-6.94"/>
			<path class="st1" d="M74.37,154.73c-21.12,6.28-43.8,7.24-65.38,2.78c-0.92,4.5-1.83,8.99-2.75,13.49
				c-1.34,6.59-2.69,13.29-2.08,19.98c0.61,6.7,3.49,13.5,9.03,17.31c5.92,4.06,13.83,3.68,20.63,1.39
				c16.33-5.49,44.42-39.21,45.7-55.06C79.62,153.33,74.37,154.73,74.37,154.73z"/>
		</g>
	</g>
</g>
</svg>
