<!-- Generator: Adobe Illustrator 24.1.2, SVG Export Plug-In  -->
<svg version="1.1" xmlns="http://www.w3.org/2000/svg" xmlns:xlink="http://www.w3.org/1999/xlink" x="0px" y="0px" width="81px"
	 height="51px" viewBox="0 0 81 51" style="overflow:visible;enable-background:new 0 0 81 51;" xml:space="preserve">
<style type="text/css">
	.st0{fill:#FBAC00;}
	.st1{fill:#FFFFFF;}
</style>
<defs>
</defs>
<g id="Grupo_221_1_" transform="translate(-305 -291)">
	<g id="Grupo_220_1_" transform="translate(44 31)">
		<g transform="matrix(1, 0, 0, 1, 261, 260)">
			<path id="Trazado_96-2_1_" class="st0" d="M8,0h65c4.42,0,8,3.58,8,8v35c0,4.42-3.58,8-8,8H8c-4.42,0-8-3.58-8-8V8
				C0,3.58,3.58,0,8,0z"/>
		</g>
	</g>
	<path id="Trazado_31_1_" class="st1" d="M323.06,320.38l5.16,5.16l5.17,5.17l5.16,5.16c1.43,1.42,3.73,1.42,5.16,0.01l0.01-0.01
		l5.16-5.16l5.17-5.17l5.16-5.16l1.67-1.67l3.06-3.07l0.43-0.43l5.16-5.16c1.42-1.43,1.42-3.74,0-5.17l-5.16-5.16
		c-1.43-1.42-3.74-1.42-5.16,0l-5.16,5.16l-0.34,0.34l-3.19,3.19l-0.69,0.69l-0.95,0.95l-5.16,5.16l-0.01,0.01
		c-1.43,1.41-3.73,1.41-5.16-0.01l-5.16-5.16c-1.43-1.42-3.74-1.42-5.17,0l-1.83,1.83l-3.33,3.33
		C321.66,316.64,321.67,318.95,323.06,320.38z"/>
</g>
</svg>
