<!-- Generator: Adobe Illustrator 24.1.2, SVG Export Plug-In  -->
<svg version="1.1" xmlns="http://www.w3.org/2000/svg" xmlns:xlink="http://www.w3.org/1999/xlink" x="0px" y="0px"
	 width="1601.65px" height="900.19px" viewBox="0 0 1601.65 900.19"
	 style="overflow:visible;enable-background:new 0 0 1601.65 900.19;" xml:space="preserve">
<style type="text/css">
	.st0{fill:#FFEB88;}
	.st1{fill:#FFDE57;}
</style>
<defs>
</defs>
<g>
	<g>
		<g id="Rectángulo_74_1_">
			<g>
				<rect x="0.86" class="st0" width="1600" height="900"/>
			</g>
		</g>
		<g id="Sustracción_1_2_">
			<path class="st1" d="M1599.61,897.58h-12.92c4.34-4.14,8.69-8.47,12.92-12.88V897.58L1599.61,897.58z"/>
		</g>
	</g>
	<g>
		<path class="st1" d="M208.11,625.93c108.8,12.8,224,54.4,230.4-118.4c6.4-172.8-108.8-201.6,32-220.8
			c140.8-19.2,233.6-19.2,217.6-137.6s-137.6-89.6-211.2-118.4C456.02,22.56,432.3,10.78,407.14,0h-182.9
			c-4.37,3.46-8.69,7.29-12.93,11.53c-83.2,83.2-48,156.8-169.6,140.8c-14.92-1.96-28.45-5.52-40.85-10.04v695.6
			c5.98-3.99,12.13-8.5,18.45-13.56C131.31,734.73,99.31,613.13,208.11,625.93z"/>
	</g>
	<g>
		<path class="st1" d="M2.97,883.8c-0.34,0-0.66-0.03-0.94-0.08c-0.94-0.17-1.62-0.6-2.03-1.28l1.71-1.03
			c0.1,0.16,0.32,0.27,0.67,0.34c7.33,1.29,43.4-21.08,50.05-26.4c48.86-39.09,70.52-84.93,87.92-121.77
			c11.44-24.22,21.32-45.13,36.11-59.2c16.17-15.39,36.99-20.99,65.5-17.63c13.42,1.58,27.09,3.62,40.32,5.59
			c58.75,8.76,114.24,17.04,149.89-12.55c24.29-20.16,37.07-56.3,39.08-110.49c2.63-71.08-15.55-118.2-27.59-149.38
			c-8.72-22.6-14.49-37.53-7.94-48.62c6.67-11.29,25.85-17.96,68.39-23.76c12.65-1.72,24.89-3.29,36.73-4.81
			c80.72-10.34,139.04-17.8,165.96-52.89c14.13-18.41,18.72-44.18,14.05-78.78C709.52,97.07,644.38,87.8,581.39,78.82
			c-25.75-3.67-50.07-7.13-71.1-15.36l0.73-1.86c20.81,8.14,45.02,11.59,70.65,15.24C645.4,85.92,711.3,95.31,722.85,180.8
			c4.75,35.16,0.03,61.41-14.44,80.27c-27.43,35.75-86.1,43.26-167.3,53.65c-11.84,1.52-24.08,3.08-36.71,4.81
			c-41.31,5.63-60.7,12.24-66.94,22.79c-6.05,10.25-0.43,24.82,8.08,46.88c12.09,31.33,30.37,78.68,27.72,150.17
			c-2.03,54.78-15.05,91.4-39.8,111.95c-36.33,30.16-92.26,21.82-151.46,12.99c-13.21-1.97-26.87-4.01-40.26-5.58
			c-60.46-7.11-76.86,27.63-99.58,75.71c-17.49,37.03-39.26,83.11-88.48,122.48C49.07,860.6,13.41,883.8,2.97,883.8z"/>
	</g>
	<g>
		<path class="st1" d="M1408.11,156.12c-102.4,44.8-44.8,150.4-160,169.6c-115.2,19.2-176,48-176,137.6c0,89.6,16,144,67.2,192
			c51.2,48,160,89.6,256,64c96-25.6,121.6-76.8,192-28.8c4.67,3.18,9.17,6.42,13.55,9.67V167.05
			C1544.47,147.65,1466.43,130.61,1408.11,156.12z"/>
	</g>
	<g>
		<path class="st1" d="M1333.85,675.96c-32.32,0-61.44-5.91-83.42-12.27c-43.93-12.72-84.61-34.53-111.61-59.83
			c-49.22-46.14-67.52-98.38-67.52-192.73c0-43.83,14.37-74.34,45.23-96.02c26.98-18.96,66.34-31.69,131.61-42.57
			c60.33-10.06,72.91-44.28,86.22-80.51c12.24-33.3,24.89-67.73,73.54-89.02c58.87-25.76,137.71-8.29,193.48,10.9l-0.65,1.89
			c-55.43-19.07-133.74-36.46-192.02-10.96c-47.87,20.94-60.37,54.97-72.47,87.88c-13.52,36.79-26.29,71.55-87.77,81.79
			c-64.96,10.83-104.07,23.46-130.79,42.23c-30.27,21.27-44.38,51.26-44.38,94.38c0,93.72,18.13,145.56,66.88,191.27
			c53.79,50.43,163.91,88.07,255.06,63.76c31.32-8.35,54.79-19.28,75.49-28.92c41.85-19.49,69.5-32.36,117.33,0.26
			c4.34,2.96,8.78,6.13,13.58,9.69l-1.19,1.61c-4.78-3.54-9.2-6.7-13.52-9.64c-46.9-31.98-74.13-19.29-115.36-0.1
			c-20.78,9.67-44.32,20.64-75.82,29.04C1374.54,673.75,1353.59,675.96,1333.85,675.96z"/>
	</g>
	<g>
		<circle class="st1" cx="563.71" cy="565.13" r="54.4"/>
	</g>
	<g>
		<path class="st1" d="M575.91,634.53c-34.41,0-62.4-27.99-62.4-62.4s27.99-62.4,62.4-62.4c34.41,0,62.4,27.99,62.4,62.4
			S610.31,634.53,575.91,634.53z M575.91,511.73c-33.3,0-60.4,27.1-60.4,60.4s27.1,60.4,60.4,60.4s60.4-27.1,60.4-60.4
			S609.21,511.73,575.91,511.73z"/>
	</g>
	<g>
		<path class="st1" d="M658.11,474.13c-9.15,0-16.6-7.45-16.6-16.6s7.45-16.6,16.6-16.6s16.6,7.45,16.6,16.6
			S667.26,474.13,658.11,474.13z M658.11,442.93c-8.05,0-14.6,6.55-14.6,14.6c0,8.05,6.55,14.6,14.6,14.6s14.6-6.55,14.6-14.6
			C672.71,449.48,666.16,442.93,658.11,442.93z"/>
	</g>
	<g>
		<path class="st1" d="M890.11,595.73c-9.15,0-16.6-7.45-16.6-16.6s7.45-16.6,16.6-16.6s16.6,7.45,16.6,16.6
			S899.26,595.73,890.11,595.73z M890.11,564.53c-8.05,0-14.6,6.55-14.6,14.6s6.55,14.6,14.6,14.6s14.6-6.55,14.6-14.6
			S898.16,564.53,890.11,564.53z"/>
	</g>
	<g>
		<path class="st1" d="M1134.91,722.13c-9.15,0-16.6-7.45-16.6-16.6s7.45-16.6,16.6-16.6c9.15,0,16.6,7.45,16.6,16.6
			S1144.06,722.13,1134.91,722.13z M1134.91,690.93c-8.05,0-14.6,6.55-14.6,14.6c0,8.05,6.55,14.6,14.6,14.6
			c8.05,0,14.6-6.55,14.6-14.6C1149.51,697.48,1142.96,690.93,1134.91,690.93z"/>
	</g>
	<g>
		<path class="st1" d="M1554.11,866.13c-9.15,0-16.6-7.45-16.6-16.6s7.45-16.6,16.6-16.6s16.6,7.45,16.6,16.6
			S1563.26,866.13,1554.11,866.13z M1554.11,834.93c-8.05,0-14.6,6.55-14.6,14.6c0,8.05,6.55,14.6,14.6,14.6s14.6-6.55,14.6-14.6
			C1568.71,841.48,1562.16,834.93,1554.11,834.93z"/>
	</g>
	<g>
		<path class="st1" d="M560.51,758.93c-9.15,0-16.6-7.45-16.6-16.6s7.45-16.6,16.6-16.6s16.6,7.45,16.6,16.6
			S569.66,758.93,560.51,758.93z M560.51,727.73c-8.05,0-14.6,6.55-14.6,14.6c0,8.05,6.55,14.6,14.6,14.6s14.6-6.55,14.6-14.6
			C575.11,734.28,568.56,727.73,560.51,727.73z"/>
	</g>
	<g>
		<path class="st1" d="M170.11,869.33c-9.15,0-16.6-7.45-16.6-16.6s7.45-16.6,16.6-16.6s16.6,7.45,16.6,16.6
			S179.26,869.33,170.11,869.33z M170.11,838.13c-8.05,0-14.6,6.55-14.6,14.6c0,8.05,6.55,14.6,14.6,14.6s14.6-6.55,14.6-14.6
			C184.71,844.68,178.16,838.13,170.11,838.13z"/>
	</g>
	<g>
		<path class="st1" d="M520.51,402.13c-9.15,0-16.6-7.45-16.6-16.6s7.45-16.6,16.6-16.6s16.6,7.45,16.6,16.6
			S529.66,402.13,520.51,402.13z M520.51,370.93c-8.05,0-14.6,6.55-14.6,14.6c0,8.05,6.55,14.6,14.6,14.6s14.6-6.55,14.6-14.6
			C535.11,377.48,528.56,370.93,520.51,370.93z"/>
	</g>
	<g>
		<path class="st1" d="M805.31,179.73c-9.15,0-16.6-7.45-16.6-16.6s7.45-16.6,16.6-16.6c9.15,0,16.6,7.45,16.6,16.6
			S814.46,179.73,805.31,179.73z M805.31,148.53c-8.05,0-14.6,6.55-14.6,14.6s6.55,14.6,14.6,14.6s14.6-6.55,14.6-14.6
			S813.36,148.53,805.31,148.53z"/>
	</g>
	<g>
		<path class="st1" d="M1013.31,352.53c-9.15,0-16.6-7.45-16.6-16.6s7.45-16.6,16.6-16.6c9.15,0,16.6,7.45,16.6,16.6
			S1022.46,352.53,1013.31,352.53z M1013.31,321.33c-8.05,0-14.6,6.55-14.6,14.6c0,8.05,6.55,14.6,14.6,14.6s14.6-6.55,14.6-14.6
			C1027.91,327.88,1021.36,321.33,1013.31,321.33z"/>
	</g>
	<g>
		<path class="st1" d="M1297.31,194.13c-18.42,0-33.4-14.98-33.4-33.4c0-18.42,14.98-33.4,33.4-33.4c18.42,0,33.4,14.98,33.4,33.4
			C1330.71,179.15,1315.72,194.13,1297.31,194.13z M1297.31,129.33c-17.31,0-31.4,14.09-31.4,31.4c0,17.31,14.09,31.4,31.4,31.4
			c17.31,0,31.4-14.09,31.4-31.4C1328.71,143.42,1314.62,129.33,1297.31,129.33z"/>
	</g>
	<g>
		<path class="st1" d="M1146.91,874.13c-18.42,0-33.4-14.98-33.4-33.4c0-18.42,14.98-33.4,33.4-33.4s33.4,14.98,33.4,33.4
			C1180.31,859.15,1165.32,874.13,1146.91,874.13z M1146.91,809.33c-17.31,0-31.4,14.09-31.4,31.4c0,17.31,14.09,31.4,31.4,31.4
			c17.31,0,31.4-14.09,31.4-31.4C1178.31,823.42,1164.22,809.33,1146.91,809.33z"/>
	</g>
	<g>
		<path class="st1" d="M426.91,890.13c-18.42,0-33.4-14.98-33.4-33.4c0-18.42,14.98-33.4,33.4-33.4s33.4,14.98,33.4,33.4
			C460.31,875.15,445.32,890.13,426.91,890.13z M426.91,825.33c-17.31,0-31.4,14.09-31.4,31.4c0,17.31,14.09,31.4,31.4,31.4
			c17.31,0,31.4-14.09,31.4-31.4C458.31,839.42,444.22,825.33,426.91,825.33z"/>
	</g>
	<g>
		<circle class="st1" cx="1460.87" cy="781.9" r="25.16"/>
	</g>
	<g>
		<circle class="st1" cx="1171.31" cy="217.93" r="15"/>
	</g>
	<g>
		<circle class="st1" cx="878.51" cy="307.53" r="15"/>
	</g>
	<g>
		<circle class="st1" cx="979.31" cy="517.13" r="15"/>
	</g>
	<g>
		<circle class="st1" cx="280.11" cy="793.93" r="15"/>
	</g>
	<g>
		<path class="st1" d="M1466.51,814.53c-16.21,0-29.4-13.19-29.4-29.4s13.19-29.4,29.4-29.4s29.4,13.19,29.4,29.4
			S1482.72,814.53,1466.51,814.53z M1466.51,757.73c-15.11,0-27.4,12.29-27.4,27.4s12.29,27.4,27.4,27.4s27.4-12.29,27.4-27.4
			S1481.62,757.73,1466.51,757.73z"/>
	</g>
	<g>
		<path class="st1" d="M839.11,734.73c-94.28,0-171.55,72.81-178.66,165.27h357.33C1010.66,807.54,933.39,734.73,839.11,734.73z"/>
	</g>
	<g>
		<path class="st1" d="M1042.21,900.19c-2.09-28.42-9.53-56.45-21.91-82.16c-12.35-25.72-29.56-49.12-50.49-68.58
			c-20.9-19.48-45.46-35.05-72.07-45.57c-26.59-10.56-55.2-16-83.85-16.12c-28.65-0.09-57.33,5.15-84.08,15.54
			c-26.75,10.36-51.53,25.8-72.69,45.24c-21.18,19.41-38.69,42.84-51.32,68.68c-12.67,25.83-20.4,54.07-22.71,82.79
			c2.11-28.73,9.64-57.07,22.15-83.06c12.48-26,29.89-49.65,51.04-69.32c21.12-19.69,45.96-35.43,72.85-46.07
			c26.88-10.67,55.8-16.17,84.76-16.29c28.96-0.09,57.96,5.2,84.99,15.71c27.04,10.47,52.09,26.09,73.47,45.73
			c21.41,19.62,39.1,43.3,51.87,69.42c12.8,26.11,20.62,54.67,22.96,83.69L1042.21,900.19z"/>
	</g>
</g>
</svg>
