<!-- Generator: Adobe Illustrator 24.1.2, SVG Export Plug-In  -->
<svg version="1.1" xmlns="http://www.w3.org/2000/svg" xmlns:xlink="http://www.w3.org/1999/xlink" x="0px" y="0px"
	 width="108.44px" height="101.05px" viewBox="0 0 108.44 101.05"
	 style="overflow:visible;enable-background:new 0 0 108.44 101.05;" xml:space="preserve">
<style type="text/css">
	.st0{fill:#006CB2;}
	.st1{fill:#7EB8F9;}
	.st2{fill:#AE36C5;}
</style>
<defs>
</defs>
<g>
	<path id="Trazado_62-2_1_" class="st0" d="M8.62,5h86.2c4.76,0,8.62,3.51,8.62,7.84v80.37c0,4.33-3.86,7.84-8.62,7.84H8.62
		c-4.76,0-8.62-3.51-8.62-7.84V12.84C0,8.51,3.86,5,8.62,5z"/>
	<path id="Trazado_62-2-3_1_" class="st1" d="M13.62,0h86.2c4.76,0,8.62,3.51,8.62,7.84v80.37c0,4.33-3.86,7.84-8.62,7.84h-86.2
		C8.86,96.05,5,92.54,5,88.21V7.84C5,3.51,8.86,0,13.62,0z"/>
	<g id="Grupo_898_1_">
		<g id="Grupo_892_1_">
			<path id="Trazado_1239_1_" class="st2" d="M25.01,58.93h-1.94V48.04c0.01-18.71,15.19-33.87,33.9-33.86
				c18.69,0.01,33.84,15.16,33.86,33.86v8.47H88.9v-8.47c0-17.64-14.3-31.94-31.94-31.94c-17.64,0-31.94,14.3-31.94,31.94l0,0
				L25.01,58.93z"/>
		</g>
		<g id="Grupo_893_1_">
			<path id="Trazado_1240_1_" class="st2" d="M32.82,27.6c-1.07,0-1.94-0.87-1.94-1.94c0-0.49,0.18-0.96,0.52-1.32
				c6.6-7.1,15.86-11.14,25.55-11.15C66.4,13.16,75.45,17,82,23.82c0.75,0.76,0.73,1.99-0.03,2.74c-0.76,0.75-1.99,0.73-2.74-0.03
				c-0.01-0.01-0.01-0.01-0.02-0.02c-5.82-6.06-13.86-9.47-22.26-9.44c-8.62,0.01-16.84,3.6-22.71,9.91
				C33.87,27.38,33.36,27.6,32.82,27.6z"/>
		</g>
		<g id="Grupo_895_1_">
			<g id="Grupo_894_1_">
				<path id="Trazado_1241_1_" class="st2" d="M31.88,82.3c-0.46,0-0.85-0.36-0.88-0.82l-2.02-26.15c-0.04-0.49,0.33-0.92,0.82-0.96
					c0.49-0.04,0.92,0.33,0.96,0.82l0,0l2.02,26.15c0.04,0.49-0.33,0.92-0.82,0.96L31.88,82.3z"/>
			</g>
			<path id="Rectángulo_216_1_" class="st2" d="M24.32,54.36l2.32-0.18c0.64-0.05,1.2,0.43,1.25,1.07l2.02,26.15
				c0.05,0.64-0.43,1.2-1.07,1.25c0,0,0,0,0,0l-2.32,0.18c-3.41,0.26-6.39-2.29-6.65-5.7l-1.24-16.12
				C18.36,57.61,20.91,54.63,24.32,54.36z"/>
		</g>
		<g id="Grupo_897_1_">
			<g id="Grupo_896_1_">
				<path id="Trazado_1242_1_" class="st2" d="M81.5,82.29c-0.02,0-0.05,0-0.07,0c-0.5-0.04-0.87-0.47-0.83-0.97c0,0,0,0,0-0.01
					l2.05-25.57c0.04-0.5,0.47-0.87,0.97-0.83c0.5,0.04,0.87,0.47,0.83,0.97L82.4,81.47C82.36,81.93,81.97,82.29,81.5,82.29z"/>
			</g>
			<path id="Rectángulo_217_1_" class="st2" d="M86.86,82.83l-2.32-0.19c-0.64-0.05-1.12-0.61-1.06-1.25l2.1-26.15
				c0.05-0.64,0.61-1.12,1.25-1.07c0,0,0,0,0,0l2.32,0.19c3.41,0.27,5.95,3.26,5.68,6.67l-1.29,16.12
				C93.26,80.56,90.27,83.1,86.86,82.83z"/>
		</g>
	</g>
</g>
</svg>
