<!-- Generator: Adobe Illustrator 24.1.2, SVG Export Plug-In  -->
<svg version="1.1" xmlns="http://www.w3.org/2000/svg" xmlns:xlink="http://www.w3.org/1999/xlink" x="0px" y="0px"
	 width="108.44px" height="101.05px" viewBox="0 0 108.44 101.05"
	 style="overflow:visible;enable-background:new 0 0 108.44 101.05;" xml:space="preserve">
<style type="text/css">
	.st0{fill:#006CB2;}
	.st1{fill:#7EB8F9;}
	.st2{fill:#ED1C24;}
	.st3{fill:#FFFFFF;}
</style>
<defs>
</defs>
<g>
	<path id="Trazado_62-4_1_" class="st0" d="M8.62,5h86.2c4.76,0,8.62,3.51,8.62,7.84v80.37c0,4.33-3.86,7.84-8.62,7.84H8.62
		c-4.76,0-8.62-3.51-8.62-7.84V12.84C0,8.51,3.86,5,8.62,5z"/>
	<path id="Trazado_62-4-2_1_" class="st1" d="M13.62,0h86.2c4.76,0,8.62,3.51,8.62,7.84v80.37c0,4.33-3.86,7.84-8.62,7.84h-86.2
		C8.86,96.05,5,92.54,5,88.21V7.84C5,3.51,8.86,0,13.62,0z"/>
	<g id="Grupo_905_1_">
		<g id="Grupo_902_1_">
			<path id="Trazado_1244_1_" class="st2" d="M27.74,16.62c0,0,3.22,4.16,7.25,3.09c0,0-0.13,2.68,1.21,3.89
				c0.67-1.16,1.12-2.44,1.34-3.76c0,0,7.38-0.54,9.53-4.03c0,0,1.48,7.92,4.03,8.32c0,0-2.01,1.61-2.01,3.49
				c0.98-0.23,1.93-0.59,2.82-1.07c0,0,5.91,4.43,8.59,2.95c0,0-3.09,4.3-0.94,8.32c0,0-4.97,1.34-4.3,3.76s0.58,8.64,0.98,9.18
				c0,0-8.99-2.28-8.99,1.34c0,0-2.95-3.09-4.43-1.74c-0.97,1.08-1.58,2.45-1.75,3.89c0,0-5.24-7.11-6.44-7.38
				c0,0-9.53-1.07-12.75,0c0,0,2.06-3.29-0.81-4.57c-1.24-0.54-2.27-1.46-2.94-2.63c0,0,4.31-7.69-2.13-9.7c0,0,6.04-0.13,5.91-2.15
				c0-1.47-0.27-2.93-0.81-4.3l-0.4-0.67C24.27,22.83,27.28,20.17,27.74,16.62z"/>
			<g id="Grupo_901_1_">
				<path id="Trazado_1245_1_" class="st2" d="M28.37,52.59c-0.26,0.04-0.49-0.14-0.53-0.4c-0.03-0.21,0.09-0.42,0.29-0.5
					c0.05-0.02,4.77-2.2,6.84-9.09c0.08-0.25,0.34-0.38,0.59-0.31c0.24,0.08,0.38,0.33,0.31,0.58c-2.2,7.33-7.15,9.58-7.36,9.67
					C28.47,52.57,28.42,52.59,28.37,52.59z"/>
			</g>
		</g>
		<g id="Grupo_904_1_">
			<path id="Trazado_1246_1_" class="st3" d="M53.13,58.12c0,0,5.26-0.26,6.68-4.18c0,0,2.13,1.65,3.88,1.24
				c-0.57-1.22-1.35-2.32-2.31-3.26c0,0,3.78-6.36,2.15-10.12c0,0,7.34,3.32,9.13,1.46c0,0,0.17,2.57,1.71,3.65
				c0.37-0.94,0.62-1.92,0.73-2.93c0,0,7.01-2.31,7.34-5.36c0,0,1.76,4.99,6.29,5.53c0,0-1.74,4.84,0.62,5.67s7.42,4.47,8.09,4.45
				c0,0-7.02,6.07-4.04,8.14c0,0-4.22,0.65-3.97,2.63c0.33,1.42,1.1,2.7,2.2,3.66c0,0-8.83,0.22-9.74,1.06c0,0-6.33,7.2-7.3,10.46
				c0,0-1.52-3.57-4.2-1.95c-1.15,0.71-2.5,1.02-3.84,0.91c0,0-3.84-7.94-9.18-3.8c0,0,3.35-5.03,1.62-6.07
				c-1.21-0.84-2.56-1.45-3.98-1.8l-0.78-0.05C56.24,64.52,55.78,60.53,53.13,58.12z"/>
			<g id="Grupo_903_1_">
				<path id="Trazado_1247_1_" class="st3" d="M84.31,77.13h-0.03c-0.26-0.01-0.46-0.24-0.44-0.5c0,0,0,0,0,0
					c0-0.05,0.23-5.25-4.95-10.24c-0.18-0.19-0.17-0.49,0.02-0.66c0.18-0.17,0.45-0.17,0.64-0.01c5.5,5.31,5.24,10.75,5.23,10.98
					C84.77,76.93,84.56,77.13,84.31,77.13z"/>
			</g>
		</g>
	</g>
</g>
</svg>
