<!-- Generator: Adobe Illustrator 24.1.2, SVG Export Plug-In  -->
<svg version="1.1" xmlns="http://www.w3.org/2000/svg" xmlns:xlink="http://www.w3.org/1999/xlink" x="0px" y="0px"
	 width="108.44px" height="101.05px" viewBox="0 0 108.44 101.05"
	 style="overflow:visible;enable-background:new 0 0 108.44 101.05;" xml:space="preserve">
<style type="text/css">
	.st0{fill:#006CB2;}
	.st1{fill:#7EB8F9;}
	.st2{opacity:0.4;}
	.st3{fill:#FFFFFF;}
	.st4{fill:#39B54A;}
</style>
<defs>
</defs>
<g>
	<path id="Trazado_62-3_1_" class="st0" d="M8.62,5h86.2c4.76,0,8.62,3.51,8.62,7.84v80.37c0,4.33-3.86,7.84-8.62,7.84H8.62
		c-4.76,0-8.62-3.51-8.62-7.84V12.84C0,8.51,3.86,5,8.62,5z"/>
	<path id="Trazado_62-3-2_1_" class="st1" d="M13.62,0h86.2c4.76,0,8.62,3.51,8.62,7.84v80.37c0,4.33-3.86,7.84-8.62,7.84h-86.2
		C8.86,96.05,5,92.54,5,88.21V7.84C5,3.51,8.86,0,13.62,0z"/>
	<g id="Grupo_899_1_" class="st2">
		<path id="Rectángulo_218_1_" class="st3" d="M19.68,13.83h15.38c2.74,0,4.96,2.22,4.96,4.96v10.32c0,2.74-2.22,4.96-4.96,4.96
			H19.68c-2.74,0-4.96-2.22-4.96-4.96V18.78C14.72,16.05,16.94,13.83,19.68,13.83z"/>
		<path id="Rectángulo_219_1_" class="st3" d="M49.03,13.83h15.38c2.74,0,4.96,2.22,4.96,4.96v10.32c0,2.74-2.22,4.96-4.96,4.96
			H49.03c-2.74,0-4.96-2.22-4.96-4.96V18.78C44.07,16.05,46.29,13.83,49.03,13.83z"/>
		<path id="Rectángulo_220_1_" class="st3" d="M78.38,13.83h15.38c2.74,0,4.96,2.22,4.96,4.96v10.32c0,2.74-2.22,4.96-4.96,4.96
			H78.38c-2.74,0-4.96-2.22-4.96-4.96V18.78C73.42,16.05,75.64,13.83,78.38,13.83z"/>
		<path id="Rectángulo_221_1_" class="st3" d="M19.68,38.11h15.38c2.74,0,4.96,2.22,4.96,4.96V53.4c0,2.74-2.22,4.96-4.96,4.96
			H19.68c-2.74,0-4.96-2.22-4.96-4.96V43.07C14.72,40.33,16.94,38.11,19.68,38.11z"/>
		<path id="Rectángulo_222_1_" class="st3" d="M49.03,38.11h15.38c2.74,0,4.96,2.22,4.96,4.96V53.4c0,2.74-2.22,4.96-4.96,4.96
			H49.03c-2.74,0-4.96-2.22-4.96-4.96V43.07C44.07,40.33,46.29,38.11,49.03,38.11z"/>
		<path id="Rectángulo_223_1_" class="st3" d="M77.62,38.22h15.2c2.71,0,4.9,2.19,4.9,4.9v10.2c0,2.71-2.19,4.9-4.9,4.9h-15.2
			c-2.71,0-4.9-2.19-4.9-4.9v-10.2C72.72,40.42,74.91,38.22,77.62,38.22z"/>
		<path id="Rectángulo_224_1_" class="st3" d="M19.62,62.22h15.2c2.71,0,4.9,2.19,4.9,4.9v10.2c0,2.71-2.19,4.9-4.9,4.9h-15.2
			c-2.71,0-4.9-2.19-4.9-4.9v-10.2C14.72,64.42,16.91,62.22,19.62,62.22z"/>
		<path id="Rectángulo_225_1_" class="st3" d="M48.62,62.22h15.2c2.71,0,4.9,2.19,4.9,4.9v10.2c0,2.71-2.19,4.9-4.9,4.9h-15.2
			c-2.71,0-4.9-2.19-4.9-4.9v-10.2C43.72,64.42,45.91,62.22,48.62,62.22z"/>
		<path id="Rectángulo_226_1_" class="st3" d="M77.62,62.22h15.2c2.71,0,4.9,2.19,4.9,4.9v10.2c0,2.71-2.19,4.9-4.9,4.9h-15.2
			c-2.71,0-4.9-2.19-4.9-4.9v-10.2C72.72,64.42,74.91,62.22,77.62,62.22z"/>
	</g>
	<g id="Grupo_900_1_">
		<path id="Trazado_1243_1_" class="st4" d="M54.67,67.63h-3.8L50.82,64c-0.06-3.17,0.24-6.33,0.91-9.43c0.8-3,1.98-5.89,3.51-8.6
			c1.78-3,3.26-6.17,4.42-9.46c0.72-2.54,1.09-5.16,1.09-7.8c0-4.16-0.88-7.33-2.63-9.51c-1.63-2.12-4.17-3.34-6.84-3.27
			c-1.96-0.07-3.89,0.52-5.49,1.67c-1.47,1.11-2.21,2.22-2.21,3.33c0.09,1.05,0.72,1.98,1.66,2.45c1.34,0.76,2.56,1.71,3.64,2.81
			c0.84,1.22,1.28,2.68,1.25,4.16c0.02,2.07-0.81,4.06-2.29,5.51c-1.4,1.5-3.36,2.35-5.41,2.34c-2.26,0.01-4.42-0.97-5.9-2.68
			c-1.71-1.94-2.59-4.47-2.47-7.05c-0.01-4.7,2.08-9.17,5.7-12.17c3.8-3.4,8.77-5.1,14.91-5.1c6.04,0,11,1.84,14.88,5.51
			c3.76,3.39,5.88,8.24,5.82,13.31c-0.01,2.15-0.36,4.28-1.04,6.32c-0.63,1.97-1.58,3.82-2.81,5.49c-1.98,2.35-4.19,4.49-6.61,6.39
			c-2.41,1.89-4.6,4.04-6.53,6.42c-1.22,1.69-2.15,3.57-2.76,5.56C54.94,62.6,54.62,65.11,54.67,67.63z M52.9,73.62
			c2.39-0.04,4.69,0.91,6.35,2.63c3.48,3.54,3.47,9.22-0.03,12.75c-3.53,3.48-9.22,3.43-12.7-0.1c-3.48-3.53-3.43-9.22,0.1-12.7
			C48.3,74.55,50.55,73.62,52.9,73.62z"/>
	</g>
</g>
</svg>
