<!-- Generator: Adobe Illustrator 24.1.2, SVG Export Plug-In  -->
<svg version="1.1" xmlns="http://www.w3.org/2000/svg" xmlns:xlink="http://www.w3.org/1999/xlink" x="0px" y="0px"
	 width="108.44px" height="101.05px" viewBox="0 0 108.44 101.05"
	 style="overflow:visible;enable-background:new 0 0 108.44 101.05;" xml:space="preserve">
<style type="text/css">
	.st0{fill:#006CB2;}
	.st1{fill:#7EB8F9;}
	.st2{fill:#ED1C24;}
	.st3{fill:#D4F7FF;}
	.st4{fill:#C4A2F9;}
	.st5{fill:#333333;}
</style>
<defs>
</defs>
<g>
	<path id="Trazado_62_1_" class="st0" d="M8.62,5h86.2c4.76,0,8.62,3.51,8.62,7.84v80.37c0,4.33-3.86,7.84-8.62,7.84H8.62
		c-4.76,0-8.62-3.51-8.62-7.84V12.84C0,8.51,3.86,5,8.62,5z"/>
	<path id="Trazado_62-2-2_1_" class="st1" d="M13.62,0h86.2c4.76,0,8.62,3.51,8.62,7.84v80.37c0,4.33-3.86,7.84-8.62,7.84h-86.2
		C8.86,96.05,5,92.54,5,88.21V7.84C5,3.51,8.86,0,13.62,0z"/>
	<g id="Grupo_891_1_">
		<path id="Trazado_1236_1_" class="st2" d="M90.79,72.34L88.77,75c-1.69,2.22-4.86,2.66-7.08,0.97c-0.01-0.01-0.02-0.02-0.03-0.03
			L53.41,54.11c-2.14-1.65-2.6-4.69-1.05-6.9l0,0c1.55-2.21,4.57-2.82,6.85-1.37l30.26,19.17c2.36,1.49,3.06,4.62,1.56,6.98
			C90.96,72.11,90.88,72.23,90.79,72.34z"/>
		<circle id="Elipse_339_1_" class="st3" cx="43.8" cy="41.21" r="21.17"/>
		<g id="Grupo_889_1_">
			<path id="Trazado_1237_1_" class="st4" d="M43.76,63.4c-12.29,0-22.25-9.97-22.24-22.25c0-12.29,9.97-22.25,22.25-22.24
				s22.25,9.97,22.24,22.25c0,10.79-7.74,20.02-18.36,21.9C46.36,63.29,45.06,63.4,43.76,63.4z M43.83,21.05
				c-11.13-0.01-20.17,9.01-20.17,20.14c-0.01,11.13,9.01,20.17,20.14,20.17s20.17-9.01,20.17-20.14c0-6.58-3.2-12.75-8.6-16.53
				C52,22.32,47.96,21.05,43.83,21.05L43.83,21.05z"/>
		</g>
		<g id="Grupo_890_1_">
			<path id="Trazado_1238_1_" class="st5" d="M28.79,33.08c-0.05,0-0.11-0.02-0.15-0.05c-0.12-0.09-0.15-0.25-0.07-0.37
				c5.98-8.53,17.75-10.61,26.28-4.63c0,0,0,0,0,0c0.12,0.08,0.16,0.25,0.08,0.37s-0.25,0.16-0.37,0.08c-0.01,0-0.01-0.01-0.01-0.01
				c-8.29-5.81-19.72-3.8-25.53,4.49c0,0,0,0,0,0C28.96,33.04,28.88,33.08,28.79,33.08z"/>
		</g>
	</g>
</g>
</svg>
