<!-- Generator: Adobe Illustrator 24.1.2, SVG Export Plug-In  -->
<svg version="1.1" xmlns="http://www.w3.org/2000/svg" xmlns:xlink="http://www.w3.org/1999/xlink" x="0px" y="0px"
	 width="354.73px" height="360.72px" viewBox="0 0 354.73 360.72"
	 style="overflow:visible;enable-background:new 0 0 354.73 360.72;" xml:space="preserve">
<style type="text/css">
	.st0{fill:#FFFFFF;}
	.st1{fill:#5591D8;}
	.st2{fill:#E7B134;}
	.st3{fill:url(#SVGID_1_);}
	.st4{fill:url(#SVGID_2_);}
	.st5{fill:url(#SVGID_3_);}
	.st6{fill:url(#SVGID_4_);}
	.st7{fill:url(#SVGID_5_);}
	.st8{fill:url(#SVGID_6_);}
	.st9{fill:url(#SVGID_7_);}
	.st10{fill:url(#SVGID_8_);}
	.st11{fill:url(#SVGID_9_);}
	.st12{fill:url(#SVGID_10_);}
	.st13{fill:url(#SVGID_11_);}
	.st14{fill:url(#SVGID_12_);}
	.st15{fill:url(#SVGID_13_);}
	.st16{fill:url(#SVGID_14_);}
	.st17{fill:url(#SVGID_15_);}
	.st18{fill:url(#SVGID_16_);}
	.st19{fill:url(#SVGID_17_);}
	.st20{fill:url(#SVGID_18_);}
	.st21{fill:url(#SVGID_19_);}
	.st22{fill:url(#SVGID_20_);}
	.st23{fill:url(#SVGID_21_);}
	.st24{fill:url(#SVGID_22_);}
	.st25{fill:#007D39;}
	.st26{fill:url(#SVGID_23_);}
	.st27{fill:url(#SVGID_24_);}
	.st28{fill:url(#SVGID_25_);}
	.st29{fill:url(#SVGID_26_);}
	.st30{fill:url(#SVGID_27_);}
	.st31{fill:url(#SVGID_28_);}
	.st32{fill:url(#SVGID_29_);}
	.st33{fill:url(#SVGID_30_);}
	.st34{fill:url(#SVGID_31_);}
	.st35{fill:url(#SVGID_32_);}
	.st36{fill:url(#SVGID_33_);}
	.st37{fill:url(#SVGID_34_);}
	.st38{fill:url(#SVGID_35_);}
	.st39{fill:url(#SVGID_36_);}
	.st40{fill:url(#SVGID_37_);}
	.st41{fill:url(#SVGID_38_);}
	.st42{fill:url(#SVGID_39_);}
	.st43{fill:url(#SVGID_40_);}
	.st44{fill:url(#SVGID_41_);}
	.st45{fill:url(#SVGID_42_);}
	.st46{fill:url(#SVGID_43_);}
	.st47{fill:url(#SVGID_44_);}
	.st48{fill:url(#SVGID_45_);}
	.st49{fill:url(#SVGID_46_);}
	.st50{fill:url(#SVGID_47_);}
	.st51{fill:url(#SVGID_48_);}
</style>
<defs>
</defs>
<g>
	<path class="st0" d="M342.2,260.7l-5.4-3.8c-2.25-1.58-4.1-3.43-5.49-5.49l-8.85-13.09c-5.45-8.06-15.39-13.64-26.59-14.93
		l-28.43-3.26l1.12-2.12c1.26-2.4,1.19-5.22-0.19-7.55c-0.27-0.45-0.58-0.87-0.92-1.25l6.77-9.63c1.56-2.22,1.85-5.02,0.77-7.51
		c-0.15-0.34-0.31-0.66-0.5-0.97l6.92-7.89c1.79-2.04,2.38-4.8,1.57-7.38c-0.73-2.35-2.49-4.17-4.77-4.99l7.97-10.98
		c1.59-2.19,1.92-4.99,0.89-7.5c-0.9-2.18-2.7-3.79-4.92-4.45l4.56-8.64c1.31,0.63,2.05,1.2,2.45,1.6c1.2,1.2,4,4,7.6,2.93
		c0.97-0.29,1.81-0.82,2.47-1.54c1.52,2.48,2.8,5.33,3.47,8.48c0.85,3.94,1.89,7.57,5.33,8.56c1.89,0.54,3.94-0.01,5.34-1.45
		c0.75-0.77,1.3-1.94,1.69-3.34c0.81,1.87,1.33,3.81,1.33,5.72c0,5.65,1.89,8.66,5.63,8.94c1.73,0.13,3.2-0.56,4.45-1.72
		c1.14,4.76,2.18,9.43,2.28,11.56c0.21,4.1,2.8,5.37,3.91,5.72c1.11,0.36,3.98,0.83,6.57-2.44c1.51-1.91,4.71-8.32,6.79-15.09
		c0.17,0.03,0.32,0.04,0.44,0.05c0.1,0.01,0.21,0.01,0.31,0.01c2.24,0,4.68-1.58,5.02-4.65c0.05-0.45,0.04-0.91,0-1.39l0.01-0.36
		c0.23-9.62-0.03-16.75-0.61-22.08c1.2-0.74,3.36-2.74,1.75-6.88c-0.82-2.12-2.21-4.16-4.11-6.08c-4.72-6.98-9.22-11.82-13.4-15.11
		c0.68-1.84,0.36-4.26-1.89-6.02c0,0,0,0,0,0c-1.39-1.08-3.19-1.57-5.89-1.6c-5.87-1.74-12.12-3.43-17.72-4.04
		c-0.13-1.09-0.63-2.19-1.53-3.05c-0.01-0.68-0.15-1.36-0.43-1.99c1.94-0.34,3.69-0.52,4.9-0.39c1.43,0.15,4.77,0.5,6.6-2.37
		c1.05-1.65,1.07-3.72,0.05-5.41c-0.01-0.02-0.02-0.03-0.03-0.05c2.75-0.78,5.26-1.42,6.75-1.62c0.56,0.09,1.09,0.15,1.58,0.15
		c2.47,0,4.08-1.13,4.82-3.37c0.41-1.26,0.34-2.79-0.45-4.11c2.04-0.11,4.06,0.03,5.88,0.6c1.97,0.61,6.08,1.89,8.33-1.62
		c1.26-1.96,1.03-4.47-0.57-6.25c-1.9-2.11-11.41-6.3-21.82-6.53c-0.21-1.98-1.59-3.69-3.58-4.27c-0.18-0.05-0.74-0.1-1.59-0.11
		l0-0.08l-0.37,0c-0.31,0-0.64,0.03-0.99,0.08c-3.47,0.07-9.45,0.58-15.27,2.37c-0.6-0.35-1.27-0.58-2-0.67
		c-1.26-0.15-4.37,0.59-8.08,2.19c0.1-0.66,0.06-1.34-0.11-2c-2.33-8.8-6.56-13.87-10.81-16.79c0.27-4.85-5.13-6.02-7.73-6.58
		c-3.34-0.72-6.79-0.93-9.99-0.9c0,0,0-0.01,0-0.02c-0.22-2.29-1.98-4.13-4.26-4.46c-1.87-0.27-4.15-0.17-6.55,0.14
		c0.72-0.48,1.31-1.14,1.7-1.94c3.84,0.11,6.64,0.41,6.69,0.41c1.82,0.2,3.53-0.6,4.56-1.99c8.39-0.33,10.09-3.31,10.78-4.52
		c0.95-1.67,1.99-5.13-1.77-9.55c-4.75-5.58-12.15-7.56-18.54-8.27c0.02-0.42,0-0.85-0.08-1.32c-0.16-0.94-1.01-4.06-5.41-4.7
		c-3.56-0.52-8.69,1.88-13.76,5.13c-1.27-0.61-3.08-0.89-5.63-0.12c-2.95,0.89-5.99,3.39-8.68,6.23c-0.31-0.22-0.65-0.41-1.04-0.58
		c-1.87-0.83-4.59-0.6-6.46,1.79c-1,1.28-1.85,3.3-3.88,8.35c-0.23,0.58-0.5,1.25-0.78,1.95c-1.51-1.73-3.5-3.8-6.11-6.28
		c-9.69-9.16-12.21-9.53-13.03-9.65c-2.01-0.29-3.98,0.55-5.13,2.2c-0.02,0.02-0.03,0.05-0.05,0.07c-4.74-1.84-9.51-3.3-10.44-3.43
		c-1.71-0.25-3.38,0.35-4.52,1.55c-1.83-0.44-3.59-0.74-5.15-0.94c-2.23-1.02-4.64-0.94-6.78,0.27c-1.57,0.89-2.49,2.54-2.51,4.29
		c-2.82,0.3-5.76,0.78-8.68,1.31l-0.34,0.06c-1.38-0.19-3.54-0.23-5.35,1.12c0,0,0,0,0,0c-2.31,1.72-2.54,4.35-1.74,6.18
		c0.01,0.03,0.03,0.05,0.04,0.08c-5.56,2.37-11.63,5.97-17.29,9.48c-2.3,0.78-3.83,1.68-4.9,2.87c-2.16,2.4-1.68,5.25-0.32,6.88
		c1.11,1.33,2.28,1.85,3.52,1.85c1.81,0,3.76-1.11,5.87-2.41c1.07-0.31,2.32-0.59,3.66-0.85c-1.33,4.31,1.98,6.22,2.38,6.43
		c0.85,0.45,1.65,0.64,2.39,0.64c2.39,0,4.2-2,5.58-3.81c1.42-0.71,3.33-1.46,5.37-2.17c0.28,2.69,2.37,3.81,2.9,4.06
		c0.79,0.36,1.52,0.52,2.19,0.52c2.3,0,3.93-1.83,5.1-3.57c1.51-0.46,3.75-0.82,6.23-1.08c0.06,0.22,0.13,0.44,0.22,0.65
		c0,0.01,0.01,0.01,0.01,0.02c-0.27,0.12-0.53,0.24-0.79,0.39c-1.92,1.18-2.63,3.02-2.56,4.67c-8.7,5.13-15.54,14.16-16.68,15.72
		c-1.22,1.67-1.29,3.91-0.18,5.65c0.2,0.31,0.43,0.59,0.68,0.84c-1.23,1.83-2.44,3.88-3.64,6.17c-4.86,0.01-12.5,0.81-17.19,4.28
		c-0.12-0.23-0.23-0.44-0.33-0.63c-1.8-3.45-4.81-9.23-10.07-6.59c-0.52,0.26-0.98,0.56-1.39,0.9c-4.13-3.14-7.63-4.44-10.44-3.88
		c-2.09,0.42-3.37,1.37-4.16,2.36c-6.04-1.08-7.83-0.19-8.72,0.25c-1.36,0.68-2.36,1.73-2.9,2.99c-11.08,0.79-12.54,3.34-13.38,4.82
		c-0.61,1.07-0.89,2.24-0.84,3.4c-3.59,1.65-6.41,3.98-7.01,7.27c-0.26,1.43-0.11,2.8,0.42,3.99c-3.41,3.01-3.41,4.71-3.41,5.99
		c0,0.11,0,0.21,0.01,0.32c-2.5,0.95-3.15,1.76-3.64,2.37c-1.12,1.4-1.57,3.15-1.26,4.82c-0.61,0.31-1.23,0.63-1.85,0.96
		c-7.07,3.73-11.74,6.19-10.56,10.9c0.09,0.37,0.22,0.75,0.4,1.12c-7.98,6.46-8.29,8.64-8.49,10.04c-0.19,1.31,0.03,2.58,0.59,3.66
		c-2.68,3.76-5.12,7.73-5.63,10.24c-0.46,2.31,0.5,4.56,2.44,5.71c3.98,2.37,7.09-0.21,18.66-9.81c0.56-0.47,1.17-0.97,1.79-1.48
		c0.29,0.28,0.62,0.53,0.99,0.73c1.9,1.08,4.27,0.8,5.87-0.68c2.2-2.04,4.71-4.28,6.87-6.13c0.49,0.8,1.21,1.47,2.11,1.9
		c2.07,0.98,4.54,0.44,6-1.33c1.84-2.23,4.08-4.75,6.03-6.78c0.28,0.44,0.61,0.83,0.99,1.15c3.03,2.61,5.78,0.96,10.11-2.07
		c0.2,0.6,0.51,1.15,0.89,1.62c1.88,2.27,4.38,2.42,7.44,0.46l3.56,8.89c-2.27,0.42-4.23,1.83-5.36,3.91
		c-1.29,2.38-1.26,5.2,0.1,7.55l6.78,11.75c-2.36,0.57-4.3,2.2-5.27,4.46c-1.07,2.49-0.77,5.3,0.79,7.51l6.06,8.57
		c-0.22,0.29-0.42,0.59-0.6,0.92c-1.33,2.36-1.34,5.18-0.02,7.55l5.73,10.28c-0.38,0.34-0.73,0.73-1.05,1.15
		c-1.62,2.17-1.98,4.97-0.98,7.48l4.01,10.02c-0.64,0.3-1.29,0.62-1.96,0.94c-0.16,0.02-0.32,0.04-0.48,0.06l-52.3,5.28
		c-11.22,1.13-21.23,6.58-26.79,14.56l-9.03,12.97c-1.42,2.04-3.29,3.86-5.57,5.42l-5.45,3.72C4.74,263.98,0.06,272.14,0,280.83
		c-0.06,8.69,4.51,16.91,12.54,22.55l5.4,3.79c2.25,1.58,4.1,3.43,5.49,5.49l8.85,13.09c5.45,8.06,15.39,13.64,26.59,14.93l52.23,6
		c1.28,0.15,2.56,0.37,3.81,0.66l52.22,12.22c3.27,0.77,6.64,1.15,10,1.15c3.16,0,6.33-0.34,9.41-1.01l52.39-11.51
		c1.24-0.27,2.53-0.48,3.82-0.61l52.3-5.28c11.22-1.13,21.23-6.58,26.79-14.56l9.03-12.97c1.42-2.04,3.29-3.86,5.57-5.41l5.45-3.72
		c8.1-5.53,12.79-13.69,12.84-22.38C354.79,274.57,350.22,266.35,342.2,260.7z M247.56,32.87c-0.34,0.07-0.67,0.15-1.01,0.23
		c-0.05-0.05-0.11-0.1-0.17-0.15C246.78,32.91,247.17,32.89,247.56,32.87z M248.43,152.37l1.32,12.48c-0.82,0.28-1.59,0.7-2.3,1.25
		c-1.9,1.5-2.98,3.75-2.94,6.17l0.15,11.77c-2.23-0.19-4.42,0.59-6.04,2.18c-1.73,1.69-2.56,4.04-2.26,6.45l1.66,13.68l-0.29,0
		c-2.42-0.08-4.67,1.04-6.17,2.94c-1.17,1.48-1.75,3.29-1.66,5.13l-3.27-0.77c-5.12-2.91-10.06-5.44-14.76-7.55l2.87-5.51
		c1.12-2.15,1.18-4.64,0.15-6.83c-0.62-1.33-1.58-2.43-2.77-3.21l3.24-8.78c1.01-0.83,2.04-2.02,3.03-3.41
		c0.13,0.09,0.27,0.17,0.41,0.24c0.57,0.3,3.53,1.63,6.29-1.23c0.08-0.08,3.3-4.02,6.32-9.13c0.24,0.06,0.74,0.16,1.36,0.16
		c1.51,0,3.78-0.6,5-3.86c0,0,0,0,0,0c0.45-1.19,0.68-2.51,0.73-3.92c3.31-12.16,8.05-21.95,10.41-23.43c0.01,0,0.01,0,0.02,0
		l2.16,8.51c-0.1,0.08-0.19,0.17-0.29,0.26C249.04,147.62,248.17,149.96,248.43,152.37z M228.19,115.87
		c-0.82,0.04-1.65,0.13-2.47,0.29l2.03-4.82c0.27,0.38,0.59,0.74,0.95,1.08c-0.35,0.69-0.56,1.45-0.58,2.25
		C228.1,115.1,228.13,115.5,228.19,115.87z M197.32,95.93c-2.3,0-4.47,1.02-5.96,2.84c-1.71,2.1-2.21,4.88-1.31,7.43l1.84,5.29
		c-0.36,0.23-0.7,0.48-1.02,0.77c-2.02,1.8-2.95,4.47-2.47,7.14l1.38,7.68c-0.87,0.32-1.69,0.81-2.41,1.45
		c-2.04,1.79-2.97,4.45-2.51,7.12l1.58,9.11c-0.72,0.34-1.4,0.8-2,1.38c-1.97,1.86-2.81,4.55-2.25,7.21l3.19,15.14l-0.28-0.03
		c-2.7-0.25-5.27,0.9-6.89,3.08c-1.62,2.17-1.99,4.97-0.98,7.49l2.61,6.52c-0.36,0.26-0.71,0.56-1.03,0.9
		c-1.88,1.95-2.6,4.68-1.93,7.3l1.15,4.45c-9.25,0.4-18.96,1.92-28.96,4.52c-0.2-0.71-0.5-1.39-0.91-2.03
		c-1.29-2.05-3.42-3.35-5.83-3.57l-0.29-0.03l3.08-13.43c0.54-2.36-0.03-4.79-1.58-6.65c-1.45-1.75-3.53-2.75-5.78-2.8l1.38-11.69
		c0.28-2.4-0.55-4.75-2.28-6.44c-0.64-0.62-1.37-1.12-2.15-1.49l2.62-12.28c0.5-2.37-0.11-4.78-1.68-6.63
		c-0.08-0.1-0.17-0.19-0.26-0.29l0.9-2.45c1.2,2.2,2.61,3.18,3.9,3.54c0.22,1.07,0.34,1.88,0.34,2.32c0,1.5,0.38,2.81,1.14,3.89
		c1.4,2,3.94,2.89,6.37,2.19c0.38,2.13,0.64,4.07,0.57,4.95c-0.83,4.01,1.81,6.16,3.81,6.63c0.24,0.06,0.48,0.1,0.71,0.12
		c0.37,3.49,0.82,7.89,0.83,8.75c0,3.4,2.58,5.26,5.01,5.29c3.39,0.05,4.77-2.41,5.86-5.9c0.55,0.01,1.1-0.07,1.62-0.23
		c4.07-1.3,4-5.91,3.93-10.37c0-0.22-0.01-0.45-0.02-0.7c1.32-0.67,2.31-1.88,2.73-3.4c0.56-2.04-0.23-5.98-1.52-9.89
		c0.64-0.85,1.01-1.89,1.03-3.01c0.03-2.02-2.81-8.26-6.12-13.15c0.23-0.36,0.42-0.76,0.56-1.19c0.85-2.62-0.75-5.38-2.97-7.74
		c0.24-0.11,0.48-0.23,0.72-0.38c0.97-0.58,1.92-1.62,2.31-3.04c2.19,1.06,4.91,1.81,7.32-0.44c3.03-2.84,1.36-6.81,0.14-9.37
		c0.84-0.4,1.58-1.08,2.2-2.1c2.5-4.13-1.42-7.72-3.52-9.65c-0.88-0.8-1.73-1.55-2.56-2.24c1.94-3.74,5.9-9.12,9.41-13.58
		c0.26,0.12,0.54,0.23,0.84,0.31c4.83,1.4,7.33-3.71,8.39-5.9c0.29-0.6,0.58-0.79,0.97-0.92c0.72-0.24,1.76-0.23,3-0.01
		c-0.09,1.24,0.12,2.5,0.65,3.68l2.05,4.63c-0.28,0.25-0.55,0.51-0.8,0.8c-1.77,2.05-2.34,4.81-1.53,7.39l3.71,11.7
		C197.34,95.93,197.33,95.93,197.32,95.93z M276.87,70.38c-6.55,4.77-11.4,9.4-14.55,13.96c-1.09-3.13-2.09-4.62-3.75-5.51
		c-0.78-0.42-1.66-0.64-2.53-0.64c-0.56,0-1.12,0.09-1.65,0.27c-1.26,0.42-2.91,1.42-4.04,3.8c-3.87-3.08-7.41-4.38-10.83-2.95
		c-1.83,0.76-2.91,1.82-3.53,2.84c-1.91-0.58-3.67-1.03-5.27-1.29c-0.28-0.33-0.59-0.64-0.92-0.93l2.61-7.94
		c0.08-0.25,0.15-0.51,0.21-0.77c4.72-0.6,9.83-1.44,11.31-1.69c1.07-0.18,2.02-0.69,2.74-1.43c6.75,0.65,7.3,0.19,8.6-0.87
		c0.08-0.07,0.17-0.14,0.24-0.21c2.8,0.66,5.39,1.14,7.1,1.43c2.2,0.37,4.4-0.76,5.36-2.79c0.09-0.19,0.16-0.38,0.23-0.57
		c3.99-0.27,6.56-1.07,7.01-1.22c0.54-0.18,1.03-0.44,1.46-0.77c2.28,0.78,4.45,1.62,6.16,2.31
		C280.66,66.39,278.67,68.06,276.87,70.38z M326.83,84.11c0.02,0,0.03-0.01,0.05-0.01l0,0.01
		C326.88,84.11,326.84,84.11,326.83,84.11z"/>
	<g>
		<g>
			<path class="st1" d="M186.46,209.39l52.22,12.23c1.43,0.34,2.9,0.59,4.38,0.76l52.23,6c9.81,1.13,18.36,5.87,23.02,12.76
				l8.85,13.1c1.73,2.56,4.02,4.85,6.76,6.78l5.4,3.8c13.98,9.83,13.87,27.07-0.25,36.71l-5.45,3.72c-2.77,1.89-5.09,4.15-6.85,6.69
				l-9.03,12.97c-4.76,6.83-13.37,11.45-23.19,12.44l-52.3,5.28c-1.48,0.15-2.95,0.38-4.39,0.7l-52.38,11.51
				c-5.63,1.24-11.59,1.2-17.2-0.12l-52.22-12.23c-1.43-0.34-2.9-0.59-4.38-0.76l-52.23-6c-9.81-1.13-18.36-5.87-23.02-12.76
				l-8.85-13.1c-1.73-2.56-4.02-4.85-6.76-6.78l-5.4-3.8c-13.98-9.83-13.87-27.07,0.25-36.71l5.45-3.72
				c2.77-1.89,5.09-4.15,6.85-6.69L37,239.2c4.76-6.83,13.37-11.45,23.19-12.44l52.3-5.28c1.48-0.15,2.95-0.38,4.39-0.7l52.38-11.51
				C174.89,208.03,180.85,208.07,186.46,209.39z"/>
			<g>
				<g>
					<path class="st2" d="M84.82,271.45c29.8,2.91,45.06,19.62,60.32,20.35c15.26,0.73,21.8-6.54,40.7-5.09
						c18.9,1.45,26.16,12.36,47.97,1.45s23.26-9.45,35.61-7.99c7.11,0.84,15.65-3.87,22.19-9.4
						c-19.64-20.4-76.81-68.83-112.31-67.64c-49.53,1.65-99.19,36.15-123.25,55.15C61.68,264.15,70.73,270.08,84.82,271.45z"/>
				</g>
				<g>
					<linearGradient id="SVGID_1_" gradientUnits="userSpaceOnUse" x1="193.0176" y1="77.601" x2="279.1778" y2="92.0952">
						<stop  offset="0" style="stop-color:#C94F24"/>
						<stop  offset="0.0199" style="stop-color:#CC5827"/>
						<stop  offset="0.0902" style="stop-color:#D4732F"/>
						<stop  offset="0.171" style="stop-color:#DA8936"/>
						<stop  offset="0.2652" style="stop-color:#DF9A3B"/>
						<stop  offset="0.3819" style="stop-color:#E2A53E"/>
						<stop  offset="0.5456" style="stop-color:#E4AC40"/>
						<stop  offset="1" style="stop-color:#E5AE41"/>
					</linearGradient>
					<path class="st3" d="M218.2,95.45l-4.97,1.43c-1.31,0.38-2.7-0.27-3.25-1.52L198.5,69.39c-0.82-1.86,0.61-3.94,2.64-3.82
						l24.07,1.32c1.79,0.1,3,1.87,2.44,3.57l-7.62,23.22C219.75,94.53,219.07,95.2,218.2,95.45z"/>
					<linearGradient id="SVGID_2_" gradientUnits="userSpaceOnUse" x1="190.4424" y1="92.9093" x2="276.6025" y2="107.4035">
						<stop  offset="0" style="stop-color:#C94F24"/>
						<stop  offset="0.0199" style="stop-color:#CC5827"/>
						<stop  offset="0.0902" style="stop-color:#D4732F"/>
						<stop  offset="0.171" style="stop-color:#DA8936"/>
						<stop  offset="0.2652" style="stop-color:#DF9A3B"/>
						<stop  offset="0.3819" style="stop-color:#E2A53E"/>
						<stop  offset="0.5456" style="stop-color:#E4AC40"/>
						<stop  offset="1" style="stop-color:#E5AE41"/>
					</linearGradient>
					<path class="st4" d="M215.14,110.78l-5.09,0.88c-1.34,0.23-2.65-0.56-3.06-1.86l-8.58-27.07c-0.61-1.94,1.04-3.84,3.04-3.51
						l23.78,3.95c1.77,0.29,2.78,2.18,2.04,3.82l-10.11,22.25C216.79,110.04,216.03,110.62,215.14,110.78z"/>
					<linearGradient id="SVGID_3_" gradientUnits="userSpaceOnUse" x1="186.8702" y1="114.1436" x2="273.0304" y2="128.6378">
						<stop  offset="0" style="stop-color:#C94F24"/>
						<stop  offset="0.0199" style="stop-color:#CC5827"/>
						<stop  offset="0.0902" style="stop-color:#D4732F"/>
						<stop  offset="0.171" style="stop-color:#DA8936"/>
						<stop  offset="0.2652" style="stop-color:#DF9A3B"/>
						<stop  offset="0.3819" style="stop-color:#E2A53E"/>
						<stop  offset="0.5456" style="stop-color:#E4AC40"/>
						<stop  offset="1" style="stop-color:#E5AE41"/>
					</linearGradient>
					<path class="st5" d="M212.29,132.12l-5.07,1.03c-1.34,0.27-2.67-0.49-3.11-1.77l-9.34-26.82c-0.67-1.92,0.93-3.87,2.94-3.6
						l23.89,3.27c1.78,0.24,2.84,2.1,2.14,3.76l-9.48,22.53C213.91,131.34,213.18,131.94,212.29,132.12z"/>
					<linearGradient id="SVGID_4_" gradientUnits="userSpaceOnUse" x1="184.2685" y1="129.6094" x2="270.4287" y2="144.1036">
						<stop  offset="0" style="stop-color:#C94F24"/>
						<stop  offset="0.0199" style="stop-color:#CC5827"/>
						<stop  offset="0.0902" style="stop-color:#D4732F"/>
						<stop  offset="0.171" style="stop-color:#DA8936"/>
						<stop  offset="0.2652" style="stop-color:#DF9A3B"/>
						<stop  offset="0.3819" style="stop-color:#E2A53E"/>
						<stop  offset="0.5456" style="stop-color:#E4AC40"/>
						<stop  offset="1" style="stop-color:#E5AE41"/>
					</linearGradient>
					<path class="st6" d="M206.3,148.49l-5.17,0.22c-1.36,0.06-2.56-0.9-2.8-2.24l-5.02-27.95c-0.36-2,1.52-3.68,3.47-3.09
						l23.08,6.97c1.72,0.52,2.47,2.52,1.53,4.05L208.5,147.2C208.03,147.97,207.2,148.45,206.3,148.49z"/>
					<linearGradient id="SVGID_5_" gradientUnits="userSpaceOnUse" x1="181.5005" y1="146.0636" x2="267.6607" y2="160.5579">
						<stop  offset="0" style="stop-color:#C94F24"/>
						<stop  offset="0.0199" style="stop-color:#CC5827"/>
						<stop  offset="0.0902" style="stop-color:#D4732F"/>
						<stop  offset="0.171" style="stop-color:#DA8936"/>
						<stop  offset="0.2652" style="stop-color:#DF9A3B"/>
						<stop  offset="0.3819" style="stop-color:#E2A53E"/>
						<stop  offset="0.5456" style="stop-color:#E4AC40"/>
						<stop  offset="1" style="stop-color:#E5AE41"/>
					</linearGradient>
					<path class="st7" d="M202.57,164.85l-5.17,0.18c-1.36,0.05-2.55-0.92-2.78-2.26l-4.84-27.98c-0.35-2.01,1.55-3.67,3.49-3.07
						l23.03,7.12c1.71,0.53,2.46,2.54,1.5,4.06l-13.03,20.68C204.3,164.34,203.47,164.81,202.57,164.85z"/>
					<linearGradient id="SVGID_6_" gradientUnits="userSpaceOnUse" x1="178.6059" y1="163.2705" x2="264.7661" y2="177.7647">
						<stop  offset="0" style="stop-color:#C94F24"/>
						<stop  offset="0.0199" style="stop-color:#CC5827"/>
						<stop  offset="0.0902" style="stop-color:#D4732F"/>
						<stop  offset="0.171" style="stop-color:#DA8936"/>
						<stop  offset="0.2652" style="stop-color:#DF9A3B"/>
						<stop  offset="0.3819" style="stop-color:#E2A53E"/>
						<stop  offset="0.5456" style="stop-color:#E4AC40"/>
						<stop  offset="1" style="stop-color:#E5AE41"/>
					</linearGradient>
					<path class="st8" d="M200.94,181.88l-5.16,0.37c-1.36,0.1-2.58-0.82-2.86-2.16l-5.85-27.79c-0.42-1.99,1.41-3.72,3.38-3.19
						l23.28,6.28c1.73,0.47,2.55,2.45,1.65,4l-12.27,21.13C202.64,181.31,201.83,181.81,200.94,181.88z"/>
					<linearGradient id="SVGID_7_" gradientUnits="userSpaceOnUse" x1="174.7995" y1="185.8974" x2="260.9597" y2="200.3917">
						<stop  offset="0" style="stop-color:#C94F24"/>
						<stop  offset="0.0199" style="stop-color:#CC5827"/>
						<stop  offset="0.0902" style="stop-color:#D4732F"/>
						<stop  offset="0.171" style="stop-color:#DA8936"/>
						<stop  offset="0.2652" style="stop-color:#DF9A3B"/>
						<stop  offset="0.3819" style="stop-color:#E2A53E"/>
						<stop  offset="0.5456" style="stop-color:#E4AC40"/>
						<stop  offset="1" style="stop-color:#E5AE41"/>
					</linearGradient>
					<path class="st9" d="M200.6,203.9l-5.02,1.25c-1.32,0.33-2.69-0.37-3.19-1.63l-10.55-26.37c-0.76-1.89,0.75-3.91,2.78-3.73
						l24.01,2.18c1.79,0.16,2.93,1.97,2.31,3.66l-8.45,22.93C202.19,203.04,201.48,203.68,200.6,203.9z"/>
					<linearGradient id="SVGID_8_" gradientUnits="userSpaceOnUse" x1="171.9454" y1="202.8633" x2="258.1056" y2="217.3575">
						<stop  offset="0" style="stop-color:#C94F24"/>
						<stop  offset="0.0199" style="stop-color:#CC5827"/>
						<stop  offset="0.0902" style="stop-color:#D4732F"/>
						<stop  offset="0.171" style="stop-color:#DA8936"/>
						<stop  offset="0.2652" style="stop-color:#DF9A3B"/>
						<stop  offset="0.3819" style="stop-color:#E2A53E"/>
						<stop  offset="0.5456" style="stop-color:#E4AC40"/>
						<stop  offset="1" style="stop-color:#E5AE41"/>
					</linearGradient>
					<path class="st10" d="M196.89,221.4l-5.13,0.6c-1.35,0.16-2.62-0.71-2.96-2.03l-7.1-27.5c-0.51-1.97,1.24-3.78,3.23-3.34
						l23.54,5.23c1.75,0.39,2.65,2.33,1.83,3.92l-11.31,21.67C198.57,220.75,197.78,221.29,196.89,221.4z"/>
				</g>
				<g>
					<linearGradient id="SVGID_9_" gradientUnits="userSpaceOnUse" x1="80.1168" y1="136.543" x2="151.7828" y2="132.5168">
						<stop  offset="0.1732" style="stop-color:#C94F24"/>
						<stop  offset="0.3648" style="stop-color:#D26C2D"/>
						<stop  offset="0.636" style="stop-color:#DC9038"/>
						<stop  offset="0.8574" style="stop-color:#E3A63F"/>
						<stop  offset="1" style="stop-color:#E5AE41"/>
					</linearGradient>
					<path class="st11" d="M123.65,149.29l-5.02,1.25c-1.32,0.33-2.69-0.37-3.19-1.63l-10.55-26.37c-0.76-1.89,0.75-3.91,2.78-3.73
						l24.01,2.18c1.79,0.16,2.93,1.97,2.31,3.66l-8.45,22.93C125.23,148.43,124.52,149.07,123.65,149.29z"/>
					<linearGradient id="SVGID_10_" gradientUnits="userSpaceOnUse" x1="81.2116" y1="156.0304" x2="152.8776" y2="152.0042">
						<stop  offset="0.1732" style="stop-color:#C94F24"/>
						<stop  offset="0.3648" style="stop-color:#D26C2D"/>
						<stop  offset="0.636" style="stop-color:#DC9038"/>
						<stop  offset="0.8574" style="stop-color:#E3A63F"/>
						<stop  offset="1" style="stop-color:#E5AE41"/>
					</linearGradient>
					<path class="st12" d="M125.68,167.12l-4.79,1.96c-1.26,0.52-2.71,0.02-3.39-1.16l-14.2-24.6c-1.02-1.76,0.19-3.98,2.22-4.08
						l24.08-1.26c1.79-0.09,3.18,1.54,2.81,3.29l-5.1,23.9C127.13,166.05,126.51,166.78,125.68,167.12z"/>
					<linearGradient id="SVGID_11_" gradientUnits="userSpaceOnUse" x1="82.4167" y1="177.48" x2="154.0826" y2="173.4538">
						<stop  offset="0.1732" style="stop-color:#C94F24"/>
						<stop  offset="0.3648" style="stop-color:#D26C2D"/>
						<stop  offset="0.636" style="stop-color:#DC9038"/>
						<stop  offset="0.8574" style="stop-color:#E3A63F"/>
						<stop  offset="1" style="stop-color:#E5AE41"/>
					</linearGradient>
					<path class="st13" d="M129.83,188.29l-4.59,2.39c-1.21,0.63-2.7,0.27-3.48-0.84l-16.4-23.19c-1.18-1.66-0.18-3.98,1.83-4.27
						l23.86-3.47c1.77-0.26,3.31,1.24,3.1,3.02l-2.87,24.27C131.18,187.09,130.63,187.88,129.83,188.29z"/>
					<linearGradient id="SVGID_12_" gradientUnits="userSpaceOnUse" x1="83.5296" y1="197.2903" x2="155.1956" y2="193.2641">
						<stop  offset="0.1732" style="stop-color:#C94F24"/>
						<stop  offset="0.3648" style="stop-color:#D26C2D"/>
						<stop  offset="0.636" style="stop-color:#DC9038"/>
						<stop  offset="0.8574" style="stop-color:#E3A63F"/>
						<stop  offset="1" style="stop-color:#E5AE41"/>
					</linearGradient>
					<path class="st14" d="M133.1,208.28l-4.82,1.88c-1.27,0.5-2.71-0.02-3.37-1.21l-13.82-24.81c-0.99-1.78,0.25-3.97,2.28-4.05
						l24.09-0.89c1.79-0.07,3.16,1.59,2.76,3.33l-5.46,23.82C134.56,207.23,133.94,207.95,133.1,208.28z"/>
					<linearGradient id="SVGID_13_" gradientUnits="userSpaceOnUse" x1="84.6901" y1="217.9474" x2="156.3561" y2="213.9212">
						<stop  offset="0.1732" style="stop-color:#C94F24"/>
						<stop  offset="0.3648" style="stop-color:#D26C2D"/>
						<stop  offset="0.636" style="stop-color:#DC9038"/>
						<stop  offset="0.8574" style="stop-color:#E3A63F"/>
						<stop  offset="1" style="stop-color:#E5AE41"/>
					</linearGradient>
					<path class="st15" d="M133.82,230.38l-5.02,1.25c-1.32,0.33-2.69-0.37-3.19-1.63l-10.55-26.37c-0.76-1.89,0.75-3.91,2.78-3.73
						l24.01,2.18c1.79,0.16,2.93,1.97,2.31,3.66l-8.45,22.93C135.41,229.52,134.7,230.16,133.82,230.38z"/>
				</g>
				<g>
					<linearGradient id="SVGID_14_" gradientUnits="userSpaceOnUse" x1="244.2948" y1="139.6796" x2="357.833" y2="169.4733">
						<stop  offset="0" style="stop-color:#C94F24"/>
						<stop  offset="0.0199" style="stop-color:#CC5827"/>
						<stop  offset="0.0902" style="stop-color:#D4732F"/>
						<stop  offset="0.171" style="stop-color:#DA8936"/>
						<stop  offset="0.2652" style="stop-color:#DF9A3B"/>
						<stop  offset="0.3819" style="stop-color:#E2A53E"/>
						<stop  offset="0.5456" style="stop-color:#E4AC40"/>
						<stop  offset="1" style="stop-color:#E5AE41"/>
					</linearGradient>
					<path class="st16" d="M261.28,160.74l4.86,1.77c1.28,0.47,2.71-0.08,3.34-1.29l13.25-25.12c0.95-1.8-0.34-3.97-2.37-4
						l-24.11-0.34c-1.79-0.03-3.12,1.66-2.68,3.39l6,23.69C259.79,159.73,260.43,160.43,261.28,160.74z"/>
					<linearGradient id="SVGID_15_" gradientUnits="userSpaceOnUse" x1="239.3882" y1="158.3775" x2="352.9264" y2="188.1712">
						<stop  offset="0" style="stop-color:#C94F24"/>
						<stop  offset="0.0199" style="stop-color:#CC5827"/>
						<stop  offset="0.0902" style="stop-color:#D4732F"/>
						<stop  offset="0.171" style="stop-color:#DA8936"/>
						<stop  offset="0.2652" style="stop-color:#DF9A3B"/>
						<stop  offset="0.3819" style="stop-color:#E2A53E"/>
						<stop  offset="0.5456" style="stop-color:#E4AC40"/>
						<stop  offset="1" style="stop-color:#E5AE41"/>
					</linearGradient>
					<path class="st17" d="M257.39,178.27l4.55,2.45c1.2,0.64,2.69,0.3,3.49-0.8l16.69-22.98c1.2-1.65,0.23-3.98-1.78-4.29
						l-23.81-3.77c-1.77-0.28-3.33,1.2-3.14,2.98l2.57,24.3C256.06,177.05,256.59,177.84,257.39,178.27z"/>
					<linearGradient id="SVGID_16_" gradientUnits="userSpaceOnUse" x1="233.6486" y1="180.2501" x2="347.1868" y2="210.0438">
						<stop  offset="0" style="stop-color:#C94F24"/>
						<stop  offset="0.0199" style="stop-color:#CC5827"/>
						<stop  offset="0.0902" style="stop-color:#D4732F"/>
						<stop  offset="0.171" style="stop-color:#DA8936"/>
						<stop  offset="0.2652" style="stop-color:#DF9A3B"/>
						<stop  offset="0.3819" style="stop-color:#E2A53E"/>
						<stop  offset="0.5456" style="stop-color:#E4AC40"/>
						<stop  offset="1" style="stop-color:#E5AE41"/>
					</linearGradient>
					<path class="st18" d="M251.04,198.89l4.31,2.85c1.14,0.75,2.65,0.55,3.55-0.47l18.74-21.34c1.34-1.53,0.6-3.94-1.38-4.44
						l-23.36-5.95c-1.74-0.44-3.42,0.88-3.4,2.68l0.32,24.44C249.83,197.55,250.29,198.39,251.04,198.89z"/>
					<linearGradient id="SVGID_17_" gradientUnits="userSpaceOnUse" x1="228.8185" y1="198.6567" x2="342.3567" y2="228.4504">
						<stop  offset="0" style="stop-color:#C94F24"/>
						<stop  offset="0.0199" style="stop-color:#CC5827"/>
						<stop  offset="0.0902" style="stop-color:#D4732F"/>
						<stop  offset="0.171" style="stop-color:#DA8936"/>
						<stop  offset="0.2652" style="stop-color:#DF9A3B"/>
						<stop  offset="0.3819" style="stop-color:#E2A53E"/>
						<stop  offset="0.5456" style="stop-color:#E4AC40"/>
						<stop  offset="1" style="stop-color:#E5AE41"/>
					</linearGradient>
					<path class="st19" d="M245.7,218.43l4.59,2.38c1.21,0.63,2.7,0.26,3.48-0.85l16.34-23.23c1.17-1.66,0.17-3.98-1.84-4.27
						l-23.87-3.41c-1.77-0.25-3.31,1.25-3.09,3.03l2.94,24.26C244.36,217.23,244.9,218.01,245.7,218.43z"/>
					<linearGradient id="SVGID_18_" gradientUnits="userSpaceOnUse" x1="223.5589" y1="218.7" x2="337.0971" y2="248.4937">
						<stop  offset="0" style="stop-color:#C94F24"/>
						<stop  offset="0.0199" style="stop-color:#CC5827"/>
						<stop  offset="0.0902" style="stop-color:#D4732F"/>
						<stop  offset="0.171" style="stop-color:#DA8936"/>
						<stop  offset="0.2652" style="stop-color:#DF9A3B"/>
						<stop  offset="0.3819" style="stop-color:#E2A53E"/>
						<stop  offset="0.5456" style="stop-color:#E4AC40"/>
						<stop  offset="1" style="stop-color:#E5AE41"/>
					</linearGradient>
					<path class="st20" d="M242.67,240.32l4.86,1.77c1.28,0.47,2.71-0.08,3.34-1.29l13.25-25.12c0.95-1.8-0.34-3.97-2.37-4
						l-24.11-0.34c-1.79-0.03-3.12,1.66-2.68,3.39l6,23.69C241.19,239.31,241.83,240.01,242.67,240.32z"/>
				</g>
				<linearGradient id="SVGID_19_" gradientUnits="userSpaceOnUse" x1="132.5538" y1="254.9775" x2="132.5538" y2="171.6385">
					<stop  offset="0" style="stop-color:#007D39"/>
					<stop  offset="0.0222" style="stop-color:#0E833A"/>
					<stop  offset="0.0813" style="stop-color:#2D903B"/>
					<stop  offset="0.1482" style="stop-color:#499B3C"/>
					<stop  offset="0.2239" style="stop-color:#5FA43D"/>
					<stop  offset="0.3122" style="stop-color:#70AB3D"/>
					<stop  offset="0.4214" style="stop-color:#7BAF3E"/>
					<stop  offset="0.5746" style="stop-color:#82B23E"/>
					<stop  offset="1" style="stop-color:#84B33E"/>
				</linearGradient>
				<path class="st21" d="M143.18,238.32c0,0,10.96-15.53,9.23-18.05c-1.73-2.53-8.01,9.82-9.58,9.91c-1.57,0.09,0.92-12-1.57-11.92
					c-2.49,0.07-4.22,9.55-4.98,11.42s-0.67-14.1-3.66-12.05c-2.99,2.05-1.85,10.52-3.4,12.8c-1.55,2.28-2.65-3.27-4.78-6.32
					c-2.13-3.05-5.4-2.57-4.54,3.6c0.85,6.17,0.85,6.17,0.85,6.17s-4.23-3.92-7.37-3.75c-3.14,0.17,3.25,10.06,3.93,12.16
					S130.29,233.05,143.18,238.32z"/>
				<linearGradient id="SVGID_20_" gradientUnits="userSpaceOnUse" x1="193.2037" y1="254.9775" x2="193.2037" y2="171.6385">
					<stop  offset="0" style="stop-color:#007D39"/>
					<stop  offset="0.0222" style="stop-color:#0E833A"/>
					<stop  offset="0.0813" style="stop-color:#2D903B"/>
					<stop  offset="0.1482" style="stop-color:#499B3C"/>
					<stop  offset="0.2239" style="stop-color:#5FA43D"/>
					<stop  offset="0.3122" style="stop-color:#70AB3D"/>
					<stop  offset="0.4214" style="stop-color:#7BAF3E"/>
					<stop  offset="0.5746" style="stop-color:#82B23E"/>
					<stop  offset="1" style="stop-color:#84B33E"/>
				</linearGradient>
				<path class="st22" d="M199.45,228.69c0,0,13.05-9.73,12.16-12.32s-9.18,5.85-10.54,5.47s3.62-9.68,1.47-10.33
					c-2.15-0.65-5.87,6.71-6.96,8.04c-1.1,1.33,2.75-11.88-0.29-11.04s-4.07,8.19-5.93,9.64c-1.86,1.45-1.5-3.47-2.6-6.61
					c-1.1-3.14-4.01-3.68-4.74,1.68c-0.73,5.36-0.73,5.36-0.73,5.36s-2.7-4.46-5.43-5.21c-2.73-0.76,0.41,9.27,0.49,11.2
					C176.44,226.5,189.66,220.63,199.45,228.69z"/>
				<linearGradient id="SVGID_21_" gradientUnits="userSpaceOnUse" x1="241.7283" y1="254.9775" x2="241.7283" y2="171.6385">
					<stop  offset="0" style="stop-color:#007D39"/>
					<stop  offset="0.0222" style="stop-color:#0E833A"/>
					<stop  offset="0.0813" style="stop-color:#2D903B"/>
					<stop  offset="0.1482" style="stop-color:#499B3C"/>
					<stop  offset="0.2239" style="stop-color:#5FA43D"/>
					<stop  offset="0.3122" style="stop-color:#70AB3D"/>
					<stop  offset="0.4214" style="stop-color:#7BAF3E"/>
					<stop  offset="0.5746" style="stop-color:#82B23E"/>
					<stop  offset="1" style="stop-color:#84B33E"/>
				</linearGradient>
				<path class="st23" d="M243.22,252.46c0,0,16.45-5.78,16.77-8.31s-11.13,3.17-12.24,2.52c-1.11-0.65,7.63-7.88,5.91-8.96
					c-1.72-1.07-8.42,4.7-10.03,5.65c-1.61,0.95,7.79-10.06,4.58-10c-3.21,0.07-7.4,6.44-9.77,7.32c-2.37,0.88,0.13-3.46,0.48-6.54
					c0.35-3.08-2.13-4.22-5.16,0.43s-3.03,4.66-3.03,4.66s-0.56-4.62-2.77-5.93c-2.21-1.3-3.7,8.43-4.47,10.19
					C222.72,245.25,237.63,242.98,243.22,252.46z"/>
				<linearGradient id="SVGID_22_" gradientUnits="userSpaceOnUse" x1="103.2248" y1="133.0916" x2="113.8845" y2="34.2476">
					<stop  offset="0" style="stop-color:#007D39"/>
					<stop  offset="0.0222" style="stop-color:#0E833A"/>
					<stop  offset="0.0813" style="stop-color:#2D903B"/>
					<stop  offset="0.1482" style="stop-color:#499B3C"/>
					<stop  offset="0.2239" style="stop-color:#5FA43D"/>
					<stop  offset="0.3122" style="stop-color:#70AB3D"/>
					<stop  offset="0.4214" style="stop-color:#7BAF3E"/>
					<stop  offset="0.5746" style="stop-color:#82B23E"/>
					<stop  offset="1" style="stop-color:#84B33E"/>
				</linearGradient>
				<path class="st24" d="M144.78,99.56c0,0,5.81-1.45,1.45-3.63s-15.99,5.09-11.99,3.27c4-1.82,19.99,5.09,17.81,4
					c-2.18-1.09-7.99-0.36-5.81,0.36c2.18,0.73,14.54,7.27,12.72,8.36c-1.82,1.09-8.72-0.36-5.09,1.45s10.18,8.36,7.99,7.99
					c-2.18-0.36-6.54-0.36-3.27,1.09c3.27,1.45,10.54,16.35,8.72,14.54s-6.54-5.81-4.36-3.63c2.18,2.18,6.54,15.26,5.09,15.63
					c-1.45,0.36-8.36-11.27-5.09-6.9c3.27,4.36,2.54,19.62,1.82,17.44c-0.73-2.18-3.63-10.9-2.54-8.72
					c1.09,2.18-3.27,17.08-3.27,14.54c0-2.54-2.54-23.26-1.82-21.08c0.73,2.18-4.36,9.81-3.63,6.54c0.73-3.27-2.91-18.17-2.91-15.63
					s-5.09,7.27-5.09,3.63s-4-16.72-4-16.72s1.82,14.17-1.09,7.99c-2.91-6.18-15.26-9.45-15.26-9.45l-15.26-1.09
					c0,0,7.27-5.45,1.82-5.09s-15.63,8.36-14.54,7.27c1.09-1.09,3.27-7.99,0.73-7.63s-13.45,9.45-12.36,7.27
					c1.09-2.18,1.09-6.9-2.18-5.45c-3.27,1.45-11.99,11.99-11.99,11.99s1.45-7.27-1.45-5.81c-2.91,1.45-13.08,10.9-13.08,10.9
					s1.09-5.09-0.73-4.72c-1.82,0.36-21.44,18.53-20.71,14.9c0.73-3.63,9.81-14.9,9.81-14.9s-5.09,3.27-4.72,0.73
					c0.36-2.54,13.45-11.99,13.45-11.99s-5.09,0.36-5.45-1.09c-0.36-1.45,16.35-9.45,16.35-9.45s-5.09-1.09-3.63-2.91
					c1.45-1.82,16.72-4,16.72-4s-11.99,0.36-11.99-1.82s10.9-8.36,10.9-8.36s-8.72,3.27-7.99-0.73s13.08-6.18,13.08-6.18
					s-7.27-0.36-5.81-2.91c1.45-2.54,16.72-2.54,16.72-2.54s-4.72-2.18-2.54-3.27c2.18-1.09,12.36,1.82,12.36,1.82
					s-4.36-3.27-0.73-4c3.63-0.73,12.36,8.36,12.36,8.36s-1.45-4.72,0.73-5.81c2.18-1.09,6.54,15.26,9.45,8.72
					c2.91-6.54,24.71-5.81,20.35-4s-11.99,7.63-4,3.27s22.53,3.63,23.62,3.27c1.09-0.36-10.9-0.36-6.54,1.09
					c0,0,3.27-0.73,11.99,7.27c8.72,7.99-6.54,0-9.08,0.36s5.09,1.09,9.08,9.45c4,8.36-2.18,1.45-7.63,0.36
					c-5.45-1.09-1.09,2.18,0,5.81s-9.45-8.72-11.99-9.81C147.69,98.84,149.87,101.02,144.78,99.56z"/>
				<g>
					<path class="st25" d="M119.25,100.72l-1.28-0.14c0.29-2.7,0.28-7.4-0.98-8.55c-0.22-0.21-0.47-0.27-0.8-0.2
						c-3.23,0.65-4.21,5.09-4.21,5.55v0.45l-0.44,0.19c-0.51,0.19-0.72-0.06-1.85-1.43c-1.75-2.11-5.84-7.04-8.41-6.58
						c-0.5,0.09-0.83,0.24-0.91,0.42c-0.19,0.47,0.69,1.76,1.34,2.71c0.86,1.25,1.75,2.55,1.9,3.79c0.08,0.63-0.22,0.94-0.41,1.07
						c-0.81,0.55-2.14-0.14-5.35-1.9c-2.96-1.63-7.26-3.97-9.89-3.83c1.29,1.16,3.62,3.24,4.88,4.24c0.52,0.42,0.4,0.83,0.33,0.99
						c-0.31,0.67-0.94,0.54-4.48-0.15c-3.67-0.72-9.6-1.88-12.34-1.13l2.08,2.97l-1.05,0.74l-2.96-4.22l0.63-0.34
						c2.69-1.47,9.43-0.15,13.89,0.73c0.6,0.12,1.23,0.24,1.79,0.34c-1.93-1.66-4.41-3.91-4.54-4.03l-0.72-0.65l0.88-0.41
						c2.99-1.38,8.05,1.4,12.12,3.63c1.39,0.76,3.07,1.68,3.82,1.89c-0.22-0.93-0.97-2.02-1.64-2.99c-1.04-1.51-1.93-2.82-1.47-3.93
						c0.26-0.62,0.87-1.01,1.86-1.19c3.31-0.59,7.42,4.36,9.63,7.02c0.08,0.1,0.17,0.2,0.25,0.3c0.53-1.89,2.03-4.9,5.01-5.5
						c0.72-0.15,1.39,0.03,1.92,0.51C120.01,93.05,119.34,99.94,119.25,100.72z"/>
				</g>
				<linearGradient id="SVGID_23_" gradientUnits="userSpaceOnUse" x1="208.4817" y1="77.0443" x2="194.9149" y2="-20.8307">
					<stop  offset="0" style="stop-color:#007D39"/>
					<stop  offset="0.0222" style="stop-color:#0E833A"/>
					<stop  offset="0.0813" style="stop-color:#2D903B"/>
					<stop  offset="0.1482" style="stop-color:#499B3C"/>
					<stop  offset="0.2239" style="stop-color:#5FA43D"/>
					<stop  offset="0.3122" style="stop-color:#70AB3D"/>
					<stop  offset="0.4214" style="stop-color:#7BAF3E"/>
					<stop  offset="0.5746" style="stop-color:#82B23E"/>
					<stop  offset="1" style="stop-color:#84B33E"/>
				</linearGradient>
				<path class="st26" d="M202.92,66.13c0,0-13.93-8.24-18.11,0.33s-2.98-2.27-2.98-2.27s-12.36,14.37-16.08,22.27
					c-3.72,7.91-0.04-7.35-0.04-7.35l-20.2,25.35c0,0,0.05-25.7,2.06-29.44c2.01-3.75-6.75,8.57-6.75,8.57s7.23-19.51,16.13-22.63
					l-9.46,1.93c0,0,15.56-21.25,27.73-16.54c0,0-7.5-4.02-9.91-2.54s18.66-2.07,20.86,0.45c2.2,2.52-1.07-5.3-1.07-5.3
					s5.19,2.22,5.34,3.71c0.15,1.49-1.73-8.33-22.34-5.44l5.76-4.31c0,0-20.56-0.04-21.9,4.17s4.64-6.67,4.64-6.67
					s-19.44,4.89-20.68,8.39c-1.24,3.49,6.29-7.9,6.29-7.9s-17.48,1.51-20.1,4.43c-2.63,2.92,20.02-13.99,29.47-13.35
					s-4.25-6.12-6.31-4.59s17.53-4.44,23.18-0.31c0,0-3.22-8.18-6.82-6.13c0,0,9.51,0.28,15.92,4.14c0,0-3.74-4.58-2.66-4.43
					c1.08,0.16,17.21,5.43,17.97,7.74s-4.15-6.84-2.35-6.58c1.8,0.26,19.09,15.25,19.85,20.13s6.81-14.07,8.62-16.38
					s-0.17,8.79-0.17,8.79s8.09-12.78,13.85-14.52s-1.14,5.34-1.14,5.34S245.22,4.35,249.9,5.02s-5.76,4.31-5.92,5.38
					c-0.16,1.08,19.02-2.02,26.86,7.2s-18.3,4.69-18.3,4.69l9.09,3.15c0,0-10.48-1.15-19.48,0.12c0,0,4.73,0.32,7.76,2.23
					c0,0-14.34,0.13-17.12,4.13l8.22-1.01c0,0-16.72,8.96-18.32,12.4s12.56-8.09,20.42-6.59l-5.76,4.31c0,0,14.71-5.21,21.18-4.27
					c0,0-8.13,2.86-8.39,4.66c-0.26,1.8,11.98-1.57,22.3,0.66c10.33,2.23-3.71,2.77-3.71,2.77s13.72-0.95,18.47,17
					c0,0-12.43-5.47-19.67-6.15s6.11,3.46,6.11,3.46s-6.17,2.04-14.75,0.43l4.57,3.97c0,0-14.69-2.5-18.28-5.59
					c-3.59-3.09,3.69,4.94,6.57,5.36c2.88,0.42-12.44-0.33-16.54-2.4l7.91,3.72c0,0-14.38,2.42-18.01,2.23
					C218.19,66.5,202.92,66.13,202.92,66.13z"/>
				<linearGradient id="SVGID_24_" gradientUnits="userSpaceOnUse" x1="277.1831" y1="152.6273" x2="279.1212" y2="62.5049">
					<stop  offset="0" style="stop-color:#007D39"/>
					<stop  offset="0.0222" style="stop-color:#0E833A"/>
					<stop  offset="0.0813" style="stop-color:#2D903B"/>
					<stop  offset="0.1482" style="stop-color:#499B3C"/>
					<stop  offset="0.2239" style="stop-color:#5FA43D"/>
					<stop  offset="0.3122" style="stop-color:#70AB3D"/>
					<stop  offset="0.4214" style="stop-color:#7BAF3E"/>
					<stop  offset="0.5746" style="stop-color:#82B23E"/>
					<stop  offset="1" style="stop-color:#84B33E"/>
				</linearGradient>
				<path class="st27" d="M264.34,130.82c0,0,21.44-0.36,28.34,6.54s0.36-9.45-1.45-10.54c-1.82-1.09,13.08,7.63,16.35,22.89
					c3.27,15.26,4.72-10.54,1.45-11.99c-3.27-1.45,12.36,9.81,12.36,22.53s8.36-9.08,6.18-11.99c-2.18-2.91,5.81,23.26,6.18,30.53
					c0.36,7.27,11.99-19.99,8.72-25.44s4.72,5.45,4.36,8.72c-0.36,3.27,1.82-30.89-4.72-34.89c-6.54-4,3.63,0,6.18,6.54
					c2.54,6.54-13.08-27.62-31.25-23.98s10.18-3.63,13.45-1.09s-22.17-8.36-30.53-3.63c-8.36,4.72,1.45-5.81,4.72-5.45
					c3.27,0.36-19.62,1.45-22.17,6.18c-2.54,4.72,7.63-13.45,17.44-10.54c9.81,2.91-4-2.18-6.9-1.82
					c-2.91,0.36,13.45-5.45,20.35-4.72s-7.27-4.36-9.81-3.27c-2.54,1.09,21.44-7.27,23.98-6.18c2.54,1.09-10.18-2.54-11.63-2.54
					s13.08-7.27,23.62-4s-12.72-9.81-27.98-2.18c-15.26,7.63,2.18-6.9,6.9-6.9c4.72,0-21.44-0.73-26.53,10.54s0-5.09,6.54-7.99
					c6.54-2.91-14.9,2.18-19.99,14.54s-1.45-7.99,6.9-10.9c8.36-2.91-23.26,11.63-22.53,27.98c0.73,16.35-4.72-15.26-6.9-14.54
					c-2.18,0.73-2.54,8.36-1.09,10.54s-9.08-11.63-13.45-9.81s3.63,4.36,4.36,6.18c0.73,1.82-14.17-5.45-18.9-4.36
					c-4.72,1.09,5.09,4,5.09,4s-15.63-1.09-17.81,2.91s9.81-0.36,10.18,1.09c0.36,1.45-16.35,4.36-17.08,9.45
					c-0.73,5.09,13.81-0.73,18.53-2.18c4.72-1.45-9.08,3.63-4.72,4c4.36,0.36,14.17-1.45,16.35-1.09c2.18,0.36-6.18,1.09-5.81,4
					c0.36,2.91,16.35,6.54,17.81,9.45c1.45,2.91-13.81-4-15.99-2.91c-2.18,1.09,6.9,3.63,6.18,6.54
					c-0.73,2.91-11.63-3.27-17.08,2.18c-5.45,5.45,7.63,1.09,7.63,3.27c0,2.18-13.45,1.82-15.63,11.99
					c-2.18,10.18,6.18-0.36,6.18-0.36s-9.45,9.45-10.9,14.54c-1.45,5.09-1.82,7.63,6.18,4.36c0,0-4.36,2.54-5.45,17.08
					c-1.05,14,11.27-11.27,11.27-14.9s-0.36,13.08-0.73,14.9c-0.36,1.82,13.08-17.08,10.18-22.17c-2.91-5.09,4,5.09,1.82,10.9
					c-2.18,5.81,6.54-29.44,14.9-30.53C256.34,131.18,264.34,130.82,264.34,130.82z"/>
			</g>
		</g>
	</g>
</g>
</svg>
