<!-- Generator: Adobe Illustrator 24.1.2, SVG Export Plug-In  -->
<svg version="1.1" xmlns="http://www.w3.org/2000/svg" xmlns:xlink="http://www.w3.org/1999/xlink" x="0px" y="0px" width="700px"
	 height="700px" viewBox="0 0 700 700" style="overflow:visible;enable-background:new 0 0 700 700;" xml:space="preserve">
<style type="text/css">
	.st0{fill:#2FB5DE;}
	.st1{fill:#F9F9F9;}
	.st2{fill:#1100AA;}
	.st3{fill:#64B900;}
	.st4{fill:#4B8B00;}
	.st5{fill:#C0CBE2;}
	.st6{fill:#8E95A5;}
	.st7{fill:#ABBACB;}
	.st8{fill:#D0DDF4;}
	.st9{fill:#3E3D4D;}
	.st10{opacity:0.28;fill:none;}
	.st11{opacity:0.28;fill:#FFFFFF;}
	.st12{fill:none;}
</style>
<defs>
</defs>
<g>
	<circle class="st0" cx="350" cy="350" r="350"/>
	<g>
		<g>
			<path class="st1" d="M569.77,349.84c1.33,2.19,2.21,4.83,2.22,7.46c0.02,7.03-9.62,32.09-20.58,52.31
				c-12.28,22.87-36,51.03-55.36,65.57c-6.6,4.41-13.27,5.53-27.36,11.27c2.21,3.95,6.26,8.11,6.7,9.42
				c5.75,9.21,11.5,18.42,16.8,27.63c7.08,11.4,15.48,25.44,22.56,39.04c1.33,1.75,3.98,6.58,5.31,9.21
				c6.2,11.4,8.41,16.67,8.42,20.18c0.01,4.83-5.27,9.67-18.9,18.05c-10.56,6.17-22.45,11.03-27.73,11.04
				c-2.2,0.01-4.41-0.87-7.05-2.62L447,597.84c-7.06-5.25-32.82-53.34-32.82-53.34l-9.3,43.93c-2.18,9.23-2.38,10.84-9.87,10.85
				c-18.94,0.04-39.66-6.06-53.79-16.12l-22.94-15.76c-6.62-4.38-8.39-7.45-8.41-13.59c-0.01-2.64,1.3-11.86,2.6-15.82l50.62-205.23
				c6.55-25.05,10.94-30.33,27.68-30.37c12.78-0.03,29.53,3,39.67,6.93c7.49,2.62,8.82,3.93,15.89,14.46l19.46,33.13
				c5.7-10.12,8.24-17.66,17-40.08c3.94-10.99,7.13-17.7,15.71-15.71c15.72,3.64,18.34,5.1,18.34,10.79c0,2.84,4.14-0.41,8.56,0
				c7.49,0.69,22.4,6.46,24.9,10.32L569.77,349.84z"/>
		</g>
		<g>
			<g>
				<g>
					<g>
						<path class="st2" d="M575.59,344.9c1.37,2.27,2.29,4.99,2.3,7.72c0.02,7.27-9.94,33.18-21.28,54.1
							c-12.7,23.65-37.23,52.77-57.25,67.81c-6.82,4.56-11.37,7.29-25.94,13.23c2.29,4.08,4.12,6.81,4.58,8.17
							c5.95,9.52,11.89,19.05,17.38,28.57c7.32,11.79,16.01,26.31,23.33,40.37c1.37,1.81,4.12,6.8,5.49,9.52
							c6.41,11.79,8.7,17.24,8.71,20.87c0.01,5-5.45,10-19.55,18.67c-10.92,6.38-23.21,11.41-28.68,11.42
							c-2.28,0.01-4.56-0.9-7.29-2.71l-28.76-21.28c-7.3-5.43-8.68-7.24-18.74-24.94c-1.37-2.27-3.66-5.9-6.41-10.89
							c-1.37-3.63-3.2-6.35-5.03-9.52l-2.74-4.08l-9.47,39.99c-2.26,9.54-3.62,10.91-11.37,10.93
							c-19.59,0.05-41.02-6.26-55.62-16.67l-23.73-16.3c-6.85-4.53-8.68-7.7-8.69-14.06c-0.01-2.72,1.34-12.27,2.69-16.36
							l52.35-212.22c6.77-25.91,11.32-31.37,28.63-31.41c13.21-0.03,30.53,3.11,41.02,7.17c7.75,2.7,9.12,4.07,16.44,14.95
							l19.2,28.57c5.9-10.46,5.9-10.91,14.96-34.1c4.07-11.37,10.67-18.45,19.55-16.4c16.26,3.76,19.21,3.76,19.21,9.64
							c0,2.94,4.28-0.42,8.85,0c7.75,0.71,23.16,6.68,25.75,10.67L575.59,344.9z M486.28,531.32c-12.36-22.68-13.73-25.4-43-71.66
							c25.03-9.6,42.32-22.81,63.21-49.66c15.9-20.02,25.88-36.85,34.48-58.67c6.34-15.46,11.91-25.88,9.04-27.27
							c-11.4-5.52-17.87-10.05-23.25-9.58c-12.54,1.09-13.29,16.16-14.75,14.7c-2.95-2.94,17.7-20.58-11.25-25.89
							c-5.83-1.07-8.65,2.29-11.37,10.47c-21.73,58.19-36.26,76.39-74.04,95.1l21.23-77.71c0.45-2.73,1.8-9.09,1.8-10.91
							c0.44-4.54-9.6-8.94-17.8-11.64c-2.32-0.76-2.88,9.54-5.9,8.82c0,0,2.95-5.4,2.95-8.82c0-2.94-13.33-4.21-15.41-4.49
							c-1.35-0.18-2.68-0.35-3.98-0.49c-3.18-0.34-6.14-0.53-8.65-0.53c-11.85,0.03-15.03,3.22-18.64,18.21l-54.15,219.95
							c-2.26,8.63-2.71,11.36-2.7,14.09c0.01,4.09,2.75,6.35,8.68,8.61c15.96,5.87,33.74,9.46,45.58,9.43
							c6.84-0.02,7.29-0.47,10-11.38l16.23-71.34c8.25,18.6,13.28,28.13,34.79,68.04c19.68,36.29,21.04,37.65,27.42,37.63
							c5.47-0.01,21.4-7.32,35.04-15.98c10.01-6.38,12.73-9.11,12.73-12.75c-0.01-3.18-0.01-3.18-11.45-24.04L486.28,531.32z"/>
					</g>
					<g>
						<g>
							<path class="st3" d="M591.64,286.93c2.14-6.72,4.51-10.5,4.51-10.5s-57.23,5.71-39.07,38.95
								C582.94,327.03,586.88,301.84,591.64,286.93z"/>
							<path class="st4" d="M593.4,278.39c0,0-3.19,2.27-7.71,5.99c-4.53,3.71-10.37,8.9-15.69,14.58
								c-2.66,2.84-5.16,5.81-7.32,8.72c-0.54,0.73-1.06,1.45-1.55,2.17c-0.5,0.71-0.96,1.42-1.4,2.13
								c-0.45,0.69-0.85,1.38-1.23,2.06c-0.4,0.67-0.74,1.33-1.06,1.97c-0.33,0.63-0.63,1.25-0.88,1.85
								c-0.26,0.59-0.52,1.15-0.71,1.69c-0.2,0.54-0.38,1.04-0.55,1.51c-0.14,0.47-0.26,0.91-0.38,1.3
								c-0.26,0.78-0.32,1.42-0.43,1.84c-0.09,0.42-0.14,0.65-0.14,0.65l-2.49-0.45c0,0,0.06-0.25,0.18-0.72
								c0.14-0.46,0.24-1.17,0.55-2c0.14-0.42,0.3-0.89,0.47-1.4c0.2-0.49,0.42-1.03,0.65-1.59c0.22-0.57,0.52-1.15,0.82-1.77
								c0.29-0.62,0.63-1.26,1-1.91c0.36-0.66,0.75-1.33,1.19-2.01c0.42-0.69,0.87-1.39,1.36-2.08c0.48-0.71,0.98-1.42,1.52-2.13
								c0.52-0.72,1.09-1.44,1.67-2.16c2.32-2.88,4.98-5.79,7.78-8.54c5.59-5.52,11.67-10.48,16.35-14.01
								C590.13,280.53,593.4,278.39,593.4,278.39z"/>
						</g>
						<g>
							<path class="st3" d="M595.17,344.7c6.06-0.07,9.78,0.84,9.78,0.84s-20.03-44.9-42.29-21.24
								C560.1,348.42,581.72,344.85,595.17,344.7z"/>
							<path class="st4" d="M602.62,343.84c0,0-2.75-2-7.06-4.71c-4.31-2.71-10.2-6.11-16.35-8.94c-3.07-1.41-6.22-2.67-9.21-3.65
								c-0.75-0.25-1.49-0.48-2.22-0.68c-0.73-0.22-1.44-0.41-2.14-0.57c-0.7-0.18-1.38-0.33-2.04-0.45
								c-0.66-0.14-1.3-0.25-1.92-0.33c-0.61-0.1-1.2-0.18-1.77-0.22c-0.56-0.05-1.1-0.12-1.6-0.12c-0.5-0.02-0.97-0.03-1.4-0.04
								c-0.43,0.02-0.82,0.03-1.18,0.04c-0.72,0-1.26,0.12-1.64,0.15c-0.38,0.04-0.58,0.07-0.58,0.07l-0.3-2.17
								c0,0,0.22-0.02,0.64-0.05c0.42-0.01,1.03-0.12,1.81-0.09c0.39,0,0.82,0,1.28,0.01c0.46,0.03,0.96,0.07,1.5,0.1
								c0.54,0.03,1.1,0.12,1.69,0.2c0.59,0.07,1.21,0.17,1.85,0.31c0.64,0.12,1.31,0.25,1.99,0.43c0.68,0.16,1.38,0.34,2.09,0.55
								c0.72,0.2,1.44,0.42,2.18,0.67c0.74,0.23,1.49,0.5,2.24,0.79c3.02,1.12,6.15,2.52,9.19,4.07c6.09,3.1,11.86,6.75,16.06,9.64
								C599.95,341.73,602.62,343.84,602.62,343.84z"/>
						</g>
						<g>
							<path class="st3" d="M530.6,288.76c-4.55-2.25-6.99-4.34-6.99-4.34s-2.19,41.14,23.48,31.92
								C558.22,299.3,540.7,293.76,530.6,288.76z"/>
							<path class="st4" d="M524.71,286.58c0,0,1.31,2.58,3.53,6.3c2.21,3.72,5.37,8.57,8.94,13.09c1.78,2.26,3.68,4.42,5.57,6.32
								c0.47,0.48,0.94,0.94,1.42,1.37c0.47,0.45,0.94,0.86,1.4,1.26c0.46,0.41,0.92,0.78,1.37,1.13c0.44,0.36,0.89,0.69,1.33,0.99
								c0.43,0.32,0.84,0.6,1.26,0.85c0.41,0.26,0.79,0.51,1.16,0.71c0.37,0.2,0.72,0.39,1.05,0.57c0.33,0.15,0.64,0.29,0.91,0.42
								c0.54,0.28,1,0.39,1.3,0.52c0.3,0.11,0.46,0.17,0.46,0.17l-0.61,1.76c0,0-0.18-0.07-0.51-0.21
								c-0.32-0.15-0.83-0.31-1.41-0.63c-0.29-0.15-0.62-0.32-0.97-0.5c-0.34-0.2-0.71-0.42-1.1-0.66c-0.4-0.23-0.79-0.51-1.21-0.8
								c-0.42-0.28-0.85-0.6-1.29-0.95c-0.44-0.34-0.89-0.7-1.34-1.09c-0.46-0.38-0.92-0.79-1.37-1.23
								c-0.47-0.43-0.93-0.88-1.39-1.35c-0.47-0.46-0.93-0.96-1.4-1.46c-1.86-2.02-3.69-4.29-5.4-6.64
								c-3.42-4.7-6.38-9.69-8.45-13.5C525.91,289.21,524.71,286.58,524.71,286.58z"/>
						</g>
					</g>
					<g>
						<g>
							<path class="st3" d="M459.78,283.22c1.55-4.88,3.27-7.62,3.27-7.62s-41.5,4.14-28.34,28.25
								C453.48,312.3,456.34,294.03,459.78,283.22z"/>
							<path class="st4" d="M461.07,277.03c0,0-2.31,1.65-5.59,4.35c-3.28,2.69-7.52,6.46-11.38,10.58
								c-1.93,2.06-3.74,4.21-5.31,6.32c-0.39,0.53-0.77,1.05-1.12,1.57c-0.36,0.52-0.7,1.03-1.01,1.54c-0.33,0.5-0.62,1-0.89,1.49
								c-0.29,0.48-0.54,0.96-0.77,1.43c-0.24,0.46-0.46,0.9-0.64,1.34c-0.19,0.43-0.38,0.83-0.51,1.23
								c-0.14,0.39-0.28,0.76-0.4,1.09c-0.1,0.34-0.19,0.66-0.27,0.94c-0.19,0.57-0.23,1.03-0.31,1.33c-0.06,0.31-0.1,0.47-0.1,0.47
								l-1.8-0.33c0,0,0.04-0.18,0.13-0.52c0.1-0.33,0.18-0.85,0.4-1.45c0.1-0.31,0.22-0.64,0.34-1.01
								c0.15-0.36,0.31-0.74,0.47-1.16c0.16-0.42,0.38-0.84,0.6-1.28c0.21-0.45,0.45-0.91,0.73-1.38c0.26-0.48,0.54-0.97,0.86-1.46
								c0.31-0.5,0.63-1.01,0.99-1.51c0.34-0.51,0.71-1.03,1.11-1.54c0.38-0.52,0.79-1.04,1.21-1.56c1.68-2.09,3.61-4.2,5.64-6.2
								c4.06-4,8.46-7.6,11.86-10.16C458.69,278.58,461.07,277.03,461.07,277.03z"/>
						</g>
						<g>
							<path class="st3" d="M457.53,319.7c3.65-0.04,5.89,0.5,5.89,0.5s-12.05-27.01-25.44-12.78
								C436.42,321.94,449.43,319.79,457.53,319.7z"/>
							<path class="st4" d="M462,319.18c0,0-1.65-1.21-4.25-2.83c-2.59-1.63-6.14-3.68-9.84-5.38c-1.85-0.85-3.74-1.6-5.54-2.19
								c-0.45-0.15-0.89-0.29-1.33-0.41c-0.44-0.13-0.87-0.24-1.29-0.34c-0.42-0.11-0.83-0.2-1.23-0.27
								c-0.4-0.09-0.78-0.15-1.15-0.2c-0.37-0.06-0.72-0.11-1.06-0.13c-0.34-0.03-0.66-0.07-0.96-0.07
								c-0.3-0.01-0.58-0.02-0.84-0.03c-0.26,0.01-0.5,0.02-0.71,0.03c-0.43,0-0.76,0.07-0.98,0.09c-0.23,0.03-0.35,0.04-0.35,0.04
								l-0.18-1.3c0,0,0.13-0.01,0.39-0.03c0.25-0.01,0.62-0.07,1.09-0.05c0.23,0,0.49,0,0.77,0c0.28,0.02,0.58,0.04,0.9,0.06
								c0.32,0.02,0.66,0.07,1.02,0.12c0.36,0.04,0.73,0.1,1.11,0.18c0.39,0.07,0.79,0.15,1.19,0.26c0.41,0.1,0.83,0.2,1.26,0.33
								c0.43,0.12,0.87,0.25,1.31,0.41c0.45,0.14,0.89,0.3,1.35,0.47c1.82,0.68,3.7,1.52,5.53,2.45c3.66,1.87,7.13,4.06,9.66,5.8
								C460.4,317.91,462,319.18,462,319.18z"/>
						</g>
						<g>
							<path class="st3" d="M416.75,284.53c-3.2-1.58-4.91-3.05-4.91-3.05s-1.54,28.91,16.5,22.43
								C436.16,291.94,423.85,288.04,416.75,284.53z"/>
							<path class="st4" d="M412.62,283c0,0,0.92,1.81,2.48,4.42c1.56,2.61,3.77,6.02,6.28,9.19c1.25,1.59,2.59,3.11,3.92,4.44
								c0.33,0.34,0.66,0.66,1,0.96c0.33,0.31,0.66,0.61,0.99,0.88c0.32,0.29,0.65,0.55,0.96,0.79c0.31,0.26,0.63,0.48,0.93,0.7
								c0.3,0.22,0.59,0.42,0.88,0.6c0.29,0.18,0.55,0.36,0.82,0.5c0.26,0.14,0.51,0.28,0.73,0.4c0.23,0.11,0.45,0.21,0.64,0.3
								c0.38,0.19,0.7,0.28,0.91,0.36c0.21,0.08,0.32,0.12,0.32,0.12l-0.43,1.24c0,0-0.12-0.05-0.36-0.15
								c-0.23-0.11-0.58-0.22-0.99-0.44c-0.21-0.11-0.43-0.22-0.68-0.35c-0.24-0.14-0.5-0.3-0.77-0.46
								c-0.28-0.16-0.55-0.36-0.85-0.56c-0.3-0.2-0.6-0.42-0.9-0.67c-0.31-0.24-0.63-0.49-0.94-0.77c-0.32-0.27-0.65-0.55-0.97-0.86
								c-0.33-0.3-0.65-0.62-0.98-0.95c-0.33-0.33-0.66-0.67-0.98-1.03c-1.3-1.42-2.59-3.01-3.79-4.66c-2.4-3.3-4.48-6.81-5.93-9.49
								C413.46,284.85,412.62,283,412.62,283z"/>
						</g>
					</g>
					<g>
						<g>
							<path class="st3" d="M506.5,545.43c3.12,0.42,4.96,1.17,4.96,1.17s-6.86-24.55-20.08-14.1
								C488.22,544.68,499.59,544.48,506.5,545.43z"/>
							<path class="st4" d="M510.38,545.55c0,0-1.24-1.22-3.22-2.91c-1.97-1.69-4.7-3.85-7.6-5.74c-1.45-0.94-2.94-1.81-4.39-2.53
								c-0.36-0.18-0.72-0.35-1.07-0.51c-0.35-0.16-0.7-0.31-1.04-0.45c-0.34-0.14-0.67-0.27-1-0.38c-0.32-0.12-0.64-0.22-0.94-0.31
								c-0.3-0.1-0.6-0.18-0.88-0.24c-0.28-0.07-0.55-0.14-0.8-0.18c-0.25-0.04-0.49-0.09-0.7-0.13c-0.22-0.02-0.42-0.05-0.6-0.07
								c-0.36-0.05-0.65-0.03-0.84-0.05c-0.19-0.01-0.3-0.01-0.3-0.01l0.01-1.12c0,0,0.11,0.01,0.33,0.02
								c0.21,0.02,0.53,0.02,0.92,0.09c0.2,0.03,0.41,0.06,0.65,0.1c0.23,0.05,0.48,0.11,0.75,0.16c0.27,0.05,0.55,0.14,0.84,0.23
								c0.3,0.08,0.6,0.18,0.91,0.29c0.32,0.11,0.64,0.23,0.97,0.37c0.33,0.13,0.68,0.27,1.02,0.44c0.35,0.15,0.7,0.32,1.05,0.5
								c0.36,0.17,0.71,0.37,1.07,0.57c1.44,0.79,2.92,1.73,4.34,2.75c2.85,2.02,5.49,4.3,7.4,6.07
								C509.19,544.28,510.38,545.55,510.38,545.55z"/>
						</g>
						<g>
							<path class="st3" d="M501.05,518.92c0.64-2.16,1.37-3.38,1.37-3.38s-18.24,2.17-12.24,12.68
								C498.52,531.78,499.62,523.71,501.05,518.92z"/>
							<path class="st4" d="M501.56,516.18c0,0-1.03,0.77-2.5,2.02c-1.47,1.25-3.36,2.99-5.07,4.9c-0.86,0.95-1.66,1.94-2.35,2.91
								c-0.17,0.24-0.34,0.48-0.49,0.72c-0.16,0.24-0.31,0.47-0.45,0.71c-0.14,0.23-0.27,0.46-0.39,0.69
								c-0.13,0.22-0.24,0.44-0.34,0.65c-0.11,0.21-0.2,0.41-0.28,0.61c-0.08,0.2-0.17,0.38-0.22,0.56
								c-0.06,0.18-0.12,0.35-0.17,0.5c-0.04,0.16-0.08,0.3-0.12,0.43c-0.08,0.26-0.1,0.47-0.13,0.61
								c-0.03,0.14-0.04,0.22-0.04,0.22l-0.82-0.13c0,0,0.02-0.08,0.05-0.24c0.04-0.15,0.07-0.39,0.17-0.66
								c0.04-0.14,0.09-0.29,0.15-0.46c0.06-0.16,0.13-0.34,0.21-0.53c0.07-0.19,0.16-0.38,0.26-0.59c0.09-0.21,0.2-0.42,0.32-0.63
								c0.11-0.22,0.24-0.44,0.38-0.67c0.13-0.23,0.28-0.46,0.43-0.69c0.15-0.24,0.31-0.47,0.49-0.71c0.17-0.24,0.35-0.48,0.54-0.72
								c0.75-0.96,1.6-1.94,2.51-2.86c1.81-1.85,3.77-3.52,5.29-4.71C500.5,516.91,501.56,516.18,501.56,516.18z"/>
						</g>
					</g>
					<g>
						<g>
							<path class="st3" d="M556.64,374.89c3.12,0.42,4.96,1.17,4.96,1.17s-6.86-24.55-20.08-14.1
								C538.36,374.14,549.73,373.94,556.64,374.89z"/>
							<path class="st4" d="M560.52,375.01c0,0-1.24-1.22-3.22-2.91c-1.97-1.69-4.7-3.85-7.6-5.74c-1.45-0.94-2.94-1.81-4.39-2.53
								c-0.36-0.18-0.72-0.35-1.07-0.51c-0.35-0.16-0.7-0.31-1.04-0.45c-0.34-0.14-0.67-0.27-1-0.38c-0.32-0.12-0.64-0.22-0.94-0.31
								c-0.3-0.1-0.6-0.18-0.88-0.24c-0.28-0.07-0.55-0.14-0.8-0.18c-0.25-0.04-0.49-0.09-0.7-0.13c-0.22-0.02-0.42-0.05-0.6-0.07
								c-0.36-0.05-0.65-0.03-0.84-0.05c-0.19-0.01-0.3-0.01-0.3-0.01l0.01-1.12c0,0,0.11,0.01,0.33,0.02
								c0.21,0.02,0.53,0.02,0.92,0.09c0.2,0.03,0.41,0.06,0.65,0.1c0.23,0.05,0.48,0.11,0.75,0.16c0.27,0.05,0.55,0.14,0.84,0.23
								c0.3,0.08,0.6,0.18,0.91,0.29c0.32,0.11,0.64,0.23,0.97,0.37c0.33,0.13,0.68,0.27,1.02,0.44c0.35,0.15,0.7,0.32,1.05,0.5
								c0.36,0.17,0.71,0.37,1.07,0.57c1.44,0.79,2.92,1.73,4.34,2.75c2.85,2.02,5.49,4.3,7.4,6.07
								C559.33,373.74,560.52,375.01,560.52,375.01z"/>
						</g>
						<g>
							<path class="st3" d="M551.19,348.38c0.64-2.16,1.37-3.38,1.37-3.38s-18.24,2.17-12.24,12.68
								C548.66,361.24,549.77,353.17,551.19,348.38z"/>
							<path class="st4" d="M551.71,345.64c0,0-1.03,0.77-2.5,2.02c-1.47,1.25-3.36,2.99-5.07,4.9c-0.86,0.95-1.66,1.94-2.35,2.91
								c-0.17,0.24-0.34,0.48-0.49,0.72c-0.16,0.24-0.31,0.47-0.45,0.71c-0.14,0.23-0.27,0.46-0.39,0.69
								c-0.13,0.22-0.24,0.44-0.34,0.65c-0.11,0.21-0.2,0.41-0.28,0.61c-0.08,0.2-0.17,0.38-0.22,0.56
								c-0.06,0.18-0.12,0.35-0.17,0.5c-0.04,0.16-0.08,0.3-0.12,0.43c-0.08,0.26-0.1,0.47-0.13,0.61
								c-0.03,0.14-0.04,0.22-0.04,0.22l-0.82-0.13c0,0,0.02-0.08,0.05-0.24c0.04-0.15,0.07-0.39,0.17-0.66
								c0.04-0.14,0.09-0.29,0.15-0.46c0.06-0.16,0.13-0.34,0.21-0.53c0.07-0.19,0.16-0.38,0.26-0.59c0.09-0.21,0.2-0.42,0.32-0.63
								c0.11-0.22,0.24-0.44,0.38-0.67c0.13-0.23,0.28-0.46,0.43-0.69c0.15-0.24,0.31-0.47,0.49-0.71c0.17-0.24,0.35-0.48,0.54-0.72
								c0.75-0.96,1.6-1.94,2.51-2.86c1.81-1.85,3.77-3.52,5.29-4.71C550.64,346.37,551.71,345.64,551.71,345.64z"/>
						</g>
					</g>
					<g>
						<g>
							<path class="st3" d="M480.84,285.55c-1.06-2.95-2.17-4.59-2.17-4.59s25.51,1.63,17.98,16.68
								C485.34,303.23,483.19,292.1,480.84,285.55z"/>
							<path class="st4" d="M479.92,281.79c0,0,1.45,0.96,3.52,2.54c2.07,1.58,4.75,3.79,7.2,6.23c1.23,1.22,2.39,2.5,3.39,3.76
								c0.25,0.31,0.5,0.63,0.72,0.94c0.23,0.31,0.45,0.62,0.65,0.92c0.21,0.3,0.4,0.6,0.58,0.9c0.19,0.29,0.35,0.58,0.5,0.86
								c0.16,0.28,0.3,0.54,0.42,0.81c0.13,0.26,0.25,0.5,0.34,0.74c0.1,0.24,0.19,0.46,0.27,0.66c0.07,0.21,0.13,0.4,0.19,0.57
								c0.13,0.34,0.16,0.62,0.22,0.81c0.05,0.19,0.07,0.29,0.07,0.29l1.1-0.24c0,0-0.03-0.11-0.09-0.32
								c-0.07-0.2-0.13-0.51-0.28-0.88c-0.07-0.19-0.15-0.39-0.23-0.61c-0.1-0.22-0.2-0.45-0.32-0.7c-0.11-0.25-0.25-0.5-0.39-0.77
								c-0.14-0.27-0.3-0.55-0.48-0.83c-0.17-0.29-0.35-0.58-0.56-0.87c-0.2-0.3-0.41-0.6-0.64-0.9c-0.22-0.31-0.46-0.62-0.71-0.92
								c-0.24-0.31-0.51-0.62-0.78-0.93c-1.08-1.24-2.3-2.49-3.59-3.67c-2.57-2.36-5.35-4.47-7.49-5.97
								C481.41,282.68,479.92,281.79,479.92,281.79z"/>
						</g>
						<g>
							<path class="st3" d="M507.98,285.4c1.99-1.07,3.04-2.04,3.04-2.04s1.63,18.24-9.92,14.55
								C495.88,290.52,503.57,287.78,507.98,285.4z"/>
							<path class="st4" d="M510.56,284.33c0,0-0.54,1.17-1.47,2.85c-0.92,1.69-2.25,3.89-3.76,5.96c-0.76,1.03-1.56,2.02-2.38,2.9
								c-0.2,0.22-0.4,0.43-0.61,0.63c-0.2,0.21-0.4,0.4-0.6,0.58c-0.2,0.19-0.4,0.36-0.59,0.52c-0.19,0.17-0.38,0.32-0.57,0.46
								c-0.18,0.15-0.37,0.28-0.54,0.4c-0.18,0.12-0.34,0.24-0.51,0.33c-0.16,0.1-0.31,0.19-0.46,0.27c-0.15,0.07-0.28,0.14-0.4,0.2
								c-0.24,0.13-0.44,0.19-0.57,0.25c-0.13,0.05-0.2,0.08-0.2,0.08l0.3,0.77c0,0,0.08-0.04,0.22-0.1
								c0.14-0.07,0.36-0.15,0.61-0.3c0.13-0.07,0.27-0.15,0.42-0.24c0.15-0.1,0.31-0.2,0.48-0.31c0.17-0.11,0.34-0.24,0.52-0.37
								c0.18-0.13,0.37-0.28,0.56-0.44c0.19-0.16,0.39-0.32,0.58-0.51c0.2-0.18,0.4-0.37,0.59-0.57c0.2-0.2,0.4-0.4,0.6-0.62
								c0.2-0.21,0.4-0.44,0.6-0.67c0.79-0.93,1.57-1.96,2.29-3.03c1.44-2.14,2.68-4.41,3.54-6.13
								C510.07,285.52,510.56,284.33,510.56,284.33z"/>
						</g>
					</g>
				</g>
			</g>
			<g>
				<g>
					<path class="st5" d="M307.84,517.25c15.17-12.15,23.08-30.05,28.93-47.79c4.54-13.77,8.16-28,7.94-42.57
						c-0.22-14.57-4.54-29.61-14.51-41.5c-2.49-2.97-5.38-5.78-8.95-7.64c-8.6-4.5-19.63-2.59-27.33,2.45
						c-7.7,5.04-12.72,12.67-17.29,20.23c-10.09,16.73-18.92,34.24-24.23,52.86c-2.51,8.82-4.2,18.29-1.12,27.21
						c2.14,6.18,6.41,11.64,10.61,16.96c5.62,7.13,12.8,21.03,21.14,25.39C291.06,527.02,302.26,522.15,307.84,517.25z"/>
					<path d="M289.98,525.27c-2.53,0-5.02-0.5-7.32-1.7c-6.17-3.22-11.56-11.26-16.31-18.35c-1.82-2.71-3.53-5.27-5.1-7.26
						c-4.2-5.32-8.54-10.82-10.74-17.2c-3.28-9.49-1.28-19.33,1.11-27.71c4.7-16.49,12.43-33.35,24.31-53.06
						c4.54-7.53,9.64-15.32,17.54-20.5c7.28-4.77,18.81-7.39,28.16-2.49c3.18,1.67,6.11,4.16,9.19,7.84
						c9.24,11.02,14.46,25.94,14.71,42.02c0.24,15.81-4.14,31.2-7.98,42.84c-5.5,16.65-13.26,35.4-29.19,48.17
						C304.47,521.3,297.1,525.27,289.98,525.27z M310.48,376.03c-5.93,0-11.79,2.03-16.1,4.85c-7.61,4.99-12.58,12.6-17.03,19.97
						c-11.81,19.57-19.48,36.3-24.14,52.66c-2.32,8.13-4.26,17.66-1.13,26.72c2.11,6.12,6.36,11.51,10.48,16.72
						c1.61,2.04,3.34,4.63,5.18,7.36c4.64,6.92,9.9,14.77,15.7,17.8c7.63,3.98,18.55-0.81,23.86-5.48l0.03-0.02
						c15.6-12.5,23.24-30.98,28.66-47.41c3.8-11.52,8.13-26.74,7.9-42.3c-0.24-15.7-5.32-30.25-14.32-40.98
						c-2.95-3.51-5.71-5.88-8.69-7.44C317.59,376.75,314.02,376.03,310.48,376.03z"/>
				</g>
				<g>
					<path class="st6" d="M157.28,437.72c-2.74-4.66-7.17-8.59-12.5-9.56c-6.16-1.12-12.53,1.93-16.71,6.57
						c-2.92,3.24-4.96,8.15-2.7,11.87c2.27,3.74,7.44,4.2,11.82,4.24c-2.6,0.06-5.14,1.1-7.17,2.73c-3.52,2.85-5.45,7.68-4.46,12.09
						c0.99,4.41,5.04,8.07,9.58,8.24c-6.08,0.32-10.22,7.45-8.76,13.34c3.98,15.99,30.61,15.3,37.11,1.76
						C169.68,476.12,164.07,449.26,157.28,437.72z"/>
					<path d="M144.55,500.69c-0.94,0-1.9-0.05-2.85-0.15c-8.69-0.89-14.95-5.72-16.74-12.94c-0.87-3.52,0-7.63,2.29-10.71
						c0.87-1.18,1.89-2.15,3.02-2.88c-3-1.63-5.36-4.58-6.13-8.03c-1.08-4.83,0.91-10.28,4.97-13.56c0.38-0.31,0.77-0.59,1.17-0.85
						c-2.54-0.67-4.76-1.91-6.16-4.21c-2.79-4.6-0.2-10.22,2.87-13.62c4.93-5.47,11.85-8.17,18.07-7.04
						c5.31,0.97,10.23,4.71,13.5,10.26l0,0c7,11.89,12.71,39.25,6.27,52.67C161.59,496.38,153.5,500.69,144.55,500.69z
						 M142.17,429.4c-4.58,0-9.39,2.29-13.01,6.32c-2.58,2.87-4.36,7.11-2.54,10.13c1.85,3.05,6.38,3.49,10.58,3.53
						c0.8,0.01,1.45,0.66,1.46,1.46c0.01,0.8-0.63,1.46-1.44,1.48c-2.19,0.05-4.42,0.91-6.28,2.41c-3.2,2.59-4.79,6.86-3.95,10.62
						c0.86,3.83,4.46,6.95,8.2,7.09c0.79,0.03,1.41,0.67,1.42,1.46c0.01,0.79-0.61,1.44-1.4,1.48c-2.14,0.11-4.13,1.27-5.61,3.27
						c-1.77,2.4-2.46,5.56-1.79,8.25c1.48,5.95,6.78,9.96,14.18,10.72c7.45,0.75,16.78-2.17,20.17-9.24
						c5.95-12.4,0.37-38.82-6.16-49.9l0,0c-2.83-4.81-7.02-8.04-11.49-8.86C143.75,429.47,142.96,429.4,142.17,429.4z"/>
				</g>
				<g>
					<path class="st7" d="M288.44,419.38c19.4-4.85,35.68-12.16,55.63-13.48c10.19-0.67,26.97-0.12,36.77-3.01
						s21.76-7.7,24.29-17.56c0.94-3.64-2.31-21.69-20.93-28.17c-20.68-7.2-104.1-27.4-124.58-29.74
						c-30.89-3.54-56.19,13.79-75.56,40.47c-22.8,31.4-32.24,72.5-25.77,110.73c1.18,6.99,2.97,13.96,6.39,20.17
						c5.05,9.16,24.11,48.32,75.99,50.24c7.34,0.27,41.25-0.67,49.07-6.56c-1.65,5.24-2.29,10.25-0.63,15.48s6.37,10.38,11.83,9.7
						c3.11-0.39,5.79-2.29,8.26-4.22c19.1-14.96,33.52-29.98,40.38-50.51c3.6-10.78-3.73-15.68-12.24-15.56
						c-8.51,0.12-14.77,10.45-17.48,10.35c-3.85-0.14-4.64-5.43-4.46-9.26c0.87-18.24-2.55-37.16-12.1-52.74
						c-17.93-29.25-45.68-11.75-50.35-5.6"/>
					<path d="M299.98,569.19c-5.75,0-10.54-5.37-12.27-10.79c-1.29-4.05-1.39-8.17-0.28-13.04c-12.2,4.92-42.62,5.3-46.81,5.15
						c-21.55-0.79-40.06-8.01-55.02-21.43c-12.05-10.81-18.45-22.64-21.53-28.33c-0.25-0.46-0.47-0.87-0.67-1.23
						c-3.01-5.47-5.1-12.03-6.55-20.64c-6.53-38.59,3.21-80.4,26.03-111.84c21.87-30.12,48.46-44.32,76.92-41.06
						c21.16,2.42,104.31,22.65,124.9,29.81c18.98,6.6,23.14,24.99,21.87,29.92c-2.78,10.81-15.77,15.8-25.3,18.61
						c-7.25,2.14-17.95,2.43-27.38,2.69c-3.54,0.1-6.89,0.19-9.71,0.38c-13.32,0.88-24.92,4.44-37.19,8.21
						c-5.83,1.79-11.86,3.64-18.18,5.22c-0.79,0.2-1.59-0.28-1.79-1.07c-0.2-0.79,0.28-1.59,1.07-1.79
						c6.25-1.56,12.24-3.4,18.03-5.18c12.45-3.82,24.2-7.44,37.86-8.34c2.87-0.19,6.24-0.28,9.82-0.38
						c9.26-0.25,19.75-0.54,26.63-2.57c8.84-2.61,20.88-7.15,23.28-16.52c0.78-3.03-2.1-20.18-19.99-26.41
						c-19.76-6.88-103.67-27.31-124.27-29.67c-27.33-3.14-52.99,10.66-74.2,39.87c-22.37,30.81-31.91,71.79-25.51,109.62
						c1.4,8.27,3.38,14.54,6.23,19.71c0.2,0.37,0.43,0.79,0.68,1.25c6.21,11.48,25.12,46.42,74.07,48.22
						c8.84,0.33,41.12-0.99,48.13-6.27l3.67-2.76l-1.38,4.38c-1.81,5.77-2.01,10.27-0.63,14.6c1.48,4.65,5.57,9.27,10.25,8.69
						c2.77-0.35,5.24-2.12,7.53-3.92c15.57-12.19,32.48-27.64,39.89-49.82c1.34-4,1.14-7.24-0.6-9.62c-1.9-2.6-5.63-4.08-10.22-4
						c-4.82,0.07-9.06,4-12.15,6.88c-2.29,2.13-3.8,3.55-5.41,3.47c-1.4-0.05-2.64-0.63-3.59-1.66c-2.34-2.55-2.38-7.24-2.29-9.14
						c0.66-13.76-0.87-33.94-11.88-51.9c-6.1-9.95-13.87-15.22-23.11-15.68c-11.72-0.59-22.35,6.97-24.82,10.21
						c-0.49,0.65-1.42,0.77-2.06,0.28c-0.65-0.49-0.77-1.42-0.28-2.06c3.15-4.14,14.76-12,27.31-11.37
						c10.26,0.51,18.83,6.26,25.47,17.09c11.4,18.6,12.99,39.4,12.31,53.58c-0.15,3.14,0.43,5.83,1.52,7.01
						c0.42,0.46,0.91,0.69,1.53,0.71c0.5-0.1,2.11-1.6,3.29-2.69c3.44-3.2,8.15-7.58,14.11-7.66c5.59-0.07,10.16,1.82,12.64,5.2
						c1.61,2.2,3.09,6.11,1.02,12.29c-7.66,22.92-24.96,38.74-40.87,51.2c-2.5,1.96-5.46,4.08-8.98,4.52
						C300.74,569.16,300.36,569.19,299.98,569.19z"/>
				</g>
				<g>
					<g>
						<path class="st7" d="M268.5,85.29c33.41,22.29,26.24,58.15,11.03,82.12c-6.59,10.38-16.35,18.29-25.94,26.01
							c-12.37,9.95-25.96,20.38-41.85,20.91c-16.95,0.56-32.44-10.71-41.96-24.7c-2.47-3.64-4.65-7.49-6.26-11.58
							c-4.76-12.09-8.52-22.63-4.74-38.66c2.6-11.02,13.42-25.4,34.6-24.2c-8.96-5.03-19.99-2.4-28.57,3.56
							c9.21-15.46,25.62-25.34,40.19-30.68c14.57-5.34,30.17,0.1,39.83,12.22c0.23-10.28-4.05-17.28-12.17-20.19
							c21.74,3.49,30.99,4.1,40.33,27.13C273.62,97.73,271.29,93.97,268.5,85.29z"/>
						<path d="M210.52,215.82c-18.19,0-33.54-12.99-41.95-25.37c-2.78-4.08-4.87-7.97-6.41-11.87c-5.18-13.13-8.55-23.66-4.81-39.54
							c2.05-8.7,10.06-22.37,27.47-24.97c-6.06-0.55-12.8,1.46-19.17,5.88l-5.59,3.89l3.48-5.85c10.81-18.14,30.3-27.4,40.95-31.31
							c13.49-4.95,28.27-1.2,38.69,9.5c-0.84-7.36-4.6-12.41-11.02-14.71l0.73-2.84l2.45,0.39c18.21,2.9,27.59,4.39,36,20.96
							c-0.45-3.27-1.4-5.99-2.61-9.43c-0.5-1.43-1.07-3.04-1.64-4.84l-1.29-4.01l3.51,2.34c15.41,10.28,23.85,24.67,24.4,41.61
							c0.44,13.57-4.16,28.67-12.95,42.53c-6.78,10.69-16.68,18.66-26.26,26.37c-10.84,8.72-25.69,20.67-42.72,21.24
							C211.37,215.81,210.94,215.82,210.52,215.82z M190.88,116.59c-19.82,0-28.59,14.35-30.66,23.14
							c-3.56,15.08-0.46,24.75,4.68,37.78c1.46,3.7,3.46,7.4,6.11,11.3c7.99,11.74,22.48,24.08,39.52,24.08
							c0.39,0,0.78-0.01,1.17-0.02c14.85-0.49,27.34-9.62,40.98-20.59c9.39-7.55,19.1-15.37,25.62-25.65
							c15.1-23.81,20.76-56.14-6.92-77.47c0.05,0.15,0.11,0.3,0.16,0.45c2.01,5.73,3.46,9.87,2.94,17.72l-0.42,6.4l-2.41-5.94
							c-7.89-19.46-15.41-22.28-31.69-25.01c4.31,4.01,6.53,10.02,6.36,17.56l-0.09,4.06l-2.53-3.18
							c-9.65-12.1-24.64-16.72-38.18-11.75c-9.19,3.37-25.17,10.84-35.85,24.76c8.58-4.09,17.39-4.27,24.44-0.32l5.55,3.11
							l-6.35-0.36C192.48,116.61,191.67,116.59,190.88,116.59z"/>
					</g>
					<path class="st8" d="M264.54,146.07c2.18-8.25-4.18-21.37-10.41-27.21c-0.32,4.71,2.45,12.29-2.05,13.72
						c-2.76-8.28-2.53-14.79-16.68-19.36c-2.16-0.7-4.98-1.62-6.18,0.3c4.46,2.03,7.6,6.68,7.82,11.56
						c-14.82-7.41-34.62-2.9-44.75,10.19c6.32-3.54,13.9-4.81,21.04-3.5c-4.55-0.57-15.94,5.01-19.01,8.41
						c-7.88,8.71-6.75,16.72-10.99,27.66c4.14-4.88,9.73-8.52,15.88-10.35c-5.71,5.53-10.3,13.05-9.54,20.95
						c2.03,21.05,29.14,18.54,40.76,13.57C246.36,185.2,260.1,162.93,264.54,146.07z"/>
					<g>
						<path class="st7" d="M389.59,136.49c-1.31,6.78-2.62,13.56-3.93,20.35c5.37-16.29,24.07-26.95,40.87-23.31
							c-8.26,2.41-15.25,8.82-18.35,16.83c4.11-9.31,47.3-9.74,62.22,7.97c7.31,8.68,16.39,23.93,16.17,40.74
							c-0.27,20.63-3.35,33.57-19.13,46.92c3.41-9.01,5.64-11.45,5.03-21.31c-5.03,21.31-29.39,33.33-49.4,31.79
							c-20.01-1.54-38.47-19.87-47.43-37.77c-6.95-13.89-7.37-24.68-5.39-38.87C372.57,163.34,377.67,149.39,389.59,136.49z"/>
						<path d="M426.54,258.07c-1.2,0-2.39-0.05-3.56-0.14c-21.07-1.62-39.61-20.54-48.63-38.57c-7.24-14.46-7.51-25.52-5.53-39.73
							c2.59-18.58,8.66-32.19,19.7-44.13l3.5-3.79l-2.98,15.46c8.39-11.52,23.75-18.12,37.82-15.07l5.67,1.23l-5.57,1.63
							c-5.68,1.66-10.76,5.35-14.23,10.16c2.68-1.06,5.68-1.64,7.87-1.96c14.44-2.06,39.79,0.99,50.95,14.24
							c3.94,4.68,16.78,21.52,16.52,41.7c-0.28,21.06-3.39,34.27-19.65,48.02l-4.34,3.67l2.01-5.32c0.71-1.88,1.38-3.49,1.97-4.91
							c0.98-2.37,1.76-4.27,2.3-6.29C461.88,249.54,443.13,258.07,426.54,258.07z M387.1,141.65
							c-8.37,10.49-13.17,22.56-15.37,38.38c-1.9,13.64-1.65,24.23,5.25,38.01c8.37,16.73,26.41,35.44,46.22,36.96
							c19.18,1.47,42.94-9.83,47.85-30.66l2.29-9.69l0.62,9.94c0.47,7.54-0.68,10.98-2.67,15.85c11.25-11.55,13.6-23.5,13.83-41.38
							c0.25-19.17-12.05-35.29-15.82-39.77c-10.44-12.39-34.52-15.19-48.29-13.22c-6.13,0.88-10.52,2.75-11.47,4.89l-2.72-1.13
							c2.55-6.6,7.67-12.2,13.94-15.52c-14.48-0.45-29.13,9.16-33.69,23l-2.84-0.74L387.1,141.65z"/>
					</g>
					<path class="st8" d="M427.52,175.41c-4.95-0.62-10.17,1.56-13.2,5.52c6.24-3.67,13.96,1.13,19.32,5.99
						c2.84,2.58,5.77,5.57,6.17,9.37c-4.33-1.84-9.64-1.12-13.31,1.81c5.6-0.86,11.59,1.51,15.07,5.97
						c3.49,4.45,4.34,10.82,2.15,16.03c-3.18-2.49-6.87-3.71-10.13-1.32c4.17-1.03,7.28,3.31,7.59,8.31
						c0.27,4.28-2.48,8.3-6.07,10.66c-3.59,2.36-7.89,3.35-12.1,4.22c-2.92,0.6-5.88,1.17-8.86,1.15
						c-19.03-0.14-36.36-27.13-34.85-44.93c0.8-9.41,7.32-20.03,15.6-24.32c5-2.59,11.69-3.81,17.29-3.63
						C418.17,170.43,425.69,170.33,427.52,175.41z"/>
					<g>
						<path class="st7" d="M312.73,128.81c5.67-0.41,10.77,4.07,12.93,9.31s2.03,11.1,1.87,16.77c4.87-7.18,13.98-11.26,22.6-10.13
							c-6.14,3.6-11.04,9.23-13.76,15.79c5.31-5.55,14.37-7.1,21.24-3.63c-6.33,2.52-9.56,3.88-14.56,8.49
							c15.24-0.69,37.12,20.59,47.25,31.96c24.7,27.74,37.51,60.05,34.54,92.3c-3.44-5.79-9.39-10.05-15.99-11.47
							c8.82,8.36,9.9,23.57,2.35,33.09c-0.44-6.73-3.75-13.23-8.95-17.56c1.69,7.94,3.33,43.76-58.55,53.35
							c-20.14,3.12-71.22-5.45-95.75-17.63c-35.51-17.63-58.74-37.87-47.21-74.81c-5.36,4.41-9.1,10.73-10.38,17.53
							c-3.02-12.22,1.71-26,11.6-33.83c-8.4-0.22-16.47,6.29-18.01,14.52c0.06-23.04,42.03-69.73,51.95-77.24
							c37.27-28.21,79.85-15.9,83.44-18.99C322.22,154.16,317.7,128.45,312.73,128.81z"/>
						<path d="M333.73,349.18c-23.71,0-64.63-7.59-86.43-18.41c-30.83-15.31-57.9-34.57-49.43-71.16c-3.04,3.7-5.18,8.18-6.06,12.84
							l-1.26,6.65l-1.62-6.57c-2.76-11.18,0.79-23.8,8.69-32.19c-5.99,1.6-11.08,6.69-12.23,12.8l-2.92-0.27
							c0.06-23.73,42.04-70.47,52.54-78.41c28.46-21.54,60.04-19.8,75.22-18.97c3.56,0.19,7.25,0.4,8.14,0.03
							c1.21-1.97-0.27-15.13-3.45-22.24c-1.25-2.79-2.09-2.99-2.09-2.99l-0.21-2.94c6.79-0.49,12.23,4.95,14.4,10.22
							c1.74,4.22,2.07,8.79,2.07,13.14c5.45-5.51,13.51-8.42,21.24-7.4l4.26,0.56l-3.71,2.17c-4.08,2.39-7.57,5.7-10.2,9.61
							c5.45-2.66,12.1-2.81,17.6-0.03l2.92,1.47l-3.03,1.21c-5.06,2.02-8,3.26-11.37,5.87c16.94,2.52,38.15,24.98,44.61,32.24
							c25.43,28.56,37.82,61.73,34.9,93.41l-0.42,4.51l-2.32-3.89c-2.37-3.99-6.04-7.22-10.27-9.18c6.08,9.15,5.96,22.26-0.95,30.97
							l-2.37,2.99l-0.25-3.81c-0.32-4.93-2.32-9.78-5.5-13.6c0.28,5.38-0.49,14.6-6.99,24.03c-9.46,13.71-27.39,22.7-53.31,26.72
							C341.11,348.97,337.66,349.18,333.73,349.18z M203.63,250.36l-1.47,4.72c-11.87,38.03,15.31,57.59,46.46,73.05
							c24.98,12.4,75.44,20.51,94.87,17.49c25.09-3.89,42.36-12.46,51.34-25.48c8.58-12.45,6.29-24.75,6-26.11l-0.89-4.16l3.27,2.72
							c4.45,3.7,7.62,8.99,8.9,14.65c4.76-8.9,3.15-20.96-4.26-27.98l-3.8-3.6l5.12,1.1c5.6,1.2,10.79,4.36,14.5,8.73
							c1.48-29.63-10.66-60.42-34.46-87.15c-13.88-15.59-33.29-32.04-46.08-31.47l-4.03,0.18l2.96-2.74
							c4.09-3.78,7.07-5.46,11.47-7.33c-5.65-1.32-12.08,0.38-16.09,4.57l-5.42,5.66l2.99-7.24c2.25-5.44,5.91-10.24,10.53-13.88
							c-6.65,0.52-13.04,4.08-16.8,9.61l-2.83,4.18l0.14-5.04c0.15-5.21,0.32-11.13-1.76-16.17c-1.3-3.15-3.94-6.23-7.18-7.64
							c0.27,0.51,0.53,1.08,0.79,1.7c2.72,6.57,5.55,22.29,2.4,25.01c-1.34,1.15-4.12,1-10.23,0.67
							c-14.83-0.81-45.68-2.51-73.28,18.38c-8.66,6.56-41.32,42.6-49.5,66.54c3.76-4.04,9.17-6.62,14.71-6.47l4.06,0.1l-3.19,2.52
							c-7.67,6.07-12.11,16.05-11.92,25.83c1.98-4.56,5.04-8.68,8.86-11.82L203.63,250.36z"/>
					</g>
					<path d="M272.09,239.83c-3.11-3.18-6.41-5.81-9.99-7.86c-3.57-2.05-7.39-3.52-11.33-4.3c-3.94-0.78-8.03-0.88-12.11-0.35
						c-4.1,0.52-8.15,1.69-12.25,3.42c2.98-3.34,7.07-5.7,11.47-7.01c4.41-1.31,9.2-1.56,13.8-0.64c4.6,0.91,8.92,2.98,12.5,5.87
						C267.74,231.86,270.62,235.61,272.09,239.83z"/>
					<path d="M386.01,270.45c-3.11-3.18-6.41-5.81-9.99-7.86c-3.57-2.05-7.39-3.52-11.33-4.3c-3.94-0.78-8.03-0.88-12.11-0.35
						c-4.1,0.52-8.15,1.69-12.25,3.42c2.98-3.34,7.07-5.7,11.47-7.01c4.41-1.31,9.2-1.56,13.8-0.64c4.6,0.91,8.92,2.98,12.5,5.87
						C381.67,262.48,384.54,266.23,386.01,270.45z"/>
					<g>
						<path class="st9" d="M323.13,290.85c1.44-6.09,0.9-17.46-1.26-35.63c-0.58-4.91-2.7-29.55-12.22-30.17
							c-11.34-0.75-25.19,20.64-30,28.2c-4.78,7.53-11.94,19.79-9.24,27.68C272.8,287.9,320.62,301.51,323.13,290.85z"/>
						<path d="M313.35,295.57c-14.92,0-41.71-8.67-43.67-14.39c-2.73-7.97,4.01-20,9.32-28.35c12.55-19.75,22.6-29.08,30.71-28.56
							c9.6,0.63,12.02,22.56,12.82,29.76c0.05,0.43,0.09,0.8,0.12,1.1c2.28,19.21,2.65,29.95,1.25,35.91l0,0
							c-0.64,2.73-3.63,4.24-8.88,4.5C314.48,295.56,313.92,295.57,313.35,295.57z M309.05,225.81c-7.32,0-16.98,9.37-28.73,27.86
							c-5.14,8.08-11.67,19.67-9.16,27c1.66,4.84,29.43,13.99,43.79,13.29c3.07-0.15,6.85-0.84,7.43-3.29l0,0
							c1.34-5.7,0.95-16.6-1.28-35.36c-0.04-0.3-0.08-0.67-0.12-1.11c-2.04-18.47-5.87-28.01-11.37-28.37
							C309.42,225.82,309.24,225.81,309.05,225.81z"/>
					</g>
				</g>
				<path class="st10" d="M346.08,145.54c-0.73,0.65-1.47,1.29-2.21,1.93c-2.98,2.54-6.3,5.7-9.81,7.24
					C334.73,149.18,341.11,146.32,346.08,145.54z"/>
				<path class="st11" d="M384.86,364.76c-4.36-2.41-9-4.41-13.9-5.33c-3.98-0.75-8.29-0.71-11.83,1.25
					c9.34,4.51,19.16,10.95,29.05,14.04c2.4,0.75,7.07,2.6,6.82-2.19C394.85,369.7,387,365.94,384.86,364.76z"/>
				<path class="st12" d="M311.61,229.29c-0.99-0.21-1.98-0.42-2.97-0.63c-1.35,0.88-2.81,1.93-3.13,3.51
					c-0.05,0.25-0.07,0.52,0.05,0.75c0.17,0.34,0.57,0.49,0.93,0.59c2.17,0.55,4.88-0.27,5.64-2.37c0.16-0.45,0.22-0.97,0.04-1.41
					c-0.18-0.45-0.64-0.8-1.12-0.74"/>
				<path d="M292.87,241.24c-4.43,5.12-8.29,10.71-12.14,16.28c-0.44,0.64-0.9,1.45-0.55,2.14c0.35,0.7,1.33,0.81,2.08,0.61
					c2.2-0.59,3.48-2.8,4.59-4.79c3-5.4,6.41-10.57,10.21-15.44c0.87-1.12,4.95-5.3,1.79-4.56
					C296.81,235.96,294.18,239.73,292.87,241.24z"/>
				<path d="M308.18,229.71c-1.08-0.86-2.82-0.7-3.74,0.32c-0.49,0.55-0.72,1.41-0.31,2.01c0.54,0.8,1.82,0.64,2.57,0.03
					c0.76-0.62,1.22-1.61,1.19-2.59"/>
			</g>
		</g>
	</g>
</g>
</svg>
